%TF.GenerationSoftware,KiCad,Pcbnew,7.0.7*%
%TF.CreationDate,2024-03-26T21:52:30-05:00*%
%TF.ProjectId,PMS,504d532e-6b69-4636-9164-5f7063625858,rev?*%
%TF.SameCoordinates,Original*%
%TF.FileFunction,Legend,Bot*%
%TF.FilePolarity,Positive*%
%FSLAX46Y46*%
G04 Gerber Fmt 4.6, Leading zero omitted, Abs format (unit mm)*
G04 Created by KiCad (PCBNEW 7.0.7) date 2024-03-26 21:52:30*
%MOMM*%
%LPD*%
G01*
G04 APERTURE LIST*
%ADD10C,0.150000*%
G04 APERTURE END LIST*
D10*
X152415280Y-96307690D02*
X152462900Y-96260071D01*
X152462900Y-96260071D02*
X152510519Y-96117214D01*
X152510519Y-96117214D02*
X152510519Y-96021976D01*
X152510519Y-96021976D02*
X152462900Y-95879119D01*
X152462900Y-95879119D02*
X152367661Y-95783881D01*
X152367661Y-95783881D02*
X152272423Y-95736262D01*
X152272423Y-95736262D02*
X152081947Y-95688643D01*
X152081947Y-95688643D02*
X151939090Y-95688643D01*
X151939090Y-95688643D02*
X151748614Y-95736262D01*
X151748614Y-95736262D02*
X151653376Y-95783881D01*
X151653376Y-95783881D02*
X151558138Y-95879119D01*
X151558138Y-95879119D02*
X151510519Y-96021976D01*
X151510519Y-96021976D02*
X151510519Y-96117214D01*
X151510519Y-96117214D02*
X151558138Y-96260071D01*
X151558138Y-96260071D02*
X151605757Y-96307690D01*
X152510519Y-96879119D02*
X152462900Y-96783881D01*
X152462900Y-96783881D02*
X152415280Y-96736262D01*
X152415280Y-96736262D02*
X152320042Y-96688643D01*
X152320042Y-96688643D02*
X152034328Y-96688643D01*
X152034328Y-96688643D02*
X151939090Y-96736262D01*
X151939090Y-96736262D02*
X151891471Y-96783881D01*
X151891471Y-96783881D02*
X151843852Y-96879119D01*
X151843852Y-96879119D02*
X151843852Y-97021976D01*
X151843852Y-97021976D02*
X151891471Y-97117214D01*
X151891471Y-97117214D02*
X151939090Y-97164833D01*
X151939090Y-97164833D02*
X152034328Y-97212452D01*
X152034328Y-97212452D02*
X152320042Y-97212452D01*
X152320042Y-97212452D02*
X152415280Y-97164833D01*
X152415280Y-97164833D02*
X152462900Y-97117214D01*
X152462900Y-97117214D02*
X152510519Y-97021976D01*
X152510519Y-97021976D02*
X152510519Y-96879119D01*
X151843852Y-97641024D02*
X152510519Y-97641024D01*
X151939090Y-97641024D02*
X151891471Y-97688643D01*
X151891471Y-97688643D02*
X151843852Y-97783881D01*
X151843852Y-97783881D02*
X151843852Y-97926738D01*
X151843852Y-97926738D02*
X151891471Y-98021976D01*
X151891471Y-98021976D02*
X151986709Y-98069595D01*
X151986709Y-98069595D02*
X152510519Y-98069595D01*
X151843852Y-98545786D02*
X152510519Y-98545786D01*
X151939090Y-98545786D02*
X151891471Y-98593405D01*
X151891471Y-98593405D02*
X151843852Y-98688643D01*
X151843852Y-98688643D02*
X151843852Y-98831500D01*
X151843852Y-98831500D02*
X151891471Y-98926738D01*
X151891471Y-98926738D02*
X151986709Y-98974357D01*
X151986709Y-98974357D02*
X152510519Y-98974357D01*
X152510519Y-99498167D02*
X152510519Y-99688643D01*
X152510519Y-99688643D02*
X152462900Y-99783881D01*
X152462900Y-99783881D02*
X152415280Y-99831500D01*
X152415280Y-99831500D02*
X152272423Y-99926738D01*
X152272423Y-99926738D02*
X152081947Y-99974357D01*
X152081947Y-99974357D02*
X151700995Y-99974357D01*
X151700995Y-99974357D02*
X151605757Y-99926738D01*
X151605757Y-99926738D02*
X151558138Y-99879119D01*
X151558138Y-99879119D02*
X151510519Y-99783881D01*
X151510519Y-99783881D02*
X151510519Y-99593405D01*
X151510519Y-99593405D02*
X151558138Y-99498167D01*
X151558138Y-99498167D02*
X151605757Y-99450548D01*
X151605757Y-99450548D02*
X151700995Y-99402929D01*
X151700995Y-99402929D02*
X151939090Y-99402929D01*
X151939090Y-99402929D02*
X152034328Y-99450548D01*
X152034328Y-99450548D02*
X152081947Y-99498167D01*
X152081947Y-99498167D02*
X152129566Y-99593405D01*
X152129566Y-99593405D02*
X152129566Y-99783881D01*
X152129566Y-99783881D02*
X152081947Y-99879119D01*
X152081947Y-99879119D02*
X152034328Y-99926738D01*
X152034328Y-99926738D02*
X151939090Y-99974357D01*
X155135880Y-181568690D02*
X155183500Y-181521071D01*
X155183500Y-181521071D02*
X155231119Y-181378214D01*
X155231119Y-181378214D02*
X155231119Y-181282976D01*
X155231119Y-181282976D02*
X155183500Y-181140119D01*
X155183500Y-181140119D02*
X155088261Y-181044881D01*
X155088261Y-181044881D02*
X154993023Y-180997262D01*
X154993023Y-180997262D02*
X154802547Y-180949643D01*
X154802547Y-180949643D02*
X154659690Y-180949643D01*
X154659690Y-180949643D02*
X154469214Y-180997262D01*
X154469214Y-180997262D02*
X154373976Y-181044881D01*
X154373976Y-181044881D02*
X154278738Y-181140119D01*
X154278738Y-181140119D02*
X154231119Y-181282976D01*
X154231119Y-181282976D02*
X154231119Y-181378214D01*
X154231119Y-181378214D02*
X154278738Y-181521071D01*
X154278738Y-181521071D02*
X154326357Y-181568690D01*
X155231119Y-182140119D02*
X155183500Y-182044881D01*
X155183500Y-182044881D02*
X155135880Y-181997262D01*
X155135880Y-181997262D02*
X155040642Y-181949643D01*
X155040642Y-181949643D02*
X154754928Y-181949643D01*
X154754928Y-181949643D02*
X154659690Y-181997262D01*
X154659690Y-181997262D02*
X154612071Y-182044881D01*
X154612071Y-182044881D02*
X154564452Y-182140119D01*
X154564452Y-182140119D02*
X154564452Y-182282976D01*
X154564452Y-182282976D02*
X154612071Y-182378214D01*
X154612071Y-182378214D02*
X154659690Y-182425833D01*
X154659690Y-182425833D02*
X154754928Y-182473452D01*
X154754928Y-182473452D02*
X155040642Y-182473452D01*
X155040642Y-182473452D02*
X155135880Y-182425833D01*
X155135880Y-182425833D02*
X155183500Y-182378214D01*
X155183500Y-182378214D02*
X155231119Y-182282976D01*
X155231119Y-182282976D02*
X155231119Y-182140119D01*
X154564452Y-182902024D02*
X155231119Y-182902024D01*
X154659690Y-182902024D02*
X154612071Y-182949643D01*
X154612071Y-182949643D02*
X154564452Y-183044881D01*
X154564452Y-183044881D02*
X154564452Y-183187738D01*
X154564452Y-183187738D02*
X154612071Y-183282976D01*
X154612071Y-183282976D02*
X154707309Y-183330595D01*
X154707309Y-183330595D02*
X155231119Y-183330595D01*
X154564452Y-183806786D02*
X155231119Y-183806786D01*
X154659690Y-183806786D02*
X154612071Y-183854405D01*
X154612071Y-183854405D02*
X154564452Y-183949643D01*
X154564452Y-183949643D02*
X154564452Y-184092500D01*
X154564452Y-184092500D02*
X154612071Y-184187738D01*
X154612071Y-184187738D02*
X154707309Y-184235357D01*
X154707309Y-184235357D02*
X155231119Y-184235357D01*
X155231119Y-185235357D02*
X155231119Y-184663929D01*
X155231119Y-184949643D02*
X154231119Y-184949643D01*
X154231119Y-184949643D02*
X154373976Y-184854405D01*
X154373976Y-184854405D02*
X154469214Y-184759167D01*
X154469214Y-184759167D02*
X154516833Y-184663929D01*
X142435880Y-181568690D02*
X142483500Y-181521071D01*
X142483500Y-181521071D02*
X142531119Y-181378214D01*
X142531119Y-181378214D02*
X142531119Y-181282976D01*
X142531119Y-181282976D02*
X142483500Y-181140119D01*
X142483500Y-181140119D02*
X142388261Y-181044881D01*
X142388261Y-181044881D02*
X142293023Y-180997262D01*
X142293023Y-180997262D02*
X142102547Y-180949643D01*
X142102547Y-180949643D02*
X141959690Y-180949643D01*
X141959690Y-180949643D02*
X141769214Y-180997262D01*
X141769214Y-180997262D02*
X141673976Y-181044881D01*
X141673976Y-181044881D02*
X141578738Y-181140119D01*
X141578738Y-181140119D02*
X141531119Y-181282976D01*
X141531119Y-181282976D02*
X141531119Y-181378214D01*
X141531119Y-181378214D02*
X141578738Y-181521071D01*
X141578738Y-181521071D02*
X141626357Y-181568690D01*
X142531119Y-182140119D02*
X142483500Y-182044881D01*
X142483500Y-182044881D02*
X142435880Y-181997262D01*
X142435880Y-181997262D02*
X142340642Y-181949643D01*
X142340642Y-181949643D02*
X142054928Y-181949643D01*
X142054928Y-181949643D02*
X141959690Y-181997262D01*
X141959690Y-181997262D02*
X141912071Y-182044881D01*
X141912071Y-182044881D02*
X141864452Y-182140119D01*
X141864452Y-182140119D02*
X141864452Y-182282976D01*
X141864452Y-182282976D02*
X141912071Y-182378214D01*
X141912071Y-182378214D02*
X141959690Y-182425833D01*
X141959690Y-182425833D02*
X142054928Y-182473452D01*
X142054928Y-182473452D02*
X142340642Y-182473452D01*
X142340642Y-182473452D02*
X142435880Y-182425833D01*
X142435880Y-182425833D02*
X142483500Y-182378214D01*
X142483500Y-182378214D02*
X142531119Y-182282976D01*
X142531119Y-182282976D02*
X142531119Y-182140119D01*
X141864452Y-182902024D02*
X142531119Y-182902024D01*
X141959690Y-182902024D02*
X141912071Y-182949643D01*
X141912071Y-182949643D02*
X141864452Y-183044881D01*
X141864452Y-183044881D02*
X141864452Y-183187738D01*
X141864452Y-183187738D02*
X141912071Y-183282976D01*
X141912071Y-183282976D02*
X142007309Y-183330595D01*
X142007309Y-183330595D02*
X142531119Y-183330595D01*
X141864452Y-183806786D02*
X142531119Y-183806786D01*
X141959690Y-183806786D02*
X141912071Y-183854405D01*
X141912071Y-183854405D02*
X141864452Y-183949643D01*
X141864452Y-183949643D02*
X141864452Y-184092500D01*
X141864452Y-184092500D02*
X141912071Y-184187738D01*
X141912071Y-184187738D02*
X142007309Y-184235357D01*
X142007309Y-184235357D02*
X142531119Y-184235357D01*
X141626357Y-184663929D02*
X141578738Y-184711548D01*
X141578738Y-184711548D02*
X141531119Y-184806786D01*
X141531119Y-184806786D02*
X141531119Y-185044881D01*
X141531119Y-185044881D02*
X141578738Y-185140119D01*
X141578738Y-185140119D02*
X141626357Y-185187738D01*
X141626357Y-185187738D02*
X141721595Y-185235357D01*
X141721595Y-185235357D02*
X141816833Y-185235357D01*
X141816833Y-185235357D02*
X141959690Y-185187738D01*
X141959690Y-185187738D02*
X142531119Y-184616310D01*
X142531119Y-184616310D02*
X142531119Y-185235357D01*
X190261280Y-95989999D02*
X190308900Y-95942380D01*
X190308900Y-95942380D02*
X190356519Y-95799523D01*
X190356519Y-95799523D02*
X190356519Y-95704285D01*
X190356519Y-95704285D02*
X190308900Y-95561428D01*
X190308900Y-95561428D02*
X190213661Y-95466190D01*
X190213661Y-95466190D02*
X190118423Y-95418571D01*
X190118423Y-95418571D02*
X189927947Y-95370952D01*
X189927947Y-95370952D02*
X189785090Y-95370952D01*
X189785090Y-95370952D02*
X189594614Y-95418571D01*
X189594614Y-95418571D02*
X189499376Y-95466190D01*
X189499376Y-95466190D02*
X189404138Y-95561428D01*
X189404138Y-95561428D02*
X189356519Y-95704285D01*
X189356519Y-95704285D02*
X189356519Y-95799523D01*
X189356519Y-95799523D02*
X189404138Y-95942380D01*
X189404138Y-95942380D02*
X189451757Y-95989999D01*
X190356519Y-96561428D02*
X190308900Y-96466190D01*
X190308900Y-96466190D02*
X190261280Y-96418571D01*
X190261280Y-96418571D02*
X190166042Y-96370952D01*
X190166042Y-96370952D02*
X189880328Y-96370952D01*
X189880328Y-96370952D02*
X189785090Y-96418571D01*
X189785090Y-96418571D02*
X189737471Y-96466190D01*
X189737471Y-96466190D02*
X189689852Y-96561428D01*
X189689852Y-96561428D02*
X189689852Y-96704285D01*
X189689852Y-96704285D02*
X189737471Y-96799523D01*
X189737471Y-96799523D02*
X189785090Y-96847142D01*
X189785090Y-96847142D02*
X189880328Y-96894761D01*
X189880328Y-96894761D02*
X190166042Y-96894761D01*
X190166042Y-96894761D02*
X190261280Y-96847142D01*
X190261280Y-96847142D02*
X190308900Y-96799523D01*
X190308900Y-96799523D02*
X190356519Y-96704285D01*
X190356519Y-96704285D02*
X190356519Y-96561428D01*
X189689852Y-97323333D02*
X190356519Y-97323333D01*
X189785090Y-97323333D02*
X189737471Y-97370952D01*
X189737471Y-97370952D02*
X189689852Y-97466190D01*
X189689852Y-97466190D02*
X189689852Y-97609047D01*
X189689852Y-97609047D02*
X189737471Y-97704285D01*
X189737471Y-97704285D02*
X189832709Y-97751904D01*
X189832709Y-97751904D02*
X190356519Y-97751904D01*
X189689852Y-98228095D02*
X190356519Y-98228095D01*
X189785090Y-98228095D02*
X189737471Y-98275714D01*
X189737471Y-98275714D02*
X189689852Y-98370952D01*
X189689852Y-98370952D02*
X189689852Y-98513809D01*
X189689852Y-98513809D02*
X189737471Y-98609047D01*
X189737471Y-98609047D02*
X189832709Y-98656666D01*
X189832709Y-98656666D02*
X190356519Y-98656666D01*
X190356519Y-99656666D02*
X190356519Y-99085238D01*
X190356519Y-99370952D02*
X189356519Y-99370952D01*
X189356519Y-99370952D02*
X189499376Y-99275714D01*
X189499376Y-99275714D02*
X189594614Y-99180476D01*
X189594614Y-99180476D02*
X189642233Y-99085238D01*
X189356519Y-99990000D02*
X189356519Y-100609047D01*
X189356519Y-100609047D02*
X189737471Y-100275714D01*
X189737471Y-100275714D02*
X189737471Y-100418571D01*
X189737471Y-100418571D02*
X189785090Y-100513809D01*
X189785090Y-100513809D02*
X189832709Y-100561428D01*
X189832709Y-100561428D02*
X189927947Y-100609047D01*
X189927947Y-100609047D02*
X190166042Y-100609047D01*
X190166042Y-100609047D02*
X190261280Y-100561428D01*
X190261280Y-100561428D02*
X190308900Y-100513809D01*
X190308900Y-100513809D02*
X190356519Y-100418571D01*
X190356519Y-100418571D02*
X190356519Y-100132857D01*
X190356519Y-100132857D02*
X190308900Y-100037619D01*
X190308900Y-100037619D02*
X190261280Y-99990000D01*
X117035880Y-181568690D02*
X117083500Y-181521071D01*
X117083500Y-181521071D02*
X117131119Y-181378214D01*
X117131119Y-181378214D02*
X117131119Y-181282976D01*
X117131119Y-181282976D02*
X117083500Y-181140119D01*
X117083500Y-181140119D02*
X116988261Y-181044881D01*
X116988261Y-181044881D02*
X116893023Y-180997262D01*
X116893023Y-180997262D02*
X116702547Y-180949643D01*
X116702547Y-180949643D02*
X116559690Y-180949643D01*
X116559690Y-180949643D02*
X116369214Y-180997262D01*
X116369214Y-180997262D02*
X116273976Y-181044881D01*
X116273976Y-181044881D02*
X116178738Y-181140119D01*
X116178738Y-181140119D02*
X116131119Y-181282976D01*
X116131119Y-181282976D02*
X116131119Y-181378214D01*
X116131119Y-181378214D02*
X116178738Y-181521071D01*
X116178738Y-181521071D02*
X116226357Y-181568690D01*
X117131119Y-182140119D02*
X117083500Y-182044881D01*
X117083500Y-182044881D02*
X117035880Y-181997262D01*
X117035880Y-181997262D02*
X116940642Y-181949643D01*
X116940642Y-181949643D02*
X116654928Y-181949643D01*
X116654928Y-181949643D02*
X116559690Y-181997262D01*
X116559690Y-181997262D02*
X116512071Y-182044881D01*
X116512071Y-182044881D02*
X116464452Y-182140119D01*
X116464452Y-182140119D02*
X116464452Y-182282976D01*
X116464452Y-182282976D02*
X116512071Y-182378214D01*
X116512071Y-182378214D02*
X116559690Y-182425833D01*
X116559690Y-182425833D02*
X116654928Y-182473452D01*
X116654928Y-182473452D02*
X116940642Y-182473452D01*
X116940642Y-182473452D02*
X117035880Y-182425833D01*
X117035880Y-182425833D02*
X117083500Y-182378214D01*
X117083500Y-182378214D02*
X117131119Y-182282976D01*
X117131119Y-182282976D02*
X117131119Y-182140119D01*
X116464452Y-182902024D02*
X117131119Y-182902024D01*
X116559690Y-182902024D02*
X116512071Y-182949643D01*
X116512071Y-182949643D02*
X116464452Y-183044881D01*
X116464452Y-183044881D02*
X116464452Y-183187738D01*
X116464452Y-183187738D02*
X116512071Y-183282976D01*
X116512071Y-183282976D02*
X116607309Y-183330595D01*
X116607309Y-183330595D02*
X117131119Y-183330595D01*
X116464452Y-183806786D02*
X117131119Y-183806786D01*
X116559690Y-183806786D02*
X116512071Y-183854405D01*
X116512071Y-183854405D02*
X116464452Y-183949643D01*
X116464452Y-183949643D02*
X116464452Y-184092500D01*
X116464452Y-184092500D02*
X116512071Y-184187738D01*
X116512071Y-184187738D02*
X116607309Y-184235357D01*
X116607309Y-184235357D02*
X117131119Y-184235357D01*
X116464452Y-185140119D02*
X117131119Y-185140119D01*
X116083500Y-184902024D02*
X116797785Y-184663929D01*
X116797785Y-184663929D02*
X116797785Y-185282976D01*
X177561280Y-95989999D02*
X177608900Y-95942380D01*
X177608900Y-95942380D02*
X177656519Y-95799523D01*
X177656519Y-95799523D02*
X177656519Y-95704285D01*
X177656519Y-95704285D02*
X177608900Y-95561428D01*
X177608900Y-95561428D02*
X177513661Y-95466190D01*
X177513661Y-95466190D02*
X177418423Y-95418571D01*
X177418423Y-95418571D02*
X177227947Y-95370952D01*
X177227947Y-95370952D02*
X177085090Y-95370952D01*
X177085090Y-95370952D02*
X176894614Y-95418571D01*
X176894614Y-95418571D02*
X176799376Y-95466190D01*
X176799376Y-95466190D02*
X176704138Y-95561428D01*
X176704138Y-95561428D02*
X176656519Y-95704285D01*
X176656519Y-95704285D02*
X176656519Y-95799523D01*
X176656519Y-95799523D02*
X176704138Y-95942380D01*
X176704138Y-95942380D02*
X176751757Y-95989999D01*
X177656519Y-96561428D02*
X177608900Y-96466190D01*
X177608900Y-96466190D02*
X177561280Y-96418571D01*
X177561280Y-96418571D02*
X177466042Y-96370952D01*
X177466042Y-96370952D02*
X177180328Y-96370952D01*
X177180328Y-96370952D02*
X177085090Y-96418571D01*
X177085090Y-96418571D02*
X177037471Y-96466190D01*
X177037471Y-96466190D02*
X176989852Y-96561428D01*
X176989852Y-96561428D02*
X176989852Y-96704285D01*
X176989852Y-96704285D02*
X177037471Y-96799523D01*
X177037471Y-96799523D02*
X177085090Y-96847142D01*
X177085090Y-96847142D02*
X177180328Y-96894761D01*
X177180328Y-96894761D02*
X177466042Y-96894761D01*
X177466042Y-96894761D02*
X177561280Y-96847142D01*
X177561280Y-96847142D02*
X177608900Y-96799523D01*
X177608900Y-96799523D02*
X177656519Y-96704285D01*
X177656519Y-96704285D02*
X177656519Y-96561428D01*
X176989852Y-97323333D02*
X177656519Y-97323333D01*
X177085090Y-97323333D02*
X177037471Y-97370952D01*
X177037471Y-97370952D02*
X176989852Y-97466190D01*
X176989852Y-97466190D02*
X176989852Y-97609047D01*
X176989852Y-97609047D02*
X177037471Y-97704285D01*
X177037471Y-97704285D02*
X177132709Y-97751904D01*
X177132709Y-97751904D02*
X177656519Y-97751904D01*
X176989852Y-98228095D02*
X177656519Y-98228095D01*
X177085090Y-98228095D02*
X177037471Y-98275714D01*
X177037471Y-98275714D02*
X176989852Y-98370952D01*
X176989852Y-98370952D02*
X176989852Y-98513809D01*
X176989852Y-98513809D02*
X177037471Y-98609047D01*
X177037471Y-98609047D02*
X177132709Y-98656666D01*
X177132709Y-98656666D02*
X177656519Y-98656666D01*
X177656519Y-99656666D02*
X177656519Y-99085238D01*
X177656519Y-99370952D02*
X176656519Y-99370952D01*
X176656519Y-99370952D02*
X176799376Y-99275714D01*
X176799376Y-99275714D02*
X176894614Y-99180476D01*
X176894614Y-99180476D02*
X176942233Y-99085238D01*
X176751757Y-100037619D02*
X176704138Y-100085238D01*
X176704138Y-100085238D02*
X176656519Y-100180476D01*
X176656519Y-100180476D02*
X176656519Y-100418571D01*
X176656519Y-100418571D02*
X176704138Y-100513809D01*
X176704138Y-100513809D02*
X176751757Y-100561428D01*
X176751757Y-100561428D02*
X176846995Y-100609047D01*
X176846995Y-100609047D02*
X176942233Y-100609047D01*
X176942233Y-100609047D02*
X177085090Y-100561428D01*
X177085090Y-100561428D02*
X177656519Y-99990000D01*
X177656519Y-99990000D02*
X177656519Y-100609047D01*
X212961580Y-180828199D02*
X213009200Y-180780580D01*
X213009200Y-180780580D02*
X213056819Y-180637723D01*
X213056819Y-180637723D02*
X213056819Y-180542485D01*
X213056819Y-180542485D02*
X213009200Y-180399628D01*
X213009200Y-180399628D02*
X212913961Y-180304390D01*
X212913961Y-180304390D02*
X212818723Y-180256771D01*
X212818723Y-180256771D02*
X212628247Y-180209152D01*
X212628247Y-180209152D02*
X212485390Y-180209152D01*
X212485390Y-180209152D02*
X212294914Y-180256771D01*
X212294914Y-180256771D02*
X212199676Y-180304390D01*
X212199676Y-180304390D02*
X212104438Y-180399628D01*
X212104438Y-180399628D02*
X212056819Y-180542485D01*
X212056819Y-180542485D02*
X212056819Y-180637723D01*
X212056819Y-180637723D02*
X212104438Y-180780580D01*
X212104438Y-180780580D02*
X212152057Y-180828199D01*
X213056819Y-181399628D02*
X213009200Y-181304390D01*
X213009200Y-181304390D02*
X212961580Y-181256771D01*
X212961580Y-181256771D02*
X212866342Y-181209152D01*
X212866342Y-181209152D02*
X212580628Y-181209152D01*
X212580628Y-181209152D02*
X212485390Y-181256771D01*
X212485390Y-181256771D02*
X212437771Y-181304390D01*
X212437771Y-181304390D02*
X212390152Y-181399628D01*
X212390152Y-181399628D02*
X212390152Y-181542485D01*
X212390152Y-181542485D02*
X212437771Y-181637723D01*
X212437771Y-181637723D02*
X212485390Y-181685342D01*
X212485390Y-181685342D02*
X212580628Y-181732961D01*
X212580628Y-181732961D02*
X212866342Y-181732961D01*
X212866342Y-181732961D02*
X212961580Y-181685342D01*
X212961580Y-181685342D02*
X213009200Y-181637723D01*
X213009200Y-181637723D02*
X213056819Y-181542485D01*
X213056819Y-181542485D02*
X213056819Y-181399628D01*
X212390152Y-182161533D02*
X213056819Y-182161533D01*
X212485390Y-182161533D02*
X212437771Y-182209152D01*
X212437771Y-182209152D02*
X212390152Y-182304390D01*
X212390152Y-182304390D02*
X212390152Y-182447247D01*
X212390152Y-182447247D02*
X212437771Y-182542485D01*
X212437771Y-182542485D02*
X212533009Y-182590104D01*
X212533009Y-182590104D02*
X213056819Y-182590104D01*
X212390152Y-183066295D02*
X213056819Y-183066295D01*
X212485390Y-183066295D02*
X212437771Y-183113914D01*
X212437771Y-183113914D02*
X212390152Y-183209152D01*
X212390152Y-183209152D02*
X212390152Y-183352009D01*
X212390152Y-183352009D02*
X212437771Y-183447247D01*
X212437771Y-183447247D02*
X212533009Y-183494866D01*
X212533009Y-183494866D02*
X213056819Y-183494866D01*
X213056819Y-184494866D02*
X213056819Y-183923438D01*
X213056819Y-184209152D02*
X212056819Y-184209152D01*
X212056819Y-184209152D02*
X212199676Y-184113914D01*
X212199676Y-184113914D02*
X212294914Y-184018676D01*
X212294914Y-184018676D02*
X212342533Y-183923438D01*
X212056819Y-185352009D02*
X212056819Y-185161533D01*
X212056819Y-185161533D02*
X212104438Y-185066295D01*
X212104438Y-185066295D02*
X212152057Y-185018676D01*
X212152057Y-185018676D02*
X212294914Y-184923438D01*
X212294914Y-184923438D02*
X212485390Y-184875819D01*
X212485390Y-184875819D02*
X212866342Y-184875819D01*
X212866342Y-184875819D02*
X212961580Y-184923438D01*
X212961580Y-184923438D02*
X213009200Y-184971057D01*
X213009200Y-184971057D02*
X213056819Y-185066295D01*
X213056819Y-185066295D02*
X213056819Y-185256771D01*
X213056819Y-185256771D02*
X213009200Y-185352009D01*
X213009200Y-185352009D02*
X212961580Y-185399628D01*
X212961580Y-185399628D02*
X212866342Y-185447247D01*
X212866342Y-185447247D02*
X212628247Y-185447247D01*
X212628247Y-185447247D02*
X212533009Y-185399628D01*
X212533009Y-185399628D02*
X212485390Y-185352009D01*
X212485390Y-185352009D02*
X212437771Y-185256771D01*
X212437771Y-185256771D02*
X212437771Y-185066295D01*
X212437771Y-185066295D02*
X212485390Y-184971057D01*
X212485390Y-184971057D02*
X212533009Y-184923438D01*
X212533009Y-184923438D02*
X212628247Y-184875819D01*
X78935880Y-181568690D02*
X78983500Y-181521071D01*
X78983500Y-181521071D02*
X79031119Y-181378214D01*
X79031119Y-181378214D02*
X79031119Y-181282976D01*
X79031119Y-181282976D02*
X78983500Y-181140119D01*
X78983500Y-181140119D02*
X78888261Y-181044881D01*
X78888261Y-181044881D02*
X78793023Y-180997262D01*
X78793023Y-180997262D02*
X78602547Y-180949643D01*
X78602547Y-180949643D02*
X78459690Y-180949643D01*
X78459690Y-180949643D02*
X78269214Y-180997262D01*
X78269214Y-180997262D02*
X78173976Y-181044881D01*
X78173976Y-181044881D02*
X78078738Y-181140119D01*
X78078738Y-181140119D02*
X78031119Y-181282976D01*
X78031119Y-181282976D02*
X78031119Y-181378214D01*
X78031119Y-181378214D02*
X78078738Y-181521071D01*
X78078738Y-181521071D02*
X78126357Y-181568690D01*
X79031119Y-182140119D02*
X78983500Y-182044881D01*
X78983500Y-182044881D02*
X78935880Y-181997262D01*
X78935880Y-181997262D02*
X78840642Y-181949643D01*
X78840642Y-181949643D02*
X78554928Y-181949643D01*
X78554928Y-181949643D02*
X78459690Y-181997262D01*
X78459690Y-181997262D02*
X78412071Y-182044881D01*
X78412071Y-182044881D02*
X78364452Y-182140119D01*
X78364452Y-182140119D02*
X78364452Y-182282976D01*
X78364452Y-182282976D02*
X78412071Y-182378214D01*
X78412071Y-182378214D02*
X78459690Y-182425833D01*
X78459690Y-182425833D02*
X78554928Y-182473452D01*
X78554928Y-182473452D02*
X78840642Y-182473452D01*
X78840642Y-182473452D02*
X78935880Y-182425833D01*
X78935880Y-182425833D02*
X78983500Y-182378214D01*
X78983500Y-182378214D02*
X79031119Y-182282976D01*
X79031119Y-182282976D02*
X79031119Y-182140119D01*
X78364452Y-182902024D02*
X79031119Y-182902024D01*
X78459690Y-182902024D02*
X78412071Y-182949643D01*
X78412071Y-182949643D02*
X78364452Y-183044881D01*
X78364452Y-183044881D02*
X78364452Y-183187738D01*
X78364452Y-183187738D02*
X78412071Y-183282976D01*
X78412071Y-183282976D02*
X78507309Y-183330595D01*
X78507309Y-183330595D02*
X79031119Y-183330595D01*
X78364452Y-183806786D02*
X79031119Y-183806786D01*
X78459690Y-183806786D02*
X78412071Y-183854405D01*
X78412071Y-183854405D02*
X78364452Y-183949643D01*
X78364452Y-183949643D02*
X78364452Y-184092500D01*
X78364452Y-184092500D02*
X78412071Y-184187738D01*
X78412071Y-184187738D02*
X78507309Y-184235357D01*
X78507309Y-184235357D02*
X79031119Y-184235357D01*
X78031119Y-185140119D02*
X78031119Y-184949643D01*
X78031119Y-184949643D02*
X78078738Y-184854405D01*
X78078738Y-184854405D02*
X78126357Y-184806786D01*
X78126357Y-184806786D02*
X78269214Y-184711548D01*
X78269214Y-184711548D02*
X78459690Y-184663929D01*
X78459690Y-184663929D02*
X78840642Y-184663929D01*
X78840642Y-184663929D02*
X78935880Y-184711548D01*
X78935880Y-184711548D02*
X78983500Y-184759167D01*
X78983500Y-184759167D02*
X79031119Y-184854405D01*
X79031119Y-184854405D02*
X79031119Y-185044881D01*
X79031119Y-185044881D02*
X78983500Y-185140119D01*
X78983500Y-185140119D02*
X78935880Y-185187738D01*
X78935880Y-185187738D02*
X78840642Y-185235357D01*
X78840642Y-185235357D02*
X78602547Y-185235357D01*
X78602547Y-185235357D02*
X78507309Y-185187738D01*
X78507309Y-185187738D02*
X78459690Y-185140119D01*
X78459690Y-185140119D02*
X78412071Y-185044881D01*
X78412071Y-185044881D02*
X78412071Y-184854405D01*
X78412071Y-184854405D02*
X78459690Y-184759167D01*
X78459690Y-184759167D02*
X78507309Y-184711548D01*
X78507309Y-184711548D02*
X78602547Y-184663929D01*
X215661280Y-95989999D02*
X215708900Y-95942380D01*
X215708900Y-95942380D02*
X215756519Y-95799523D01*
X215756519Y-95799523D02*
X215756519Y-95704285D01*
X215756519Y-95704285D02*
X215708900Y-95561428D01*
X215708900Y-95561428D02*
X215613661Y-95466190D01*
X215613661Y-95466190D02*
X215518423Y-95418571D01*
X215518423Y-95418571D02*
X215327947Y-95370952D01*
X215327947Y-95370952D02*
X215185090Y-95370952D01*
X215185090Y-95370952D02*
X214994614Y-95418571D01*
X214994614Y-95418571D02*
X214899376Y-95466190D01*
X214899376Y-95466190D02*
X214804138Y-95561428D01*
X214804138Y-95561428D02*
X214756519Y-95704285D01*
X214756519Y-95704285D02*
X214756519Y-95799523D01*
X214756519Y-95799523D02*
X214804138Y-95942380D01*
X214804138Y-95942380D02*
X214851757Y-95989999D01*
X215756519Y-96561428D02*
X215708900Y-96466190D01*
X215708900Y-96466190D02*
X215661280Y-96418571D01*
X215661280Y-96418571D02*
X215566042Y-96370952D01*
X215566042Y-96370952D02*
X215280328Y-96370952D01*
X215280328Y-96370952D02*
X215185090Y-96418571D01*
X215185090Y-96418571D02*
X215137471Y-96466190D01*
X215137471Y-96466190D02*
X215089852Y-96561428D01*
X215089852Y-96561428D02*
X215089852Y-96704285D01*
X215089852Y-96704285D02*
X215137471Y-96799523D01*
X215137471Y-96799523D02*
X215185090Y-96847142D01*
X215185090Y-96847142D02*
X215280328Y-96894761D01*
X215280328Y-96894761D02*
X215566042Y-96894761D01*
X215566042Y-96894761D02*
X215661280Y-96847142D01*
X215661280Y-96847142D02*
X215708900Y-96799523D01*
X215708900Y-96799523D02*
X215756519Y-96704285D01*
X215756519Y-96704285D02*
X215756519Y-96561428D01*
X215089852Y-97323333D02*
X215756519Y-97323333D01*
X215185090Y-97323333D02*
X215137471Y-97370952D01*
X215137471Y-97370952D02*
X215089852Y-97466190D01*
X215089852Y-97466190D02*
X215089852Y-97609047D01*
X215089852Y-97609047D02*
X215137471Y-97704285D01*
X215137471Y-97704285D02*
X215232709Y-97751904D01*
X215232709Y-97751904D02*
X215756519Y-97751904D01*
X215089852Y-98228095D02*
X215756519Y-98228095D01*
X215185090Y-98228095D02*
X215137471Y-98275714D01*
X215137471Y-98275714D02*
X215089852Y-98370952D01*
X215089852Y-98370952D02*
X215089852Y-98513809D01*
X215089852Y-98513809D02*
X215137471Y-98609047D01*
X215137471Y-98609047D02*
X215232709Y-98656666D01*
X215232709Y-98656666D02*
X215756519Y-98656666D01*
X215756519Y-99656666D02*
X215756519Y-99085238D01*
X215756519Y-99370952D02*
X214756519Y-99370952D01*
X214756519Y-99370952D02*
X214899376Y-99275714D01*
X214899376Y-99275714D02*
X214994614Y-99180476D01*
X214994614Y-99180476D02*
X215042233Y-99085238D01*
X214756519Y-100561428D02*
X214756519Y-100085238D01*
X214756519Y-100085238D02*
X215232709Y-100037619D01*
X215232709Y-100037619D02*
X215185090Y-100085238D01*
X215185090Y-100085238D02*
X215137471Y-100180476D01*
X215137471Y-100180476D02*
X215137471Y-100418571D01*
X215137471Y-100418571D02*
X215185090Y-100513809D01*
X215185090Y-100513809D02*
X215232709Y-100561428D01*
X215232709Y-100561428D02*
X215327947Y-100609047D01*
X215327947Y-100609047D02*
X215566042Y-100609047D01*
X215566042Y-100609047D02*
X215661280Y-100561428D01*
X215661280Y-100561428D02*
X215708900Y-100513809D01*
X215708900Y-100513809D02*
X215756519Y-100418571D01*
X215756519Y-100418571D02*
X215756519Y-100180476D01*
X215756519Y-100180476D02*
X215708900Y-100085238D01*
X215708900Y-100085238D02*
X215661280Y-100037619D01*
X104335880Y-181568690D02*
X104383500Y-181521071D01*
X104383500Y-181521071D02*
X104431119Y-181378214D01*
X104431119Y-181378214D02*
X104431119Y-181282976D01*
X104431119Y-181282976D02*
X104383500Y-181140119D01*
X104383500Y-181140119D02*
X104288261Y-181044881D01*
X104288261Y-181044881D02*
X104193023Y-180997262D01*
X104193023Y-180997262D02*
X104002547Y-180949643D01*
X104002547Y-180949643D02*
X103859690Y-180949643D01*
X103859690Y-180949643D02*
X103669214Y-180997262D01*
X103669214Y-180997262D02*
X103573976Y-181044881D01*
X103573976Y-181044881D02*
X103478738Y-181140119D01*
X103478738Y-181140119D02*
X103431119Y-181282976D01*
X103431119Y-181282976D02*
X103431119Y-181378214D01*
X103431119Y-181378214D02*
X103478738Y-181521071D01*
X103478738Y-181521071D02*
X103526357Y-181568690D01*
X104431119Y-182140119D02*
X104383500Y-182044881D01*
X104383500Y-182044881D02*
X104335880Y-181997262D01*
X104335880Y-181997262D02*
X104240642Y-181949643D01*
X104240642Y-181949643D02*
X103954928Y-181949643D01*
X103954928Y-181949643D02*
X103859690Y-181997262D01*
X103859690Y-181997262D02*
X103812071Y-182044881D01*
X103812071Y-182044881D02*
X103764452Y-182140119D01*
X103764452Y-182140119D02*
X103764452Y-182282976D01*
X103764452Y-182282976D02*
X103812071Y-182378214D01*
X103812071Y-182378214D02*
X103859690Y-182425833D01*
X103859690Y-182425833D02*
X103954928Y-182473452D01*
X103954928Y-182473452D02*
X104240642Y-182473452D01*
X104240642Y-182473452D02*
X104335880Y-182425833D01*
X104335880Y-182425833D02*
X104383500Y-182378214D01*
X104383500Y-182378214D02*
X104431119Y-182282976D01*
X104431119Y-182282976D02*
X104431119Y-182140119D01*
X103764452Y-182902024D02*
X104431119Y-182902024D01*
X103859690Y-182902024D02*
X103812071Y-182949643D01*
X103812071Y-182949643D02*
X103764452Y-183044881D01*
X103764452Y-183044881D02*
X103764452Y-183187738D01*
X103764452Y-183187738D02*
X103812071Y-183282976D01*
X103812071Y-183282976D02*
X103907309Y-183330595D01*
X103907309Y-183330595D02*
X104431119Y-183330595D01*
X103764452Y-183806786D02*
X104431119Y-183806786D01*
X103859690Y-183806786D02*
X103812071Y-183854405D01*
X103812071Y-183854405D02*
X103764452Y-183949643D01*
X103764452Y-183949643D02*
X103764452Y-184092500D01*
X103764452Y-184092500D02*
X103812071Y-184187738D01*
X103812071Y-184187738D02*
X103907309Y-184235357D01*
X103907309Y-184235357D02*
X104431119Y-184235357D01*
X103431119Y-185187738D02*
X103431119Y-184711548D01*
X103431119Y-184711548D02*
X103907309Y-184663929D01*
X103907309Y-184663929D02*
X103859690Y-184711548D01*
X103859690Y-184711548D02*
X103812071Y-184806786D01*
X103812071Y-184806786D02*
X103812071Y-185044881D01*
X103812071Y-185044881D02*
X103859690Y-185140119D01*
X103859690Y-185140119D02*
X103907309Y-185187738D01*
X103907309Y-185187738D02*
X104002547Y-185235357D01*
X104002547Y-185235357D02*
X104240642Y-185235357D01*
X104240642Y-185235357D02*
X104335880Y-185187738D01*
X104335880Y-185187738D02*
X104383500Y-185140119D01*
X104383500Y-185140119D02*
X104431119Y-185044881D01*
X104431119Y-185044881D02*
X104431119Y-184806786D01*
X104431119Y-184806786D02*
X104383500Y-184711548D01*
X104383500Y-184711548D02*
X104335880Y-184663929D01*
X81575309Y-134053880D02*
X81622928Y-134101500D01*
X81622928Y-134101500D02*
X81765785Y-134149119D01*
X81765785Y-134149119D02*
X81861023Y-134149119D01*
X81861023Y-134149119D02*
X82003880Y-134101500D01*
X82003880Y-134101500D02*
X82099118Y-134006261D01*
X82099118Y-134006261D02*
X82146737Y-133911023D01*
X82146737Y-133911023D02*
X82194356Y-133720547D01*
X82194356Y-133720547D02*
X82194356Y-133577690D01*
X82194356Y-133577690D02*
X82146737Y-133387214D01*
X82146737Y-133387214D02*
X82099118Y-133291976D01*
X82099118Y-133291976D02*
X82003880Y-133196738D01*
X82003880Y-133196738D02*
X81861023Y-133149119D01*
X81861023Y-133149119D02*
X81765785Y-133149119D01*
X81765785Y-133149119D02*
X81622928Y-133196738D01*
X81622928Y-133196738D02*
X81575309Y-133244357D01*
X81003880Y-134149119D02*
X81099118Y-134101500D01*
X81099118Y-134101500D02*
X81146737Y-134053880D01*
X81146737Y-134053880D02*
X81194356Y-133958642D01*
X81194356Y-133958642D02*
X81194356Y-133672928D01*
X81194356Y-133672928D02*
X81146737Y-133577690D01*
X81146737Y-133577690D02*
X81099118Y-133530071D01*
X81099118Y-133530071D02*
X81003880Y-133482452D01*
X81003880Y-133482452D02*
X80861023Y-133482452D01*
X80861023Y-133482452D02*
X80765785Y-133530071D01*
X80765785Y-133530071D02*
X80718166Y-133577690D01*
X80718166Y-133577690D02*
X80670547Y-133672928D01*
X80670547Y-133672928D02*
X80670547Y-133958642D01*
X80670547Y-133958642D02*
X80718166Y-134053880D01*
X80718166Y-134053880D02*
X80765785Y-134101500D01*
X80765785Y-134101500D02*
X80861023Y-134149119D01*
X80861023Y-134149119D02*
X81003880Y-134149119D01*
X80241975Y-133482452D02*
X80241975Y-134149119D01*
X80241975Y-133577690D02*
X80194356Y-133530071D01*
X80194356Y-133530071D02*
X80099118Y-133482452D01*
X80099118Y-133482452D02*
X79956261Y-133482452D01*
X79956261Y-133482452D02*
X79861023Y-133530071D01*
X79861023Y-133530071D02*
X79813404Y-133625309D01*
X79813404Y-133625309D02*
X79813404Y-134149119D01*
X79337213Y-133482452D02*
X79337213Y-134149119D01*
X79337213Y-133577690D02*
X79289594Y-133530071D01*
X79289594Y-133530071D02*
X79194356Y-133482452D01*
X79194356Y-133482452D02*
X79051499Y-133482452D01*
X79051499Y-133482452D02*
X78956261Y-133530071D01*
X78956261Y-133530071D02*
X78908642Y-133625309D01*
X78908642Y-133625309D02*
X78908642Y-134149119D01*
X78289594Y-133577690D02*
X78384832Y-133530071D01*
X78384832Y-133530071D02*
X78432451Y-133482452D01*
X78432451Y-133482452D02*
X78480070Y-133387214D01*
X78480070Y-133387214D02*
X78480070Y-133339595D01*
X78480070Y-133339595D02*
X78432451Y-133244357D01*
X78432451Y-133244357D02*
X78384832Y-133196738D01*
X78384832Y-133196738D02*
X78289594Y-133149119D01*
X78289594Y-133149119D02*
X78099118Y-133149119D01*
X78099118Y-133149119D02*
X78003880Y-133196738D01*
X78003880Y-133196738D02*
X77956261Y-133244357D01*
X77956261Y-133244357D02*
X77908642Y-133339595D01*
X77908642Y-133339595D02*
X77908642Y-133387214D01*
X77908642Y-133387214D02*
X77956261Y-133482452D01*
X77956261Y-133482452D02*
X78003880Y-133530071D01*
X78003880Y-133530071D02*
X78099118Y-133577690D01*
X78099118Y-133577690D02*
X78289594Y-133577690D01*
X78289594Y-133577690D02*
X78384832Y-133625309D01*
X78384832Y-133625309D02*
X78432451Y-133672928D01*
X78432451Y-133672928D02*
X78480070Y-133768166D01*
X78480070Y-133768166D02*
X78480070Y-133958642D01*
X78480070Y-133958642D02*
X78432451Y-134053880D01*
X78432451Y-134053880D02*
X78384832Y-134101500D01*
X78384832Y-134101500D02*
X78289594Y-134149119D01*
X78289594Y-134149119D02*
X78099118Y-134149119D01*
X78099118Y-134149119D02*
X78003880Y-134101500D01*
X78003880Y-134101500D02*
X77956261Y-134053880D01*
X77956261Y-134053880D02*
X77908642Y-133958642D01*
X77908642Y-133958642D02*
X77908642Y-133768166D01*
X77908642Y-133768166D02*
X77956261Y-133672928D01*
X77956261Y-133672928D02*
X78003880Y-133625309D01*
X78003880Y-133625309D02*
X78099118Y-133577690D01*
X129735880Y-181568690D02*
X129783500Y-181521071D01*
X129783500Y-181521071D02*
X129831119Y-181378214D01*
X129831119Y-181378214D02*
X129831119Y-181282976D01*
X129831119Y-181282976D02*
X129783500Y-181140119D01*
X129783500Y-181140119D02*
X129688261Y-181044881D01*
X129688261Y-181044881D02*
X129593023Y-180997262D01*
X129593023Y-180997262D02*
X129402547Y-180949643D01*
X129402547Y-180949643D02*
X129259690Y-180949643D01*
X129259690Y-180949643D02*
X129069214Y-180997262D01*
X129069214Y-180997262D02*
X128973976Y-181044881D01*
X128973976Y-181044881D02*
X128878738Y-181140119D01*
X128878738Y-181140119D02*
X128831119Y-181282976D01*
X128831119Y-181282976D02*
X128831119Y-181378214D01*
X128831119Y-181378214D02*
X128878738Y-181521071D01*
X128878738Y-181521071D02*
X128926357Y-181568690D01*
X129831119Y-182140119D02*
X129783500Y-182044881D01*
X129783500Y-182044881D02*
X129735880Y-181997262D01*
X129735880Y-181997262D02*
X129640642Y-181949643D01*
X129640642Y-181949643D02*
X129354928Y-181949643D01*
X129354928Y-181949643D02*
X129259690Y-181997262D01*
X129259690Y-181997262D02*
X129212071Y-182044881D01*
X129212071Y-182044881D02*
X129164452Y-182140119D01*
X129164452Y-182140119D02*
X129164452Y-182282976D01*
X129164452Y-182282976D02*
X129212071Y-182378214D01*
X129212071Y-182378214D02*
X129259690Y-182425833D01*
X129259690Y-182425833D02*
X129354928Y-182473452D01*
X129354928Y-182473452D02*
X129640642Y-182473452D01*
X129640642Y-182473452D02*
X129735880Y-182425833D01*
X129735880Y-182425833D02*
X129783500Y-182378214D01*
X129783500Y-182378214D02*
X129831119Y-182282976D01*
X129831119Y-182282976D02*
X129831119Y-182140119D01*
X129164452Y-182902024D02*
X129831119Y-182902024D01*
X129259690Y-182902024D02*
X129212071Y-182949643D01*
X129212071Y-182949643D02*
X129164452Y-183044881D01*
X129164452Y-183044881D02*
X129164452Y-183187738D01*
X129164452Y-183187738D02*
X129212071Y-183282976D01*
X129212071Y-183282976D02*
X129307309Y-183330595D01*
X129307309Y-183330595D02*
X129831119Y-183330595D01*
X129164452Y-183806786D02*
X129831119Y-183806786D01*
X129259690Y-183806786D02*
X129212071Y-183854405D01*
X129212071Y-183854405D02*
X129164452Y-183949643D01*
X129164452Y-183949643D02*
X129164452Y-184092500D01*
X129164452Y-184092500D02*
X129212071Y-184187738D01*
X129212071Y-184187738D02*
X129307309Y-184235357D01*
X129307309Y-184235357D02*
X129831119Y-184235357D01*
X128831119Y-184616310D02*
X128831119Y-185235357D01*
X128831119Y-185235357D02*
X129212071Y-184902024D01*
X129212071Y-184902024D02*
X129212071Y-185044881D01*
X129212071Y-185044881D02*
X129259690Y-185140119D01*
X129259690Y-185140119D02*
X129307309Y-185187738D01*
X129307309Y-185187738D02*
X129402547Y-185235357D01*
X129402547Y-185235357D02*
X129640642Y-185235357D01*
X129640642Y-185235357D02*
X129735880Y-185187738D01*
X129735880Y-185187738D02*
X129783500Y-185140119D01*
X129783500Y-185140119D02*
X129831119Y-185044881D01*
X129831119Y-185044881D02*
X129831119Y-184759167D01*
X129831119Y-184759167D02*
X129783500Y-184663929D01*
X129783500Y-184663929D02*
X129735880Y-184616310D01*
X91635880Y-181568690D02*
X91683500Y-181521071D01*
X91683500Y-181521071D02*
X91731119Y-181378214D01*
X91731119Y-181378214D02*
X91731119Y-181282976D01*
X91731119Y-181282976D02*
X91683500Y-181140119D01*
X91683500Y-181140119D02*
X91588261Y-181044881D01*
X91588261Y-181044881D02*
X91493023Y-180997262D01*
X91493023Y-180997262D02*
X91302547Y-180949643D01*
X91302547Y-180949643D02*
X91159690Y-180949643D01*
X91159690Y-180949643D02*
X90969214Y-180997262D01*
X90969214Y-180997262D02*
X90873976Y-181044881D01*
X90873976Y-181044881D02*
X90778738Y-181140119D01*
X90778738Y-181140119D02*
X90731119Y-181282976D01*
X90731119Y-181282976D02*
X90731119Y-181378214D01*
X90731119Y-181378214D02*
X90778738Y-181521071D01*
X90778738Y-181521071D02*
X90826357Y-181568690D01*
X91731119Y-182140119D02*
X91683500Y-182044881D01*
X91683500Y-182044881D02*
X91635880Y-181997262D01*
X91635880Y-181997262D02*
X91540642Y-181949643D01*
X91540642Y-181949643D02*
X91254928Y-181949643D01*
X91254928Y-181949643D02*
X91159690Y-181997262D01*
X91159690Y-181997262D02*
X91112071Y-182044881D01*
X91112071Y-182044881D02*
X91064452Y-182140119D01*
X91064452Y-182140119D02*
X91064452Y-182282976D01*
X91064452Y-182282976D02*
X91112071Y-182378214D01*
X91112071Y-182378214D02*
X91159690Y-182425833D01*
X91159690Y-182425833D02*
X91254928Y-182473452D01*
X91254928Y-182473452D02*
X91540642Y-182473452D01*
X91540642Y-182473452D02*
X91635880Y-182425833D01*
X91635880Y-182425833D02*
X91683500Y-182378214D01*
X91683500Y-182378214D02*
X91731119Y-182282976D01*
X91731119Y-182282976D02*
X91731119Y-182140119D01*
X91064452Y-182902024D02*
X91731119Y-182902024D01*
X91159690Y-182902024D02*
X91112071Y-182949643D01*
X91112071Y-182949643D02*
X91064452Y-183044881D01*
X91064452Y-183044881D02*
X91064452Y-183187738D01*
X91064452Y-183187738D02*
X91112071Y-183282976D01*
X91112071Y-183282976D02*
X91207309Y-183330595D01*
X91207309Y-183330595D02*
X91731119Y-183330595D01*
X91064452Y-183806786D02*
X91731119Y-183806786D01*
X91159690Y-183806786D02*
X91112071Y-183854405D01*
X91112071Y-183854405D02*
X91064452Y-183949643D01*
X91064452Y-183949643D02*
X91064452Y-184092500D01*
X91064452Y-184092500D02*
X91112071Y-184187738D01*
X91112071Y-184187738D02*
X91207309Y-184235357D01*
X91207309Y-184235357D02*
X91731119Y-184235357D01*
X90731119Y-184616310D02*
X90731119Y-185282976D01*
X90731119Y-185282976D02*
X91731119Y-184854405D01*
X202961280Y-95989999D02*
X203008900Y-95942380D01*
X203008900Y-95942380D02*
X203056519Y-95799523D01*
X203056519Y-95799523D02*
X203056519Y-95704285D01*
X203056519Y-95704285D02*
X203008900Y-95561428D01*
X203008900Y-95561428D02*
X202913661Y-95466190D01*
X202913661Y-95466190D02*
X202818423Y-95418571D01*
X202818423Y-95418571D02*
X202627947Y-95370952D01*
X202627947Y-95370952D02*
X202485090Y-95370952D01*
X202485090Y-95370952D02*
X202294614Y-95418571D01*
X202294614Y-95418571D02*
X202199376Y-95466190D01*
X202199376Y-95466190D02*
X202104138Y-95561428D01*
X202104138Y-95561428D02*
X202056519Y-95704285D01*
X202056519Y-95704285D02*
X202056519Y-95799523D01*
X202056519Y-95799523D02*
X202104138Y-95942380D01*
X202104138Y-95942380D02*
X202151757Y-95989999D01*
X203056519Y-96561428D02*
X203008900Y-96466190D01*
X203008900Y-96466190D02*
X202961280Y-96418571D01*
X202961280Y-96418571D02*
X202866042Y-96370952D01*
X202866042Y-96370952D02*
X202580328Y-96370952D01*
X202580328Y-96370952D02*
X202485090Y-96418571D01*
X202485090Y-96418571D02*
X202437471Y-96466190D01*
X202437471Y-96466190D02*
X202389852Y-96561428D01*
X202389852Y-96561428D02*
X202389852Y-96704285D01*
X202389852Y-96704285D02*
X202437471Y-96799523D01*
X202437471Y-96799523D02*
X202485090Y-96847142D01*
X202485090Y-96847142D02*
X202580328Y-96894761D01*
X202580328Y-96894761D02*
X202866042Y-96894761D01*
X202866042Y-96894761D02*
X202961280Y-96847142D01*
X202961280Y-96847142D02*
X203008900Y-96799523D01*
X203008900Y-96799523D02*
X203056519Y-96704285D01*
X203056519Y-96704285D02*
X203056519Y-96561428D01*
X202389852Y-97323333D02*
X203056519Y-97323333D01*
X202485090Y-97323333D02*
X202437471Y-97370952D01*
X202437471Y-97370952D02*
X202389852Y-97466190D01*
X202389852Y-97466190D02*
X202389852Y-97609047D01*
X202389852Y-97609047D02*
X202437471Y-97704285D01*
X202437471Y-97704285D02*
X202532709Y-97751904D01*
X202532709Y-97751904D02*
X203056519Y-97751904D01*
X202389852Y-98228095D02*
X203056519Y-98228095D01*
X202485090Y-98228095D02*
X202437471Y-98275714D01*
X202437471Y-98275714D02*
X202389852Y-98370952D01*
X202389852Y-98370952D02*
X202389852Y-98513809D01*
X202389852Y-98513809D02*
X202437471Y-98609047D01*
X202437471Y-98609047D02*
X202532709Y-98656666D01*
X202532709Y-98656666D02*
X203056519Y-98656666D01*
X203056519Y-99656666D02*
X203056519Y-99085238D01*
X203056519Y-99370952D02*
X202056519Y-99370952D01*
X202056519Y-99370952D02*
X202199376Y-99275714D01*
X202199376Y-99275714D02*
X202294614Y-99180476D01*
X202294614Y-99180476D02*
X202342233Y-99085238D01*
X202389852Y-100513809D02*
X203056519Y-100513809D01*
X202008900Y-100275714D02*
X202723185Y-100037619D01*
X202723185Y-100037619D02*
X202723185Y-100656666D01*
X164861280Y-95989999D02*
X164908900Y-95942380D01*
X164908900Y-95942380D02*
X164956519Y-95799523D01*
X164956519Y-95799523D02*
X164956519Y-95704285D01*
X164956519Y-95704285D02*
X164908900Y-95561428D01*
X164908900Y-95561428D02*
X164813661Y-95466190D01*
X164813661Y-95466190D02*
X164718423Y-95418571D01*
X164718423Y-95418571D02*
X164527947Y-95370952D01*
X164527947Y-95370952D02*
X164385090Y-95370952D01*
X164385090Y-95370952D02*
X164194614Y-95418571D01*
X164194614Y-95418571D02*
X164099376Y-95466190D01*
X164099376Y-95466190D02*
X164004138Y-95561428D01*
X164004138Y-95561428D02*
X163956519Y-95704285D01*
X163956519Y-95704285D02*
X163956519Y-95799523D01*
X163956519Y-95799523D02*
X164004138Y-95942380D01*
X164004138Y-95942380D02*
X164051757Y-95989999D01*
X164956519Y-96561428D02*
X164908900Y-96466190D01*
X164908900Y-96466190D02*
X164861280Y-96418571D01*
X164861280Y-96418571D02*
X164766042Y-96370952D01*
X164766042Y-96370952D02*
X164480328Y-96370952D01*
X164480328Y-96370952D02*
X164385090Y-96418571D01*
X164385090Y-96418571D02*
X164337471Y-96466190D01*
X164337471Y-96466190D02*
X164289852Y-96561428D01*
X164289852Y-96561428D02*
X164289852Y-96704285D01*
X164289852Y-96704285D02*
X164337471Y-96799523D01*
X164337471Y-96799523D02*
X164385090Y-96847142D01*
X164385090Y-96847142D02*
X164480328Y-96894761D01*
X164480328Y-96894761D02*
X164766042Y-96894761D01*
X164766042Y-96894761D02*
X164861280Y-96847142D01*
X164861280Y-96847142D02*
X164908900Y-96799523D01*
X164908900Y-96799523D02*
X164956519Y-96704285D01*
X164956519Y-96704285D02*
X164956519Y-96561428D01*
X164289852Y-97323333D02*
X164956519Y-97323333D01*
X164385090Y-97323333D02*
X164337471Y-97370952D01*
X164337471Y-97370952D02*
X164289852Y-97466190D01*
X164289852Y-97466190D02*
X164289852Y-97609047D01*
X164289852Y-97609047D02*
X164337471Y-97704285D01*
X164337471Y-97704285D02*
X164432709Y-97751904D01*
X164432709Y-97751904D02*
X164956519Y-97751904D01*
X164289852Y-98228095D02*
X164956519Y-98228095D01*
X164385090Y-98228095D02*
X164337471Y-98275714D01*
X164337471Y-98275714D02*
X164289852Y-98370952D01*
X164289852Y-98370952D02*
X164289852Y-98513809D01*
X164289852Y-98513809D02*
X164337471Y-98609047D01*
X164337471Y-98609047D02*
X164432709Y-98656666D01*
X164432709Y-98656666D02*
X164956519Y-98656666D01*
X164956519Y-99656666D02*
X164956519Y-99085238D01*
X164956519Y-99370952D02*
X163956519Y-99370952D01*
X163956519Y-99370952D02*
X164099376Y-99275714D01*
X164099376Y-99275714D02*
X164194614Y-99180476D01*
X164194614Y-99180476D02*
X164242233Y-99085238D01*
X164956519Y-100609047D02*
X164956519Y-100037619D01*
X164956519Y-100323333D02*
X163956519Y-100323333D01*
X163956519Y-100323333D02*
X164099376Y-100228095D01*
X164099376Y-100228095D02*
X164194614Y-100132857D01*
X164194614Y-100132857D02*
X164242233Y-100037619D01*
X114061280Y-95831499D02*
X114108900Y-95783880D01*
X114108900Y-95783880D02*
X114156519Y-95641023D01*
X114156519Y-95641023D02*
X114156519Y-95545785D01*
X114156519Y-95545785D02*
X114108900Y-95402928D01*
X114108900Y-95402928D02*
X114013661Y-95307690D01*
X114013661Y-95307690D02*
X113918423Y-95260071D01*
X113918423Y-95260071D02*
X113727947Y-95212452D01*
X113727947Y-95212452D02*
X113585090Y-95212452D01*
X113585090Y-95212452D02*
X113394614Y-95260071D01*
X113394614Y-95260071D02*
X113299376Y-95307690D01*
X113299376Y-95307690D02*
X113204138Y-95402928D01*
X113204138Y-95402928D02*
X113156519Y-95545785D01*
X113156519Y-95545785D02*
X113156519Y-95641023D01*
X113156519Y-95641023D02*
X113204138Y-95783880D01*
X113204138Y-95783880D02*
X113251757Y-95831499D01*
X114156519Y-96402928D02*
X114108900Y-96307690D01*
X114108900Y-96307690D02*
X114061280Y-96260071D01*
X114061280Y-96260071D02*
X113966042Y-96212452D01*
X113966042Y-96212452D02*
X113680328Y-96212452D01*
X113680328Y-96212452D02*
X113585090Y-96260071D01*
X113585090Y-96260071D02*
X113537471Y-96307690D01*
X113537471Y-96307690D02*
X113489852Y-96402928D01*
X113489852Y-96402928D02*
X113489852Y-96545785D01*
X113489852Y-96545785D02*
X113537471Y-96641023D01*
X113537471Y-96641023D02*
X113585090Y-96688642D01*
X113585090Y-96688642D02*
X113680328Y-96736261D01*
X113680328Y-96736261D02*
X113966042Y-96736261D01*
X113966042Y-96736261D02*
X114061280Y-96688642D01*
X114061280Y-96688642D02*
X114108900Y-96641023D01*
X114108900Y-96641023D02*
X114156519Y-96545785D01*
X114156519Y-96545785D02*
X114156519Y-96402928D01*
X113489852Y-97164833D02*
X114156519Y-97164833D01*
X113585090Y-97164833D02*
X113537471Y-97212452D01*
X113537471Y-97212452D02*
X113489852Y-97307690D01*
X113489852Y-97307690D02*
X113489852Y-97450547D01*
X113489852Y-97450547D02*
X113537471Y-97545785D01*
X113537471Y-97545785D02*
X113632709Y-97593404D01*
X113632709Y-97593404D02*
X114156519Y-97593404D01*
X113489852Y-98069595D02*
X114156519Y-98069595D01*
X113585090Y-98069595D02*
X113537471Y-98117214D01*
X113537471Y-98117214D02*
X113489852Y-98212452D01*
X113489852Y-98212452D02*
X113489852Y-98355309D01*
X113489852Y-98355309D02*
X113537471Y-98450547D01*
X113537471Y-98450547D02*
X113632709Y-98498166D01*
X113632709Y-98498166D02*
X114156519Y-98498166D01*
X114156519Y-99498166D02*
X114156519Y-98926738D01*
X114156519Y-99212452D02*
X113156519Y-99212452D01*
X113156519Y-99212452D02*
X113299376Y-99117214D01*
X113299376Y-99117214D02*
X113394614Y-99021976D01*
X113394614Y-99021976D02*
X113442233Y-98926738D01*
X113156519Y-100117214D02*
X113156519Y-100212452D01*
X113156519Y-100212452D02*
X113204138Y-100307690D01*
X113204138Y-100307690D02*
X113251757Y-100355309D01*
X113251757Y-100355309D02*
X113346995Y-100402928D01*
X113346995Y-100402928D02*
X113537471Y-100450547D01*
X113537471Y-100450547D02*
X113775566Y-100450547D01*
X113775566Y-100450547D02*
X113966042Y-100402928D01*
X113966042Y-100402928D02*
X114061280Y-100355309D01*
X114061280Y-100355309D02*
X114108900Y-100307690D01*
X114108900Y-100307690D02*
X114156519Y-100212452D01*
X114156519Y-100212452D02*
X114156519Y-100117214D01*
X114156519Y-100117214D02*
X114108900Y-100021976D01*
X114108900Y-100021976D02*
X114061280Y-99974357D01*
X114061280Y-99974357D02*
X113966042Y-99926738D01*
X113966042Y-99926738D02*
X113775566Y-99879119D01*
X113775566Y-99879119D02*
X113537471Y-99879119D01*
X113537471Y-99879119D02*
X113346995Y-99926738D01*
X113346995Y-99926738D02*
X113251757Y-99974357D01*
X113251757Y-99974357D02*
X113204138Y-100021976D01*
X113204138Y-100021976D02*
X113156519Y-100117214D01*
%TO.C,Conn9*%
X143395700Y-75487500D02*
X151269700Y-75487500D01*
X143370300Y-75487500D02*
X143370300Y-84377500D01*
X151269700Y-83209100D02*
X151269700Y-84377500D01*
X151269700Y-83234500D02*
X151269700Y-75487500D01*
X148958300Y-85520500D02*
X150126700Y-85520500D01*
X145681700Y-85520500D02*
X148983700Y-85520500D01*
X145681700Y-85520500D02*
X144538700Y-85520500D01*
X151269700Y-87806500D02*
X151269700Y-100100100D01*
X143395700Y-87806500D02*
X143395700Y-86663500D01*
X143395700Y-87806500D02*
X143395700Y-100100100D01*
X151269700Y-87831900D02*
X151269700Y-86638100D01*
X151269700Y-100125500D02*
X143395700Y-100125500D01*
X144538700Y-85520500D02*
G75*
G03*
X143395700Y-84377500I-1143000J0D01*
G01*
X151269700Y-84402900D02*
G75*
G03*
X150152100Y-85520500I-2J-1117598D01*
G01*
X143395700Y-86663500D02*
G75*
G03*
X144538700Y-85520500I0J1143000D01*
G01*
X150152100Y-85520500D02*
G75*
G03*
X151269700Y-86638100I1117598J-2D01*
G01*
%TO.C,Conn1*%
X163436300Y-205436500D02*
X155562300Y-205436500D01*
X163461700Y-205436500D02*
X163461700Y-196546500D01*
X155562300Y-197714900D02*
X155562300Y-196546500D01*
X155562300Y-197689500D02*
X155562300Y-205436500D01*
X157873700Y-195403500D02*
X156705300Y-195403500D01*
X161150300Y-195403500D02*
X157848300Y-195403500D01*
X161150300Y-195403500D02*
X162293300Y-195403500D01*
X155562300Y-193117500D02*
X155562300Y-180823900D01*
X163436300Y-193117500D02*
X163436300Y-194260500D01*
X163436300Y-193117500D02*
X163436300Y-180823900D01*
X155562300Y-193092100D02*
X155562300Y-194285900D01*
X155562300Y-180798500D02*
X163436300Y-180798500D01*
X162293300Y-195403500D02*
G75*
G03*
X163436300Y-196546500I1143000J0D01*
G01*
X155562300Y-196521100D02*
G75*
G03*
X156679900Y-195403500I2J1117598D01*
G01*
X163436300Y-194260500D02*
G75*
G03*
X162293300Y-195403500I0J-1143000D01*
G01*
X156679900Y-195403500D02*
G75*
G03*
X155562300Y-194285900I-1117598J2D01*
G01*
%TO.C,Conn2*%
X150736300Y-205436500D02*
X142862300Y-205436500D01*
X150761700Y-205436500D02*
X150761700Y-196546500D01*
X142862300Y-197714900D02*
X142862300Y-196546500D01*
X142862300Y-197689500D02*
X142862300Y-205436500D01*
X145173700Y-195403500D02*
X144005300Y-195403500D01*
X148450300Y-195403500D02*
X145148300Y-195403500D01*
X148450300Y-195403500D02*
X149593300Y-195403500D01*
X142862300Y-193117500D02*
X142862300Y-180823900D01*
X150736300Y-193117500D02*
X150736300Y-194260500D01*
X150736300Y-193117500D02*
X150736300Y-180823900D01*
X142862300Y-193092100D02*
X142862300Y-194285900D01*
X142862300Y-180798500D02*
X150736300Y-180798500D01*
X149593300Y-195403500D02*
G75*
G03*
X150736300Y-196546500I1143000J0D01*
G01*
X142862300Y-196521100D02*
G75*
G03*
X143979900Y-195403500I2J1117598D01*
G01*
X150736300Y-194260500D02*
G75*
G03*
X149593300Y-195403500I0J-1143000D01*
G01*
X143979900Y-195403500D02*
G75*
G03*
X142862300Y-194285900I-1117598J2D01*
G01*
%TO.C,Conn13*%
X181241700Y-75646000D02*
X189115700Y-75646000D01*
X181216300Y-75646000D02*
X181216300Y-84536000D01*
X189115700Y-83367600D02*
X189115700Y-84536000D01*
X189115700Y-83393000D02*
X189115700Y-75646000D01*
X186804300Y-85679000D02*
X187972700Y-85679000D01*
X183527700Y-85679000D02*
X186829700Y-85679000D01*
X183527700Y-85679000D02*
X182384700Y-85679000D01*
X189115700Y-87965000D02*
X189115700Y-100258600D01*
X181241700Y-87965000D02*
X181241700Y-86822000D01*
X181241700Y-87965000D02*
X181241700Y-100258600D01*
X189115700Y-87990400D02*
X189115700Y-86796600D01*
X189115700Y-100284000D02*
X181241700Y-100284000D01*
X182384700Y-85679000D02*
G75*
G03*
X181241700Y-84536000I-1143000J0D01*
G01*
X189115700Y-84561400D02*
G75*
G03*
X187998100Y-85679000I-2J-1117598D01*
G01*
X181241700Y-86822000D02*
G75*
G03*
X182384700Y-85679000I0J1143000D01*
G01*
X187998100Y-85679000D02*
G75*
G03*
X189115700Y-86796600I1117598J-2D01*
G01*
%TO.C,Conn4*%
X125336300Y-205436500D02*
X117462300Y-205436500D01*
X125361700Y-205436500D02*
X125361700Y-196546500D01*
X117462300Y-197714900D02*
X117462300Y-196546500D01*
X117462300Y-197689500D02*
X117462300Y-205436500D01*
X119773700Y-195403500D02*
X118605300Y-195403500D01*
X123050300Y-195403500D02*
X119748300Y-195403500D01*
X123050300Y-195403500D02*
X124193300Y-195403500D01*
X117462300Y-193117500D02*
X117462300Y-180823900D01*
X125336300Y-193117500D02*
X125336300Y-194260500D01*
X125336300Y-193117500D02*
X125336300Y-180823900D01*
X117462300Y-193092100D02*
X117462300Y-194285900D01*
X117462300Y-180798500D02*
X125336300Y-180798500D01*
X124193300Y-195403500D02*
G75*
G03*
X125336300Y-196546500I1143000J0D01*
G01*
X117462300Y-196521100D02*
G75*
G03*
X118579900Y-195403500I2J1117598D01*
G01*
X125336300Y-194260500D02*
G75*
G03*
X124193300Y-195403500I0J-1143000D01*
G01*
X118579900Y-195403500D02*
G75*
G03*
X117462300Y-194285900I-1117598J2D01*
G01*
%TO.C,Conn12*%
X168541700Y-75646000D02*
X176415700Y-75646000D01*
X168516300Y-75646000D02*
X168516300Y-84536000D01*
X176415700Y-83367600D02*
X176415700Y-84536000D01*
X176415700Y-83393000D02*
X176415700Y-75646000D01*
X174104300Y-85679000D02*
X175272700Y-85679000D01*
X170827700Y-85679000D02*
X174129700Y-85679000D01*
X170827700Y-85679000D02*
X169684700Y-85679000D01*
X176415700Y-87965000D02*
X176415700Y-100258600D01*
X168541700Y-87965000D02*
X168541700Y-86822000D01*
X168541700Y-87965000D02*
X168541700Y-100258600D01*
X176415700Y-87990400D02*
X176415700Y-86796600D01*
X176415700Y-100284000D02*
X168541700Y-100284000D01*
X169684700Y-85679000D02*
G75*
G03*
X168541700Y-84536000I-1143000J0D01*
G01*
X176415700Y-84561400D02*
G75*
G03*
X175298100Y-85679000I-2J-1117598D01*
G01*
X168541700Y-86822000D02*
G75*
G03*
X169684700Y-85679000I0J1143000D01*
G01*
X175298100Y-85679000D02*
G75*
G03*
X176415700Y-86796600I1117598J-2D01*
G01*
%TO.C,Conn16*%
X229489000Y-205322200D02*
X213741000Y-205322200D01*
X221640400Y-205296800D02*
X221640400Y-196406800D01*
X229489000Y-205296800D02*
X229489000Y-197549800D01*
X213741000Y-197575200D02*
X213741000Y-196406800D01*
X213741000Y-197549800D02*
X213741000Y-205296800D01*
X229489000Y-196406800D02*
X229489000Y-197626000D01*
X216052400Y-195263800D02*
X214884000Y-195263800D01*
X219329000Y-195263800D02*
X216027000Y-195263800D01*
X219329000Y-195263800D02*
X220472000Y-195263800D01*
X223901000Y-195263800D02*
X222758000Y-195263800D01*
X223901000Y-195263800D02*
X227177600Y-195263800D01*
X228346000Y-195263800D02*
X227177600Y-195263800D01*
X229489000Y-193003200D02*
X229489000Y-194095400D01*
X213741000Y-192977800D02*
X213741000Y-180684200D01*
X221615000Y-192977800D02*
X221615000Y-194120800D01*
X221615000Y-192977800D02*
X221615000Y-180684200D01*
X229489000Y-192977800D02*
X229489000Y-180684200D01*
X213741000Y-192952400D02*
X213741000Y-194146200D01*
X229489000Y-180684200D02*
X213741000Y-180684200D01*
X228346000Y-195263800D02*
G75*
G03*
X229489000Y-196406800I1143000J0D01*
G01*
X213741000Y-196381400D02*
G75*
G03*
X214858600Y-195263800I2J1117598D01*
G01*
X229489000Y-194120800D02*
G75*
G03*
X228346000Y-195263800I0J-1143000D01*
G01*
X214858600Y-195263800D02*
G75*
G03*
X213741000Y-194146200I-1117598J2D01*
G01*
X222758000Y-195263800D02*
G75*
G03*
X222758000Y-195263800I-1143000J0D01*
G01*
%TO.C,Conn6*%
X87236300Y-205436500D02*
X79362300Y-205436500D01*
X87261700Y-205436500D02*
X87261700Y-196546500D01*
X79362300Y-197714900D02*
X79362300Y-196546500D01*
X79362300Y-197689500D02*
X79362300Y-205436500D01*
X81673700Y-195403500D02*
X80505300Y-195403500D01*
X84950300Y-195403500D02*
X81648300Y-195403500D01*
X84950300Y-195403500D02*
X86093300Y-195403500D01*
X79362300Y-193117500D02*
X79362300Y-180823900D01*
X87236300Y-193117500D02*
X87236300Y-194260500D01*
X87236300Y-193117500D02*
X87236300Y-180823900D01*
X79362300Y-193092100D02*
X79362300Y-194285900D01*
X79362300Y-180798500D02*
X87236300Y-180798500D01*
X86093300Y-195403500D02*
G75*
G03*
X87236300Y-196546500I1143000J0D01*
G01*
X79362300Y-196521100D02*
G75*
G03*
X80479900Y-195403500I2J1117598D01*
G01*
X87236300Y-194260500D02*
G75*
G03*
X86093300Y-195403500I0J-1143000D01*
G01*
X80479900Y-195403500D02*
G75*
G03*
X79362300Y-194285900I-1117598J2D01*
G01*
%TO.C,Conn15*%
X206641700Y-75646000D02*
X214515700Y-75646000D01*
X206616300Y-75646000D02*
X206616300Y-84536000D01*
X214515700Y-83367600D02*
X214515700Y-84536000D01*
X214515700Y-83393000D02*
X214515700Y-75646000D01*
X212204300Y-85679000D02*
X213372700Y-85679000D01*
X208927700Y-85679000D02*
X212229700Y-85679000D01*
X208927700Y-85679000D02*
X207784700Y-85679000D01*
X214515700Y-87965000D02*
X214515700Y-100258600D01*
X206641700Y-87965000D02*
X206641700Y-86822000D01*
X206641700Y-87965000D02*
X206641700Y-100258600D01*
X214515700Y-87990400D02*
X214515700Y-86796600D01*
X214515700Y-100284000D02*
X206641700Y-100284000D01*
X207784700Y-85679000D02*
G75*
G03*
X206641700Y-84536000I-1143000J0D01*
G01*
X214515700Y-84561400D02*
G75*
G03*
X213398100Y-85679000I-2J-1117598D01*
G01*
X206641700Y-86822000D02*
G75*
G03*
X207784700Y-85679000I0J1143000D01*
G01*
X213398100Y-85679000D02*
G75*
G03*
X214515700Y-86796600I1117598J-2D01*
G01*
%TO.C,Conn5*%
X112636300Y-205436500D02*
X104762300Y-205436500D01*
X112661700Y-205436500D02*
X112661700Y-196546500D01*
X104762300Y-197714900D02*
X104762300Y-196546500D01*
X104762300Y-197689500D02*
X104762300Y-205436500D01*
X107073700Y-195403500D02*
X105905300Y-195403500D01*
X110350300Y-195403500D02*
X107048300Y-195403500D01*
X110350300Y-195403500D02*
X111493300Y-195403500D01*
X104762300Y-193117500D02*
X104762300Y-180823900D01*
X112636300Y-193117500D02*
X112636300Y-194260500D01*
X112636300Y-193117500D02*
X112636300Y-180823900D01*
X104762300Y-193092100D02*
X104762300Y-194285900D01*
X104762300Y-180798500D02*
X112636300Y-180798500D01*
X111493300Y-195403500D02*
G75*
G03*
X112636300Y-196546500I1143000J0D01*
G01*
X104762300Y-196521100D02*
G75*
G03*
X105879900Y-195403500I2J1117598D01*
G01*
X112636300Y-194260500D02*
G75*
G03*
X111493300Y-195403500I0J-1143000D01*
G01*
X105879900Y-195403500D02*
G75*
G03*
X104762300Y-194285900I-1117598J2D01*
G01*
%TO.C,Conn8*%
X57707500Y-142354300D02*
X57707500Y-134480300D01*
X57707500Y-142379700D02*
X66597500Y-142379700D01*
X65429100Y-134480300D02*
X66597500Y-134480300D01*
X65454500Y-134480300D02*
X57707500Y-134480300D01*
X67740500Y-136791700D02*
X67740500Y-135623300D01*
X67740500Y-140068300D02*
X67740500Y-136766300D01*
X67740500Y-140068300D02*
X67740500Y-141211300D01*
X70026500Y-134480300D02*
X82320100Y-134480300D01*
X70026500Y-142354300D02*
X68883500Y-142354300D01*
X70026500Y-142354300D02*
X82320100Y-142354300D01*
X70051900Y-134480300D02*
X68858100Y-134480300D01*
X82345500Y-134480300D02*
X82345500Y-142354300D01*
X67740500Y-141211300D02*
G75*
G03*
X66597500Y-142354300I0J-1143000D01*
G01*
X66622900Y-134480300D02*
G75*
G03*
X67740500Y-135597900I1117598J-2D01*
G01*
X68883500Y-142354300D02*
G75*
G03*
X67740500Y-141211300I-1143000J0D01*
G01*
X67740500Y-135597900D02*
G75*
G03*
X68858100Y-134480300I2J1117598D01*
G01*
%TO.C,Conn3*%
X138036300Y-205436500D02*
X130162300Y-205436500D01*
X138061700Y-205436500D02*
X138061700Y-196546500D01*
X130162300Y-197714900D02*
X130162300Y-196546500D01*
X130162300Y-197689500D02*
X130162300Y-205436500D01*
X132473700Y-195403500D02*
X131305300Y-195403500D01*
X135750300Y-195403500D02*
X132448300Y-195403500D01*
X135750300Y-195403500D02*
X136893300Y-195403500D01*
X130162300Y-193117500D02*
X130162300Y-180823900D01*
X138036300Y-193117500D02*
X138036300Y-194260500D01*
X138036300Y-193117500D02*
X138036300Y-180823900D01*
X130162300Y-193092100D02*
X130162300Y-194285900D01*
X130162300Y-180798500D02*
X138036300Y-180798500D01*
X136893300Y-195403500D02*
G75*
G03*
X138036300Y-196546500I1143000J0D01*
G01*
X130162300Y-196521100D02*
G75*
G03*
X131279900Y-195403500I2J1117598D01*
G01*
X138036300Y-194260500D02*
G75*
G03*
X136893300Y-195403500I0J-1143000D01*
G01*
X131279900Y-195403500D02*
G75*
G03*
X130162300Y-194285900I-1117598J2D01*
G01*
%TO.C,Conn7*%
X99936300Y-205436500D02*
X92062300Y-205436500D01*
X99961700Y-205436500D02*
X99961700Y-196546500D01*
X92062300Y-197714900D02*
X92062300Y-196546500D01*
X92062300Y-197689500D02*
X92062300Y-205436500D01*
X94373700Y-195403500D02*
X93205300Y-195403500D01*
X97650300Y-195403500D02*
X94348300Y-195403500D01*
X97650300Y-195403500D02*
X98793300Y-195403500D01*
X92062300Y-193117500D02*
X92062300Y-180823900D01*
X99936300Y-193117500D02*
X99936300Y-194260500D01*
X99936300Y-193117500D02*
X99936300Y-180823900D01*
X92062300Y-193092100D02*
X92062300Y-194285900D01*
X92062300Y-180798500D02*
X99936300Y-180798500D01*
X98793300Y-195403500D02*
G75*
G03*
X99936300Y-196546500I1143000J0D01*
G01*
X92062300Y-196521100D02*
G75*
G03*
X93179900Y-195403500I2J1117598D01*
G01*
X99936300Y-194260500D02*
G75*
G03*
X98793300Y-195403500I0J-1143000D01*
G01*
X93179900Y-195403500D02*
G75*
G03*
X92062300Y-194285900I-1117598J2D01*
G01*
%TO.C,Conn14*%
X193941700Y-75646000D02*
X201815700Y-75646000D01*
X193916300Y-75646000D02*
X193916300Y-84536000D01*
X201815700Y-83367600D02*
X201815700Y-84536000D01*
X201815700Y-83393000D02*
X201815700Y-75646000D01*
X199504300Y-85679000D02*
X200672700Y-85679000D01*
X196227700Y-85679000D02*
X199529700Y-85679000D01*
X196227700Y-85679000D02*
X195084700Y-85679000D01*
X201815700Y-87965000D02*
X201815700Y-100258600D01*
X193941700Y-87965000D02*
X193941700Y-86822000D01*
X193941700Y-87965000D02*
X193941700Y-100258600D01*
X201815700Y-87990400D02*
X201815700Y-86796600D01*
X201815700Y-100284000D02*
X193941700Y-100284000D01*
X195084700Y-85679000D02*
G75*
G03*
X193941700Y-84536000I-1143000J0D01*
G01*
X201815700Y-84561400D02*
G75*
G03*
X200698100Y-85679000I-2J-1117598D01*
G01*
X193941700Y-86822000D02*
G75*
G03*
X195084700Y-85679000I0J1143000D01*
G01*
X200698100Y-85679000D02*
G75*
G03*
X201815700Y-86796600I1117598J-2D01*
G01*
%TO.C,Conn11*%
X155841700Y-75646000D02*
X163715700Y-75646000D01*
X155816300Y-75646000D02*
X155816300Y-84536000D01*
X163715700Y-83367600D02*
X163715700Y-84536000D01*
X163715700Y-83393000D02*
X163715700Y-75646000D01*
X161404300Y-85679000D02*
X162572700Y-85679000D01*
X158127700Y-85679000D02*
X161429700Y-85679000D01*
X158127700Y-85679000D02*
X156984700Y-85679000D01*
X163715700Y-87965000D02*
X163715700Y-100258600D01*
X155841700Y-87965000D02*
X155841700Y-86822000D01*
X155841700Y-87965000D02*
X155841700Y-100258600D01*
X163715700Y-87990400D02*
X163715700Y-86796600D01*
X163715700Y-100284000D02*
X155841700Y-100284000D01*
X156984700Y-85679000D02*
G75*
G03*
X155841700Y-84536000I-1143000J0D01*
G01*
X163715700Y-84561400D02*
G75*
G03*
X162598100Y-85679000I-2J-1117598D01*
G01*
X155841700Y-86822000D02*
G75*
G03*
X156984700Y-85679000I0J1143000D01*
G01*
X162598100Y-85679000D02*
G75*
G03*
X163715700Y-86796600I1117598J-2D01*
G01*
%TO.C,Conn10*%
X105041700Y-75487500D02*
X112915700Y-75487500D01*
X105016300Y-75487500D02*
X105016300Y-84377500D01*
X112915700Y-83209100D02*
X112915700Y-84377500D01*
X112915700Y-83234500D02*
X112915700Y-75487500D01*
X110604300Y-85520500D02*
X111772700Y-85520500D01*
X107327700Y-85520500D02*
X110629700Y-85520500D01*
X107327700Y-85520500D02*
X106184700Y-85520500D01*
X112915700Y-87806500D02*
X112915700Y-100100100D01*
X105041700Y-87806500D02*
X105041700Y-86663500D01*
X105041700Y-87806500D02*
X105041700Y-100100100D01*
X112915700Y-87831900D02*
X112915700Y-86638100D01*
X112915700Y-100125500D02*
X105041700Y-100125500D01*
X106184700Y-85520500D02*
G75*
G03*
X105041700Y-84377500I-1143000J0D01*
G01*
X112915700Y-84402900D02*
G75*
G03*
X111798100Y-85520500I-2J-1117598D01*
G01*
X105041700Y-86663500D02*
G75*
G03*
X106184700Y-85520500I0J1143000D01*
G01*
X111798100Y-85520500D02*
G75*
G03*
X112915700Y-86638100I1117598J-2D01*
G01*
%TD*%
M02*
