M48
; DRILL file {KiCad 7.0.7} date Tue Mar 26 21:52:27 2024
; FORMAT={-:-/ absolute / inch / decimal}
; #@! TF.CreationDate,2024-03-26T21:52:27-05:00
; #@! TF.GenerationSoftware,Kicad,Pcbnew,7.0.7
; #@! TF.FileFunction,Plated,1,2,PTH
FMAT,2
INCH
; #@! TA.AperFunction,Plated,PTH,ViaDrill
T1C0.0157
; #@! TA.AperFunction,Plated,PTH,ComponentDrill
T2C0.0197
; #@! TA.AperFunction,Plated,PTH,ComponentDrill
T3C0.0276
; #@! TA.AperFunction,Plated,PTH,ComponentDrill
T4C0.0300
; #@! TA.AperFunction,Plated,PTH,ComponentDrill
T5C0.0315
; #@! TA.AperFunction,Plated,PTH,ComponentDrill
T6C0.0350
; #@! TA.AperFunction,Plated,PTH,ComponentDrill
T7C0.0354
; #@! TA.AperFunction,Plated,PTH,ComponentDrill
T8C0.0394
; #@! TA.AperFunction,Plated,PTH,ComponentDrill
T9C0.0402
; #@! TA.AperFunction,Plated,PTH,ComponentDrill
T10C0.0472
; #@! TA.AperFunction,Plated,PTH,ComponentDrill
T11C0.0512
; #@! TA.AperFunction,Plated,PTH,ComponentDrill
T12C0.0550
; #@! TA.AperFunction,Plated,PTH,ComponentDrill
T13C0.0630
; #@! TA.AperFunction,Plated,PTH,ComponentDrill
T14C0.0787
; #@! TA.AperFunction,Plated,PTH,ComponentDrill
T15C0.1280
%
G90
G05
T1
X2.8925Y-5.8036
X3.06Y-6.44
X7.43Y-6.43
X8.65Y-7.53
X8.81Y-5.64
X8.88Y-7.43
X9.12Y-6.49
X9.28Y-6.59
X9.32Y-5.64
X9.35Y-6.8
X9.36Y-6.56
X9.6Y-6.48
X9.6587Y-7.0813
X9.95Y-6.48
X10.15Y-6.8
X10.19Y-6.56
X10.38Y-7.08
X10.43Y-6.48
X10.7602Y-6.48
X11.0Y-6.56
X11.0Y-6.8
X11.24Y-6.48
T2
X8.2723Y-5.714
X8.2723Y-5.7664
X8.2723Y-5.8191
X8.2723Y-5.8715
X8.2723Y-6.1077
X8.2723Y-6.1601
X8.2723Y-6.2128
X8.2723Y-6.2652
X8.2877Y-5.6668
X8.2877Y-5.9187
X8.2877Y-6.0605
X8.2877Y-6.3124
X8.3282Y-5.6372
X8.3282Y-5.9483
X8.3282Y-6.0309
X8.3282Y-6.342
X8.3778Y-5.6372
X8.3778Y-5.9483
X8.3778Y-6.0309
X8.3778Y-6.342
X8.4184Y-5.6668
X8.4184Y-5.9187
X8.4184Y-6.0605
X8.4184Y-6.3124
X8.4337Y-5.714
X8.4337Y-5.7664
X8.4337Y-5.8191
X8.4337Y-5.8715
X8.4337Y-6.1077
X8.4337Y-6.1601
X8.4337Y-6.2128
X8.4337Y-6.2652
T3
X9.9961Y-3.9606
X9.9961Y-4.0394
X10.0748Y-3.9606
X10.0748Y-4.0394
X10.1535Y-3.9606
X10.1535Y-4.0394
T4
X10.97Y-4.95
X10.97Y-5.54
X10.975Y-6.14
T5
X4.14Y-3.75
X4.14Y-3.8287
X5.65Y-3.7689
X5.65Y-3.8476
X9.1956Y-5.9144
X9.1956Y-5.9896
X9.1956Y-6.0648
X9.65Y-3.45
X9.65Y-3.55
X9.65Y-3.65
X9.65Y-3.75
X9.65Y-3.85
X9.65Y-3.95
X9.65Y-4.05
X9.65Y-4.15
X9.65Y-4.25
X9.65Y-4.35
X9.65Y-4.45
X9.65Y-4.55
X9.65Y-4.65
X9.65Y-4.75
X9.65Y-4.85
X9.65Y-4.95
X9.65Y-5.05
X9.65Y-5.15
X9.65Y-5.25
X9.65Y-5.35
X9.65Y-5.45
X9.65Y-5.55
X9.65Y-5.65
X9.65Y-5.75
X10.25Y-3.45
X10.25Y-3.55
X10.25Y-3.65
X10.25Y-3.75
X10.25Y-3.85
X10.25Y-3.95
X10.25Y-4.05
X10.25Y-4.15
X10.25Y-4.25
X10.25Y-4.35
X10.25Y-4.45
X10.25Y-4.55
X10.25Y-4.65
X10.25Y-4.75
X10.25Y-4.85
X10.25Y-4.95
X10.25Y-5.05
X10.25Y-5.15
X10.25Y-5.25
X10.25Y-5.35
X10.25Y-5.45
X10.25Y-5.55
X10.25Y-5.65
X10.25Y-5.75
T6
X8.9Y-4.995
X9.0Y-4.995
X9.1Y-4.995
T7
X9.88Y-7.165
X9.98Y-7.165
X10.08Y-7.165
X10.18Y-7.165
X10.28Y-7.165
X10.38Y-7.165
X10.48Y-7.165
X10.584Y-4.15
X10.634Y-4.05
X10.684Y-4.15
X10.734Y-4.05
X10.784Y-4.15
X10.834Y-4.05
X10.884Y-4.15
X10.934Y-4.05
X10.97Y-4.75
X10.97Y-4.85
X10.97Y-5.34
X10.97Y-5.44
X10.975Y-5.94
X10.975Y-6.04
T8
X9.22Y-3.5004
X9.22Y-3.7996
T9
X10.51Y-3.6705
X10.61Y-3.6
X10.908Y-3.6705
X11.008Y-3.6
T10
X6.0Y-4.873
X6.0Y-5.1683
X6.78Y-4.8713
X6.78Y-5.1666
X7.57Y-4.8713
X7.57Y-5.1666
X8.36Y-4.8713
X8.36Y-5.1666
T11
X4.12Y-5.37
X4.32Y-5.37
X4.5742Y-5.37
X4.7742Y-5.37
T12
X3.16Y-4.11
X3.16Y-4.91
X3.46Y-4.91
X3.56Y-4.11
X3.66Y-4.91
X3.96Y-4.11
X4.67Y-4.11
X4.67Y-4.91
X4.97Y-4.91
X5.07Y-4.11
X5.17Y-4.91
X5.47Y-4.11
T13
X10.449Y-3.9201
X11.0691Y-3.9201
T15
X10.534Y-3.8
X10.984Y-3.8
T14
G00X3.2432Y-6.6681
M15
G01X3.3258Y-6.6681
M16
G05
G00X3.2432Y-6.9781
M15
G01X3.3258Y-6.9781
M16
G05
G00X3.3819Y-5.4132
M15
G01X3.3819Y-5.4958
M16
G05
G00X3.6919Y-5.4132
M15
G01X3.6919Y-5.4958
M16
G05
G00X3.7432Y-6.6681
M15
G01X3.8258Y-6.6681
M16
G05
G00X3.7432Y-6.9781
M15
G01X3.8258Y-6.9781
M16
G05
G00X4.2432Y-6.6681
M15
G01X4.3258Y-6.6681
M16
G05
G00X4.2432Y-6.9781
M15
G01X4.3258Y-6.9781
M16
G05
G00X4.3268Y-4.0819
M15
G01X4.2442Y-4.0819
M16
G05
G00X4.3268Y-4.3919
M15
G01X4.2442Y-4.3919
M16
G05
G00X4.7432Y-6.6681
M15
G01X4.8258Y-6.6681
M16
G05
G00X4.7432Y-6.9781
M15
G01X4.8258Y-6.9781
M16
G05
G00X5.2432Y-6.6681
M15
G01X5.3258Y-6.6681
M16
G05
G00X5.2432Y-6.9781
M15
G01X5.3258Y-6.9781
M16
G05
G00X5.7432Y-6.6681
M15
G01X5.8258Y-6.6681
M16
G05
G00X5.7432Y-6.9781
M15
G01X5.8258Y-6.9781
M16
G05
G00X5.8368Y-4.0819
M15
G01X5.7542Y-4.0819
M16
G05
G00X5.8368Y-4.3919
M15
G01X5.7542Y-4.3919
M16
G05
G00X6.2432Y-6.6681
M15
G01X6.3258Y-6.6681
M16
G05
G00X6.2432Y-6.9781
M15
G01X6.3258Y-6.9781
M16
G05
G00X6.3268Y-4.0882
M15
G01X6.2442Y-4.0882
M16
G05
G00X6.3268Y-4.3982
M15
G01X6.2442Y-4.3982
M16
G05
G00X6.8268Y-4.0882
M15
G01X6.7442Y-4.0882
M16
G05
G00X6.8268Y-4.3982
M15
G01X6.7442Y-4.3982
M16
G05
G00X7.3268Y-4.0882
M15
G01X7.2442Y-4.0882
M16
G05
G00X7.3268Y-4.3982
M15
G01X7.2442Y-4.3982
M16
G05
G00X7.8268Y-4.0882
M15
G01X7.7442Y-4.0882
M16
G05
G00X7.8268Y-4.3982
M15
G01X7.7442Y-4.3982
M16
G05
G00X8.3268Y-4.0882
M15
G01X8.2442Y-4.0882
M16
G05
G00X8.3268Y-4.3982
M15
G01X8.2442Y-4.3982
M16
G05
G00X8.353Y-5.8715
M15
G01X8.353Y-5.714
M16
G05
G00X8.353Y-6.2652
M15
G01X8.353Y-6.1077
M16
G05
G00X8.5287Y-6.9726
M15
G01X8.6113Y-6.9726
M16
G05
G00X8.8387Y-6.9726
M15
G01X8.9213Y-6.9726
M16
G05
T0
M30
