%TF.GenerationSoftware,KiCad,Pcbnew,7.0.7*%
%TF.CreationDate,2024-03-26T21:52:30-05:00*%
%TF.ProjectId,PMS,504d532e-6b69-4636-9164-5f7063625858,rev?*%
%TF.SameCoordinates,Original*%
%TF.FileFunction,Soldermask,Bot*%
%TF.FilePolarity,Negative*%
%FSLAX46Y46*%
G04 Gerber Fmt 4.6, Leading zero omitted, Abs format (unit mm)*
G04 Created by KiCad (PCBNEW 7.0.7) date 2024-03-26 21:52:30*
%MOMM*%
%LPD*%
G01*
G04 APERTURE LIST*
G04 Aperture macros list*
%AMHorizOval*
0 Thick line with rounded ends*
0 $1 width*
0 $2 $3 position (X,Y) of the first rounded end (center of the circle)*
0 $4 $5 position (X,Y) of the second rounded end (center of the circle)*
0 Add line between two ends*
20,1,$1,$2,$3,$4,$5,0*
0 Add two circle primitives to create the rounded ends*
1,1,$1,$2,$3*
1,1,$1,$4,$5*%
G04 Aperture macros list end*
%ADD10R,2.400000X2.400000*%
%ADD11C,2.400000*%
%ADD12C,2.540000*%
%ADD13R,2.000000X2.000000*%
%ADD14C,2.000000*%
%ADD15C,2.946400*%
%ADD16R,1.500000X1.500000*%
%ADD17C,1.500000*%
%ADD18HorizOval,0.800000X0.000000X0.000000X0.000000X0.000000X0*%
%ADD19HorizOval,0.800000X0.000000X0.000000X0.000000X0.000000X0*%
%ADD20C,0.800000*%
%ADD21O,6.000000X9.000000*%
%ADD22C,1.308000*%
%ADD23C,1.208000*%
%ADD24C,1.100000*%
%ADD25C,1.400000*%
%ADD26C,4.000000*%
%ADD27C,1.524000*%
%ADD28C,3.450000*%
%ADD29R,1.600000X1.600000*%
%ADD30C,1.600000*%
%ADD31R,2.600000X2.600000*%
%ADD32O,2.600000X2.600000*%
%ADD33O,5.100000X3.000000*%
%ADD34O,3.000000X5.100000*%
G04 APERTURE END LIST*
D10*
%TO.C,C11*%
X192278000Y-131231509D03*
D11*
X192278000Y-123731509D03*
%TD*%
D12*
%TO.C,U7*%
X118618000Y-124714000D03*
X126238000Y-124714000D03*
X131318000Y-124714000D03*
X138938000Y-104394000D03*
X128778000Y-104394000D03*
X118618000Y-104394000D03*
%TD*%
D13*
%TO.C,BZ1*%
X234188000Y-88910000D03*
D14*
X234188000Y-96510000D03*
%TD*%
D15*
%TO.C,V2*%
X71882000Y-191262000D03*
%TD*%
D16*
%TO.C,U3*%
X233567000Y-154046000D03*
D17*
X233567000Y-152136000D03*
X233567000Y-150226000D03*
D18*
X211537000Y-151086000D03*
D19*
X212797000Y-151086000D03*
D20*
X210507000Y-150336000D03*
X213827000Y-150336000D03*
X210117000Y-149136000D03*
X214217000Y-149136000D03*
X210117000Y-147806000D03*
X214217000Y-147806000D03*
D21*
X212167000Y-147136000D03*
D20*
X210117000Y-146466000D03*
X214217000Y-146466000D03*
X210117000Y-145136000D03*
X214217000Y-145136000D03*
X210507000Y-143936000D03*
X213827000Y-143936000D03*
X211537000Y-143186000D03*
X212797000Y-143186000D03*
X211537000Y-161086000D03*
X212797000Y-161086000D03*
X210507000Y-160336000D03*
X213827000Y-160336000D03*
X210117000Y-159136000D03*
X214217000Y-159136000D03*
X210117000Y-157806000D03*
X214217000Y-157806000D03*
D21*
X212167000Y-157136000D03*
D20*
X210117000Y-156466000D03*
X214217000Y-156466000D03*
X210117000Y-155136000D03*
X214217000Y-155136000D03*
X210507000Y-153936000D03*
X213827000Y-153936000D03*
D19*
X211537000Y-153186000D03*
D18*
X212797000Y-153186000D03*
%TD*%
D22*
%TO.C,U1*%
X245110000Y-90170000D03*
X245110000Y-92710000D03*
X245110000Y-95250000D03*
X245110000Y-97790000D03*
X245110000Y-123190000D03*
X260350000Y-92710000D03*
X245110000Y-100330000D03*
X245110000Y-102870000D03*
X245110000Y-105410000D03*
X245110000Y-107950000D03*
X245110000Y-110490000D03*
X245110000Y-113030000D03*
X245110000Y-115570000D03*
X245110000Y-118110000D03*
X245110000Y-120650000D03*
X260350000Y-120650000D03*
X260350000Y-118110000D03*
X260350000Y-115570000D03*
X260350000Y-113030000D03*
X260350000Y-110490000D03*
X260350000Y-107950000D03*
X260350000Y-105410000D03*
X260350000Y-102870000D03*
X260350000Y-100330000D03*
X260350000Y-97790000D03*
X260350000Y-95250000D03*
X245110000Y-125730000D03*
X245110000Y-128270000D03*
X245110000Y-130810000D03*
X245110000Y-133350000D03*
X245110000Y-135890000D03*
X245110000Y-138430000D03*
X245110000Y-140970000D03*
X245110000Y-143510000D03*
X245110000Y-146050000D03*
X260350000Y-146050000D03*
X260350000Y-143510000D03*
X260350000Y-140970000D03*
X260350000Y-138430000D03*
X260350000Y-135890000D03*
X260350000Y-133350000D03*
X260350000Y-130810000D03*
X260350000Y-128270000D03*
X260350000Y-125730000D03*
X245110000Y-87630000D03*
X260350000Y-123190000D03*
X260350000Y-90170000D03*
D23*
X255900000Y-102600000D03*
X255900000Y-100600000D03*
X257900000Y-100600000D03*
X257900000Y-102600000D03*
X253900000Y-102600000D03*
X253900000Y-100600000D03*
D22*
X260350000Y-87630000D03*
%TD*%
D24*
%TO.C,J1*%
X277724000Y-102870000D03*
X276454000Y-105410000D03*
X275184000Y-102870000D03*
X273914000Y-105410000D03*
X272644000Y-102870000D03*
X271374000Y-105410000D03*
X270104000Y-102870000D03*
X268834000Y-105410000D03*
D25*
X279604000Y-91440000D03*
X277064000Y-93230000D03*
X269494000Y-91440000D03*
X266954000Y-93230000D03*
D26*
X278994000Y-96520000D03*
X267564000Y-96520000D03*
D14*
X281154000Y-99570000D03*
X265404000Y-99570000D03*
%TD*%
D27*
%TO.C,U2*%
X226060000Y-126873000D03*
X228600000Y-126873000D03*
X231140000Y-126873000D03*
%TD*%
D28*
%TO.C,Conn17*%
X287401000Y-149606000D03*
X287401000Y-157226000D03*
D27*
X278765000Y-150876000D03*
X278765000Y-153416000D03*
X278765000Y-155956000D03*
%TD*%
D29*
%TO.C,C6*%
X105156000Y-97250000D03*
D30*
X105156000Y-95250000D03*
%TD*%
D15*
%TO.C,V4*%
X71882000Y-89662000D03*
%TD*%
D10*
%TO.C,C10*%
X172212000Y-131231509D03*
D11*
X172212000Y-123731509D03*
%TD*%
D10*
%TO.C,C12*%
X152400000Y-131274755D03*
D11*
X152400000Y-123774755D03*
%TD*%
D10*
%TO.C,C13*%
X212344000Y-131231509D03*
D11*
X212344000Y-123731509D03*
%TD*%
D31*
%TO.C,D10*%
X121265000Y-136398000D03*
D32*
X116185000Y-136398000D03*
%TD*%
D15*
%TO.C,V1*%
X287782000Y-191262000D03*
%TD*%
D29*
%TO.C,C8*%
X143510000Y-97729113D03*
D30*
X143510000Y-95729113D03*
%TD*%
D15*
%TO.C,V3*%
X287782000Y-89662000D03*
%TD*%
D12*
%TO.C,U5*%
X80264000Y-124714000D03*
X87884000Y-124714000D03*
X92964000Y-124714000D03*
X100584000Y-104394000D03*
X90424000Y-104394000D03*
X80264000Y-104394000D03*
%TD*%
D28*
%TO.C,Conn19*%
X287274000Y-119380000D03*
X287274000Y-127000000D03*
D27*
X278638000Y-120650000D03*
X278638000Y-123190000D03*
X278638000Y-125730000D03*
%TD*%
D31*
%TO.C,D9*%
X109728000Y-136398000D03*
D32*
X104648000Y-136398000D03*
%TD*%
D28*
%TO.C,Conn18*%
X287274000Y-134366000D03*
X287274000Y-141986000D03*
D27*
X278638000Y-135636000D03*
X278638000Y-138176000D03*
X278638000Y-140716000D03*
%TD*%
D28*
%TO.C,Conn20*%
X267462000Y-190627000D03*
X249682000Y-190627000D03*
D27*
X266192000Y-181991000D03*
X263652000Y-181991000D03*
X261112000Y-181991000D03*
X258572000Y-181991000D03*
X256032000Y-181991000D03*
X253492000Y-181991000D03*
X250952000Y-181991000D03*
%TD*%
D33*
%TO.C,Conn9*%
X147205700Y-111555500D03*
X147205700Y-103681500D03*
%TD*%
%TO.C,Conn1*%
X159626300Y-169368500D03*
X159626300Y-177242500D03*
%TD*%
%TO.C,Conn2*%
X146926300Y-169368500D03*
X146926300Y-177242500D03*
%TD*%
%TO.C,Conn13*%
X185051700Y-111714000D03*
X185051700Y-103840000D03*
%TD*%
%TO.C,Conn4*%
X121526300Y-169368500D03*
X121526300Y-177242500D03*
%TD*%
%TO.C,Conn12*%
X172351700Y-111714000D03*
X172351700Y-103840000D03*
%TD*%
%TO.C,Conn16*%
X225552000Y-177102800D03*
X217678000Y-177102800D03*
%TD*%
%TO.C,Conn6*%
X83426300Y-169368500D03*
X83426300Y-177242500D03*
%TD*%
%TO.C,Conn15*%
X210451700Y-111714000D03*
X210451700Y-103840000D03*
%TD*%
%TO.C,Conn5*%
X108826300Y-169368500D03*
X108826300Y-177242500D03*
%TD*%
D34*
%TO.C,Conn8*%
X93775500Y-138544300D03*
X85901500Y-138544300D03*
%TD*%
D33*
%TO.C,Conn3*%
X134226300Y-169368500D03*
X134226300Y-177242500D03*
%TD*%
%TO.C,Conn7*%
X96126300Y-169368500D03*
X96126300Y-177242500D03*
%TD*%
%TO.C,Conn14*%
X197751700Y-111714000D03*
X197751700Y-103840000D03*
%TD*%
%TO.C,Conn11*%
X159651700Y-111714000D03*
X159651700Y-103840000D03*
%TD*%
%TO.C,Conn10*%
X108851700Y-111555500D03*
X108851700Y-103681500D03*
%TD*%
M02*
