M48
; DRILL file {KiCad 8.0.5} date 2024-11-14T23:51:53-0500
; FORMAT={-:-/ absolute / inch / decimal}
; #@! TF.CreationDate,2024-11-14T23:51:53-05:00
; #@! TF.GenerationSoftware,Kicad,Pcbnew,8.0.5
; #@! TF.FileFunction,Plated,1,2,PTH
FMAT,2
INCH
; #@! TA.AperFunction,Plated,PTH,ViaDrill
T1C0.0118
; #@! TA.AperFunction,Plated,PTH,ComponentDrill
T2C0.0197
; #@! TA.AperFunction,Plated,PTH,ComponentDrill
T3C0.0276
; #@! TA.AperFunction,Plated,PTH,ComponentDrill
T4C0.0315
; #@! TA.AperFunction,Plated,PTH,ComponentDrill
T5C0.0350
; #@! TA.AperFunction,Plated,PTH,ComponentDrill
T6C0.0354
; #@! TA.AperFunction,Plated,PTH,ComponentDrill
T7C0.0394
; #@! TA.AperFunction,Plated,PTH,ComponentDrill
T8C0.0402
; #@! TA.AperFunction,Plated,PTH,ComponentDrill
T9C0.0472
; #@! TA.AperFunction,Plated,PTH,ComponentDrill
T10C0.0550
; #@! TA.AperFunction,Plated,PTH,ComponentDrill
T11C0.0630
; #@! TA.AperFunction,Plated,PTH,ComponentDrill
T12C0.0787
; #@! TA.AperFunction,Plated,PTH,ComponentDrill
T13C0.1280
%
G90
G05
T1
X1.25Y-1.5
X1.25Y-1.75
X1.25Y-2.0
X1.25Y-2.25
X1.25Y-2.5
X1.25Y-2.75
X1.25Y-3.0
X1.25Y-3.25
X1.25Y-3.5
X1.25Y-3.75
X1.25Y-4.0
X1.25Y-4.25
X1.25Y-4.5
X1.25Y-4.75
X1.25Y-5.0
X1.25Y-5.25
X1.25Y-5.5
X1.25Y-5.75
X1.25Y-6.0
X1.25Y-6.25
X1.25Y-6.5
X1.25Y-6.75
X1.25Y-7.0
X1.45Y-3.434
X1.5Y-1.5
X1.5Y-1.75
X1.5Y-2.0
X1.5Y-2.25
X1.5Y-2.5
X1.5Y-2.75
X1.5Y-3.0
X1.5Y-3.25
X1.5Y-3.5
X1.5Y-3.75
X1.5Y-4.0
X1.5Y-4.25
X1.5Y-4.5
X1.5Y-4.75
X1.5Y-5.0
X1.5Y-5.25
X1.5Y-5.5
X1.5Y-5.75
X1.5Y-6.0
X1.5Y-6.25
X1.5Y-6.5
X1.5Y-6.75
X1.5Y-7.0
X1.5Y-7.25
X1.664Y-3.57
X1.68Y-5.56
X1.75Y-1.5
X1.75Y-1.75
X1.75Y-2.0
X1.75Y-2.25
X1.75Y-2.5
X1.75Y-2.75
X1.75Y-3.0
X1.75Y-6.5
X1.75Y-6.75
X1.75Y-7.0
X1.75Y-7.25
X2.0Y-1.5
X2.0Y-1.75
X2.0Y-2.0
X2.0Y-2.25
X2.0Y-2.5
X2.0Y-2.75
X2.0Y-3.0
X2.25Y-2.25
X2.25Y-2.5
X2.25Y-2.75
X2.25Y-3.0
X3.451Y-5.538
X3.475Y-6.79
X3.477Y-3.766
X3.5Y-3.6
X3.664Y-6.717
X3.67Y-5.794
X3.678Y-6.448
X3.6783Y-5.551
X3.695Y-6.938
X3.717Y-6.639
X3.718Y-6.243
X3.728Y-5.33
X3.743Y-6.882
X3.749Y-4.408
X3.7527Y-4.895
X3.764Y-4.63
X3.769Y-6.555
X3.771Y-3.423
X3.7823Y-5.226
X3.807Y-5.637
X3.824Y-4.354
X3.8496Y-6.326
X3.85Y-6.174
X3.857Y-5.71
X3.9Y-3.6
X3.9Y-4.349
X3.919Y-5.274
X3.933Y-6.168
X3.943Y-6.923
X4.002Y-6.953
X4.007Y-4.361
X4.022Y-5.285
X4.038Y-6.176
X4.053Y-4.493
X4.074Y-4.178
X4.081Y-5.556
X4.082Y-5.413
X4.089Y-6.311
X4.093Y-5.095
X4.103Y-6.0
X4.112Y-4.305
X4.1177Y-5.226
X4.125Y-4.747
X4.132Y-5.639
X4.132Y-6.125
X4.145Y-6.561
X4.1602Y-5.6531
X4.186Y-1.994
X4.203Y-3.328
X4.204Y-6.378
X4.21Y-4.536
X4.222Y-5.549
X4.225Y-5.221
X4.228Y-5.501
X4.235Y-3.7608
X4.241Y-5.353
X4.2547Y-5.0207
X4.3Y-5.3
X4.3Y-6.339
X4.321Y-4.793
X4.344Y-5.692
X4.35Y-5.15
X4.35Y-5.4
X4.359Y-6.907
X4.414Y-6.867
X4.5Y-5.15
X4.5Y-5.3
X4.5Y-5.4
X4.517Y-4.855
X4.52Y-6.92
X4.606Y-7.1917
X4.685Y-6.765
X4.711Y-7.1727
X4.801Y-7.1511
X4.88Y-5.285
X4.9Y-4.95
X4.912Y-7.1264
X4.95Y-3.65
X4.95Y-5.75
X4.977Y-5.986
X5.0Y-6.5
X5.007Y-7.1017
X5.024Y-4.849
X5.05Y-5.65
X5.05Y-5.85
X5.0809Y-5.525
X5.1809Y-3.755
X5.5Y-3.75
X5.5Y-4.0
X5.5Y-5.5
X5.5Y-5.75
X5.5Y-6.1
X5.75Y-3.75
X5.75Y-4.0
X5.75Y-4.5
X5.75Y-4.75
X5.75Y-5.5
X5.75Y-5.75
X5.75Y-6.0
X5.9Y-6.1
X6.0Y-3.75
X6.0Y-4.0
X6.0Y-4.5
X6.0Y-4.75
X6.0Y-5.5
X6.0Y-5.75
X6.0Y-6.0
X6.0449Y-4.975
X6.085Y-6.59
X6.085Y-6.935
X6.14Y-5.9
X6.225Y-6.56
X6.25Y-3.75
X6.25Y-4.0
X6.25Y-4.5
X6.25Y-4.75
X6.25Y-5.0
X6.25Y-5.5
X6.25Y-5.75
X6.5Y-3.75
X6.5Y-4.0
X6.5Y-4.5
X6.5Y-4.75
X6.5Y-5.0
X6.5Y-5.5
X6.5Y-5.75
X6.5Y-6.0
X6.5Y-6.25
X6.6162Y-5.7138
X6.625Y-5.625
X6.75Y-5.0
X6.75Y-5.5
X6.75Y-5.75
X6.75Y-6.0
X6.75Y-6.25
X6.8Y-4.8
X6.9Y-4.8
X6.96Y-3.367
X7.0Y-4.0
X7.0Y-4.8
X7.0Y-5.0
X7.0Y-5.5
X7.0Y-5.75
X7.0Y-6.0
X7.0Y-6.25
X7.062Y-3.549
X7.0699Y-6.0452
X7.0799Y-6.9918
X7.1249Y-3.3218
X7.209Y-2.036
X7.25Y-3.75
X7.25Y-4.0
X7.25Y-4.25
X7.25Y-4.5
X7.25Y-4.75
X7.25Y-5.0
X7.25Y-5.5
X7.25Y-5.75
X7.25Y-6.0
X7.25Y-7.25
X7.2849Y-5.2118
X7.302Y-1.96
X7.3249Y-2.9918
X7.5Y-1.25
X7.5Y-1.5
X7.5Y-3.75
X7.5Y-4.0
X7.5Y-4.25
X7.5Y-4.5
X7.5Y-4.75
X7.5Y-5.0
X7.5Y-5.25
X7.5Y-5.5
X7.5Y-5.75
X7.5Y-6.0
X7.5Y-7.25
X7.6149Y-2.9918
X7.6399Y-3.4468
X7.75Y-1.25
X7.75Y-1.5
X7.75Y-1.75
X7.75Y-6.0
X7.75Y-6.25
X7.75Y-7.25
X7.8Y-2.75
X7.8799Y-2.9918
X8.0Y-1.25
X8.0Y-1.5
X8.0Y-3.25
X8.0Y-3.75
X8.0Y-4.0
X8.0Y-4.25
X8.0Y-4.5
X8.0Y-5.0
X8.0Y-5.25
X8.0Y-5.5
X8.0Y-5.75
X8.0Y-7.25
X8.25Y-1.25
X8.25Y-1.5
X8.25Y-2.75
X8.25Y-3.0
X8.25Y-3.25
X8.25Y-3.5
X8.25Y-3.75
X8.25Y-4.0
X8.25Y-4.25
X8.25Y-4.5
X8.25Y-5.0
X8.25Y-5.25
X8.25Y-5.5
X8.25Y-5.75
X8.25Y-6.0
X8.25Y-6.25
X8.25Y-7.25
X8.5Y-1.25
X8.5Y-1.5
X8.5Y-2.75
X8.5Y-3.0
X8.5Y-3.25
X8.5Y-3.5
X8.5Y-3.75
X8.5Y-4.0
X8.5Y-4.25
X8.5Y-4.5
X8.5Y-4.75
X8.5Y-5.0
X8.5Y-5.25
X8.5Y-5.75
X8.5Y-6.0
X8.5Y-7.25
X8.75Y-1.25
X8.75Y-1.5
X8.75Y-5.25
X8.75Y-6.25
X8.75Y-7.0
X8.75Y-7.25
X9.0Y-1.25
X9.0Y-1.5
X9.0Y-5.25
X9.0Y-6.25
X9.0Y-7.0
X9.0Y-7.25
X9.016Y-1.751
X9.016Y-2.001
X9.016Y-2.251
X9.016Y-2.501
X9.016Y-2.751
X9.016Y-3.001
X9.016Y-3.251
X9.016Y-3.501
X9.016Y-3.751
X9.016Y-4.001
X9.016Y-4.251
X9.016Y-4.501
X9.016Y-4.751
X9.016Y-5.001
X9.018Y-5.501
X9.018Y-5.751
X9.018Y-6.001
X9.018Y-6.502
X9.018Y-6.752
X9.25Y-1.5
X9.25Y-5.25
X9.25Y-6.25
X9.25Y-7.0
X9.266Y-1.751
X9.266Y-2.001
X9.266Y-2.251
X9.266Y-2.501
X9.266Y-2.751
X9.266Y-3.001
X9.266Y-3.251
X9.266Y-3.501
X9.266Y-3.751
X9.266Y-4.001
X9.266Y-4.251
X9.266Y-4.501
X9.266Y-4.751
X9.266Y-5.001
X9.268Y-5.501
X9.268Y-5.751
X9.268Y-6.001
X9.268Y-6.502
X9.268Y-6.752
T2
X2.7963Y-3.2048
X2.7963Y-3.2572
X2.7963Y-3.3099
X2.7963Y-3.3623
X2.7963Y-3.5985
X2.7963Y-3.6509
X2.7963Y-3.7036
X2.7963Y-3.756
X2.8116Y-3.1576
X2.8116Y-3.4095
X2.8116Y-3.5513
X2.8116Y-3.8032
X2.8522Y-3.128
X2.8522Y-3.4391
X2.8522Y-3.5217
X2.8522Y-3.8328
X2.9018Y-3.128
X2.9018Y-3.4391
X2.9018Y-3.5217
X2.9018Y-3.8328
X2.9423Y-3.1576
X2.9423Y-3.4095
X2.9423Y-3.5513
X2.9423Y-3.8032
X2.9577Y-3.2048
X2.9577Y-3.2572
X2.9577Y-3.3099
X2.9577Y-3.3623
X2.9577Y-3.5985
X2.9577Y-3.6509
X2.9577Y-3.7036
X2.9577Y-3.756
T3
X4.6874Y-5.6456
X4.6874Y-5.7244
X4.7661Y-5.6456
X4.7661Y-5.7244
X4.8449Y-5.6456
X4.8449Y-5.7244
T4
X2.0344Y-3.4052
X2.0344Y-3.4804
X2.0344Y-3.5556
X4.5909Y-3.935
X4.5909Y-4.035
X4.5909Y-4.135
X4.5909Y-4.235
X4.5909Y-4.335
X4.5909Y-4.435
X4.5909Y-4.535
X4.5909Y-4.635
X4.5909Y-4.735
X4.5909Y-4.835
X4.5909Y-4.935
X4.5909Y-5.035
X4.5909Y-5.135
X4.5909Y-5.235
X4.5909Y-5.335
X4.5909Y-5.435
X4.5909Y-5.535
X4.5909Y-5.635
X4.5909Y-5.735
X4.5909Y-5.835
X4.5909Y-5.935
X4.5909Y-6.035
X4.5909Y-6.135
X4.5909Y-6.235
X5.1909Y-3.935
X5.1909Y-4.035
X5.1909Y-4.135
X5.1909Y-4.235
X5.1909Y-4.335
X5.1909Y-4.435
X5.1909Y-4.535
X5.1909Y-4.635
X5.1909Y-4.735
X5.1909Y-4.835
X5.1909Y-4.935
X5.1909Y-5.035
X5.1909Y-5.135
X5.1909Y-5.235
X5.1909Y-5.335
X5.1909Y-5.435
X5.1909Y-5.535
X5.1909Y-5.635
X5.1909Y-5.735
X5.1909Y-5.835
X5.1909Y-5.935
X5.1909Y-6.035
X5.1909Y-6.135
X5.1909Y-6.235
X7.2761Y-6.1818
X7.3549Y-6.1818
X8.3211Y-4.7868
X8.3999Y-4.7868
T5
X6.7299Y-3.4518
X6.7299Y-3.5518
X6.7299Y-3.6518
T6
X3.6249Y-7.0268
X3.7249Y-7.0268
X3.8249Y-7.0268
X3.9249Y-7.0268
X4.0249Y-7.0268
X4.1249Y-7.0268
X4.2249Y-7.0268
X4.52Y-7.025
X4.62Y-7.025
X4.72Y-7.025
X4.82Y-7.025
X4.92Y-7.025
X5.02Y-7.025
X5.12Y-7.025
X5.42Y-7.025
X5.52Y-7.025
X5.62Y-7.025
X5.9249Y-7.0268
X6.0249Y-7.0268
X6.1249Y-7.0268
X6.4889Y-6.825
X6.5389Y-6.725
X6.5889Y-6.825
X6.6389Y-6.725
X6.6889Y-6.825
X6.7389Y-6.725
X6.7889Y-6.825
X6.8389Y-6.725
T7
X6.7353Y-4.3218
X7.0345Y-4.3218
T8
X6.4149Y-7.275
X6.5149Y-7.2045
X6.8129Y-7.275
X6.9129Y-7.2045
T9
X1.763Y-4.213
X2.0583Y-4.213
X2.5357Y-4.221
X2.5367Y-4.925
X2.831Y-4.221
X2.832Y-4.925
X3.3047Y-4.912
X3.6Y-4.912
T10
X7.613Y-5.1459
X7.613Y-5.9459
X7.6183Y-6.2902
X7.6183Y-7.0902
X7.913Y-5.9459
X7.9183Y-7.0902
X8.013Y-5.1459
X8.0183Y-6.2902
X8.113Y-5.9459
X8.1183Y-7.0902
X8.413Y-5.1459
X8.4183Y-6.2902
T11
X6.3539Y-6.9549
X6.9739Y-6.9549
T13
X6.4389Y-7.075
X6.8889Y-7.075
T12
G00X2.0637Y-6.8426
M15
G01X2.1463Y-6.8426
M16
G05
G00X2.3737Y-6.8426
M15
G01X2.4563Y-6.8426
M16
G05
G00X2.6333Y-1.7564
M15
G01X2.5507Y-1.7564
M16
G05
G00X2.7527Y-6.8426
M15
G01X2.8353Y-6.8426
M16
G05
G00X2.877Y-3.2048
M15
G01X2.877Y-3.3623
M16
G05
G00X2.877Y-3.5985
M15
G01X2.877Y-3.756
M16
G05
G00X2.9433Y-1.7564
M15
G01X2.8607Y-1.7564
M16
G05
G00X3.0627Y-6.8426
M15
G01X3.1453Y-6.8426
M16
G05
G00X3.2949Y-1.7564
M15
G01X3.2122Y-1.7564
M16
G05
G00X3.6049Y-1.7564
M15
G01X3.5222Y-1.7564
M16
G05
G00X3.9733Y-1.7564
M15
G01X3.8907Y-1.7564
M16
G05
G00X4.2833Y-1.7564
M15
G01X4.2007Y-1.7564
M16
G05
G00X4.6533Y-1.7564
M15
G01X4.5707Y-1.7564
M16
G05
G00X4.9633Y-1.7564
M15
G01X4.8807Y-1.7564
M16
G05
G00X5.3349Y-1.7564
M15
G01X5.2522Y-1.7564
M16
G05
G00X5.6449Y-1.7564
M15
G01X5.5622Y-1.7564
M16
G05
G00X6.0133Y-1.7564
M15
G01X5.9307Y-1.7564
M16
G05
G00X6.3233Y-1.7564
M15
G01X6.2407Y-1.7564
M16
G05
G00X7.1595Y-1.7751
M15
G01X7.0769Y-1.7751
M16
G05
G00X7.4695Y-1.7751
M15
G01X7.3869Y-1.7751
M16
G05
G00X8.7386Y-3.2855
M15
G01X8.7386Y-3.2029
M16
G05
G00X8.7386Y-3.5955
M15
G01X8.7386Y-3.5129
M16
G05
G00X8.7436Y-1.9523
M15
G01X8.7436Y-1.8697
M16
G05
G00X8.7436Y-2.2623
M15
G01X8.7436Y-2.1797
M16
G05
G00X8.7436Y-2.6323
M15
G01X8.7436Y-2.5497
M16
G05
G00X8.7436Y-2.9423
M15
G01X8.7436Y-2.8597
M16
G05
G00X8.7436Y-4.6323
M15
G01X8.7436Y-4.5497
M16
G05
G00X8.7436Y-4.9423
M15
G01X8.7436Y-4.8597
M16
G05
G00X8.744Y-3.9573
M15
G01X8.744Y-3.8747
M16
G05
G00X8.744Y-4.2673
M15
G01X8.744Y-4.1847
M16
G05
G00X8.7456Y-5.5873
M15
G01X8.7456Y-5.5047
M16
G05
G00X8.7456Y-5.8973
M15
G01X8.7456Y-5.8147
M16
G05
G00X8.7456Y-6.4933
M15
G01X8.7456Y-6.4107
M16
G05
G00X8.7456Y-6.8033
M15
G01X8.7456Y-6.7207
M16
G05
M30
