%TF.GenerationSoftware,KiCad,Pcbnew,8.0.5*%
%TF.CreationDate,2024-11-14T23:51:14-05:00*%
%TF.ProjectId,Power_Management_2025_Rev1,506f7765-725f-44d6-916e-6167656d656e,rev?*%
%TF.SameCoordinates,Original*%
%TF.FileFunction,Soldermask,Top*%
%TF.FilePolarity,Negative*%
%FSLAX46Y46*%
G04 Gerber Fmt 4.6, Leading zero omitted, Abs format (unit mm)*
G04 Created by KiCad (PCBNEW 8.0.5) date 2024-11-14 23:51:14*
%MOMM*%
%LPD*%
G01*
G04 APERTURE LIST*
G04 Aperture macros list*
%AMRoundRect*
0 Rectangle with rounded corners*
0 $1 Rounding radius*
0 $2 $3 $4 $5 $6 $7 $8 $9 X,Y pos of 4 corners*
0 Add a 4 corners polygon primitive as box body*
4,1,4,$2,$3,$4,$5,$6,$7,$8,$9,$2,$3,0*
0 Add four circle primitives for the rounded corners*
1,1,$1+$1,$2,$3*
1,1,$1+$1,$4,$5*
1,1,$1+$1,$6,$7*
1,1,$1+$1,$8,$9*
0 Add four rect primitives between the rounded corners*
20,1,$1+$1,$2,$3,$4,$5,0*
20,1,$1+$1,$4,$5,$6,$7,0*
20,1,$1+$1,$6,$7,$8,$9,0*
20,1,$1+$1,$8,$9,$2,$3,0*%
%AMHorizOval*
0 Thick line with rounded ends*
0 $1 width*
0 $2 $3 position (X,Y) of the first rounded end (center of the circle)*
0 $4 $5 position (X,Y) of the second rounded end (center of the circle)*
0 Add line between two ends*
20,1,$1,$2,$3,$4,$5,0*
0 Add two circle primitives to create the rounded ends*
1,1,$1,$2,$3*
1,1,$1,$4,$5*%
G04 Aperture macros list end*
%ADD10O,5.100000X3.000000*%
%ADD11RoundRect,0.237500X-0.237500X0.287500X-0.237500X-0.287500X0.237500X-0.287500X0.237500X0.287500X0*%
%ADD12RoundRect,0.250000X-0.412500X-0.650000X0.412500X-0.650000X0.412500X0.650000X-0.412500X0.650000X0*%
%ADD13RoundRect,0.237500X0.250000X0.237500X-0.250000X0.237500X-0.250000X-0.237500X0.250000X-0.237500X0*%
%ADD14RoundRect,0.237500X0.237500X-0.287500X0.237500X0.287500X-0.237500X0.287500X-0.237500X-0.287500X0*%
%ADD15RoundRect,0.237500X-0.250000X-0.237500X0.250000X-0.237500X0.250000X0.237500X-0.250000X0.237500X0*%
%ADD16RoundRect,0.150000X-0.150000X0.825000X-0.150000X-0.825000X0.150000X-0.825000X0.150000X0.825000X0*%
%ADD17RoundRect,0.150000X0.150000X-0.825000X0.150000X0.825000X-0.150000X0.825000X-0.150000X-0.825000X0*%
%ADD18C,2.946400*%
%ADD19C,2.540000*%
%ADD20RoundRect,0.150000X0.150000X-0.725000X0.150000X0.725000X-0.150000X0.725000X-0.150000X-0.725000X0*%
%ADD21C,3.450000*%
%ADD22C,1.524000*%
%ADD23RoundRect,0.237500X-0.237500X0.250000X-0.237500X-0.250000X0.237500X-0.250000X0.237500X0.250000X0*%
%ADD24RoundRect,0.200000X-0.200000X2.100000X-0.200000X-2.100000X0.200000X-2.100000X0.200000X2.100000X0*%
%ADD25RoundRect,0.250002X-5.149998X4.449998X-5.149998X-4.449998X5.149998X-4.449998X5.149998X4.449998X0*%
%ADD26RoundRect,0.237500X0.237500X-0.300000X0.237500X0.300000X-0.237500X0.300000X-0.237500X-0.300000X0*%
%ADD27RoundRect,0.150000X0.825000X0.150000X-0.825000X0.150000X-0.825000X-0.150000X0.825000X-0.150000X0*%
%ADD28RoundRect,0.250000X-0.650000X0.412500X-0.650000X-0.412500X0.650000X-0.412500X0.650000X0.412500X0*%
%ADD29O,3.000000X5.100000*%
%ADD30RoundRect,0.237500X0.237500X-0.250000X0.237500X0.250000X-0.237500X0.250000X-0.237500X-0.250000X0*%
%ADD31R,2.400000X2.400000*%
%ADD32C,2.400000*%
%ADD33RoundRect,0.237500X0.287500X0.237500X-0.287500X0.237500X-0.287500X-0.237500X0.287500X-0.237500X0*%
%ADD34R,2.000000X2.000000*%
%ADD35C,2.000000*%
%ADD36RoundRect,0.200000X2.100000X0.200000X-2.100000X0.200000X-2.100000X-0.200000X2.100000X-0.200000X0*%
%ADD37RoundRect,0.250002X4.449998X5.149998X-4.449998X5.149998X-4.449998X-5.149998X4.449998X-5.149998X0*%
%ADD38R,1.600000X1.600000*%
%ADD39C,1.600000*%
%ADD40C,1.100000*%
%ADD41C,1.400000*%
%ADD42C,4.000000*%
%ADD43RoundRect,0.275000X-2.025000X-0.275000X2.025000X-0.275000X2.025000X0.275000X-2.025000X0.275000X0*%
%ADD44RoundRect,0.250000X-4.450000X-5.150000X4.450000X-5.150000X4.450000X5.150000X-4.450000X5.150000X0*%
%ADD45C,1.308000*%
%ADD46C,1.208000*%
%ADD47RoundRect,0.237500X-0.287500X-0.237500X0.287500X-0.237500X0.287500X0.237500X-0.287500X0.237500X0*%
%ADD48R,6.150000X3.400000*%
%ADD49RoundRect,0.150000X0.587500X0.150000X-0.587500X0.150000X-0.587500X-0.150000X0.587500X-0.150000X0*%
%ADD50R,1.500000X1.500000*%
%ADD51C,1.500000*%
%ADD52HorizOval,0.800000X0.000000X0.000000X0.000000X0.000000X0*%
%ADD53HorizOval,0.800000X0.000000X0.000000X0.000000X0.000000X0*%
%ADD54C,0.800000*%
%ADD55O,6.000000X9.000000*%
G04 APERTURE END LIST*
D10*
%TO.C,Conn6*%
X107746800Y-44613800D03*
X99872800Y-44613800D03*
%TD*%
D11*
%TO.C,D4*%
X43812000Y-80705000D03*
X43812000Y-82455000D03*
%TD*%
D12*
%TO.C,C13*%
X185124500Y-173528000D03*
X188249500Y-173528000D03*
%TD*%
D13*
%TO.C,R10*%
X102563300Y-105308400D03*
X100738300Y-105308400D03*
%TD*%
D14*
%TO.C,D9*%
X206753000Y-72041000D03*
X206753000Y-70291000D03*
%TD*%
D13*
%TO.C,R15*%
X99441000Y-128752600D03*
X97616000Y-128752600D03*
%TD*%
D15*
%TO.C,R14*%
X97971600Y-147548600D03*
X99796600Y-147548600D03*
%TD*%
D16*
%TO.C,U14*%
X190993800Y-49569600D03*
X189723800Y-49569600D03*
X188453800Y-49569600D03*
X187183800Y-49569600D03*
X187183800Y-54519600D03*
X188453800Y-54519600D03*
X189723800Y-54519600D03*
X190993800Y-54519600D03*
%TD*%
D17*
%TO.C,U11*%
X102997034Y-91401885D03*
X104267034Y-91401885D03*
X105537034Y-91401885D03*
X106807034Y-91401885D03*
X106807034Y-86451885D03*
X105537034Y-86451885D03*
X104267034Y-86451885D03*
X102997034Y-86451885D03*
%TD*%
D10*
%TO.C,Conn5*%
X90513800Y-44613800D03*
X82639800Y-44613800D03*
%TD*%
%TO.C,Conn4*%
X73710800Y-44613800D03*
X65836800Y-44613800D03*
%TD*%
D12*
%TO.C,C11*%
X197951500Y-119680000D03*
X201076500Y-119680000D03*
%TD*%
D15*
%TO.C,R6*%
X101095800Y-124739400D03*
X102920800Y-124739400D03*
%TD*%
D18*
%TO.C,H3*%
X30480000Y-187960000D03*
%TD*%
D19*
%TO.C,U12*%
X193370000Y-151025000D03*
X200990000Y-151025000D03*
X206070000Y-151025000D03*
X213690000Y-130705000D03*
X203530000Y-130705000D03*
X193370000Y-130705000D03*
%TD*%
D20*
%TO.C,U6*%
X98196400Y-117613500D03*
X99466400Y-117613500D03*
X100736400Y-117613500D03*
X102006400Y-117613500D03*
X102006400Y-112463500D03*
X100736400Y-112463500D03*
X99466400Y-112463500D03*
X98196400Y-112463500D03*
%TD*%
D21*
%TO.C,Conn3*%
X156842000Y-187117000D03*
X149222000Y-187117000D03*
D22*
X155572000Y-178481000D03*
X153032000Y-178481000D03*
X150492000Y-178481000D03*
%TD*%
D13*
%TO.C,R18*%
X102918900Y-128752600D03*
X101093900Y-128752600D03*
%TD*%
D23*
%TO.C,R34*%
X206753000Y-65681500D03*
X206753000Y-67506500D03*
%TD*%
D13*
%TO.C,R30*%
X188615500Y-163495000D03*
X186790500Y-163495000D03*
%TD*%
D15*
%TO.C,R19*%
X101883200Y-170942000D03*
X103708200Y-170942000D03*
%TD*%
D24*
%TO.C,Q4*%
X178380000Y-50425000D03*
X177110000Y-50425000D03*
X175840000Y-50425000D03*
D25*
X174570000Y-59575000D03*
D24*
X173300000Y-50425000D03*
X172030000Y-50425000D03*
X170760000Y-50425000D03*
%TD*%
D26*
%TO.C,C3*%
X173252000Y-167513000D03*
X173252000Y-165788000D03*
%TD*%
D27*
%TO.C,U10*%
X200465000Y-80564000D03*
X200465000Y-79294000D03*
X200465000Y-78024000D03*
X200465000Y-76754000D03*
X195515000Y-76754000D03*
X195515000Y-78024000D03*
X195515000Y-79294000D03*
X195515000Y-80564000D03*
%TD*%
D13*
%TO.C,R16*%
X99441000Y-132740400D03*
X97616000Y-132740400D03*
%TD*%
%TO.C,R35*%
X67965500Y-76881000D03*
X66140500Y-76881000D03*
%TD*%
D28*
%TO.C,C2*%
X170939000Y-96908500D03*
X170939000Y-100033500D03*
%TD*%
D13*
%TO.C,R23*%
X99900100Y-151561800D03*
X98075100Y-151561800D03*
%TD*%
D21*
%TO.C,Conn2*%
X108582000Y-187117000D03*
X90802000Y-187117000D03*
D22*
X107312000Y-178481000D03*
X104772000Y-178481000D03*
X102232000Y-178481000D03*
X99692000Y-178481000D03*
X97152000Y-178481000D03*
X94612000Y-178481000D03*
X92072000Y-178481000D03*
%TD*%
D12*
%TO.C,C9*%
X196011000Y-85090000D03*
X199136000Y-85090000D03*
%TD*%
D29*
%TO.C,Conn14*%
X222086200Y-56413400D03*
X222086200Y-48539400D03*
%TD*%
D13*
%TO.C,R26*%
X103329100Y-151561800D03*
X101504100Y-151561800D03*
%TD*%
D18*
%TO.C,H1*%
X30480000Y-30480000D03*
%TD*%
D30*
%TO.C,R2*%
X179321000Y-93311000D03*
X179321000Y-91486000D03*
%TD*%
D13*
%TO.C,R21*%
X100228400Y-166928800D03*
X98403400Y-166928800D03*
%TD*%
D29*
%TO.C,Conn15*%
X222086200Y-73685400D03*
X222086200Y-65811400D03*
%TD*%
D15*
%TO.C,R9*%
X100738300Y-109321600D03*
X102563300Y-109321600D03*
%TD*%
D29*
%TO.C,Conn17*%
X222098100Y-107340400D03*
X222098100Y-99466400D03*
%TD*%
D31*
%TO.C,C7*%
X64432800Y-125095000D03*
D32*
X71932800Y-125095000D03*
%TD*%
D20*
%TO.C,U5*%
X98960300Y-163790700D03*
X100230300Y-163790700D03*
X101500300Y-163790700D03*
X102770300Y-163790700D03*
X102770300Y-158640700D03*
X101500300Y-158640700D03*
X100230300Y-158640700D03*
X98960300Y-158640700D03*
%TD*%
D14*
%TO.C,D7*%
X64744600Y-56969600D03*
X64744600Y-55219600D03*
%TD*%
D28*
%TO.C,C1*%
X152908000Y-87426000D03*
X152908000Y-90551000D03*
%TD*%
D13*
%TO.C,R13*%
X99822000Y-143484600D03*
X97997000Y-143484600D03*
%TD*%
D15*
%TO.C,R5*%
X101121200Y-120777000D03*
X102946200Y-120777000D03*
%TD*%
D31*
%TO.C,C5*%
X64407400Y-107213400D03*
D32*
X71907400Y-107213400D03*
%TD*%
D10*
%TO.C,Conn10*%
X159562800Y-44613800D03*
X151688800Y-44613800D03*
%TD*%
D33*
%TO.C,D3*%
X176862000Y-119482000D03*
X175112000Y-119482000D03*
%TD*%
D24*
%TO.C,Q3*%
X102330200Y-50425000D03*
X101060200Y-50425000D03*
X99790200Y-50425000D03*
D25*
X98520200Y-59575000D03*
D24*
X97250200Y-50425000D03*
X95980200Y-50425000D03*
X94710200Y-50425000D03*
%TD*%
D13*
%TO.C,R24*%
X99874700Y-155575000D03*
X98049700Y-155575000D03*
%TD*%
D19*
%TO.C,U13*%
X193505000Y-180090000D03*
X201125000Y-180090000D03*
X206205000Y-180090000D03*
X213825000Y-159770000D03*
X203665000Y-159770000D03*
X193505000Y-159770000D03*
%TD*%
D23*
%TO.C,R31*%
X204721000Y-118767500D03*
X204721000Y-120592500D03*
%TD*%
D10*
%TO.C,Conn11*%
X188676000Y-45087400D03*
X180802000Y-45087400D03*
%TD*%
D15*
%TO.C,R22*%
X98403400Y-170942000D03*
X100228400Y-170942000D03*
%TD*%
D18*
%TO.C,H4*%
X236220000Y-187960000D03*
%TD*%
D21*
%TO.C,Conn20*%
X131318000Y-187071000D03*
X113538000Y-187071000D03*
D22*
X130048000Y-178435000D03*
X127508000Y-178435000D03*
X124968000Y-178435000D03*
X122428000Y-178435000D03*
X119888000Y-178435000D03*
X117348000Y-178435000D03*
X114808000Y-178435000D03*
%TD*%
D34*
%TO.C,B1*%
X171076000Y-109774000D03*
D35*
X178676000Y-109774000D03*
%TD*%
D13*
%TO.C,R8*%
X99085400Y-109321600D03*
X97260400Y-109321600D03*
%TD*%
D15*
%TO.C,R20*%
X101832400Y-166928800D03*
X103657400Y-166928800D03*
%TD*%
D23*
%TO.C,R32*%
X64744600Y-49864000D03*
X64744600Y-51689000D03*
%TD*%
D13*
%TO.C,R28*%
X111783500Y-91160600D03*
X109958500Y-91160600D03*
%TD*%
D36*
%TO.C,Q2*%
X200560000Y-66959000D03*
X200560000Y-65689000D03*
X200560000Y-64419000D03*
D37*
X191410000Y-63149000D03*
D36*
X200560000Y-61879000D03*
X200560000Y-60609000D03*
X200560000Y-59339000D03*
%TD*%
D33*
%TO.C,D8*%
X194931000Y-47244000D03*
X193181000Y-47244000D03*
%TD*%
D15*
%TO.C,R33*%
X183491500Y-47752000D03*
X185316500Y-47752000D03*
%TD*%
D38*
%TO.C,C10*%
X211357000Y-121585000D03*
D39*
X213357000Y-121585000D03*
%TD*%
D31*
%TO.C,C4*%
X52280755Y-107010200D03*
D32*
X44780755Y-107010200D03*
%TD*%
D13*
%TO.C,R27*%
X205092500Y-78024000D03*
X203267500Y-78024000D03*
%TD*%
D40*
%TO.C,J1*%
X164818000Y-173355000D03*
X166088000Y-170815000D03*
X167358000Y-173355000D03*
X168628000Y-170815000D03*
X169898000Y-173355000D03*
X171168000Y-170815000D03*
X172438000Y-173355000D03*
X173708000Y-170815000D03*
D41*
X162938000Y-184785000D03*
X165478000Y-182995000D03*
X173048000Y-184785000D03*
X175588000Y-182995000D03*
D42*
X163548000Y-179705000D03*
X174978000Y-179705000D03*
D35*
X161388000Y-176655000D03*
X177138000Y-176655000D03*
%TD*%
D23*
%TO.C,R1*%
X172290000Y-117657000D03*
X172290000Y-119482000D03*
%TD*%
D20*
%TO.C,U4*%
X98552000Y-141006900D03*
X99822000Y-141006900D03*
X101092000Y-141006900D03*
X102362000Y-141006900D03*
X102362000Y-135856900D03*
X101092000Y-135856900D03*
X99822000Y-135856900D03*
X98552000Y-135856900D03*
%TD*%
D10*
%TO.C,Conn7*%
X125018800Y-44613800D03*
X117144800Y-44613800D03*
%TD*%
D31*
%TO.C,C6*%
X83940000Y-124764800D03*
D32*
X91440000Y-124764800D03*
%TD*%
D29*
%TO.C,Conn16*%
X221959200Y-90276400D03*
X221959200Y-82402400D03*
%TD*%
D43*
%TO.C,D1*%
X43775000Y-131064000D03*
D44*
X52925000Y-133604000D03*
D43*
X43775000Y-136144000D03*
%TD*%
D29*
%TO.C,Conn13*%
X222137000Y-148742400D03*
X222137000Y-140868400D03*
%TD*%
D45*
%TO.C,U1*%
X131850000Y-155829000D03*
X131850000Y-153289000D03*
X131850000Y-150749000D03*
X131850000Y-148209000D03*
X131850000Y-122809000D03*
X116610000Y-153289000D03*
X131850000Y-145669000D03*
X131850000Y-143129000D03*
X131850000Y-140589000D03*
X131850000Y-138049000D03*
X131850000Y-135509000D03*
X131850000Y-132969000D03*
X131850000Y-130429000D03*
X131850000Y-127889000D03*
X131850000Y-125349000D03*
X116610000Y-125349000D03*
X116610000Y-127889000D03*
X116610000Y-130429000D03*
X116610000Y-132969000D03*
X116610000Y-135509000D03*
X116610000Y-138049000D03*
X116610000Y-140589000D03*
X116610000Y-143129000D03*
X116610000Y-145669000D03*
X116610000Y-148209000D03*
X116610000Y-150749000D03*
X131850000Y-120269000D03*
X131850000Y-117729000D03*
X131850000Y-115189000D03*
X131850000Y-112649000D03*
X131850000Y-110109000D03*
X131850000Y-107569000D03*
X131850000Y-105029000D03*
X131850000Y-102489000D03*
X131850000Y-99949000D03*
X116610000Y-99949000D03*
X116610000Y-102489000D03*
X116610000Y-105029000D03*
X116610000Y-107569000D03*
X116610000Y-110109000D03*
X116610000Y-112649000D03*
X116610000Y-115189000D03*
X116610000Y-117729000D03*
X116610000Y-120269000D03*
X131850000Y-158369000D03*
X116610000Y-122809000D03*
X116610000Y-155829000D03*
D46*
X121060000Y-143399000D03*
X121060000Y-145399000D03*
X119060000Y-145399000D03*
X119060000Y-143399000D03*
X123060000Y-143399000D03*
X123060000Y-145399000D03*
D45*
X116610000Y-158369000D03*
%TD*%
D33*
%TO.C,D6*%
X206513400Y-123825000D03*
X204763400Y-123825000D03*
%TD*%
D47*
%TO.C,D10*%
X61606000Y-76881000D03*
X63356000Y-76881000D03*
%TD*%
D29*
%TO.C,Conn12*%
X222137000Y-171754800D03*
X222137000Y-163880800D03*
%TD*%
D15*
%TO.C,R11*%
X101525700Y-147548600D03*
X103350700Y-147548600D03*
%TD*%
D21*
%TO.C,Conn9*%
X144018000Y-187071000D03*
X136398000Y-187071000D03*
D22*
X142748000Y-178435000D03*
X140208000Y-178435000D03*
X137668000Y-178435000D03*
%TD*%
D47*
%TO.C,D5*%
X181494000Y-163495000D03*
X183244000Y-163495000D03*
%TD*%
D15*
%TO.C,R12*%
X101426000Y-143484600D03*
X103251000Y-143484600D03*
%TD*%
%TO.C,R4*%
X97616000Y-124739400D03*
X99441000Y-124739400D03*
%TD*%
D10*
%TO.C,Conn1*%
X53467000Y-173800800D03*
X61341000Y-173800800D03*
%TD*%
D18*
%TO.C,H2*%
X236220000Y-30480000D03*
%TD*%
D48*
%TO.C,F1*%
X68072000Y-144066000D03*
X68072000Y-137366000D03*
%TD*%
D49*
%TO.C,Q1*%
X181180000Y-120498000D03*
X181180000Y-118598000D03*
X179305000Y-119548000D03*
%TD*%
D15*
%TO.C,R17*%
X101095800Y-132740400D03*
X102920800Y-132740400D03*
%TD*%
D50*
%TO.C,U3*%
X51675000Y-86492000D03*
D51*
X51675000Y-88402000D03*
X51675000Y-90312000D03*
D52*
X73705000Y-89452000D03*
D53*
X72445000Y-89452000D03*
D54*
X74735000Y-90202000D03*
X71415000Y-90202000D03*
X75125000Y-91402000D03*
X71025000Y-91402000D03*
X75125000Y-92732000D03*
X71025000Y-92732000D03*
D55*
X73075000Y-93402000D03*
D54*
X75125000Y-94072000D03*
X71025000Y-94072000D03*
X75125000Y-95402000D03*
X71025000Y-95402000D03*
X74735000Y-96602000D03*
X71415000Y-96602000D03*
X73705000Y-97352000D03*
X72445000Y-97352000D03*
X73705000Y-79452000D03*
X72445000Y-79452000D03*
X74735000Y-80202000D03*
X71415000Y-80202000D03*
X75125000Y-81402000D03*
X71025000Y-81402000D03*
X75125000Y-82732000D03*
X71025000Y-82732000D03*
D55*
X73075000Y-83402000D03*
D54*
X75125000Y-84072000D03*
X71025000Y-84072000D03*
X75125000Y-85402000D03*
X71025000Y-85402000D03*
X74735000Y-86602000D03*
X71415000Y-86602000D03*
D53*
X73705000Y-87352000D03*
D52*
X72445000Y-87352000D03*
%TD*%
D22*
%TO.C,U2*%
X170939000Y-87676000D03*
X170939000Y-90216000D03*
X170939000Y-92756000D03*
%TD*%
D15*
%TO.C,R25*%
X101504100Y-155575000D03*
X103329100Y-155575000D03*
%TD*%
D38*
%TO.C,C8*%
X184814000Y-157018000D03*
D39*
X186814000Y-157018000D03*
%TD*%
D10*
%TO.C,Conn8*%
X142329800Y-44613800D03*
X134455800Y-44613800D03*
%TD*%
D30*
%TO.C,R29*%
X43812000Y-86787000D03*
X43812000Y-84962000D03*
%TD*%
D13*
%TO.C,R7*%
X99085400Y-105308400D03*
X97260400Y-105308400D03*
%TD*%
D28*
%TO.C,C14*%
X115316000Y-87553000D03*
X115316000Y-90678000D03*
%TD*%
D29*
%TO.C,Conn18*%
X222086200Y-124485400D03*
X222086200Y-116611400D03*
%TD*%
D13*
%TO.C,R3*%
X99466400Y-120802400D03*
X97641400Y-120802400D03*
%TD*%
D28*
%TO.C,C12*%
X191055800Y-87549000D03*
X191055800Y-90674000D03*
%TD*%
D10*
%TO.C,Conn19*%
X78841600Y-173800800D03*
X70967600Y-173800800D03*
%TD*%
M02*
