%TF.GenerationSoftware,KiCad,Pcbnew,8.0.5*%
%TF.CreationDate,2024-11-14T23:51:14-05:00*%
%TF.ProjectId,Power_Management_2025_Rev1,506f7765-725f-44d6-916e-6167656d656e,rev?*%
%TF.SameCoordinates,Original*%
%TF.FileFunction,Soldermask,Bot*%
%TF.FilePolarity,Negative*%
%FSLAX46Y46*%
G04 Gerber Fmt 4.6, Leading zero omitted, Abs format (unit mm)*
G04 Created by KiCad (PCBNEW 8.0.5) date 2024-11-14 23:51:14*
%MOMM*%
%LPD*%
G01*
G04 APERTURE LIST*
G04 Aperture macros list*
%AMHorizOval*
0 Thick line with rounded ends*
0 $1 width*
0 $2 $3 position (X,Y) of the first rounded end (center of the circle)*
0 $4 $5 position (X,Y) of the second rounded end (center of the circle)*
0 Add line between two ends*
20,1,$1,$2,$3,$4,$5,0*
0 Add two circle primitives to create the rounded ends*
1,1,$1,$2,$3*
1,1,$1,$4,$5*%
G04 Aperture macros list end*
%ADD10O,5.100000X3.000000*%
%ADD11C,2.946400*%
%ADD12C,2.540000*%
%ADD13C,3.450000*%
%ADD14C,1.524000*%
%ADD15O,3.000000X5.100000*%
%ADD16R,2.400000X2.400000*%
%ADD17C,2.400000*%
%ADD18R,2.000000X2.000000*%
%ADD19C,2.000000*%
%ADD20R,1.600000X1.600000*%
%ADD21C,1.600000*%
%ADD22C,1.100000*%
%ADD23C,1.400000*%
%ADD24C,4.000000*%
%ADD25C,1.308000*%
%ADD26C,1.208000*%
%ADD27R,1.500000X1.500000*%
%ADD28C,1.500000*%
%ADD29HorizOval,0.800000X0.000000X0.000000X0.000000X0.000000X0*%
%ADD30HorizOval,0.800000X0.000000X0.000000X0.000000X0.000000X0*%
%ADD31C,0.800000*%
%ADD32O,6.000000X9.000000*%
G04 APERTURE END LIST*
D10*
%TO.C,Conn6*%
X107746800Y-44613800D03*
X99872800Y-44613800D03*
%TD*%
%TO.C,Conn5*%
X90513800Y-44613800D03*
X82639800Y-44613800D03*
%TD*%
%TO.C,Conn4*%
X73710800Y-44613800D03*
X65836800Y-44613800D03*
%TD*%
D11*
%TO.C,H3*%
X30480000Y-187960000D03*
%TD*%
D12*
%TO.C,U12*%
X193370000Y-151025000D03*
X200990000Y-151025000D03*
X206070000Y-151025000D03*
X213690000Y-130705000D03*
X203530000Y-130705000D03*
X193370000Y-130705000D03*
%TD*%
D13*
%TO.C,Conn3*%
X156842000Y-187117000D03*
X149222000Y-187117000D03*
D14*
X155572000Y-178481000D03*
X153032000Y-178481000D03*
X150492000Y-178481000D03*
%TD*%
D13*
%TO.C,Conn2*%
X108582000Y-187117000D03*
X90802000Y-187117000D03*
D14*
X107312000Y-178481000D03*
X104772000Y-178481000D03*
X102232000Y-178481000D03*
X99692000Y-178481000D03*
X97152000Y-178481000D03*
X94612000Y-178481000D03*
X92072000Y-178481000D03*
%TD*%
D15*
%TO.C,Conn14*%
X222086200Y-56413400D03*
X222086200Y-48539400D03*
%TD*%
D11*
%TO.C,H1*%
X30480000Y-30480000D03*
%TD*%
D15*
%TO.C,Conn15*%
X222086200Y-73685400D03*
X222086200Y-65811400D03*
%TD*%
%TO.C,Conn17*%
X222098100Y-107340400D03*
X222098100Y-99466400D03*
%TD*%
D16*
%TO.C,C7*%
X64432800Y-125095000D03*
D17*
X71932800Y-125095000D03*
%TD*%
D16*
%TO.C,C5*%
X64407400Y-107213400D03*
D17*
X71907400Y-107213400D03*
%TD*%
D10*
%TO.C,Conn10*%
X159562800Y-44613800D03*
X151688800Y-44613800D03*
%TD*%
D12*
%TO.C,U13*%
X193505000Y-180090000D03*
X201125000Y-180090000D03*
X206205000Y-180090000D03*
X213825000Y-159770000D03*
X203665000Y-159770000D03*
X193505000Y-159770000D03*
%TD*%
D10*
%TO.C,Conn11*%
X188676000Y-45087400D03*
X180802000Y-45087400D03*
%TD*%
D11*
%TO.C,H4*%
X236220000Y-187960000D03*
%TD*%
D13*
%TO.C,Conn20*%
X131318000Y-187071000D03*
X113538000Y-187071000D03*
D14*
X130048000Y-178435000D03*
X127508000Y-178435000D03*
X124968000Y-178435000D03*
X122428000Y-178435000D03*
X119888000Y-178435000D03*
X117348000Y-178435000D03*
X114808000Y-178435000D03*
%TD*%
D18*
%TO.C,B1*%
X171076000Y-109774000D03*
D19*
X178676000Y-109774000D03*
%TD*%
D20*
%TO.C,C10*%
X211357000Y-121585000D03*
D21*
X213357000Y-121585000D03*
%TD*%
D16*
%TO.C,C4*%
X52280755Y-107010200D03*
D17*
X44780755Y-107010200D03*
%TD*%
D22*
%TO.C,J1*%
X164818000Y-173355000D03*
X166088000Y-170815000D03*
X167358000Y-173355000D03*
X168628000Y-170815000D03*
X169898000Y-173355000D03*
X171168000Y-170815000D03*
X172438000Y-173355000D03*
X173708000Y-170815000D03*
D23*
X162938000Y-184785000D03*
X165478000Y-182995000D03*
X173048000Y-184785000D03*
X175588000Y-182995000D03*
D24*
X163548000Y-179705000D03*
X174978000Y-179705000D03*
D19*
X161388000Y-176655000D03*
X177138000Y-176655000D03*
%TD*%
D10*
%TO.C,Conn7*%
X125018800Y-44613800D03*
X117144800Y-44613800D03*
%TD*%
D16*
%TO.C,C6*%
X83940000Y-124764800D03*
D17*
X91440000Y-124764800D03*
%TD*%
D15*
%TO.C,Conn16*%
X221959200Y-90276400D03*
X221959200Y-82402400D03*
%TD*%
%TO.C,Conn13*%
X222137000Y-148742400D03*
X222137000Y-140868400D03*
%TD*%
D25*
%TO.C,U1*%
X131850000Y-155829000D03*
X131850000Y-153289000D03*
X131850000Y-150749000D03*
X131850000Y-148209000D03*
X131850000Y-122809000D03*
X116610000Y-153289000D03*
X131850000Y-145669000D03*
X131850000Y-143129000D03*
X131850000Y-140589000D03*
X131850000Y-138049000D03*
X131850000Y-135509000D03*
X131850000Y-132969000D03*
X131850000Y-130429000D03*
X131850000Y-127889000D03*
X131850000Y-125349000D03*
X116610000Y-125349000D03*
X116610000Y-127889000D03*
X116610000Y-130429000D03*
X116610000Y-132969000D03*
X116610000Y-135509000D03*
X116610000Y-138049000D03*
X116610000Y-140589000D03*
X116610000Y-143129000D03*
X116610000Y-145669000D03*
X116610000Y-148209000D03*
X116610000Y-150749000D03*
X131850000Y-120269000D03*
X131850000Y-117729000D03*
X131850000Y-115189000D03*
X131850000Y-112649000D03*
X131850000Y-110109000D03*
X131850000Y-107569000D03*
X131850000Y-105029000D03*
X131850000Y-102489000D03*
X131850000Y-99949000D03*
X116610000Y-99949000D03*
X116610000Y-102489000D03*
X116610000Y-105029000D03*
X116610000Y-107569000D03*
X116610000Y-110109000D03*
X116610000Y-112649000D03*
X116610000Y-115189000D03*
X116610000Y-117729000D03*
X116610000Y-120269000D03*
X131850000Y-158369000D03*
X116610000Y-122809000D03*
X116610000Y-155829000D03*
D26*
X121060000Y-143399000D03*
X121060000Y-145399000D03*
X119060000Y-145399000D03*
X119060000Y-143399000D03*
X123060000Y-143399000D03*
X123060000Y-145399000D03*
D25*
X116610000Y-158369000D03*
%TD*%
D15*
%TO.C,Conn12*%
X222137000Y-171754800D03*
X222137000Y-163880800D03*
%TD*%
D13*
%TO.C,Conn9*%
X144018000Y-187071000D03*
X136398000Y-187071000D03*
D14*
X142748000Y-178435000D03*
X140208000Y-178435000D03*
X137668000Y-178435000D03*
%TD*%
D10*
%TO.C,Conn1*%
X53467000Y-173800800D03*
X61341000Y-173800800D03*
%TD*%
D11*
%TO.C,H2*%
X236220000Y-30480000D03*
%TD*%
D27*
%TO.C,U3*%
X51675000Y-86492000D03*
D28*
X51675000Y-88402000D03*
X51675000Y-90312000D03*
D29*
X73705000Y-89452000D03*
D30*
X72445000Y-89452000D03*
D31*
X74735000Y-90202000D03*
X71415000Y-90202000D03*
X75125000Y-91402000D03*
X71025000Y-91402000D03*
X75125000Y-92732000D03*
X71025000Y-92732000D03*
D32*
X73075000Y-93402000D03*
D31*
X75125000Y-94072000D03*
X71025000Y-94072000D03*
X75125000Y-95402000D03*
X71025000Y-95402000D03*
X74735000Y-96602000D03*
X71415000Y-96602000D03*
X73705000Y-97352000D03*
X72445000Y-97352000D03*
X73705000Y-79452000D03*
X72445000Y-79452000D03*
X74735000Y-80202000D03*
X71415000Y-80202000D03*
X75125000Y-81402000D03*
X71025000Y-81402000D03*
X75125000Y-82732000D03*
X71025000Y-82732000D03*
D32*
X73075000Y-83402000D03*
D31*
X75125000Y-84072000D03*
X71025000Y-84072000D03*
X75125000Y-85402000D03*
X71025000Y-85402000D03*
X74735000Y-86602000D03*
X71415000Y-86602000D03*
D30*
X73705000Y-87352000D03*
D29*
X72445000Y-87352000D03*
%TD*%
D14*
%TO.C,U2*%
X170939000Y-87676000D03*
X170939000Y-90216000D03*
X170939000Y-92756000D03*
%TD*%
D20*
%TO.C,C8*%
X184814000Y-157018000D03*
D21*
X186814000Y-157018000D03*
%TD*%
D10*
%TO.C,Conn8*%
X142329800Y-44613800D03*
X134455800Y-44613800D03*
%TD*%
D15*
%TO.C,Conn18*%
X222086200Y-124485400D03*
X222086200Y-116611400D03*
%TD*%
D10*
%TO.C,Conn19*%
X78841600Y-173800800D03*
X70967600Y-173800800D03*
%TD*%
M02*
