%TF.GenerationSoftware,KiCad,Pcbnew,8.0.5*%
%TF.CreationDate,2024-11-14T23:51:14-05:00*%
%TF.ProjectId,Power_Management_2025_Rev1,506f7765-725f-44d6-916e-6167656d656e,rev?*%
%TF.SameCoordinates,Original*%
%TF.FileFunction,Paste,Top*%
%TF.FilePolarity,Positive*%
%FSLAX46Y46*%
G04 Gerber Fmt 4.6, Leading zero omitted, Abs format (unit mm)*
G04 Created by KiCad (PCBNEW 8.0.5) date 2024-11-14 23:51:14*
%MOMM*%
%LPD*%
G01*
G04 APERTURE LIST*
G04 Aperture macros list*
%AMRoundRect*
0 Rectangle with rounded corners*
0 $1 Rounding radius*
0 $2 $3 $4 $5 $6 $7 $8 $9 X,Y pos of 4 corners*
0 Add a 4 corners polygon primitive as box body*
4,1,4,$2,$3,$4,$5,$6,$7,$8,$9,$2,$3,0*
0 Add four circle primitives for the rounded corners*
1,1,$1+$1,$2,$3*
1,1,$1+$1,$4,$5*
1,1,$1+$1,$6,$7*
1,1,$1+$1,$8,$9*
0 Add four rect primitives between the rounded corners*
20,1,$1+$1,$2,$3,$4,$5,0*
20,1,$1+$1,$4,$5,$6,$7,0*
20,1,$1+$1,$6,$7,$8,$9,0*
20,1,$1+$1,$8,$9,$2,$3,0*%
G04 Aperture macros list end*
%ADD10RoundRect,0.237500X-0.237500X0.287500X-0.237500X-0.287500X0.237500X-0.287500X0.237500X0.287500X0*%
%ADD11RoundRect,0.250000X-0.412500X-0.650000X0.412500X-0.650000X0.412500X0.650000X-0.412500X0.650000X0*%
%ADD12RoundRect,0.237500X0.250000X0.237500X-0.250000X0.237500X-0.250000X-0.237500X0.250000X-0.237500X0*%
%ADD13RoundRect,0.237500X0.237500X-0.287500X0.237500X0.287500X-0.237500X0.287500X-0.237500X-0.287500X0*%
%ADD14RoundRect,0.237500X-0.250000X-0.237500X0.250000X-0.237500X0.250000X0.237500X-0.250000X0.237500X0*%
%ADD15RoundRect,0.150000X-0.150000X0.825000X-0.150000X-0.825000X0.150000X-0.825000X0.150000X0.825000X0*%
%ADD16RoundRect,0.150000X0.150000X-0.825000X0.150000X0.825000X-0.150000X0.825000X-0.150000X-0.825000X0*%
%ADD17RoundRect,0.150000X0.150000X-0.725000X0.150000X0.725000X-0.150000X0.725000X-0.150000X-0.725000X0*%
%ADD18RoundRect,0.237500X-0.237500X0.250000X-0.237500X-0.250000X0.237500X-0.250000X0.237500X0.250000X0*%
%ADD19RoundRect,0.200000X-0.200000X2.100000X-0.200000X-2.100000X0.200000X-2.100000X0.200000X2.100000X0*%
%ADD20RoundRect,0.250000X-2.375000X2.025000X-2.375000X-2.025000X2.375000X-2.025000X2.375000X2.025000X0*%
%ADD21RoundRect,0.237500X0.237500X-0.300000X0.237500X0.300000X-0.237500X0.300000X-0.237500X-0.300000X0*%
%ADD22RoundRect,0.150000X0.825000X0.150000X-0.825000X0.150000X-0.825000X-0.150000X0.825000X-0.150000X0*%
%ADD23RoundRect,0.250000X-0.650000X0.412500X-0.650000X-0.412500X0.650000X-0.412500X0.650000X0.412500X0*%
%ADD24RoundRect,0.237500X0.237500X-0.250000X0.237500X0.250000X-0.237500X0.250000X-0.237500X-0.250000X0*%
%ADD25RoundRect,0.237500X0.287500X0.237500X-0.287500X0.237500X-0.287500X-0.237500X0.287500X-0.237500X0*%
%ADD26RoundRect,0.200000X2.100000X0.200000X-2.100000X0.200000X-2.100000X-0.200000X2.100000X-0.200000X0*%
%ADD27RoundRect,0.250000X2.025000X2.375000X-2.025000X2.375000X-2.025000X-2.375000X2.025000X-2.375000X0*%
%ADD28RoundRect,0.250000X-2.025000X-2.375000X2.025000X-2.375000X2.025000X2.375000X-2.025000X2.375000X0*%
%ADD29RoundRect,0.275000X-2.025000X-0.275000X2.025000X-0.275000X2.025000X0.275000X-2.025000X0.275000X0*%
%ADD30RoundRect,0.237500X-0.287500X-0.237500X0.287500X-0.237500X0.287500X0.237500X-0.287500X0.237500X0*%
%ADD31R,6.150000X3.400000*%
%ADD32RoundRect,0.150000X0.587500X0.150000X-0.587500X0.150000X-0.587500X-0.150000X0.587500X-0.150000X0*%
G04 APERTURE END LIST*
D10*
%TO.C,D4*%
X43812000Y-80705000D03*
X43812000Y-82455000D03*
%TD*%
D11*
%TO.C,C13*%
X185124500Y-173528000D03*
X188249500Y-173528000D03*
%TD*%
D12*
%TO.C,R10*%
X102563300Y-105308400D03*
X100738300Y-105308400D03*
%TD*%
D13*
%TO.C,D9*%
X206753000Y-72041000D03*
X206753000Y-70291000D03*
%TD*%
D12*
%TO.C,R15*%
X99441000Y-128752600D03*
X97616000Y-128752600D03*
%TD*%
D14*
%TO.C,R14*%
X97971600Y-147548600D03*
X99796600Y-147548600D03*
%TD*%
D15*
%TO.C,U14*%
X190993800Y-49569600D03*
X189723800Y-49569600D03*
X188453800Y-49569600D03*
X187183800Y-49569600D03*
X187183800Y-54519600D03*
X188453800Y-54519600D03*
X189723800Y-54519600D03*
X190993800Y-54519600D03*
%TD*%
D16*
%TO.C,U11*%
X102997034Y-91401885D03*
X104267034Y-91401885D03*
X105537034Y-91401885D03*
X106807034Y-91401885D03*
X106807034Y-86451885D03*
X105537034Y-86451885D03*
X104267034Y-86451885D03*
X102997034Y-86451885D03*
%TD*%
D11*
%TO.C,C11*%
X197951500Y-119680000D03*
X201076500Y-119680000D03*
%TD*%
D14*
%TO.C,R6*%
X101095800Y-124739400D03*
X102920800Y-124739400D03*
%TD*%
D17*
%TO.C,U6*%
X98196400Y-117613500D03*
X99466400Y-117613500D03*
X100736400Y-117613500D03*
X102006400Y-117613500D03*
X102006400Y-112463500D03*
X100736400Y-112463500D03*
X99466400Y-112463500D03*
X98196400Y-112463500D03*
%TD*%
D12*
%TO.C,R18*%
X102918900Y-128752600D03*
X101093900Y-128752600D03*
%TD*%
D18*
%TO.C,R34*%
X206753000Y-65681500D03*
X206753000Y-67506500D03*
%TD*%
D12*
%TO.C,R30*%
X188615500Y-163495000D03*
X186790500Y-163495000D03*
%TD*%
D14*
%TO.C,R19*%
X101883200Y-170942000D03*
X103708200Y-170942000D03*
%TD*%
D19*
%TO.C,Q4*%
X178380000Y-50425000D03*
X177110000Y-50425000D03*
X175840000Y-50425000D03*
D20*
X177345000Y-57150000D03*
X171795000Y-57150000D03*
X177345000Y-62000000D03*
X171795000Y-62000000D03*
D19*
X173300000Y-50425000D03*
X172030000Y-50425000D03*
X170760000Y-50425000D03*
%TD*%
D21*
%TO.C,C3*%
X173252000Y-167513000D03*
X173252000Y-165788000D03*
%TD*%
D22*
%TO.C,U10*%
X200465000Y-80564000D03*
X200465000Y-79294000D03*
X200465000Y-78024000D03*
X200465000Y-76754000D03*
X195515000Y-76754000D03*
X195515000Y-78024000D03*
X195515000Y-79294000D03*
X195515000Y-80564000D03*
%TD*%
D12*
%TO.C,R16*%
X99441000Y-132740400D03*
X97616000Y-132740400D03*
%TD*%
%TO.C,R35*%
X67965500Y-76881000D03*
X66140500Y-76881000D03*
%TD*%
D23*
%TO.C,C2*%
X170939000Y-96908500D03*
X170939000Y-100033500D03*
%TD*%
D12*
%TO.C,R23*%
X99900100Y-151561800D03*
X98075100Y-151561800D03*
%TD*%
D11*
%TO.C,C9*%
X196011000Y-85090000D03*
X199136000Y-85090000D03*
%TD*%
D12*
%TO.C,R26*%
X103329100Y-151561800D03*
X101504100Y-151561800D03*
%TD*%
D24*
%TO.C,R2*%
X179321000Y-93311000D03*
X179321000Y-91486000D03*
%TD*%
D12*
%TO.C,R21*%
X100228400Y-166928800D03*
X98403400Y-166928800D03*
%TD*%
D14*
%TO.C,R9*%
X100738300Y-109321600D03*
X102563300Y-109321600D03*
%TD*%
D17*
%TO.C,U5*%
X98960300Y-163790700D03*
X100230300Y-163790700D03*
X101500300Y-163790700D03*
X102770300Y-163790700D03*
X102770300Y-158640700D03*
X101500300Y-158640700D03*
X100230300Y-158640700D03*
X98960300Y-158640700D03*
%TD*%
D13*
%TO.C,D7*%
X64744600Y-56969600D03*
X64744600Y-55219600D03*
%TD*%
D23*
%TO.C,C1*%
X152908000Y-87426000D03*
X152908000Y-90551000D03*
%TD*%
D12*
%TO.C,R13*%
X99822000Y-143484600D03*
X97997000Y-143484600D03*
%TD*%
D14*
%TO.C,R5*%
X101121200Y-120777000D03*
X102946200Y-120777000D03*
%TD*%
D25*
%TO.C,D3*%
X176862000Y-119482000D03*
X175112000Y-119482000D03*
%TD*%
D19*
%TO.C,Q3*%
X102330200Y-50425000D03*
X101060200Y-50425000D03*
X99790200Y-50425000D03*
D20*
X101295200Y-57150000D03*
X95745200Y-57150000D03*
X101295200Y-62000000D03*
X95745200Y-62000000D03*
D19*
X97250200Y-50425000D03*
X95980200Y-50425000D03*
X94710200Y-50425000D03*
%TD*%
D12*
%TO.C,R24*%
X99874700Y-155575000D03*
X98049700Y-155575000D03*
%TD*%
D18*
%TO.C,R31*%
X204721000Y-118767500D03*
X204721000Y-120592500D03*
%TD*%
D14*
%TO.C,R22*%
X98403400Y-170942000D03*
X100228400Y-170942000D03*
%TD*%
D12*
%TO.C,R8*%
X99085400Y-109321600D03*
X97260400Y-109321600D03*
%TD*%
D14*
%TO.C,R20*%
X101832400Y-166928800D03*
X103657400Y-166928800D03*
%TD*%
D18*
%TO.C,R32*%
X64744600Y-49864000D03*
X64744600Y-51689000D03*
%TD*%
D12*
%TO.C,R28*%
X111783500Y-91160600D03*
X109958500Y-91160600D03*
%TD*%
D26*
%TO.C,Q2*%
X200560000Y-66959000D03*
X200560000Y-65689000D03*
X200560000Y-64419000D03*
D27*
X193835000Y-65924000D03*
X193835000Y-60374000D03*
X188985000Y-65924000D03*
X188985000Y-60374000D03*
D26*
X200560000Y-61879000D03*
X200560000Y-60609000D03*
X200560000Y-59339000D03*
%TD*%
D25*
%TO.C,D8*%
X194931000Y-47244000D03*
X193181000Y-47244000D03*
%TD*%
D14*
%TO.C,R33*%
X183491500Y-47752000D03*
X185316500Y-47752000D03*
%TD*%
D12*
%TO.C,R27*%
X205092500Y-78024000D03*
X203267500Y-78024000D03*
%TD*%
D18*
%TO.C,R1*%
X172290000Y-117657000D03*
X172290000Y-119482000D03*
%TD*%
D17*
%TO.C,U4*%
X98552000Y-141006900D03*
X99822000Y-141006900D03*
X101092000Y-141006900D03*
X102362000Y-141006900D03*
X102362000Y-135856900D03*
X101092000Y-135856900D03*
X99822000Y-135856900D03*
X98552000Y-135856900D03*
%TD*%
D28*
%TO.C,D1*%
X50500000Y-130829000D03*
X50500000Y-136379000D03*
X55350000Y-130829000D03*
X55350000Y-136379000D03*
D29*
X43775000Y-131064000D03*
X43775000Y-136144000D03*
%TD*%
D25*
%TO.C,D6*%
X206513400Y-123825000D03*
X204763400Y-123825000D03*
%TD*%
D30*
%TO.C,D10*%
X61606000Y-76881000D03*
X63356000Y-76881000D03*
%TD*%
D14*
%TO.C,R11*%
X101525700Y-147548600D03*
X103350700Y-147548600D03*
%TD*%
D30*
%TO.C,D5*%
X181494000Y-163495000D03*
X183244000Y-163495000D03*
%TD*%
D14*
%TO.C,R12*%
X101426000Y-143484600D03*
X103251000Y-143484600D03*
%TD*%
%TO.C,R4*%
X97616000Y-124739400D03*
X99441000Y-124739400D03*
%TD*%
D31*
%TO.C,F1*%
X68072000Y-144066000D03*
X68072000Y-137366000D03*
%TD*%
D32*
%TO.C,Q1*%
X181180000Y-120498000D03*
X181180000Y-118598000D03*
X179305000Y-119548000D03*
%TD*%
D14*
%TO.C,R17*%
X101095800Y-132740400D03*
X102920800Y-132740400D03*
%TD*%
%TO.C,R25*%
X101504100Y-155575000D03*
X103329100Y-155575000D03*
%TD*%
D24*
%TO.C,R29*%
X43812000Y-86787000D03*
X43812000Y-84962000D03*
%TD*%
D12*
%TO.C,R7*%
X99085400Y-105308400D03*
X97260400Y-105308400D03*
%TD*%
D23*
%TO.C,C14*%
X115316000Y-87553000D03*
X115316000Y-90678000D03*
%TD*%
D12*
%TO.C,R3*%
X99466400Y-120802400D03*
X97641400Y-120802400D03*
%TD*%
D23*
%TO.C,C12*%
X191055800Y-87549000D03*
X191055800Y-90674000D03*
%TD*%
M02*
