%TF.GenerationSoftware,KiCad,Pcbnew,8.0.5*%
%TF.CreationDate,2024-10-31T22:41:55-05:00*%
%TF.ProjectId,fuse breakout board,66757365-2062-4726-9561-6b6f75742062,rev?*%
%TF.SameCoordinates,Original*%
%TF.FileFunction,Legend,Top*%
%TF.FilePolarity,Positive*%
%FSLAX46Y46*%
G04 Gerber Fmt 4.6, Leading zero omitted, Abs format (unit mm)*
G04 Created by KiCad (PCBNEW 8.0.5) date 2024-10-31 22:41:55*
%MOMM*%
%LPD*%
G01*
G04 APERTURE LIST*
%ADD10C,0.100000*%
%ADD11C,0.150000*%
%ADD12C,0.254000*%
%ADD13C,0.120000*%
%ADD14C,0.200000*%
G04 APERTURE END LIST*
D10*
X68413912Y-69540787D02*
X68080579Y-69064596D01*
X67842484Y-69540787D02*
X67842484Y-68540787D01*
X67842484Y-68540787D02*
X68223436Y-68540787D01*
X68223436Y-68540787D02*
X68318674Y-68588406D01*
X68318674Y-68588406D02*
X68366293Y-68636025D01*
X68366293Y-68636025D02*
X68413912Y-68731263D01*
X68413912Y-68731263D02*
X68413912Y-68874120D01*
X68413912Y-68874120D02*
X68366293Y-68969358D01*
X68366293Y-68969358D02*
X68318674Y-69016977D01*
X68318674Y-69016977D02*
X68223436Y-69064596D01*
X68223436Y-69064596D02*
X67842484Y-69064596D01*
X69223436Y-69493168D02*
X69128198Y-69540787D01*
X69128198Y-69540787D02*
X68937722Y-69540787D01*
X68937722Y-69540787D02*
X68842484Y-69493168D01*
X68842484Y-69493168D02*
X68794865Y-69397929D01*
X68794865Y-69397929D02*
X68794865Y-69016977D01*
X68794865Y-69016977D02*
X68842484Y-68921739D01*
X68842484Y-68921739D02*
X68937722Y-68874120D01*
X68937722Y-68874120D02*
X69128198Y-68874120D01*
X69128198Y-68874120D02*
X69223436Y-68921739D01*
X69223436Y-68921739D02*
X69271055Y-69016977D01*
X69271055Y-69016977D02*
X69271055Y-69112215D01*
X69271055Y-69112215D02*
X68794865Y-69207453D01*
X69604389Y-68874120D02*
X69842484Y-69540787D01*
X69842484Y-69540787D02*
X70080579Y-68874120D01*
X70842484Y-69493168D02*
X70747246Y-69540787D01*
X70747246Y-69540787D02*
X70556770Y-69540787D01*
X70556770Y-69540787D02*
X70461532Y-69493168D01*
X70461532Y-69493168D02*
X70413913Y-69397929D01*
X70413913Y-69397929D02*
X70413913Y-69016977D01*
X70413913Y-69016977D02*
X70461532Y-68921739D01*
X70461532Y-68921739D02*
X70556770Y-68874120D01*
X70556770Y-68874120D02*
X70747246Y-68874120D01*
X70747246Y-68874120D02*
X70842484Y-68921739D01*
X70842484Y-68921739D02*
X70890103Y-69016977D01*
X70890103Y-69016977D02*
X70890103Y-69112215D01*
X70890103Y-69112215D02*
X70413913Y-69207453D01*
X71318675Y-69540787D02*
X71318675Y-68874120D01*
X71318675Y-69064596D02*
X71366294Y-68969358D01*
X71366294Y-68969358D02*
X71413913Y-68921739D01*
X71413913Y-68921739D02*
X71509151Y-68874120D01*
X71509151Y-68874120D02*
X71604389Y-68874120D01*
X71890104Y-69493168D02*
X71985342Y-69540787D01*
X71985342Y-69540787D02*
X72175818Y-69540787D01*
X72175818Y-69540787D02*
X72271056Y-69493168D01*
X72271056Y-69493168D02*
X72318675Y-69397929D01*
X72318675Y-69397929D02*
X72318675Y-69350310D01*
X72318675Y-69350310D02*
X72271056Y-69255072D01*
X72271056Y-69255072D02*
X72175818Y-69207453D01*
X72175818Y-69207453D02*
X72032961Y-69207453D01*
X72032961Y-69207453D02*
X71937723Y-69159834D01*
X71937723Y-69159834D02*
X71890104Y-69064596D01*
X71890104Y-69064596D02*
X71890104Y-69016977D01*
X71890104Y-69016977D02*
X71937723Y-68921739D01*
X71937723Y-68921739D02*
X72032961Y-68874120D01*
X72032961Y-68874120D02*
X72175818Y-68874120D01*
X72175818Y-68874120D02*
X72271056Y-68921739D01*
X73128199Y-69493168D02*
X73032961Y-69540787D01*
X73032961Y-69540787D02*
X72842485Y-69540787D01*
X72842485Y-69540787D02*
X72747247Y-69493168D01*
X72747247Y-69493168D02*
X72699628Y-69397929D01*
X72699628Y-69397929D02*
X72699628Y-69016977D01*
X72699628Y-69016977D02*
X72747247Y-68921739D01*
X72747247Y-68921739D02*
X72842485Y-68874120D01*
X72842485Y-68874120D02*
X73032961Y-68874120D01*
X73032961Y-68874120D02*
X73128199Y-68921739D01*
X73128199Y-68921739D02*
X73175818Y-69016977D01*
X73175818Y-69016977D02*
X73175818Y-69112215D01*
X73175818Y-69112215D02*
X72699628Y-69207453D01*
X74366295Y-69540787D02*
X74366295Y-68540787D01*
X74366295Y-68540787D02*
X74747247Y-68540787D01*
X74747247Y-68540787D02*
X74842485Y-68588406D01*
X74842485Y-68588406D02*
X74890104Y-68636025D01*
X74890104Y-68636025D02*
X74937723Y-68731263D01*
X74937723Y-68731263D02*
X74937723Y-68874120D01*
X74937723Y-68874120D02*
X74890104Y-68969358D01*
X74890104Y-68969358D02*
X74842485Y-69016977D01*
X74842485Y-69016977D02*
X74747247Y-69064596D01*
X74747247Y-69064596D02*
X74366295Y-69064596D01*
X75509152Y-69540787D02*
X75413914Y-69493168D01*
X75413914Y-69493168D02*
X75366295Y-69445548D01*
X75366295Y-69445548D02*
X75318676Y-69350310D01*
X75318676Y-69350310D02*
X75318676Y-69064596D01*
X75318676Y-69064596D02*
X75366295Y-68969358D01*
X75366295Y-68969358D02*
X75413914Y-68921739D01*
X75413914Y-68921739D02*
X75509152Y-68874120D01*
X75509152Y-68874120D02*
X75652009Y-68874120D01*
X75652009Y-68874120D02*
X75747247Y-68921739D01*
X75747247Y-68921739D02*
X75794866Y-68969358D01*
X75794866Y-68969358D02*
X75842485Y-69064596D01*
X75842485Y-69064596D02*
X75842485Y-69350310D01*
X75842485Y-69350310D02*
X75794866Y-69445548D01*
X75794866Y-69445548D02*
X75747247Y-69493168D01*
X75747247Y-69493168D02*
X75652009Y-69540787D01*
X75652009Y-69540787D02*
X75509152Y-69540787D01*
X76413914Y-69540787D02*
X76318676Y-69493168D01*
X76318676Y-69493168D02*
X76271057Y-69397929D01*
X76271057Y-69397929D02*
X76271057Y-68540787D01*
X77223438Y-69540787D02*
X77223438Y-69016977D01*
X77223438Y-69016977D02*
X77175819Y-68921739D01*
X77175819Y-68921739D02*
X77080581Y-68874120D01*
X77080581Y-68874120D02*
X76890105Y-68874120D01*
X76890105Y-68874120D02*
X76794867Y-68921739D01*
X77223438Y-69493168D02*
X77128200Y-69540787D01*
X77128200Y-69540787D02*
X76890105Y-69540787D01*
X76890105Y-69540787D02*
X76794867Y-69493168D01*
X76794867Y-69493168D02*
X76747248Y-69397929D01*
X76747248Y-69397929D02*
X76747248Y-69302691D01*
X76747248Y-69302691D02*
X76794867Y-69207453D01*
X76794867Y-69207453D02*
X76890105Y-69159834D01*
X76890105Y-69159834D02*
X77128200Y-69159834D01*
X77128200Y-69159834D02*
X77223438Y-69112215D01*
X77699629Y-69540787D02*
X77699629Y-68874120D01*
X77699629Y-69064596D02*
X77747248Y-68969358D01*
X77747248Y-68969358D02*
X77794867Y-68921739D01*
X77794867Y-68921739D02*
X77890105Y-68874120D01*
X77890105Y-68874120D02*
X77985343Y-68874120D01*
X78318677Y-69540787D02*
X78318677Y-68874120D01*
X78318677Y-68540787D02*
X78271058Y-68588406D01*
X78271058Y-68588406D02*
X78318677Y-68636025D01*
X78318677Y-68636025D02*
X78366296Y-68588406D01*
X78366296Y-68588406D02*
X78318677Y-68540787D01*
X78318677Y-68540787D02*
X78318677Y-68636025D01*
X78652010Y-68874120D02*
X79032962Y-68874120D01*
X78794867Y-68540787D02*
X78794867Y-69397929D01*
X78794867Y-69397929D02*
X78842486Y-69493168D01*
X78842486Y-69493168D02*
X78937724Y-69540787D01*
X78937724Y-69540787D02*
X79032962Y-69540787D01*
X79271058Y-68874120D02*
X79509153Y-69540787D01*
X79747248Y-68874120D02*
X79509153Y-69540787D01*
X79509153Y-69540787D02*
X79413915Y-69778882D01*
X79413915Y-69778882D02*
X79366296Y-69826501D01*
X79366296Y-69826501D02*
X79271058Y-69874120D01*
X81223439Y-69016977D02*
X80890106Y-69016977D01*
X80890106Y-69540787D02*
X80890106Y-68540787D01*
X80890106Y-68540787D02*
X81366296Y-68540787D01*
X82175820Y-68874120D02*
X82175820Y-69540787D01*
X81747249Y-68874120D02*
X81747249Y-69397929D01*
X81747249Y-69397929D02*
X81794868Y-69493168D01*
X81794868Y-69493168D02*
X81890106Y-69540787D01*
X81890106Y-69540787D02*
X82032963Y-69540787D01*
X82032963Y-69540787D02*
X82128201Y-69493168D01*
X82128201Y-69493168D02*
X82175820Y-69445548D01*
X82604392Y-69493168D02*
X82699630Y-69540787D01*
X82699630Y-69540787D02*
X82890106Y-69540787D01*
X82890106Y-69540787D02*
X82985344Y-69493168D01*
X82985344Y-69493168D02*
X83032963Y-69397929D01*
X83032963Y-69397929D02*
X83032963Y-69350310D01*
X83032963Y-69350310D02*
X82985344Y-69255072D01*
X82985344Y-69255072D02*
X82890106Y-69207453D01*
X82890106Y-69207453D02*
X82747249Y-69207453D01*
X82747249Y-69207453D02*
X82652011Y-69159834D01*
X82652011Y-69159834D02*
X82604392Y-69064596D01*
X82604392Y-69064596D02*
X82604392Y-69016977D01*
X82604392Y-69016977D02*
X82652011Y-68921739D01*
X82652011Y-68921739D02*
X82747249Y-68874120D01*
X82747249Y-68874120D02*
X82890106Y-68874120D01*
X82890106Y-68874120D02*
X82985344Y-68921739D01*
X83842487Y-69493168D02*
X83747249Y-69540787D01*
X83747249Y-69540787D02*
X83556773Y-69540787D01*
X83556773Y-69540787D02*
X83461535Y-69493168D01*
X83461535Y-69493168D02*
X83413916Y-69397929D01*
X83413916Y-69397929D02*
X83413916Y-69016977D01*
X83413916Y-69016977D02*
X83461535Y-68921739D01*
X83461535Y-68921739D02*
X83556773Y-68874120D01*
X83556773Y-68874120D02*
X83747249Y-68874120D01*
X83747249Y-68874120D02*
X83842487Y-68921739D01*
X83842487Y-68921739D02*
X83890106Y-69016977D01*
X83890106Y-69016977D02*
X83890106Y-69112215D01*
X83890106Y-69112215D02*
X83413916Y-69207453D01*
X85413916Y-69016977D02*
X85556773Y-69064596D01*
X85556773Y-69064596D02*
X85604392Y-69112215D01*
X85604392Y-69112215D02*
X85652011Y-69207453D01*
X85652011Y-69207453D02*
X85652011Y-69350310D01*
X85652011Y-69350310D02*
X85604392Y-69445548D01*
X85604392Y-69445548D02*
X85556773Y-69493168D01*
X85556773Y-69493168D02*
X85461535Y-69540787D01*
X85461535Y-69540787D02*
X85080583Y-69540787D01*
X85080583Y-69540787D02*
X85080583Y-68540787D01*
X85080583Y-68540787D02*
X85413916Y-68540787D01*
X85413916Y-68540787D02*
X85509154Y-68588406D01*
X85509154Y-68588406D02*
X85556773Y-68636025D01*
X85556773Y-68636025D02*
X85604392Y-68731263D01*
X85604392Y-68731263D02*
X85604392Y-68826501D01*
X85604392Y-68826501D02*
X85556773Y-68921739D01*
X85556773Y-68921739D02*
X85509154Y-68969358D01*
X85509154Y-68969358D02*
X85413916Y-69016977D01*
X85413916Y-69016977D02*
X85080583Y-69016977D01*
X86223440Y-69540787D02*
X86128202Y-69493168D01*
X86128202Y-69493168D02*
X86080583Y-69445548D01*
X86080583Y-69445548D02*
X86032964Y-69350310D01*
X86032964Y-69350310D02*
X86032964Y-69064596D01*
X86032964Y-69064596D02*
X86080583Y-68969358D01*
X86080583Y-68969358D02*
X86128202Y-68921739D01*
X86128202Y-68921739D02*
X86223440Y-68874120D01*
X86223440Y-68874120D02*
X86366297Y-68874120D01*
X86366297Y-68874120D02*
X86461535Y-68921739D01*
X86461535Y-68921739D02*
X86509154Y-68969358D01*
X86509154Y-68969358D02*
X86556773Y-69064596D01*
X86556773Y-69064596D02*
X86556773Y-69350310D01*
X86556773Y-69350310D02*
X86509154Y-69445548D01*
X86509154Y-69445548D02*
X86461535Y-69493168D01*
X86461535Y-69493168D02*
X86366297Y-69540787D01*
X86366297Y-69540787D02*
X86223440Y-69540787D01*
X87413916Y-69540787D02*
X87413916Y-69016977D01*
X87413916Y-69016977D02*
X87366297Y-68921739D01*
X87366297Y-68921739D02*
X87271059Y-68874120D01*
X87271059Y-68874120D02*
X87080583Y-68874120D01*
X87080583Y-68874120D02*
X86985345Y-68921739D01*
X87413916Y-69493168D02*
X87318678Y-69540787D01*
X87318678Y-69540787D02*
X87080583Y-69540787D01*
X87080583Y-69540787D02*
X86985345Y-69493168D01*
X86985345Y-69493168D02*
X86937726Y-69397929D01*
X86937726Y-69397929D02*
X86937726Y-69302691D01*
X86937726Y-69302691D02*
X86985345Y-69207453D01*
X86985345Y-69207453D02*
X87080583Y-69159834D01*
X87080583Y-69159834D02*
X87318678Y-69159834D01*
X87318678Y-69159834D02*
X87413916Y-69112215D01*
X87890107Y-69540787D02*
X87890107Y-68874120D01*
X87890107Y-69064596D02*
X87937726Y-68969358D01*
X87937726Y-68969358D02*
X87985345Y-68921739D01*
X87985345Y-68921739D02*
X88080583Y-68874120D01*
X88080583Y-68874120D02*
X88175821Y-68874120D01*
X88937726Y-69540787D02*
X88937726Y-68540787D01*
X88937726Y-69493168D02*
X88842488Y-69540787D01*
X88842488Y-69540787D02*
X88652012Y-69540787D01*
X88652012Y-69540787D02*
X88556774Y-69493168D01*
X88556774Y-69493168D02*
X88509155Y-69445548D01*
X88509155Y-69445548D02*
X88461536Y-69350310D01*
X88461536Y-69350310D02*
X88461536Y-69064596D01*
X88461536Y-69064596D02*
X88509155Y-68969358D01*
X88509155Y-68969358D02*
X88556774Y-68921739D01*
X88556774Y-68921739D02*
X88652012Y-68874120D01*
X88652012Y-68874120D02*
X88842488Y-68874120D01*
X88842488Y-68874120D02*
X88937726Y-68921739D01*
X89461536Y-69493168D02*
X89461536Y-69540787D01*
X89461536Y-69540787D02*
X89413917Y-69636025D01*
X89413917Y-69636025D02*
X89366298Y-69683644D01*
X91223440Y-69540787D02*
X90890107Y-69064596D01*
X90652012Y-69540787D02*
X90652012Y-68540787D01*
X90652012Y-68540787D02*
X91032964Y-68540787D01*
X91032964Y-68540787D02*
X91128202Y-68588406D01*
X91128202Y-68588406D02*
X91175821Y-68636025D01*
X91175821Y-68636025D02*
X91223440Y-68731263D01*
X91223440Y-68731263D02*
X91223440Y-68874120D01*
X91223440Y-68874120D02*
X91175821Y-68969358D01*
X91175821Y-68969358D02*
X91128202Y-69016977D01*
X91128202Y-69016977D02*
X91032964Y-69064596D01*
X91032964Y-69064596D02*
X90652012Y-69064596D01*
X92032964Y-69493168D02*
X91937726Y-69540787D01*
X91937726Y-69540787D02*
X91747250Y-69540787D01*
X91747250Y-69540787D02*
X91652012Y-69493168D01*
X91652012Y-69493168D02*
X91604393Y-69397929D01*
X91604393Y-69397929D02*
X91604393Y-69016977D01*
X91604393Y-69016977D02*
X91652012Y-68921739D01*
X91652012Y-68921739D02*
X91747250Y-68874120D01*
X91747250Y-68874120D02*
X91937726Y-68874120D01*
X91937726Y-68874120D02*
X92032964Y-68921739D01*
X92032964Y-68921739D02*
X92080583Y-69016977D01*
X92080583Y-69016977D02*
X92080583Y-69112215D01*
X92080583Y-69112215D02*
X91604393Y-69207453D01*
X92413917Y-68874120D02*
X92652012Y-69540787D01*
X92652012Y-69540787D02*
X92890107Y-68874120D01*
X94556774Y-69540787D02*
X93985346Y-69540787D01*
X94271060Y-69540787D02*
X94271060Y-68540787D01*
X94271060Y-68540787D02*
X94175822Y-68683644D01*
X94175822Y-68683644D02*
X94080584Y-68778882D01*
X94080584Y-68778882D02*
X93985346Y-68826501D01*
X67842484Y-71150731D02*
X67842484Y-70150731D01*
X67842484Y-70150731D02*
X68175817Y-70865016D01*
X68175817Y-70865016D02*
X68509150Y-70150731D01*
X68509150Y-70150731D02*
X68509150Y-71150731D01*
X69413912Y-71150731D02*
X69413912Y-70626921D01*
X69413912Y-70626921D02*
X69366293Y-70531683D01*
X69366293Y-70531683D02*
X69271055Y-70484064D01*
X69271055Y-70484064D02*
X69080579Y-70484064D01*
X69080579Y-70484064D02*
X68985341Y-70531683D01*
X69413912Y-71103112D02*
X69318674Y-71150731D01*
X69318674Y-71150731D02*
X69080579Y-71150731D01*
X69080579Y-71150731D02*
X68985341Y-71103112D01*
X68985341Y-71103112D02*
X68937722Y-71007873D01*
X68937722Y-71007873D02*
X68937722Y-70912635D01*
X68937722Y-70912635D02*
X68985341Y-70817397D01*
X68985341Y-70817397D02*
X69080579Y-70769778D01*
X69080579Y-70769778D02*
X69318674Y-70769778D01*
X69318674Y-70769778D02*
X69413912Y-70722159D01*
X69890103Y-71150731D02*
X69890103Y-70484064D01*
X69890103Y-70674540D02*
X69937722Y-70579302D01*
X69937722Y-70579302D02*
X69985341Y-70531683D01*
X69985341Y-70531683D02*
X70080579Y-70484064D01*
X70080579Y-70484064D02*
X70175817Y-70484064D01*
X70461532Y-71103112D02*
X70556770Y-71150731D01*
X70556770Y-71150731D02*
X70747246Y-71150731D01*
X70747246Y-71150731D02*
X70842484Y-71103112D01*
X70842484Y-71103112D02*
X70890103Y-71007873D01*
X70890103Y-71007873D02*
X70890103Y-70960254D01*
X70890103Y-70960254D02*
X70842484Y-70865016D01*
X70842484Y-70865016D02*
X70747246Y-70817397D01*
X70747246Y-70817397D02*
X70604389Y-70817397D01*
X70604389Y-70817397D02*
X70509151Y-70769778D01*
X70509151Y-70769778D02*
X70461532Y-70674540D01*
X70461532Y-70674540D02*
X70461532Y-70626921D01*
X70461532Y-70626921D02*
X70509151Y-70531683D01*
X70509151Y-70531683D02*
X70604389Y-70484064D01*
X70604389Y-70484064D02*
X70747246Y-70484064D01*
X70747246Y-70484064D02*
X70842484Y-70531683D01*
X72652008Y-71150731D02*
X72318675Y-70674540D01*
X72080580Y-71150731D02*
X72080580Y-70150731D01*
X72080580Y-70150731D02*
X72461532Y-70150731D01*
X72461532Y-70150731D02*
X72556770Y-70198350D01*
X72556770Y-70198350D02*
X72604389Y-70245969D01*
X72604389Y-70245969D02*
X72652008Y-70341207D01*
X72652008Y-70341207D02*
X72652008Y-70484064D01*
X72652008Y-70484064D02*
X72604389Y-70579302D01*
X72604389Y-70579302D02*
X72556770Y-70626921D01*
X72556770Y-70626921D02*
X72461532Y-70674540D01*
X72461532Y-70674540D02*
X72080580Y-70674540D01*
X73223437Y-71150731D02*
X73128199Y-71103112D01*
X73128199Y-71103112D02*
X73080580Y-71055492D01*
X73080580Y-71055492D02*
X73032961Y-70960254D01*
X73032961Y-70960254D02*
X73032961Y-70674540D01*
X73032961Y-70674540D02*
X73080580Y-70579302D01*
X73080580Y-70579302D02*
X73128199Y-70531683D01*
X73128199Y-70531683D02*
X73223437Y-70484064D01*
X73223437Y-70484064D02*
X73366294Y-70484064D01*
X73366294Y-70484064D02*
X73461532Y-70531683D01*
X73461532Y-70531683D02*
X73509151Y-70579302D01*
X73509151Y-70579302D02*
X73556770Y-70674540D01*
X73556770Y-70674540D02*
X73556770Y-70960254D01*
X73556770Y-70960254D02*
X73509151Y-71055492D01*
X73509151Y-71055492D02*
X73461532Y-71103112D01*
X73461532Y-71103112D02*
X73366294Y-71150731D01*
X73366294Y-71150731D02*
X73223437Y-71150731D01*
X73890104Y-70484064D02*
X74128199Y-71150731D01*
X74128199Y-71150731D02*
X74366294Y-70484064D01*
X75128199Y-71103112D02*
X75032961Y-71150731D01*
X75032961Y-71150731D02*
X74842485Y-71150731D01*
X74842485Y-71150731D02*
X74747247Y-71103112D01*
X74747247Y-71103112D02*
X74699628Y-71007873D01*
X74699628Y-71007873D02*
X74699628Y-70626921D01*
X74699628Y-70626921D02*
X74747247Y-70531683D01*
X74747247Y-70531683D02*
X74842485Y-70484064D01*
X74842485Y-70484064D02*
X75032961Y-70484064D01*
X75032961Y-70484064D02*
X75128199Y-70531683D01*
X75128199Y-70531683D02*
X75175818Y-70626921D01*
X75175818Y-70626921D02*
X75175818Y-70722159D01*
X75175818Y-70722159D02*
X74699628Y-70817397D01*
X75604390Y-71150731D02*
X75604390Y-70484064D01*
X75604390Y-70674540D02*
X75652009Y-70579302D01*
X75652009Y-70579302D02*
X75699628Y-70531683D01*
X75699628Y-70531683D02*
X75794866Y-70484064D01*
X75794866Y-70484064D02*
X75890104Y-70484064D01*
X76985343Y-71150731D02*
X76985343Y-70150731D01*
X76985343Y-70150731D02*
X77223438Y-70150731D01*
X77223438Y-70150731D02*
X77366295Y-70198350D01*
X77366295Y-70198350D02*
X77461533Y-70293588D01*
X77461533Y-70293588D02*
X77509152Y-70388826D01*
X77509152Y-70388826D02*
X77556771Y-70579302D01*
X77556771Y-70579302D02*
X77556771Y-70722159D01*
X77556771Y-70722159D02*
X77509152Y-70912635D01*
X77509152Y-70912635D02*
X77461533Y-71007873D01*
X77461533Y-71007873D02*
X77366295Y-71103112D01*
X77366295Y-71103112D02*
X77223438Y-71150731D01*
X77223438Y-71150731D02*
X76985343Y-71150731D01*
X78366295Y-71103112D02*
X78271057Y-71150731D01*
X78271057Y-71150731D02*
X78080581Y-71150731D01*
X78080581Y-71150731D02*
X77985343Y-71103112D01*
X77985343Y-71103112D02*
X77937724Y-71007873D01*
X77937724Y-71007873D02*
X77937724Y-70626921D01*
X77937724Y-70626921D02*
X77985343Y-70531683D01*
X77985343Y-70531683D02*
X78080581Y-70484064D01*
X78080581Y-70484064D02*
X78271057Y-70484064D01*
X78271057Y-70484064D02*
X78366295Y-70531683D01*
X78366295Y-70531683D02*
X78413914Y-70626921D01*
X78413914Y-70626921D02*
X78413914Y-70722159D01*
X78413914Y-70722159D02*
X77937724Y-70817397D01*
X78794867Y-71103112D02*
X78890105Y-71150731D01*
X78890105Y-71150731D02*
X79080581Y-71150731D01*
X79080581Y-71150731D02*
X79175819Y-71103112D01*
X79175819Y-71103112D02*
X79223438Y-71007873D01*
X79223438Y-71007873D02*
X79223438Y-70960254D01*
X79223438Y-70960254D02*
X79175819Y-70865016D01*
X79175819Y-70865016D02*
X79080581Y-70817397D01*
X79080581Y-70817397D02*
X78937724Y-70817397D01*
X78937724Y-70817397D02*
X78842486Y-70769778D01*
X78842486Y-70769778D02*
X78794867Y-70674540D01*
X78794867Y-70674540D02*
X78794867Y-70626921D01*
X78794867Y-70626921D02*
X78842486Y-70531683D01*
X78842486Y-70531683D02*
X78937724Y-70484064D01*
X78937724Y-70484064D02*
X79080581Y-70484064D01*
X79080581Y-70484064D02*
X79175819Y-70531683D01*
X79652010Y-71150731D02*
X79652010Y-70484064D01*
X79652010Y-70150731D02*
X79604391Y-70198350D01*
X79604391Y-70198350D02*
X79652010Y-70245969D01*
X79652010Y-70245969D02*
X79699629Y-70198350D01*
X79699629Y-70198350D02*
X79652010Y-70150731D01*
X79652010Y-70150731D02*
X79652010Y-70245969D01*
X80556771Y-70484064D02*
X80556771Y-71293588D01*
X80556771Y-71293588D02*
X80509152Y-71388826D01*
X80509152Y-71388826D02*
X80461533Y-71436445D01*
X80461533Y-71436445D02*
X80366295Y-71484064D01*
X80366295Y-71484064D02*
X80223438Y-71484064D01*
X80223438Y-71484064D02*
X80128200Y-71436445D01*
X80556771Y-71103112D02*
X80461533Y-71150731D01*
X80461533Y-71150731D02*
X80271057Y-71150731D01*
X80271057Y-71150731D02*
X80175819Y-71103112D01*
X80175819Y-71103112D02*
X80128200Y-71055492D01*
X80128200Y-71055492D02*
X80080581Y-70960254D01*
X80080581Y-70960254D02*
X80080581Y-70674540D01*
X80080581Y-70674540D02*
X80128200Y-70579302D01*
X80128200Y-70579302D02*
X80175819Y-70531683D01*
X80175819Y-70531683D02*
X80271057Y-70484064D01*
X80271057Y-70484064D02*
X80461533Y-70484064D01*
X80461533Y-70484064D02*
X80556771Y-70531683D01*
X81032962Y-70484064D02*
X81032962Y-71150731D01*
X81032962Y-70579302D02*
X81080581Y-70531683D01*
X81080581Y-70531683D02*
X81175819Y-70484064D01*
X81175819Y-70484064D02*
X81318676Y-70484064D01*
X81318676Y-70484064D02*
X81413914Y-70531683D01*
X81413914Y-70531683D02*
X81461533Y-70626921D01*
X81461533Y-70626921D02*
X81461533Y-71150731D01*
X82556772Y-70150731D02*
X83128200Y-70150731D01*
X82842486Y-71150731D02*
X82842486Y-70150731D01*
X83842486Y-71103112D02*
X83747248Y-71150731D01*
X83747248Y-71150731D02*
X83556772Y-71150731D01*
X83556772Y-71150731D02*
X83461534Y-71103112D01*
X83461534Y-71103112D02*
X83413915Y-71007873D01*
X83413915Y-71007873D02*
X83413915Y-70626921D01*
X83413915Y-70626921D02*
X83461534Y-70531683D01*
X83461534Y-70531683D02*
X83556772Y-70484064D01*
X83556772Y-70484064D02*
X83747248Y-70484064D01*
X83747248Y-70484064D02*
X83842486Y-70531683D01*
X83842486Y-70531683D02*
X83890105Y-70626921D01*
X83890105Y-70626921D02*
X83890105Y-70722159D01*
X83890105Y-70722159D02*
X83413915Y-70817397D01*
X84747248Y-71150731D02*
X84747248Y-70626921D01*
X84747248Y-70626921D02*
X84699629Y-70531683D01*
X84699629Y-70531683D02*
X84604391Y-70484064D01*
X84604391Y-70484064D02*
X84413915Y-70484064D01*
X84413915Y-70484064D02*
X84318677Y-70531683D01*
X84747248Y-71103112D02*
X84652010Y-71150731D01*
X84652010Y-71150731D02*
X84413915Y-71150731D01*
X84413915Y-71150731D02*
X84318677Y-71103112D01*
X84318677Y-71103112D02*
X84271058Y-71007873D01*
X84271058Y-71007873D02*
X84271058Y-70912635D01*
X84271058Y-70912635D02*
X84318677Y-70817397D01*
X84318677Y-70817397D02*
X84413915Y-70769778D01*
X84413915Y-70769778D02*
X84652010Y-70769778D01*
X84652010Y-70769778D02*
X84747248Y-70722159D01*
X85223439Y-71150731D02*
X85223439Y-70484064D01*
X85223439Y-70579302D02*
X85271058Y-70531683D01*
X85271058Y-70531683D02*
X85366296Y-70484064D01*
X85366296Y-70484064D02*
X85509153Y-70484064D01*
X85509153Y-70484064D02*
X85604391Y-70531683D01*
X85604391Y-70531683D02*
X85652010Y-70626921D01*
X85652010Y-70626921D02*
X85652010Y-71150731D01*
X85652010Y-70626921D02*
X85699629Y-70531683D01*
X85699629Y-70531683D02*
X85794867Y-70484064D01*
X85794867Y-70484064D02*
X85937724Y-70484064D01*
X85937724Y-70484064D02*
X86032963Y-70531683D01*
X86032963Y-70531683D02*
X86080582Y-70626921D01*
X86080582Y-70626921D02*
X86080582Y-71150731D01*
X67842484Y-72760675D02*
X67842484Y-71760675D01*
X67842484Y-71760675D02*
X68175817Y-72474960D01*
X68175817Y-72474960D02*
X68509150Y-71760675D01*
X68509150Y-71760675D02*
X68509150Y-72760675D01*
X68985341Y-72760675D02*
X68985341Y-72094008D01*
X68985341Y-71760675D02*
X68937722Y-71808294D01*
X68937722Y-71808294D02*
X68985341Y-71855913D01*
X68985341Y-71855913D02*
X69032960Y-71808294D01*
X69032960Y-71808294D02*
X68985341Y-71760675D01*
X68985341Y-71760675D02*
X68985341Y-71855913D01*
X69413912Y-72713056D02*
X69509150Y-72760675D01*
X69509150Y-72760675D02*
X69699626Y-72760675D01*
X69699626Y-72760675D02*
X69794864Y-72713056D01*
X69794864Y-72713056D02*
X69842483Y-72617817D01*
X69842483Y-72617817D02*
X69842483Y-72570198D01*
X69842483Y-72570198D02*
X69794864Y-72474960D01*
X69794864Y-72474960D02*
X69699626Y-72427341D01*
X69699626Y-72427341D02*
X69556769Y-72427341D01*
X69556769Y-72427341D02*
X69461531Y-72379722D01*
X69461531Y-72379722D02*
X69413912Y-72284484D01*
X69413912Y-72284484D02*
X69413912Y-72236865D01*
X69413912Y-72236865D02*
X69461531Y-72141627D01*
X69461531Y-72141627D02*
X69556769Y-72094008D01*
X69556769Y-72094008D02*
X69699626Y-72094008D01*
X69699626Y-72094008D02*
X69794864Y-72141627D01*
X70223436Y-72713056D02*
X70318674Y-72760675D01*
X70318674Y-72760675D02*
X70509150Y-72760675D01*
X70509150Y-72760675D02*
X70604388Y-72713056D01*
X70604388Y-72713056D02*
X70652007Y-72617817D01*
X70652007Y-72617817D02*
X70652007Y-72570198D01*
X70652007Y-72570198D02*
X70604388Y-72474960D01*
X70604388Y-72474960D02*
X70509150Y-72427341D01*
X70509150Y-72427341D02*
X70366293Y-72427341D01*
X70366293Y-72427341D02*
X70271055Y-72379722D01*
X70271055Y-72379722D02*
X70223436Y-72284484D01*
X70223436Y-72284484D02*
X70223436Y-72236865D01*
X70223436Y-72236865D02*
X70271055Y-72141627D01*
X70271055Y-72141627D02*
X70366293Y-72094008D01*
X70366293Y-72094008D02*
X70509150Y-72094008D01*
X70509150Y-72094008D02*
X70604388Y-72141627D01*
X71223436Y-72760675D02*
X71128198Y-72713056D01*
X71128198Y-72713056D02*
X71080579Y-72665436D01*
X71080579Y-72665436D02*
X71032960Y-72570198D01*
X71032960Y-72570198D02*
X71032960Y-72284484D01*
X71032960Y-72284484D02*
X71080579Y-72189246D01*
X71080579Y-72189246D02*
X71128198Y-72141627D01*
X71128198Y-72141627D02*
X71223436Y-72094008D01*
X71223436Y-72094008D02*
X71366293Y-72094008D01*
X71366293Y-72094008D02*
X71461531Y-72141627D01*
X71461531Y-72141627D02*
X71509150Y-72189246D01*
X71509150Y-72189246D02*
X71556769Y-72284484D01*
X71556769Y-72284484D02*
X71556769Y-72570198D01*
X71556769Y-72570198D02*
X71509150Y-72665436D01*
X71509150Y-72665436D02*
X71461531Y-72713056D01*
X71461531Y-72713056D02*
X71366293Y-72760675D01*
X71366293Y-72760675D02*
X71223436Y-72760675D01*
X72413912Y-72094008D02*
X72413912Y-72760675D01*
X71985341Y-72094008D02*
X71985341Y-72617817D01*
X71985341Y-72617817D02*
X72032960Y-72713056D01*
X72032960Y-72713056D02*
X72128198Y-72760675D01*
X72128198Y-72760675D02*
X72271055Y-72760675D01*
X72271055Y-72760675D02*
X72366293Y-72713056D01*
X72366293Y-72713056D02*
X72413912Y-72665436D01*
X72890103Y-72760675D02*
X72890103Y-72094008D01*
X72890103Y-72284484D02*
X72937722Y-72189246D01*
X72937722Y-72189246D02*
X72985341Y-72141627D01*
X72985341Y-72141627D02*
X73080579Y-72094008D01*
X73080579Y-72094008D02*
X73175817Y-72094008D01*
X73509151Y-72760675D02*
X73509151Y-72094008D01*
X73509151Y-71760675D02*
X73461532Y-71808294D01*
X73461532Y-71808294D02*
X73509151Y-71855913D01*
X73509151Y-71855913D02*
X73556770Y-71808294D01*
X73556770Y-71808294D02*
X73509151Y-71760675D01*
X73509151Y-71760675D02*
X73509151Y-71855913D01*
X74699627Y-72713056D02*
X74842484Y-72760675D01*
X74842484Y-72760675D02*
X75080579Y-72760675D01*
X75080579Y-72760675D02*
X75175817Y-72713056D01*
X75175817Y-72713056D02*
X75223436Y-72665436D01*
X75223436Y-72665436D02*
X75271055Y-72570198D01*
X75271055Y-72570198D02*
X75271055Y-72474960D01*
X75271055Y-72474960D02*
X75223436Y-72379722D01*
X75223436Y-72379722D02*
X75175817Y-72332103D01*
X75175817Y-72332103D02*
X75080579Y-72284484D01*
X75080579Y-72284484D02*
X74890103Y-72236865D01*
X74890103Y-72236865D02*
X74794865Y-72189246D01*
X74794865Y-72189246D02*
X74747246Y-72141627D01*
X74747246Y-72141627D02*
X74699627Y-72046389D01*
X74699627Y-72046389D02*
X74699627Y-71951151D01*
X74699627Y-71951151D02*
X74747246Y-71855913D01*
X74747246Y-71855913D02*
X74794865Y-71808294D01*
X74794865Y-71808294D02*
X74890103Y-71760675D01*
X74890103Y-71760675D02*
X75128198Y-71760675D01*
X75128198Y-71760675D02*
X75271055Y-71808294D01*
X76509151Y-72760675D02*
X76461532Y-72760675D01*
X76461532Y-72760675D02*
X76366293Y-72713056D01*
X76366293Y-72713056D02*
X76223436Y-72570198D01*
X76223436Y-72570198D02*
X75985341Y-72284484D01*
X75985341Y-72284484D02*
X75890103Y-72141627D01*
X75890103Y-72141627D02*
X75842484Y-71998770D01*
X75842484Y-71998770D02*
X75842484Y-71903532D01*
X75842484Y-71903532D02*
X75890103Y-71808294D01*
X75890103Y-71808294D02*
X75985341Y-71760675D01*
X75985341Y-71760675D02*
X76032960Y-71760675D01*
X76032960Y-71760675D02*
X76128198Y-71808294D01*
X76128198Y-71808294D02*
X76175817Y-71903532D01*
X76175817Y-71903532D02*
X76175817Y-71951151D01*
X76175817Y-71951151D02*
X76128198Y-72046389D01*
X76128198Y-72046389D02*
X76080579Y-72094008D01*
X76080579Y-72094008D02*
X75794865Y-72284484D01*
X75794865Y-72284484D02*
X75747246Y-72332103D01*
X75747246Y-72332103D02*
X75699627Y-72427341D01*
X75699627Y-72427341D02*
X75699627Y-72570198D01*
X75699627Y-72570198D02*
X75747246Y-72665436D01*
X75747246Y-72665436D02*
X75794865Y-72713056D01*
X75794865Y-72713056D02*
X75890103Y-72760675D01*
X75890103Y-72760675D02*
X76032960Y-72760675D01*
X76032960Y-72760675D02*
X76128198Y-72713056D01*
X76128198Y-72713056D02*
X76175817Y-72665436D01*
X76175817Y-72665436D02*
X76318674Y-72474960D01*
X76318674Y-72474960D02*
X76366293Y-72332103D01*
X76366293Y-72332103D02*
X76366293Y-72236865D01*
X76794865Y-71760675D02*
X77366293Y-71760675D01*
X77080579Y-72760675D02*
X77080579Y-71760675D01*
X77747246Y-72713056D02*
X77747246Y-72760675D01*
X77747246Y-72760675D02*
X77699627Y-72855913D01*
X77699627Y-72855913D02*
X77652008Y-72903532D01*
X78890103Y-71855913D02*
X78937722Y-71808294D01*
X78937722Y-71808294D02*
X79032960Y-71760675D01*
X79032960Y-71760675D02*
X79271055Y-71760675D01*
X79271055Y-71760675D02*
X79366293Y-71808294D01*
X79366293Y-71808294D02*
X79413912Y-71855913D01*
X79413912Y-71855913D02*
X79461531Y-71951151D01*
X79461531Y-71951151D02*
X79461531Y-72046389D01*
X79461531Y-72046389D02*
X79413912Y-72189246D01*
X79413912Y-72189246D02*
X78842484Y-72760675D01*
X78842484Y-72760675D02*
X79461531Y-72760675D01*
X80080579Y-71760675D02*
X80175817Y-71760675D01*
X80175817Y-71760675D02*
X80271055Y-71808294D01*
X80271055Y-71808294D02*
X80318674Y-71855913D01*
X80318674Y-71855913D02*
X80366293Y-71951151D01*
X80366293Y-71951151D02*
X80413912Y-72141627D01*
X80413912Y-72141627D02*
X80413912Y-72379722D01*
X80413912Y-72379722D02*
X80366293Y-72570198D01*
X80366293Y-72570198D02*
X80318674Y-72665436D01*
X80318674Y-72665436D02*
X80271055Y-72713056D01*
X80271055Y-72713056D02*
X80175817Y-72760675D01*
X80175817Y-72760675D02*
X80080579Y-72760675D01*
X80080579Y-72760675D02*
X79985341Y-72713056D01*
X79985341Y-72713056D02*
X79937722Y-72665436D01*
X79937722Y-72665436D02*
X79890103Y-72570198D01*
X79890103Y-72570198D02*
X79842484Y-72379722D01*
X79842484Y-72379722D02*
X79842484Y-72141627D01*
X79842484Y-72141627D02*
X79890103Y-71951151D01*
X79890103Y-71951151D02*
X79937722Y-71855913D01*
X79937722Y-71855913D02*
X79985341Y-71808294D01*
X79985341Y-71808294D02*
X80080579Y-71760675D01*
X80794865Y-71855913D02*
X80842484Y-71808294D01*
X80842484Y-71808294D02*
X80937722Y-71760675D01*
X80937722Y-71760675D02*
X81175817Y-71760675D01*
X81175817Y-71760675D02*
X81271055Y-71808294D01*
X81271055Y-71808294D02*
X81318674Y-71855913D01*
X81318674Y-71855913D02*
X81366293Y-71951151D01*
X81366293Y-71951151D02*
X81366293Y-72046389D01*
X81366293Y-72046389D02*
X81318674Y-72189246D01*
X81318674Y-72189246D02*
X80747246Y-72760675D01*
X80747246Y-72760675D02*
X81366293Y-72760675D01*
X82223436Y-72094008D02*
X82223436Y-72760675D01*
X81985341Y-71713056D02*
X81747246Y-72427341D01*
X81747246Y-72427341D02*
X82366293Y-72427341D01*
X68318674Y-74370619D02*
X67842484Y-74370619D01*
X67842484Y-74370619D02*
X67842484Y-73370619D01*
X69080579Y-73703952D02*
X69080579Y-74370619D01*
X68652008Y-73703952D02*
X68652008Y-74227761D01*
X68652008Y-74227761D02*
X68699627Y-74323000D01*
X68699627Y-74323000D02*
X68794865Y-74370619D01*
X68794865Y-74370619D02*
X68937722Y-74370619D01*
X68937722Y-74370619D02*
X69032960Y-74323000D01*
X69032960Y-74323000D02*
X69080579Y-74275380D01*
X69556770Y-74370619D02*
X69556770Y-73370619D01*
X69652008Y-73989666D02*
X69937722Y-74370619D01*
X69937722Y-73703952D02*
X69556770Y-74084904D01*
X70747246Y-74323000D02*
X70652008Y-74370619D01*
X70652008Y-74370619D02*
X70461532Y-74370619D01*
X70461532Y-74370619D02*
X70366294Y-74323000D01*
X70366294Y-74323000D02*
X70318675Y-74227761D01*
X70318675Y-74227761D02*
X70318675Y-73846809D01*
X70318675Y-73846809D02*
X70366294Y-73751571D01*
X70366294Y-73751571D02*
X70461532Y-73703952D01*
X70461532Y-73703952D02*
X70652008Y-73703952D01*
X70652008Y-73703952D02*
X70747246Y-73751571D01*
X70747246Y-73751571D02*
X70794865Y-73846809D01*
X70794865Y-73846809D02*
X70794865Y-73942047D01*
X70794865Y-73942047D02*
X70318675Y-74037285D01*
X71985342Y-74370619D02*
X71985342Y-73370619D01*
X71985342Y-73370619D02*
X72223437Y-73370619D01*
X72223437Y-73370619D02*
X72366294Y-73418238D01*
X72366294Y-73418238D02*
X72461532Y-73513476D01*
X72461532Y-73513476D02*
X72509151Y-73608714D01*
X72509151Y-73608714D02*
X72556770Y-73799190D01*
X72556770Y-73799190D02*
X72556770Y-73942047D01*
X72556770Y-73942047D02*
X72509151Y-74132523D01*
X72509151Y-74132523D02*
X72461532Y-74227761D01*
X72461532Y-74227761D02*
X72366294Y-74323000D01*
X72366294Y-74323000D02*
X72223437Y-74370619D01*
X72223437Y-74370619D02*
X71985342Y-74370619D01*
X73413913Y-73703952D02*
X73413913Y-74370619D01*
X72985342Y-73703952D02*
X72985342Y-74227761D01*
X72985342Y-74227761D02*
X73032961Y-74323000D01*
X73032961Y-74323000D02*
X73128199Y-74370619D01*
X73128199Y-74370619D02*
X73271056Y-74370619D01*
X73271056Y-74370619D02*
X73366294Y-74323000D01*
X73366294Y-74323000D02*
X73413913Y-74275380D01*
X73747247Y-73703952D02*
X74128199Y-73703952D01*
X73890104Y-74370619D02*
X73890104Y-73513476D01*
X73890104Y-73513476D02*
X73937723Y-73418238D01*
X73937723Y-73418238D02*
X74032961Y-73370619D01*
X74032961Y-73370619D02*
X74128199Y-73370619D01*
X74318676Y-73703952D02*
X74699628Y-73703952D01*
X74461533Y-74370619D02*
X74461533Y-73513476D01*
X74461533Y-73513476D02*
X74509152Y-73418238D01*
X74509152Y-73418238D02*
X74604390Y-73370619D01*
X74604390Y-73370619D02*
X74699628Y-73370619D01*
X75080581Y-74323000D02*
X75080581Y-74370619D01*
X75080581Y-74370619D02*
X75032962Y-74465857D01*
X75032962Y-74465857D02*
X74985343Y-74513476D01*
X76223438Y-74323000D02*
X76366295Y-74370619D01*
X76366295Y-74370619D02*
X76604390Y-74370619D01*
X76604390Y-74370619D02*
X76699628Y-74323000D01*
X76699628Y-74323000D02*
X76747247Y-74275380D01*
X76747247Y-74275380D02*
X76794866Y-74180142D01*
X76794866Y-74180142D02*
X76794866Y-74084904D01*
X76794866Y-74084904D02*
X76747247Y-73989666D01*
X76747247Y-73989666D02*
X76699628Y-73942047D01*
X76699628Y-73942047D02*
X76604390Y-73894428D01*
X76604390Y-73894428D02*
X76413914Y-73846809D01*
X76413914Y-73846809D02*
X76318676Y-73799190D01*
X76318676Y-73799190D02*
X76271057Y-73751571D01*
X76271057Y-73751571D02*
X76223438Y-73656333D01*
X76223438Y-73656333D02*
X76223438Y-73561095D01*
X76223438Y-73561095D02*
X76271057Y-73465857D01*
X76271057Y-73465857D02*
X76318676Y-73418238D01*
X76318676Y-73418238D02*
X76413914Y-73370619D01*
X76413914Y-73370619D02*
X76652009Y-73370619D01*
X76652009Y-73370619D02*
X76794866Y-73418238D01*
X77604390Y-74323000D02*
X77509152Y-74370619D01*
X77509152Y-74370619D02*
X77318676Y-74370619D01*
X77318676Y-74370619D02*
X77223438Y-74323000D01*
X77223438Y-74323000D02*
X77175819Y-74227761D01*
X77175819Y-74227761D02*
X77175819Y-73846809D01*
X77175819Y-73846809D02*
X77223438Y-73751571D01*
X77223438Y-73751571D02*
X77318676Y-73703952D01*
X77318676Y-73703952D02*
X77509152Y-73703952D01*
X77509152Y-73703952D02*
X77604390Y-73751571D01*
X77604390Y-73751571D02*
X77652009Y-73846809D01*
X77652009Y-73846809D02*
X77652009Y-73942047D01*
X77652009Y-73942047D02*
X77175819Y-74037285D01*
X78509152Y-74370619D02*
X78509152Y-73846809D01*
X78509152Y-73846809D02*
X78461533Y-73751571D01*
X78461533Y-73751571D02*
X78366295Y-73703952D01*
X78366295Y-73703952D02*
X78175819Y-73703952D01*
X78175819Y-73703952D02*
X78080581Y-73751571D01*
X78509152Y-74323000D02*
X78413914Y-74370619D01*
X78413914Y-74370619D02*
X78175819Y-74370619D01*
X78175819Y-74370619D02*
X78080581Y-74323000D01*
X78080581Y-74323000D02*
X78032962Y-74227761D01*
X78032962Y-74227761D02*
X78032962Y-74132523D01*
X78032962Y-74132523D02*
X78080581Y-74037285D01*
X78080581Y-74037285D02*
X78175819Y-73989666D01*
X78175819Y-73989666D02*
X78413914Y-73989666D01*
X78413914Y-73989666D02*
X78509152Y-73942047D01*
X78985343Y-73703952D02*
X78985343Y-74370619D01*
X78985343Y-73799190D02*
X79032962Y-73751571D01*
X79032962Y-73751571D02*
X79128200Y-73703952D01*
X79128200Y-73703952D02*
X79271057Y-73703952D01*
X79271057Y-73703952D02*
X79366295Y-73751571D01*
X79366295Y-73751571D02*
X79413914Y-73846809D01*
X79413914Y-73846809D02*
X79413914Y-74370619D01*
X80652010Y-74370619D02*
X80652010Y-73370619D01*
X80652010Y-73370619D02*
X80890105Y-73370619D01*
X80890105Y-73370619D02*
X81032962Y-73418238D01*
X81032962Y-73418238D02*
X81128200Y-73513476D01*
X81128200Y-73513476D02*
X81175819Y-73608714D01*
X81175819Y-73608714D02*
X81223438Y-73799190D01*
X81223438Y-73799190D02*
X81223438Y-73942047D01*
X81223438Y-73942047D02*
X81175819Y-74132523D01*
X81175819Y-74132523D02*
X81128200Y-74227761D01*
X81128200Y-74227761D02*
X81032962Y-74323000D01*
X81032962Y-74323000D02*
X80890105Y-74370619D01*
X80890105Y-74370619D02*
X80652010Y-74370619D01*
X82080581Y-73703952D02*
X82080581Y-74370619D01*
X81652010Y-73703952D02*
X81652010Y-74227761D01*
X81652010Y-74227761D02*
X81699629Y-74323000D01*
X81699629Y-74323000D02*
X81794867Y-74370619D01*
X81794867Y-74370619D02*
X81937724Y-74370619D01*
X81937724Y-74370619D02*
X82032962Y-74323000D01*
X82032962Y-74323000D02*
X82080581Y-74275380D01*
X82985343Y-74370619D02*
X82985343Y-73370619D01*
X82985343Y-74323000D02*
X82890105Y-74370619D01*
X82890105Y-74370619D02*
X82699629Y-74370619D01*
X82699629Y-74370619D02*
X82604391Y-74323000D01*
X82604391Y-74323000D02*
X82556772Y-74275380D01*
X82556772Y-74275380D02*
X82509153Y-74180142D01*
X82509153Y-74180142D02*
X82509153Y-73894428D01*
X82509153Y-73894428D02*
X82556772Y-73799190D01*
X82556772Y-73799190D02*
X82604391Y-73751571D01*
X82604391Y-73751571D02*
X82699629Y-73703952D01*
X82699629Y-73703952D02*
X82890105Y-73703952D01*
X82890105Y-73703952D02*
X82985343Y-73751571D01*
X83890105Y-74370619D02*
X83890105Y-73846809D01*
X83890105Y-73846809D02*
X83842486Y-73751571D01*
X83842486Y-73751571D02*
X83747248Y-73703952D01*
X83747248Y-73703952D02*
X83556772Y-73703952D01*
X83556772Y-73703952D02*
X83461534Y-73751571D01*
X83890105Y-74323000D02*
X83794867Y-74370619D01*
X83794867Y-74370619D02*
X83556772Y-74370619D01*
X83556772Y-74370619D02*
X83461534Y-74323000D01*
X83461534Y-74323000D02*
X83413915Y-74227761D01*
X83413915Y-74227761D02*
X83413915Y-74132523D01*
X83413915Y-74132523D02*
X83461534Y-74037285D01*
X83461534Y-74037285D02*
X83556772Y-73989666D01*
X83556772Y-73989666D02*
X83794867Y-73989666D01*
X83794867Y-73989666D02*
X83890105Y-73942047D01*
X84413915Y-74323000D02*
X84413915Y-74370619D01*
X84413915Y-74370619D02*
X84366296Y-74465857D01*
X84366296Y-74465857D02*
X84318677Y-74513476D01*
X85604391Y-73846809D02*
X85937724Y-73846809D01*
X86080581Y-74370619D02*
X85604391Y-74370619D01*
X85604391Y-74370619D02*
X85604391Y-73370619D01*
X85604391Y-73370619D02*
X86080581Y-73370619D01*
X86366296Y-73703952D02*
X86747248Y-73703952D01*
X86509153Y-73370619D02*
X86509153Y-74227761D01*
X86509153Y-74227761D02*
X86556772Y-74323000D01*
X86556772Y-74323000D02*
X86652010Y-74370619D01*
X86652010Y-74370619D02*
X86747248Y-74370619D01*
X87080582Y-74370619D02*
X87080582Y-73370619D01*
X87509153Y-74370619D02*
X87509153Y-73846809D01*
X87509153Y-73846809D02*
X87461534Y-73751571D01*
X87461534Y-73751571D02*
X87366296Y-73703952D01*
X87366296Y-73703952D02*
X87223439Y-73703952D01*
X87223439Y-73703952D02*
X87128201Y-73751571D01*
X87128201Y-73751571D02*
X87080582Y-73799190D01*
X88413915Y-74370619D02*
X88413915Y-73846809D01*
X88413915Y-73846809D02*
X88366296Y-73751571D01*
X88366296Y-73751571D02*
X88271058Y-73703952D01*
X88271058Y-73703952D02*
X88080582Y-73703952D01*
X88080582Y-73703952D02*
X87985344Y-73751571D01*
X88413915Y-74323000D02*
X88318677Y-74370619D01*
X88318677Y-74370619D02*
X88080582Y-74370619D01*
X88080582Y-74370619D02*
X87985344Y-74323000D01*
X87985344Y-74323000D02*
X87937725Y-74227761D01*
X87937725Y-74227761D02*
X87937725Y-74132523D01*
X87937725Y-74132523D02*
X87985344Y-74037285D01*
X87985344Y-74037285D02*
X88080582Y-73989666D01*
X88080582Y-73989666D02*
X88318677Y-73989666D01*
X88318677Y-73989666D02*
X88413915Y-73942047D01*
X88890106Y-73703952D02*
X88890106Y-74370619D01*
X88890106Y-73799190D02*
X88937725Y-73751571D01*
X88937725Y-73751571D02*
X89032963Y-73703952D01*
X89032963Y-73703952D02*
X89175820Y-73703952D01*
X89175820Y-73703952D02*
X89271058Y-73751571D01*
X89271058Y-73751571D02*
X89318677Y-73846809D01*
X89318677Y-73846809D02*
X89318677Y-74370619D01*
X91128201Y-74275380D02*
X91080582Y-74323000D01*
X91080582Y-74323000D02*
X90937725Y-74370619D01*
X90937725Y-74370619D02*
X90842487Y-74370619D01*
X90842487Y-74370619D02*
X90699630Y-74323000D01*
X90699630Y-74323000D02*
X90604392Y-74227761D01*
X90604392Y-74227761D02*
X90556773Y-74132523D01*
X90556773Y-74132523D02*
X90509154Y-73942047D01*
X90509154Y-73942047D02*
X90509154Y-73799190D01*
X90509154Y-73799190D02*
X90556773Y-73608714D01*
X90556773Y-73608714D02*
X90604392Y-73513476D01*
X90604392Y-73513476D02*
X90699630Y-73418238D01*
X90699630Y-73418238D02*
X90842487Y-73370619D01*
X90842487Y-73370619D02*
X90937725Y-73370619D01*
X90937725Y-73370619D02*
X91080582Y-73418238D01*
X91080582Y-73418238D02*
X91128201Y-73465857D01*
X91699630Y-74370619D02*
X91604392Y-74323000D01*
X91604392Y-74323000D02*
X91556773Y-74275380D01*
X91556773Y-74275380D02*
X91509154Y-74180142D01*
X91509154Y-74180142D02*
X91509154Y-73894428D01*
X91509154Y-73894428D02*
X91556773Y-73799190D01*
X91556773Y-73799190D02*
X91604392Y-73751571D01*
X91604392Y-73751571D02*
X91699630Y-73703952D01*
X91699630Y-73703952D02*
X91842487Y-73703952D01*
X91842487Y-73703952D02*
X91937725Y-73751571D01*
X91937725Y-73751571D02*
X91985344Y-73799190D01*
X91985344Y-73799190D02*
X92032963Y-73894428D01*
X92032963Y-73894428D02*
X92032963Y-74180142D01*
X92032963Y-74180142D02*
X91985344Y-74275380D01*
X91985344Y-74275380D02*
X91937725Y-74323000D01*
X91937725Y-74323000D02*
X91842487Y-74370619D01*
X91842487Y-74370619D02*
X91699630Y-74370619D01*
X92890106Y-73703952D02*
X92890106Y-74513476D01*
X92890106Y-74513476D02*
X92842487Y-74608714D01*
X92842487Y-74608714D02*
X92794868Y-74656333D01*
X92794868Y-74656333D02*
X92699630Y-74703952D01*
X92699630Y-74703952D02*
X92556773Y-74703952D01*
X92556773Y-74703952D02*
X92461535Y-74656333D01*
X92890106Y-74323000D02*
X92794868Y-74370619D01*
X92794868Y-74370619D02*
X92604392Y-74370619D01*
X92604392Y-74370619D02*
X92509154Y-74323000D01*
X92509154Y-74323000D02*
X92461535Y-74275380D01*
X92461535Y-74275380D02*
X92413916Y-74180142D01*
X92413916Y-74180142D02*
X92413916Y-73894428D01*
X92413916Y-73894428D02*
X92461535Y-73799190D01*
X92461535Y-73799190D02*
X92509154Y-73751571D01*
X92509154Y-73751571D02*
X92604392Y-73703952D01*
X92604392Y-73703952D02*
X92794868Y-73703952D01*
X92794868Y-73703952D02*
X92890106Y-73751571D01*
X93794868Y-73703952D02*
X93794868Y-74513476D01*
X93794868Y-74513476D02*
X93747249Y-74608714D01*
X93747249Y-74608714D02*
X93699630Y-74656333D01*
X93699630Y-74656333D02*
X93604392Y-74703952D01*
X93604392Y-74703952D02*
X93461535Y-74703952D01*
X93461535Y-74703952D02*
X93366297Y-74656333D01*
X93794868Y-74323000D02*
X93699630Y-74370619D01*
X93699630Y-74370619D02*
X93509154Y-74370619D01*
X93509154Y-74370619D02*
X93413916Y-74323000D01*
X93413916Y-74323000D02*
X93366297Y-74275380D01*
X93366297Y-74275380D02*
X93318678Y-74180142D01*
X93318678Y-74180142D02*
X93318678Y-73894428D01*
X93318678Y-73894428D02*
X93366297Y-73799190D01*
X93366297Y-73799190D02*
X93413916Y-73751571D01*
X93413916Y-73751571D02*
X93509154Y-73703952D01*
X93509154Y-73703952D02*
X93699630Y-73703952D01*
X93699630Y-73703952D02*
X93794868Y-73751571D01*
X94223440Y-74323000D02*
X94318678Y-74370619D01*
X94318678Y-74370619D02*
X94509154Y-74370619D01*
X94509154Y-74370619D02*
X94604392Y-74323000D01*
X94604392Y-74323000D02*
X94652011Y-74227761D01*
X94652011Y-74227761D02*
X94652011Y-74180142D01*
X94652011Y-74180142D02*
X94604392Y-74084904D01*
X94604392Y-74084904D02*
X94509154Y-74037285D01*
X94509154Y-74037285D02*
X94366297Y-74037285D01*
X94366297Y-74037285D02*
X94271059Y-73989666D01*
X94271059Y-73989666D02*
X94223440Y-73894428D01*
X94223440Y-73894428D02*
X94223440Y-73846809D01*
X94223440Y-73846809D02*
X94271059Y-73751571D01*
X94271059Y-73751571D02*
X94366297Y-73703952D01*
X94366297Y-73703952D02*
X94509154Y-73703952D01*
X94509154Y-73703952D02*
X94604392Y-73751571D01*
X95509154Y-74323000D02*
X95413916Y-74370619D01*
X95413916Y-74370619D02*
X95223440Y-74370619D01*
X95223440Y-74370619D02*
X95128202Y-74323000D01*
X95128202Y-74323000D02*
X95080583Y-74275380D01*
X95080583Y-74275380D02*
X95032964Y-74180142D01*
X95032964Y-74180142D02*
X95032964Y-73894428D01*
X95032964Y-73894428D02*
X95080583Y-73799190D01*
X95080583Y-73799190D02*
X95128202Y-73751571D01*
X95128202Y-73751571D02*
X95223440Y-73703952D01*
X95223440Y-73703952D02*
X95413916Y-73703952D01*
X95413916Y-73703952D02*
X95509154Y-73751571D01*
X95937726Y-74370619D02*
X95937726Y-73370619D01*
X96366297Y-74370619D02*
X96366297Y-73846809D01*
X96366297Y-73846809D02*
X96318678Y-73751571D01*
X96318678Y-73751571D02*
X96223440Y-73703952D01*
X96223440Y-73703952D02*
X96080583Y-73703952D01*
X96080583Y-73703952D02*
X95985345Y-73751571D01*
X95985345Y-73751571D02*
X95937726Y-73799190D01*
X97223440Y-74323000D02*
X97128202Y-74370619D01*
X97128202Y-74370619D02*
X96937726Y-74370619D01*
X96937726Y-74370619D02*
X96842488Y-74323000D01*
X96842488Y-74323000D02*
X96794869Y-74227761D01*
X96794869Y-74227761D02*
X96794869Y-73846809D01*
X96794869Y-73846809D02*
X96842488Y-73751571D01*
X96842488Y-73751571D02*
X96937726Y-73703952D01*
X96937726Y-73703952D02*
X97128202Y-73703952D01*
X97128202Y-73703952D02*
X97223440Y-73751571D01*
X97223440Y-73751571D02*
X97271059Y-73846809D01*
X97271059Y-73846809D02*
X97271059Y-73942047D01*
X97271059Y-73942047D02*
X96794869Y-74037285D01*
X97842488Y-74370619D02*
X97747250Y-74323000D01*
X97747250Y-74323000D02*
X97699631Y-74227761D01*
X97699631Y-74227761D02*
X97699631Y-73370619D01*
X98366298Y-74370619D02*
X98271060Y-74323000D01*
X98271060Y-74323000D02*
X98223441Y-74227761D01*
X98223441Y-74227761D02*
X98223441Y-73370619D01*
D11*
X49250580Y-124916009D02*
X49298200Y-124963628D01*
X49298200Y-124963628D02*
X49345819Y-125106485D01*
X49345819Y-125106485D02*
X49345819Y-125201723D01*
X49345819Y-125201723D02*
X49298200Y-125344580D01*
X49298200Y-125344580D02*
X49202961Y-125439818D01*
X49202961Y-125439818D02*
X49107723Y-125487437D01*
X49107723Y-125487437D02*
X48917247Y-125535056D01*
X48917247Y-125535056D02*
X48774390Y-125535056D01*
X48774390Y-125535056D02*
X48583914Y-125487437D01*
X48583914Y-125487437D02*
X48488676Y-125439818D01*
X48488676Y-125439818D02*
X48393438Y-125344580D01*
X48393438Y-125344580D02*
X48345819Y-125201723D01*
X48345819Y-125201723D02*
X48345819Y-125106485D01*
X48345819Y-125106485D02*
X48393438Y-124963628D01*
X48393438Y-124963628D02*
X48441057Y-124916009D01*
X49345819Y-124344580D02*
X49298200Y-124439818D01*
X49298200Y-124439818D02*
X49250580Y-124487437D01*
X49250580Y-124487437D02*
X49155342Y-124535056D01*
X49155342Y-124535056D02*
X48869628Y-124535056D01*
X48869628Y-124535056D02*
X48774390Y-124487437D01*
X48774390Y-124487437D02*
X48726771Y-124439818D01*
X48726771Y-124439818D02*
X48679152Y-124344580D01*
X48679152Y-124344580D02*
X48679152Y-124201723D01*
X48679152Y-124201723D02*
X48726771Y-124106485D01*
X48726771Y-124106485D02*
X48774390Y-124058866D01*
X48774390Y-124058866D02*
X48869628Y-124011247D01*
X48869628Y-124011247D02*
X49155342Y-124011247D01*
X49155342Y-124011247D02*
X49250580Y-124058866D01*
X49250580Y-124058866D02*
X49298200Y-124106485D01*
X49298200Y-124106485D02*
X49345819Y-124201723D01*
X49345819Y-124201723D02*
X49345819Y-124344580D01*
X48679152Y-123582675D02*
X49345819Y-123582675D01*
X48774390Y-123582675D02*
X48726771Y-123535056D01*
X48726771Y-123535056D02*
X48679152Y-123439818D01*
X48679152Y-123439818D02*
X48679152Y-123296961D01*
X48679152Y-123296961D02*
X48726771Y-123201723D01*
X48726771Y-123201723D02*
X48822009Y-123154104D01*
X48822009Y-123154104D02*
X49345819Y-123154104D01*
X48679152Y-122677913D02*
X49345819Y-122677913D01*
X48774390Y-122677913D02*
X48726771Y-122630294D01*
X48726771Y-122630294D02*
X48679152Y-122535056D01*
X48679152Y-122535056D02*
X48679152Y-122392199D01*
X48679152Y-122392199D02*
X48726771Y-122296961D01*
X48726771Y-122296961D02*
X48822009Y-122249342D01*
X48822009Y-122249342D02*
X49345819Y-122249342D01*
X48441057Y-121820770D02*
X48393438Y-121773151D01*
X48393438Y-121773151D02*
X48345819Y-121677913D01*
X48345819Y-121677913D02*
X48345819Y-121439818D01*
X48345819Y-121439818D02*
X48393438Y-121344580D01*
X48393438Y-121344580D02*
X48441057Y-121296961D01*
X48441057Y-121296961D02*
X48536295Y-121249342D01*
X48536295Y-121249342D02*
X48631533Y-121249342D01*
X48631533Y-121249342D02*
X48774390Y-121296961D01*
X48774390Y-121296961D02*
X49345819Y-121868389D01*
X49345819Y-121868389D02*
X49345819Y-121249342D01*
X118321580Y-120876666D02*
X118369200Y-120924285D01*
X118369200Y-120924285D02*
X118416819Y-121067142D01*
X118416819Y-121067142D02*
X118416819Y-121162380D01*
X118416819Y-121162380D02*
X118369200Y-121305237D01*
X118369200Y-121305237D02*
X118273961Y-121400475D01*
X118273961Y-121400475D02*
X118178723Y-121448094D01*
X118178723Y-121448094D02*
X117988247Y-121495713D01*
X117988247Y-121495713D02*
X117845390Y-121495713D01*
X117845390Y-121495713D02*
X117654914Y-121448094D01*
X117654914Y-121448094D02*
X117559676Y-121400475D01*
X117559676Y-121400475D02*
X117464438Y-121305237D01*
X117464438Y-121305237D02*
X117416819Y-121162380D01*
X117416819Y-121162380D02*
X117416819Y-121067142D01*
X117416819Y-121067142D02*
X117464438Y-120924285D01*
X117464438Y-120924285D02*
X117512057Y-120876666D01*
X117750152Y-120019523D02*
X118416819Y-120019523D01*
X117369200Y-120257618D02*
X118083485Y-120495713D01*
X118083485Y-120495713D02*
X118083485Y-119876666D01*
X67013580Y-121130666D02*
X67061200Y-121178285D01*
X67061200Y-121178285D02*
X67108819Y-121321142D01*
X67108819Y-121321142D02*
X67108819Y-121416380D01*
X67108819Y-121416380D02*
X67061200Y-121559237D01*
X67061200Y-121559237D02*
X66965961Y-121654475D01*
X66965961Y-121654475D02*
X66870723Y-121702094D01*
X66870723Y-121702094D02*
X66680247Y-121749713D01*
X66680247Y-121749713D02*
X66537390Y-121749713D01*
X66537390Y-121749713D02*
X66346914Y-121702094D01*
X66346914Y-121702094D02*
X66251676Y-121654475D01*
X66251676Y-121654475D02*
X66156438Y-121559237D01*
X66156438Y-121559237D02*
X66108819Y-121416380D01*
X66108819Y-121416380D02*
X66108819Y-121321142D01*
X66108819Y-121321142D02*
X66156438Y-121178285D01*
X66156438Y-121178285D02*
X66204057Y-121130666D01*
X67108819Y-120178285D02*
X67108819Y-120749713D01*
X67108819Y-120463999D02*
X66108819Y-120463999D01*
X66108819Y-120463999D02*
X66251676Y-120559237D01*
X66251676Y-120559237D02*
X66346914Y-120654475D01*
X66346914Y-120654475D02*
X66394533Y-120749713D01*
D12*
X53757080Y-93847332D02*
X53757080Y-94270666D01*
X54422318Y-94270666D02*
X53152318Y-94270666D01*
X53152318Y-94270666D02*
X53152318Y-93665904D01*
X54422318Y-92516856D02*
X54422318Y-93242571D01*
X54422318Y-92879714D02*
X53152318Y-92879714D01*
X53152318Y-92879714D02*
X53333746Y-93000666D01*
X53333746Y-93000666D02*
X53454699Y-93121618D01*
X53454699Y-93121618D02*
X53515175Y-93242571D01*
D11*
X84031580Y-121130666D02*
X84079200Y-121178285D01*
X84079200Y-121178285D02*
X84126819Y-121321142D01*
X84126819Y-121321142D02*
X84126819Y-121416380D01*
X84126819Y-121416380D02*
X84079200Y-121559237D01*
X84079200Y-121559237D02*
X83983961Y-121654475D01*
X83983961Y-121654475D02*
X83888723Y-121702094D01*
X83888723Y-121702094D02*
X83698247Y-121749713D01*
X83698247Y-121749713D02*
X83555390Y-121749713D01*
X83555390Y-121749713D02*
X83364914Y-121702094D01*
X83364914Y-121702094D02*
X83269676Y-121654475D01*
X83269676Y-121654475D02*
X83174438Y-121559237D01*
X83174438Y-121559237D02*
X83126819Y-121416380D01*
X83126819Y-121416380D02*
X83126819Y-121321142D01*
X83126819Y-121321142D02*
X83174438Y-121178285D01*
X83174438Y-121178285D02*
X83222057Y-121130666D01*
X83126819Y-120797332D02*
X83126819Y-120178285D01*
X83126819Y-120178285D02*
X83507771Y-120511618D01*
X83507771Y-120511618D02*
X83507771Y-120368761D01*
X83507771Y-120368761D02*
X83555390Y-120273523D01*
X83555390Y-120273523D02*
X83603009Y-120225904D01*
X83603009Y-120225904D02*
X83698247Y-120178285D01*
X83698247Y-120178285D02*
X83936342Y-120178285D01*
X83936342Y-120178285D02*
X84031580Y-120225904D01*
X84031580Y-120225904D02*
X84079200Y-120273523D01*
X84079200Y-120273523D02*
X84126819Y-120368761D01*
X84126819Y-120368761D02*
X84126819Y-120654475D01*
X84126819Y-120654475D02*
X84079200Y-120749713D01*
X84079200Y-120749713D02*
X84031580Y-120797332D01*
X98544819Y-96937094D02*
X97544819Y-96937094D01*
X97544819Y-96937094D02*
X97544819Y-96698999D01*
X97544819Y-96698999D02*
X97592438Y-96556142D01*
X97592438Y-96556142D02*
X97687676Y-96460904D01*
X97687676Y-96460904D02*
X97782914Y-96413285D01*
X97782914Y-96413285D02*
X97973390Y-96365666D01*
X97973390Y-96365666D02*
X98116247Y-96365666D01*
X98116247Y-96365666D02*
X98306723Y-96413285D01*
X98306723Y-96413285D02*
X98401961Y-96460904D01*
X98401961Y-96460904D02*
X98497200Y-96556142D01*
X98497200Y-96556142D02*
X98544819Y-96698999D01*
X98544819Y-96698999D02*
X98544819Y-96937094D01*
X98544819Y-95413285D02*
X98544819Y-95984713D01*
X98544819Y-95698999D02*
X97544819Y-95698999D01*
X97544819Y-95698999D02*
X97687676Y-95794237D01*
X97687676Y-95794237D02*
X97782914Y-95889475D01*
X97782914Y-95889475D02*
X97830533Y-95984713D01*
X101303580Y-121130666D02*
X101351200Y-121178285D01*
X101351200Y-121178285D02*
X101398819Y-121321142D01*
X101398819Y-121321142D02*
X101398819Y-121416380D01*
X101398819Y-121416380D02*
X101351200Y-121559237D01*
X101351200Y-121559237D02*
X101255961Y-121654475D01*
X101255961Y-121654475D02*
X101160723Y-121702094D01*
X101160723Y-121702094D02*
X100970247Y-121749713D01*
X100970247Y-121749713D02*
X100827390Y-121749713D01*
X100827390Y-121749713D02*
X100636914Y-121702094D01*
X100636914Y-121702094D02*
X100541676Y-121654475D01*
X100541676Y-121654475D02*
X100446438Y-121559237D01*
X100446438Y-121559237D02*
X100398819Y-121416380D01*
X100398819Y-121416380D02*
X100398819Y-121321142D01*
X100398819Y-121321142D02*
X100446438Y-121178285D01*
X100446438Y-121178285D02*
X100494057Y-121130666D01*
X100494057Y-120749713D02*
X100446438Y-120702094D01*
X100446438Y-120702094D02*
X100398819Y-120606856D01*
X100398819Y-120606856D02*
X100398819Y-120368761D01*
X100398819Y-120368761D02*
X100446438Y-120273523D01*
X100446438Y-120273523D02*
X100494057Y-120225904D01*
X100494057Y-120225904D02*
X100589295Y-120178285D01*
X100589295Y-120178285D02*
X100684533Y-120178285D01*
X100684533Y-120178285D02*
X100827390Y-120225904D01*
X100827390Y-120225904D02*
X101398819Y-120797332D01*
X101398819Y-120797332D02*
X101398819Y-120178285D01*
%TO.C,Conn2*%
X32004000Y-121248200D02*
X47752000Y-121248200D01*
X32004000Y-133541800D02*
X32004000Y-121248200D01*
X32004000Y-133567200D02*
X32004000Y-134659400D01*
X32004000Y-136970800D02*
X32004000Y-138190000D01*
X32004000Y-145860800D02*
X32004000Y-138113800D01*
X32004000Y-145886200D02*
X47752000Y-145886200D01*
X33147000Y-135827800D02*
X34315400Y-135827800D01*
X37592000Y-135827800D02*
X34315400Y-135827800D01*
X37592000Y-135827800D02*
X38735000Y-135827800D01*
X39852600Y-145860800D02*
X39852600Y-136970800D01*
X39878000Y-133541800D02*
X39878000Y-121248200D01*
X39878000Y-133541800D02*
X39878000Y-134684800D01*
X42164000Y-135827800D02*
X41021000Y-135827800D01*
X42164000Y-135827800D02*
X45466000Y-135827800D01*
X45440600Y-135827800D02*
X46609000Y-135827800D01*
X47752000Y-133516400D02*
X47752000Y-134710200D01*
X47752000Y-133541800D02*
X47752000Y-121248200D01*
X47752000Y-138113800D02*
X47752000Y-145860800D01*
X47752000Y-138139200D02*
X47752000Y-136970800D01*
X32004000Y-134684800D02*
G75*
G02*
X33147000Y-135827800I0J-1143000D01*
G01*
X33147000Y-135827800D02*
G75*
G02*
X32004000Y-136970800I-1143000J0D01*
G01*
X46634400Y-135827800D02*
G75*
G02*
X47752000Y-134710200I1117598J2D01*
G01*
X47752000Y-136945400D02*
G75*
G02*
X46634400Y-135827800I-2J1117598D01*
G01*
X41021000Y-135827800D02*
G75*
G02*
X38735000Y-135827800I-1143000J0D01*
G01*
X38735000Y-135827800D02*
G75*
G02*
X41021000Y-135827800I1143000J0D01*
G01*
D13*
%TO.C,C4*%
X107272000Y-123031000D02*
X100970000Y-123031000D01*
X107272000Y-123071000D02*
X100982000Y-123071000D01*
X107272000Y-123111000D02*
X100994000Y-123111000D01*
X107272000Y-123151000D02*
X101007000Y-123151000D01*
X107272000Y-123191000D02*
X101019000Y-123191000D01*
X107272000Y-123231000D02*
X101032000Y-123231000D01*
X107272000Y-123271000D02*
X101046000Y-123271000D01*
X107272000Y-123311000D02*
X101059000Y-123311000D01*
X107272000Y-123351000D02*
X101073000Y-123351000D01*
X107272000Y-123391000D02*
X101087000Y-123391000D01*
X107272000Y-123431000D02*
X101101000Y-123431000D01*
X107272000Y-123471000D02*
X101115000Y-123471000D01*
X107272000Y-123511000D02*
X101130000Y-123511000D01*
X107272000Y-123551000D02*
X101144000Y-123551000D01*
X107272000Y-123591000D02*
X101159000Y-123591000D01*
X107272000Y-123631000D02*
X101175000Y-123631000D01*
X107272000Y-123671000D02*
X101190000Y-123671000D01*
X107272000Y-123711000D02*
X101206000Y-123711000D01*
X107272000Y-123751000D02*
X101222000Y-123751000D01*
X107272000Y-123791000D02*
X101238000Y-123791000D01*
X107272000Y-123831000D02*
X101255000Y-123831000D01*
X107272000Y-123871000D02*
X101272000Y-123871000D01*
X107272000Y-123911000D02*
X101289000Y-123911000D01*
X107272000Y-123951000D02*
X101306000Y-123951000D01*
X107272000Y-123991000D02*
X101323000Y-123991000D01*
X107272000Y-124031000D02*
X101341000Y-124031000D01*
X107272000Y-124071000D02*
X101359000Y-124071000D01*
X107272000Y-124111000D02*
X101378000Y-124111000D01*
X107272000Y-124151000D02*
X101396000Y-124151000D01*
X107272000Y-124191000D02*
X101415000Y-124191000D01*
X107272000Y-124231000D02*
X101434000Y-124231000D01*
X107272000Y-124271000D02*
X101454000Y-124271000D01*
X107272000Y-124311000D02*
X101473000Y-124311000D01*
X107272000Y-124351000D02*
X101493000Y-124351000D01*
X107272000Y-124391000D02*
X101513000Y-124391000D01*
X107272000Y-124431000D02*
X101534000Y-124431000D01*
X107272000Y-124471000D02*
X101555000Y-124471000D01*
X107272000Y-124511000D02*
X101576000Y-124511000D01*
X107272000Y-124551000D02*
X101597000Y-124551000D01*
X107272000Y-124591000D02*
X101618000Y-124591000D01*
X107272000Y-124631000D02*
X101640000Y-124631000D01*
X107272000Y-124671000D02*
X101663000Y-124671000D01*
X107272000Y-124711000D02*
X101685000Y-124711000D01*
X107272000Y-124751000D02*
X101708000Y-124751000D01*
X107272000Y-124791000D02*
X101731000Y-124791000D01*
X107272000Y-124831000D02*
X101754000Y-124831000D01*
X107272000Y-124871000D02*
X101778000Y-124871000D01*
X107272000Y-124911000D02*
X101802000Y-124911000D01*
X107272000Y-124951000D02*
X101826000Y-124951000D01*
X107272000Y-124991000D02*
X101851000Y-124991000D01*
X107272000Y-125031000D02*
X101876000Y-125031000D01*
X107272000Y-125071000D02*
X101901000Y-125071000D01*
X107272000Y-125111000D02*
X101927000Y-125111000D01*
X107272000Y-125151000D02*
X101953000Y-125151000D01*
X107272000Y-125191000D02*
X101979000Y-125191000D01*
X107272000Y-125231000D02*
X102006000Y-125231000D01*
X107272000Y-125271000D02*
X102033000Y-125271000D01*
X107272000Y-125311000D02*
X102060000Y-125311000D01*
X107272000Y-125351000D02*
X102088000Y-125351000D01*
X107272000Y-125391000D02*
X102116000Y-125391000D01*
X107272000Y-125431000D02*
X102144000Y-125431000D01*
X107272000Y-125471000D02*
X102173000Y-125471000D01*
X107272000Y-125511000D02*
X102202000Y-125511000D01*
X107272000Y-125551000D02*
X102232000Y-125551000D01*
X107272000Y-125591000D02*
X102262000Y-125591000D01*
X107272000Y-125631000D02*
X102292000Y-125631000D01*
X107272000Y-125671000D02*
X102322000Y-125671000D01*
X107272000Y-125711000D02*
X102354000Y-125711000D01*
X107272000Y-125751000D02*
X102385000Y-125751000D01*
X107272000Y-125791000D02*
X102417000Y-125791000D01*
X107272000Y-125831000D02*
X102449000Y-125831000D01*
X107272000Y-125871000D02*
X102482000Y-125871000D01*
X109477000Y-128791000D02*
X107947000Y-128791000D01*
X109810000Y-128751000D02*
X107614000Y-128751000D01*
X110063000Y-128711000D02*
X107361000Y-128711000D01*
X110276000Y-128671000D02*
X107148000Y-128671000D01*
X110464000Y-128631000D02*
X106960000Y-128631000D01*
X110632000Y-128591000D02*
X106792000Y-128591000D01*
X110786000Y-128551000D02*
X106638000Y-128551000D01*
X110930000Y-128511000D02*
X106494000Y-128511000D01*
X111063000Y-128471000D02*
X106361000Y-128471000D01*
X111190000Y-128431000D02*
X106234000Y-128431000D01*
X111309000Y-128391000D02*
X106115000Y-128391000D01*
X111423000Y-128351000D02*
X106001000Y-128351000D01*
X111532000Y-128311000D02*
X105892000Y-128311000D01*
X111636000Y-128271000D02*
X105788000Y-128271000D01*
X111736000Y-128231000D02*
X105688000Y-128231000D01*
X111832000Y-128191000D02*
X105592000Y-128191000D01*
X111925000Y-128151000D02*
X105499000Y-128151000D01*
X112015000Y-128111000D02*
X105409000Y-128111000D01*
X112102000Y-128071000D02*
X105322000Y-128071000D01*
X112187000Y-128031000D02*
X105237000Y-128031000D01*
X112269000Y-127991000D02*
X105155000Y-127991000D01*
X112349000Y-127951000D02*
X105075000Y-127951000D01*
X112427000Y-127911000D02*
X104997000Y-127911000D01*
X112502000Y-127871000D02*
X104922000Y-127871000D01*
X112576000Y-127831000D02*
X104848000Y-127831000D01*
X112648000Y-127791000D02*
X104776000Y-127791000D01*
X112719000Y-127751000D02*
X104705000Y-127751000D01*
X112788000Y-127711000D02*
X104636000Y-127711000D01*
X112855000Y-127671000D02*
X104569000Y-127671000D01*
X112921000Y-127631000D02*
X104503000Y-127631000D01*
X112985000Y-127591000D02*
X104439000Y-127591000D01*
X113048000Y-127551000D02*
X104376000Y-127551000D01*
X113110000Y-127511000D02*
X104314000Y-127511000D01*
X113171000Y-127471000D02*
X104253000Y-127471000D01*
X113231000Y-127431000D02*
X104193000Y-127431000D01*
X113267000Y-112020509D02*
X113267000Y-113620509D01*
X113289000Y-127391000D02*
X104135000Y-127391000D01*
X113346000Y-127351000D02*
X104078000Y-127351000D01*
X113403000Y-127311000D02*
X104021000Y-127311000D01*
X113458000Y-127271000D02*
X103966000Y-127271000D01*
X113512000Y-127231000D02*
X103912000Y-127231000D01*
X113566000Y-127191000D02*
X103858000Y-127191000D01*
X113618000Y-127151000D02*
X103806000Y-127151000D01*
X113670000Y-127111000D02*
X103754000Y-127111000D01*
X113721000Y-127071000D02*
X103703000Y-127071000D01*
X113771000Y-127031000D02*
X103653000Y-127031000D01*
X113820000Y-126991000D02*
X103604000Y-126991000D01*
X113868000Y-126951000D02*
X103556000Y-126951000D01*
X113916000Y-126911000D02*
X103508000Y-126911000D01*
X113963000Y-126871000D02*
X103461000Y-126871000D01*
X114009000Y-126831000D02*
X103415000Y-126831000D01*
X114055000Y-126791000D02*
X103369000Y-126791000D01*
X114067000Y-112820509D02*
X112467000Y-112820509D01*
X114100000Y-126751000D02*
X103324000Y-126751000D01*
X114144000Y-126711000D02*
X103280000Y-126711000D01*
X114187000Y-126671000D02*
X103237000Y-126671000D01*
X114230000Y-126631000D02*
X103194000Y-126631000D01*
X114272000Y-126591000D02*
X103152000Y-126591000D01*
X114314000Y-126551000D02*
X103110000Y-126551000D01*
X114355000Y-126511000D02*
X103069000Y-126511000D01*
X114396000Y-126471000D02*
X103028000Y-126471000D01*
X114436000Y-126431000D02*
X102988000Y-126431000D01*
X114475000Y-126391000D02*
X102949000Y-126391000D01*
X114514000Y-126351000D02*
X102910000Y-126351000D01*
X114552000Y-126311000D02*
X102872000Y-126311000D01*
X114590000Y-126271000D02*
X102834000Y-126271000D01*
X114628000Y-126231000D02*
X102796000Y-126231000D01*
X114664000Y-126191000D02*
X102760000Y-126191000D01*
X114701000Y-126151000D02*
X102723000Y-126151000D01*
X114737000Y-126111000D02*
X102687000Y-126111000D01*
X114772000Y-126071000D02*
X102652000Y-126071000D01*
X114807000Y-126031000D02*
X102617000Y-126031000D01*
X114841000Y-125991000D02*
X102583000Y-125991000D01*
X114875000Y-125951000D02*
X102549000Y-125951000D01*
X114909000Y-125911000D02*
X102515000Y-125911000D01*
X114942000Y-125871000D02*
X110152000Y-125871000D01*
X114975000Y-125831000D02*
X110152000Y-125831000D01*
X115007000Y-125791000D02*
X110152000Y-125791000D01*
X115039000Y-125751000D02*
X110152000Y-125751000D01*
X115070000Y-125711000D02*
X110152000Y-125711000D01*
X115102000Y-125671000D02*
X110152000Y-125671000D01*
X115132000Y-125631000D02*
X110152000Y-125631000D01*
X115162000Y-125591000D02*
X110152000Y-125591000D01*
X115192000Y-125551000D02*
X110152000Y-125551000D01*
X115222000Y-125511000D02*
X110152000Y-125511000D01*
X115251000Y-125471000D02*
X110152000Y-125471000D01*
X115280000Y-125431000D02*
X110152000Y-125431000D01*
X115308000Y-125391000D02*
X110152000Y-125391000D01*
X115336000Y-125351000D02*
X110152000Y-125351000D01*
X115364000Y-125311000D02*
X110152000Y-125311000D01*
X115391000Y-125271000D02*
X110152000Y-125271000D01*
X115418000Y-125231000D02*
X110152000Y-125231000D01*
X115445000Y-125191000D02*
X110152000Y-125191000D01*
X115471000Y-125151000D02*
X110152000Y-125151000D01*
X115497000Y-125111000D02*
X110152000Y-125111000D01*
X115523000Y-125071000D02*
X110152000Y-125071000D01*
X115548000Y-125031000D02*
X110152000Y-125031000D01*
X115573000Y-124991000D02*
X110152000Y-124991000D01*
X115598000Y-124951000D02*
X110152000Y-124951000D01*
X115622000Y-124911000D02*
X110152000Y-124911000D01*
X115646000Y-124871000D02*
X110152000Y-124871000D01*
X115670000Y-124831000D02*
X110152000Y-124831000D01*
X115693000Y-124791000D02*
X110152000Y-124791000D01*
X115716000Y-124751000D02*
X110152000Y-124751000D01*
X115739000Y-124711000D02*
X110152000Y-124711000D01*
X115761000Y-124671000D02*
X110152000Y-124671000D01*
X115784000Y-124631000D02*
X110152000Y-124631000D01*
X115806000Y-124591000D02*
X110152000Y-124591000D01*
X115827000Y-124551000D02*
X110152000Y-124551000D01*
X115848000Y-124511000D02*
X110152000Y-124511000D01*
X115869000Y-124471000D02*
X110152000Y-124471000D01*
X115890000Y-124431000D02*
X110152000Y-124431000D01*
X115911000Y-124391000D02*
X110152000Y-124391000D01*
X115931000Y-124351000D02*
X110152000Y-124351000D01*
X115951000Y-124311000D02*
X110152000Y-124311000D01*
X115970000Y-124271000D02*
X110152000Y-124271000D01*
X115990000Y-124231000D02*
X110152000Y-124231000D01*
X116009000Y-124191000D02*
X110152000Y-124191000D01*
X116028000Y-124151000D02*
X110152000Y-124151000D01*
X116046000Y-124111000D02*
X110152000Y-124111000D01*
X116065000Y-124071000D02*
X110152000Y-124071000D01*
X116083000Y-124031000D02*
X110152000Y-124031000D01*
X116101000Y-123991000D02*
X110152000Y-123991000D01*
X116118000Y-123951000D02*
X110152000Y-123951000D01*
X116135000Y-123911000D02*
X110152000Y-123911000D01*
X116152000Y-123871000D02*
X110152000Y-123871000D01*
X116169000Y-123831000D02*
X110152000Y-123831000D01*
X116186000Y-123791000D02*
X110152000Y-123791000D01*
X116202000Y-123751000D02*
X110152000Y-123751000D01*
X116218000Y-123711000D02*
X110152000Y-123711000D01*
X116234000Y-123671000D02*
X110152000Y-123671000D01*
X116249000Y-123631000D02*
X110152000Y-123631000D01*
X116265000Y-123591000D02*
X110152000Y-123591000D01*
X116280000Y-123551000D02*
X110152000Y-123551000D01*
X116294000Y-123511000D02*
X110152000Y-123511000D01*
X116309000Y-123471000D02*
X110152000Y-123471000D01*
X116323000Y-123431000D02*
X110152000Y-123431000D01*
X116337000Y-123391000D02*
X110152000Y-123391000D01*
X116351000Y-123351000D02*
X110152000Y-123351000D01*
X116365000Y-123311000D02*
X110152000Y-123311000D01*
X116378000Y-123271000D02*
X110152000Y-123271000D01*
X116392000Y-123231000D02*
X110152000Y-123231000D01*
X116405000Y-123191000D02*
X110152000Y-123191000D01*
X116417000Y-123151000D02*
X110152000Y-123151000D01*
X116430000Y-123111000D02*
X110152000Y-123111000D01*
X116442000Y-123071000D02*
X110152000Y-123071000D01*
X116454000Y-123031000D02*
X110152000Y-123031000D01*
X116466000Y-122991000D02*
X100958000Y-122991000D01*
X116477000Y-122951000D02*
X100947000Y-122951000D01*
X116489000Y-122911000D02*
X100935000Y-122911000D01*
X116500000Y-122871000D02*
X100924000Y-122871000D01*
X116511000Y-122831000D02*
X100913000Y-122831000D01*
X116522000Y-122791000D02*
X100902000Y-122791000D01*
X116532000Y-122751000D02*
X100892000Y-122751000D01*
X116542000Y-122711000D02*
X100882000Y-122711000D01*
X116552000Y-122671000D02*
X100872000Y-122671000D01*
X116562000Y-122631000D02*
X100862000Y-122631000D01*
X116572000Y-122591000D02*
X100852000Y-122591000D01*
X116581000Y-122551000D02*
X100843000Y-122551000D01*
X116590000Y-122511000D02*
X100834000Y-122511000D01*
X116599000Y-122471000D02*
X100825000Y-122471000D01*
X116608000Y-122431000D02*
X100816000Y-122431000D01*
X116617000Y-122391000D02*
X100807000Y-122391000D01*
X116625000Y-122351000D02*
X100799000Y-122351000D01*
X116633000Y-122311000D02*
X100791000Y-122311000D01*
X116641000Y-122271000D02*
X100783000Y-122271000D01*
X116649000Y-122231000D02*
X100775000Y-122231000D01*
X116656000Y-122191000D02*
X100768000Y-122191000D01*
X116664000Y-122151000D02*
X100760000Y-122151000D01*
X116671000Y-122111000D02*
X100753000Y-122111000D01*
X116678000Y-122071000D02*
X100746000Y-122071000D01*
X116684000Y-122031000D02*
X100740000Y-122031000D01*
X116691000Y-121991000D02*
X100733000Y-121991000D01*
X116697000Y-121951000D02*
X100727000Y-121951000D01*
X116703000Y-121911000D02*
X100721000Y-121911000D01*
X116709000Y-121871000D02*
X100715000Y-121871000D01*
X116715000Y-121831000D02*
X100709000Y-121831000D01*
X116720000Y-121791000D02*
X100704000Y-121791000D01*
X116726000Y-121751000D02*
X100698000Y-121751000D01*
X116731000Y-121711000D02*
X100693000Y-121711000D01*
X116736000Y-121671000D02*
X100688000Y-121671000D01*
X116740000Y-121631000D02*
X100684000Y-121631000D01*
X116745000Y-121591000D02*
X100679000Y-121591000D01*
X116749000Y-121551000D02*
X100675000Y-121551000D01*
X116753000Y-121511000D02*
X100671000Y-121511000D01*
X116757000Y-121471000D02*
X100667000Y-121471000D01*
X116761000Y-121431000D02*
X100663000Y-121431000D01*
X116764000Y-121390000D02*
X100660000Y-121390000D01*
X116767000Y-121350000D02*
X100657000Y-121350000D01*
X116770000Y-121310000D02*
X100654000Y-121310000D01*
X116773000Y-121270000D02*
X100651000Y-121270000D01*
X116776000Y-121230000D02*
X100648000Y-121230000D01*
X116778000Y-121190000D02*
X100646000Y-121190000D01*
X116781000Y-121150000D02*
X100643000Y-121150000D01*
X116783000Y-121110000D02*
X100641000Y-121110000D01*
X116785000Y-121070000D02*
X100639000Y-121070000D01*
X116786000Y-121030000D02*
X100638000Y-121030000D01*
X116788000Y-120990000D02*
X100636000Y-120990000D01*
X116789000Y-120950000D02*
X100635000Y-120950000D01*
X116790000Y-120910000D02*
X100634000Y-120910000D01*
X116791000Y-120870000D02*
X100633000Y-120870000D01*
X116792000Y-120750000D02*
X100632000Y-120750000D01*
X116792000Y-120790000D02*
X100632000Y-120790000D01*
X116792000Y-120830000D02*
X100632000Y-120830000D01*
X116793000Y-120710000D02*
X100631000Y-120710000D01*
X116832000Y-120710000D02*
G75*
G02*
X100592000Y-120710000I-8120000J0D01*
G01*
X100592000Y-120710000D02*
G75*
G02*
X116832000Y-120710000I8120000J0D01*
G01*
%TO.C,C1*%
X55964000Y-123285000D02*
X49662000Y-123285000D01*
X55964000Y-123325000D02*
X49674000Y-123325000D01*
X55964000Y-123365000D02*
X49686000Y-123365000D01*
X55964000Y-123405000D02*
X49699000Y-123405000D01*
X55964000Y-123445000D02*
X49711000Y-123445000D01*
X55964000Y-123485000D02*
X49724000Y-123485000D01*
X55964000Y-123525000D02*
X49738000Y-123525000D01*
X55964000Y-123565000D02*
X49751000Y-123565000D01*
X55964000Y-123605000D02*
X49765000Y-123605000D01*
X55964000Y-123645000D02*
X49779000Y-123645000D01*
X55964000Y-123685000D02*
X49793000Y-123685000D01*
X55964000Y-123725000D02*
X49807000Y-123725000D01*
X55964000Y-123765000D02*
X49822000Y-123765000D01*
X55964000Y-123805000D02*
X49836000Y-123805000D01*
X55964000Y-123845000D02*
X49851000Y-123845000D01*
X55964000Y-123885000D02*
X49867000Y-123885000D01*
X55964000Y-123925000D02*
X49882000Y-123925000D01*
X55964000Y-123965000D02*
X49898000Y-123965000D01*
X55964000Y-124005000D02*
X49914000Y-124005000D01*
X55964000Y-124045000D02*
X49930000Y-124045000D01*
X55964000Y-124085000D02*
X49947000Y-124085000D01*
X55964000Y-124125000D02*
X49964000Y-124125000D01*
X55964000Y-124165000D02*
X49981000Y-124165000D01*
X55964000Y-124205000D02*
X49998000Y-124205000D01*
X55964000Y-124245000D02*
X50015000Y-124245000D01*
X55964000Y-124285000D02*
X50033000Y-124285000D01*
X55964000Y-124325000D02*
X50051000Y-124325000D01*
X55964000Y-124365000D02*
X50070000Y-124365000D01*
X55964000Y-124405000D02*
X50088000Y-124405000D01*
X55964000Y-124445000D02*
X50107000Y-124445000D01*
X55964000Y-124485000D02*
X50126000Y-124485000D01*
X55964000Y-124525000D02*
X50146000Y-124525000D01*
X55964000Y-124565000D02*
X50165000Y-124565000D01*
X55964000Y-124605000D02*
X50185000Y-124605000D01*
X55964000Y-124645000D02*
X50205000Y-124645000D01*
X55964000Y-124685000D02*
X50226000Y-124685000D01*
X55964000Y-124725000D02*
X50247000Y-124725000D01*
X55964000Y-124765000D02*
X50268000Y-124765000D01*
X55964000Y-124805000D02*
X50289000Y-124805000D01*
X55964000Y-124845000D02*
X50310000Y-124845000D01*
X55964000Y-124885000D02*
X50332000Y-124885000D01*
X55964000Y-124925000D02*
X50355000Y-124925000D01*
X55964000Y-124965000D02*
X50377000Y-124965000D01*
X55964000Y-125005000D02*
X50400000Y-125005000D01*
X55964000Y-125045000D02*
X50423000Y-125045000D01*
X55964000Y-125085000D02*
X50446000Y-125085000D01*
X55964000Y-125125000D02*
X50470000Y-125125000D01*
X55964000Y-125165000D02*
X50494000Y-125165000D01*
X55964000Y-125205000D02*
X50518000Y-125205000D01*
X55964000Y-125245000D02*
X50543000Y-125245000D01*
X55964000Y-125285000D02*
X50568000Y-125285000D01*
X55964000Y-125325000D02*
X50593000Y-125325000D01*
X55964000Y-125365000D02*
X50619000Y-125365000D01*
X55964000Y-125405000D02*
X50645000Y-125405000D01*
X55964000Y-125445000D02*
X50671000Y-125445000D01*
X55964000Y-125485000D02*
X50698000Y-125485000D01*
X55964000Y-125525000D02*
X50725000Y-125525000D01*
X55964000Y-125565000D02*
X50752000Y-125565000D01*
X55964000Y-125605000D02*
X50780000Y-125605000D01*
X55964000Y-125645000D02*
X50808000Y-125645000D01*
X55964000Y-125685000D02*
X50836000Y-125685000D01*
X55964000Y-125725000D02*
X50865000Y-125725000D01*
X55964000Y-125765000D02*
X50894000Y-125765000D01*
X55964000Y-125805000D02*
X50924000Y-125805000D01*
X55964000Y-125845000D02*
X50954000Y-125845000D01*
X55964000Y-125885000D02*
X50984000Y-125885000D01*
X55964000Y-125925000D02*
X51014000Y-125925000D01*
X55964000Y-125965000D02*
X51046000Y-125965000D01*
X55964000Y-126005000D02*
X51077000Y-126005000D01*
X55964000Y-126045000D02*
X51109000Y-126045000D01*
X55964000Y-126085000D02*
X51141000Y-126085000D01*
X55964000Y-126125000D02*
X51174000Y-126125000D01*
X58169000Y-129045000D02*
X56639000Y-129045000D01*
X58502000Y-129005000D02*
X56306000Y-129005000D01*
X58755000Y-128965000D02*
X56053000Y-128965000D01*
X58968000Y-128925000D02*
X55840000Y-128925000D01*
X59156000Y-128885000D02*
X55652000Y-128885000D01*
X59324000Y-128845000D02*
X55484000Y-128845000D01*
X59478000Y-128805000D02*
X55330000Y-128805000D01*
X59622000Y-128765000D02*
X55186000Y-128765000D01*
X59755000Y-128725000D02*
X55053000Y-128725000D01*
X59882000Y-128685000D02*
X54926000Y-128685000D01*
X60001000Y-128645000D02*
X54807000Y-128645000D01*
X60115000Y-128605000D02*
X54693000Y-128605000D01*
X60224000Y-128565000D02*
X54584000Y-128565000D01*
X60328000Y-128525000D02*
X54480000Y-128525000D01*
X60428000Y-128485000D02*
X54380000Y-128485000D01*
X60524000Y-128445000D02*
X54284000Y-128445000D01*
X60617000Y-128405000D02*
X54191000Y-128405000D01*
X60707000Y-128365000D02*
X54101000Y-128365000D01*
X60794000Y-128325000D02*
X54014000Y-128325000D01*
X60879000Y-128285000D02*
X53929000Y-128285000D01*
X60961000Y-128245000D02*
X53847000Y-128245000D01*
X61041000Y-128205000D02*
X53767000Y-128205000D01*
X61119000Y-128165000D02*
X53689000Y-128165000D01*
X61194000Y-128125000D02*
X53614000Y-128125000D01*
X61268000Y-128085000D02*
X53540000Y-128085000D01*
X61340000Y-128045000D02*
X53468000Y-128045000D01*
X61411000Y-128005000D02*
X53397000Y-128005000D01*
X61480000Y-127965000D02*
X53328000Y-127965000D01*
X61547000Y-127925000D02*
X53261000Y-127925000D01*
X61613000Y-127885000D02*
X53195000Y-127885000D01*
X61677000Y-127845000D02*
X53131000Y-127845000D01*
X61740000Y-127805000D02*
X53068000Y-127805000D01*
X61802000Y-127765000D02*
X53006000Y-127765000D01*
X61863000Y-127725000D02*
X52945000Y-127725000D01*
X61923000Y-127685000D02*
X52885000Y-127685000D01*
X61959000Y-112274509D02*
X61959000Y-113874509D01*
X61981000Y-127645000D02*
X52827000Y-127645000D01*
X62038000Y-127605000D02*
X52770000Y-127605000D01*
X62095000Y-127565000D02*
X52713000Y-127565000D01*
X62150000Y-127525000D02*
X52658000Y-127525000D01*
X62204000Y-127485000D02*
X52604000Y-127485000D01*
X62258000Y-127445000D02*
X52550000Y-127445000D01*
X62310000Y-127405000D02*
X52498000Y-127405000D01*
X62362000Y-127365000D02*
X52446000Y-127365000D01*
X62413000Y-127325000D02*
X52395000Y-127325000D01*
X62463000Y-127285000D02*
X52345000Y-127285000D01*
X62512000Y-127245000D02*
X52296000Y-127245000D01*
X62560000Y-127205000D02*
X52248000Y-127205000D01*
X62608000Y-127165000D02*
X52200000Y-127165000D01*
X62655000Y-127125000D02*
X52153000Y-127125000D01*
X62701000Y-127085000D02*
X52107000Y-127085000D01*
X62747000Y-127045000D02*
X52061000Y-127045000D01*
X62759000Y-113074509D02*
X61159000Y-113074509D01*
X62792000Y-127005000D02*
X52016000Y-127005000D01*
X62836000Y-126965000D02*
X51972000Y-126965000D01*
X62879000Y-126925000D02*
X51929000Y-126925000D01*
X62922000Y-126885000D02*
X51886000Y-126885000D01*
X62964000Y-126845000D02*
X51844000Y-126845000D01*
X63006000Y-126805000D02*
X51802000Y-126805000D01*
X63047000Y-126765000D02*
X51761000Y-126765000D01*
X63088000Y-126725000D02*
X51720000Y-126725000D01*
X63128000Y-126685000D02*
X51680000Y-126685000D01*
X63167000Y-126645000D02*
X51641000Y-126645000D01*
X63206000Y-126605000D02*
X51602000Y-126605000D01*
X63244000Y-126565000D02*
X51564000Y-126565000D01*
X63282000Y-126525000D02*
X51526000Y-126525000D01*
X63320000Y-126485000D02*
X51488000Y-126485000D01*
X63356000Y-126445000D02*
X51452000Y-126445000D01*
X63393000Y-126405000D02*
X51415000Y-126405000D01*
X63429000Y-126365000D02*
X51379000Y-126365000D01*
X63464000Y-126325000D02*
X51344000Y-126325000D01*
X63499000Y-126285000D02*
X51309000Y-126285000D01*
X63533000Y-126245000D02*
X51275000Y-126245000D01*
X63567000Y-126205000D02*
X51241000Y-126205000D01*
X63601000Y-126165000D02*
X51207000Y-126165000D01*
X63634000Y-126125000D02*
X58844000Y-126125000D01*
X63667000Y-126085000D02*
X58844000Y-126085000D01*
X63699000Y-126045000D02*
X58844000Y-126045000D01*
X63731000Y-126005000D02*
X58844000Y-126005000D01*
X63762000Y-125965000D02*
X58844000Y-125965000D01*
X63794000Y-125925000D02*
X58844000Y-125925000D01*
X63824000Y-125885000D02*
X58844000Y-125885000D01*
X63854000Y-125845000D02*
X58844000Y-125845000D01*
X63884000Y-125805000D02*
X58844000Y-125805000D01*
X63914000Y-125765000D02*
X58844000Y-125765000D01*
X63943000Y-125725000D02*
X58844000Y-125725000D01*
X63972000Y-125685000D02*
X58844000Y-125685000D01*
X64000000Y-125645000D02*
X58844000Y-125645000D01*
X64028000Y-125605000D02*
X58844000Y-125605000D01*
X64056000Y-125565000D02*
X58844000Y-125565000D01*
X64083000Y-125525000D02*
X58844000Y-125525000D01*
X64110000Y-125485000D02*
X58844000Y-125485000D01*
X64137000Y-125445000D02*
X58844000Y-125445000D01*
X64163000Y-125405000D02*
X58844000Y-125405000D01*
X64189000Y-125365000D02*
X58844000Y-125365000D01*
X64215000Y-125325000D02*
X58844000Y-125325000D01*
X64240000Y-125285000D02*
X58844000Y-125285000D01*
X64265000Y-125245000D02*
X58844000Y-125245000D01*
X64290000Y-125205000D02*
X58844000Y-125205000D01*
X64314000Y-125165000D02*
X58844000Y-125165000D01*
X64338000Y-125125000D02*
X58844000Y-125125000D01*
X64362000Y-125085000D02*
X58844000Y-125085000D01*
X64385000Y-125045000D02*
X58844000Y-125045000D01*
X64408000Y-125005000D02*
X58844000Y-125005000D01*
X64431000Y-124965000D02*
X58844000Y-124965000D01*
X64453000Y-124925000D02*
X58844000Y-124925000D01*
X64476000Y-124885000D02*
X58844000Y-124885000D01*
X64498000Y-124845000D02*
X58844000Y-124845000D01*
X64519000Y-124805000D02*
X58844000Y-124805000D01*
X64540000Y-124765000D02*
X58844000Y-124765000D01*
X64561000Y-124725000D02*
X58844000Y-124725000D01*
X64582000Y-124685000D02*
X58844000Y-124685000D01*
X64603000Y-124645000D02*
X58844000Y-124645000D01*
X64623000Y-124605000D02*
X58844000Y-124605000D01*
X64643000Y-124565000D02*
X58844000Y-124565000D01*
X64662000Y-124525000D02*
X58844000Y-124525000D01*
X64682000Y-124485000D02*
X58844000Y-124485000D01*
X64701000Y-124445000D02*
X58844000Y-124445000D01*
X64720000Y-124405000D02*
X58844000Y-124405000D01*
X64738000Y-124365000D02*
X58844000Y-124365000D01*
X64757000Y-124325000D02*
X58844000Y-124325000D01*
X64775000Y-124285000D02*
X58844000Y-124285000D01*
X64793000Y-124245000D02*
X58844000Y-124245000D01*
X64810000Y-124205000D02*
X58844000Y-124205000D01*
X64827000Y-124165000D02*
X58844000Y-124165000D01*
X64844000Y-124125000D02*
X58844000Y-124125000D01*
X64861000Y-124085000D02*
X58844000Y-124085000D01*
X64878000Y-124045000D02*
X58844000Y-124045000D01*
X64894000Y-124005000D02*
X58844000Y-124005000D01*
X64910000Y-123965000D02*
X58844000Y-123965000D01*
X64926000Y-123925000D02*
X58844000Y-123925000D01*
X64941000Y-123885000D02*
X58844000Y-123885000D01*
X64957000Y-123845000D02*
X58844000Y-123845000D01*
X64972000Y-123805000D02*
X58844000Y-123805000D01*
X64986000Y-123765000D02*
X58844000Y-123765000D01*
X65001000Y-123725000D02*
X58844000Y-123725000D01*
X65015000Y-123685000D02*
X58844000Y-123685000D01*
X65029000Y-123645000D02*
X58844000Y-123645000D01*
X65043000Y-123605000D02*
X58844000Y-123605000D01*
X65057000Y-123565000D02*
X58844000Y-123565000D01*
X65070000Y-123525000D02*
X58844000Y-123525000D01*
X65084000Y-123485000D02*
X58844000Y-123485000D01*
X65097000Y-123445000D02*
X58844000Y-123445000D01*
X65109000Y-123405000D02*
X58844000Y-123405000D01*
X65122000Y-123365000D02*
X58844000Y-123365000D01*
X65134000Y-123325000D02*
X58844000Y-123325000D01*
X65146000Y-123285000D02*
X58844000Y-123285000D01*
X65158000Y-123245000D02*
X49650000Y-123245000D01*
X65169000Y-123205000D02*
X49639000Y-123205000D01*
X65181000Y-123165000D02*
X49627000Y-123165000D01*
X65192000Y-123125000D02*
X49616000Y-123125000D01*
X65203000Y-123085000D02*
X49605000Y-123085000D01*
X65214000Y-123045000D02*
X49594000Y-123045000D01*
X65224000Y-123005000D02*
X49584000Y-123005000D01*
X65234000Y-122965000D02*
X49574000Y-122965000D01*
X65244000Y-122925000D02*
X49564000Y-122925000D01*
X65254000Y-122885000D02*
X49554000Y-122885000D01*
X65264000Y-122845000D02*
X49544000Y-122845000D01*
X65273000Y-122805000D02*
X49535000Y-122805000D01*
X65282000Y-122765000D02*
X49526000Y-122765000D01*
X65291000Y-122725000D02*
X49517000Y-122725000D01*
X65300000Y-122685000D02*
X49508000Y-122685000D01*
X65309000Y-122645000D02*
X49499000Y-122645000D01*
X65317000Y-122605000D02*
X49491000Y-122605000D01*
X65325000Y-122565000D02*
X49483000Y-122565000D01*
X65333000Y-122525000D02*
X49475000Y-122525000D01*
X65341000Y-122485000D02*
X49467000Y-122485000D01*
X65348000Y-122445000D02*
X49460000Y-122445000D01*
X65356000Y-122405000D02*
X49452000Y-122405000D01*
X65363000Y-122365000D02*
X49445000Y-122365000D01*
X65370000Y-122325000D02*
X49438000Y-122325000D01*
X65376000Y-122285000D02*
X49432000Y-122285000D01*
X65383000Y-122245000D02*
X49425000Y-122245000D01*
X65389000Y-122205000D02*
X49419000Y-122205000D01*
X65395000Y-122165000D02*
X49413000Y-122165000D01*
X65401000Y-122125000D02*
X49407000Y-122125000D01*
X65407000Y-122085000D02*
X49401000Y-122085000D01*
X65412000Y-122045000D02*
X49396000Y-122045000D01*
X65418000Y-122005000D02*
X49390000Y-122005000D01*
X65423000Y-121965000D02*
X49385000Y-121965000D01*
X65428000Y-121925000D02*
X49380000Y-121925000D01*
X65432000Y-121885000D02*
X49376000Y-121885000D01*
X65437000Y-121845000D02*
X49371000Y-121845000D01*
X65441000Y-121805000D02*
X49367000Y-121805000D01*
X65445000Y-121765000D02*
X49363000Y-121765000D01*
X65449000Y-121725000D02*
X49359000Y-121725000D01*
X65453000Y-121685000D02*
X49355000Y-121685000D01*
X65456000Y-121644000D02*
X49352000Y-121644000D01*
X65459000Y-121604000D02*
X49349000Y-121604000D01*
X65462000Y-121564000D02*
X49346000Y-121564000D01*
X65465000Y-121524000D02*
X49343000Y-121524000D01*
X65468000Y-121484000D02*
X49340000Y-121484000D01*
X65470000Y-121444000D02*
X49338000Y-121444000D01*
X65473000Y-121404000D02*
X49335000Y-121404000D01*
X65475000Y-121364000D02*
X49333000Y-121364000D01*
X65477000Y-121324000D02*
X49331000Y-121324000D01*
X65478000Y-121284000D02*
X49330000Y-121284000D01*
X65480000Y-121244000D02*
X49328000Y-121244000D01*
X65481000Y-121204000D02*
X49327000Y-121204000D01*
X65482000Y-121164000D02*
X49326000Y-121164000D01*
X65483000Y-121124000D02*
X49325000Y-121124000D01*
X65484000Y-121004000D02*
X49324000Y-121004000D01*
X65484000Y-121044000D02*
X49324000Y-121044000D01*
X65484000Y-121084000D02*
X49324000Y-121084000D01*
X65485000Y-120964000D02*
X49323000Y-120964000D01*
X65524000Y-120964000D02*
G75*
G02*
X49284000Y-120964000I-8120000J0D01*
G01*
X49284000Y-120964000D02*
G75*
G02*
X65524000Y-120964000I8120000J0D01*
G01*
D14*
%TO.C,F1*%
X49148000Y-89224000D02*
X49148000Y-97624000D01*
X49148000Y-97624000D02*
X50448000Y-97624000D01*
X50448000Y-89224000D02*
X49148000Y-89224000D01*
D10*
X53848000Y-87824000D02*
X53848000Y-87824000D01*
X53848000Y-87924000D02*
X53848000Y-87924000D01*
D14*
X57248000Y-89224000D02*
X58548000Y-89224000D01*
X58548000Y-89224000D02*
X58548000Y-97624000D01*
X58548000Y-97624000D02*
X57248000Y-97624000D01*
D10*
X53848000Y-87824000D02*
G75*
G02*
X53848000Y-87924000I0J-50000D01*
G01*
X53848000Y-87924000D02*
G75*
G02*
X53848000Y-87824000I0J50000D01*
G01*
D13*
%TO.C,C3*%
X72982000Y-123285000D02*
X66680000Y-123285000D01*
X72982000Y-123325000D02*
X66692000Y-123325000D01*
X72982000Y-123365000D02*
X66704000Y-123365000D01*
X72982000Y-123405000D02*
X66717000Y-123405000D01*
X72982000Y-123445000D02*
X66729000Y-123445000D01*
X72982000Y-123485000D02*
X66742000Y-123485000D01*
X72982000Y-123525000D02*
X66756000Y-123525000D01*
X72982000Y-123565000D02*
X66769000Y-123565000D01*
X72982000Y-123605000D02*
X66783000Y-123605000D01*
X72982000Y-123645000D02*
X66797000Y-123645000D01*
X72982000Y-123685000D02*
X66811000Y-123685000D01*
X72982000Y-123725000D02*
X66825000Y-123725000D01*
X72982000Y-123765000D02*
X66840000Y-123765000D01*
X72982000Y-123805000D02*
X66854000Y-123805000D01*
X72982000Y-123845000D02*
X66869000Y-123845000D01*
X72982000Y-123885000D02*
X66885000Y-123885000D01*
X72982000Y-123925000D02*
X66900000Y-123925000D01*
X72982000Y-123965000D02*
X66916000Y-123965000D01*
X72982000Y-124005000D02*
X66932000Y-124005000D01*
X72982000Y-124045000D02*
X66948000Y-124045000D01*
X72982000Y-124085000D02*
X66965000Y-124085000D01*
X72982000Y-124125000D02*
X66982000Y-124125000D01*
X72982000Y-124165000D02*
X66999000Y-124165000D01*
X72982000Y-124205000D02*
X67016000Y-124205000D01*
X72982000Y-124245000D02*
X67033000Y-124245000D01*
X72982000Y-124285000D02*
X67051000Y-124285000D01*
X72982000Y-124325000D02*
X67069000Y-124325000D01*
X72982000Y-124365000D02*
X67088000Y-124365000D01*
X72982000Y-124405000D02*
X67106000Y-124405000D01*
X72982000Y-124445000D02*
X67125000Y-124445000D01*
X72982000Y-124485000D02*
X67144000Y-124485000D01*
X72982000Y-124525000D02*
X67164000Y-124525000D01*
X72982000Y-124565000D02*
X67183000Y-124565000D01*
X72982000Y-124605000D02*
X67203000Y-124605000D01*
X72982000Y-124645000D02*
X67223000Y-124645000D01*
X72982000Y-124685000D02*
X67244000Y-124685000D01*
X72982000Y-124725000D02*
X67265000Y-124725000D01*
X72982000Y-124765000D02*
X67286000Y-124765000D01*
X72982000Y-124805000D02*
X67307000Y-124805000D01*
X72982000Y-124845000D02*
X67328000Y-124845000D01*
X72982000Y-124885000D02*
X67350000Y-124885000D01*
X72982000Y-124925000D02*
X67373000Y-124925000D01*
X72982000Y-124965000D02*
X67395000Y-124965000D01*
X72982000Y-125005000D02*
X67418000Y-125005000D01*
X72982000Y-125045000D02*
X67441000Y-125045000D01*
X72982000Y-125085000D02*
X67464000Y-125085000D01*
X72982000Y-125125000D02*
X67488000Y-125125000D01*
X72982000Y-125165000D02*
X67512000Y-125165000D01*
X72982000Y-125205000D02*
X67536000Y-125205000D01*
X72982000Y-125245000D02*
X67561000Y-125245000D01*
X72982000Y-125285000D02*
X67586000Y-125285000D01*
X72982000Y-125325000D02*
X67611000Y-125325000D01*
X72982000Y-125365000D02*
X67637000Y-125365000D01*
X72982000Y-125405000D02*
X67663000Y-125405000D01*
X72982000Y-125445000D02*
X67689000Y-125445000D01*
X72982000Y-125485000D02*
X67716000Y-125485000D01*
X72982000Y-125525000D02*
X67743000Y-125525000D01*
X72982000Y-125565000D02*
X67770000Y-125565000D01*
X72982000Y-125605000D02*
X67798000Y-125605000D01*
X72982000Y-125645000D02*
X67826000Y-125645000D01*
X72982000Y-125685000D02*
X67854000Y-125685000D01*
X72982000Y-125725000D02*
X67883000Y-125725000D01*
X72982000Y-125765000D02*
X67912000Y-125765000D01*
X72982000Y-125805000D02*
X67942000Y-125805000D01*
X72982000Y-125845000D02*
X67972000Y-125845000D01*
X72982000Y-125885000D02*
X68002000Y-125885000D01*
X72982000Y-125925000D02*
X68032000Y-125925000D01*
X72982000Y-125965000D02*
X68064000Y-125965000D01*
X72982000Y-126005000D02*
X68095000Y-126005000D01*
X72982000Y-126045000D02*
X68127000Y-126045000D01*
X72982000Y-126085000D02*
X68159000Y-126085000D01*
X72982000Y-126125000D02*
X68192000Y-126125000D01*
X75187000Y-129045000D02*
X73657000Y-129045000D01*
X75520000Y-129005000D02*
X73324000Y-129005000D01*
X75773000Y-128965000D02*
X73071000Y-128965000D01*
X75986000Y-128925000D02*
X72858000Y-128925000D01*
X76174000Y-128885000D02*
X72670000Y-128885000D01*
X76342000Y-128845000D02*
X72502000Y-128845000D01*
X76496000Y-128805000D02*
X72348000Y-128805000D01*
X76640000Y-128765000D02*
X72204000Y-128765000D01*
X76773000Y-128725000D02*
X72071000Y-128725000D01*
X76900000Y-128685000D02*
X71944000Y-128685000D01*
X77019000Y-128645000D02*
X71825000Y-128645000D01*
X77133000Y-128605000D02*
X71711000Y-128605000D01*
X77242000Y-128565000D02*
X71602000Y-128565000D01*
X77346000Y-128525000D02*
X71498000Y-128525000D01*
X77446000Y-128485000D02*
X71398000Y-128485000D01*
X77542000Y-128445000D02*
X71302000Y-128445000D01*
X77635000Y-128405000D02*
X71209000Y-128405000D01*
X77725000Y-128365000D02*
X71119000Y-128365000D01*
X77812000Y-128325000D02*
X71032000Y-128325000D01*
X77897000Y-128285000D02*
X70947000Y-128285000D01*
X77979000Y-128245000D02*
X70865000Y-128245000D01*
X78059000Y-128205000D02*
X70785000Y-128205000D01*
X78137000Y-128165000D02*
X70707000Y-128165000D01*
X78212000Y-128125000D02*
X70632000Y-128125000D01*
X78286000Y-128085000D02*
X70558000Y-128085000D01*
X78358000Y-128045000D02*
X70486000Y-128045000D01*
X78429000Y-128005000D02*
X70415000Y-128005000D01*
X78498000Y-127965000D02*
X70346000Y-127965000D01*
X78565000Y-127925000D02*
X70279000Y-127925000D01*
X78631000Y-127885000D02*
X70213000Y-127885000D01*
X78695000Y-127845000D02*
X70149000Y-127845000D01*
X78758000Y-127805000D02*
X70086000Y-127805000D01*
X78820000Y-127765000D02*
X70024000Y-127765000D01*
X78881000Y-127725000D02*
X69963000Y-127725000D01*
X78941000Y-127685000D02*
X69903000Y-127685000D01*
X78977000Y-112274509D02*
X78977000Y-113874509D01*
X78999000Y-127645000D02*
X69845000Y-127645000D01*
X79056000Y-127605000D02*
X69788000Y-127605000D01*
X79113000Y-127565000D02*
X69731000Y-127565000D01*
X79168000Y-127525000D02*
X69676000Y-127525000D01*
X79222000Y-127485000D02*
X69622000Y-127485000D01*
X79276000Y-127445000D02*
X69568000Y-127445000D01*
X79328000Y-127405000D02*
X69516000Y-127405000D01*
X79380000Y-127365000D02*
X69464000Y-127365000D01*
X79431000Y-127325000D02*
X69413000Y-127325000D01*
X79481000Y-127285000D02*
X69363000Y-127285000D01*
X79530000Y-127245000D02*
X69314000Y-127245000D01*
X79578000Y-127205000D02*
X69266000Y-127205000D01*
X79626000Y-127165000D02*
X69218000Y-127165000D01*
X79673000Y-127125000D02*
X69171000Y-127125000D01*
X79719000Y-127085000D02*
X69125000Y-127085000D01*
X79765000Y-127045000D02*
X69079000Y-127045000D01*
X79777000Y-113074509D02*
X78177000Y-113074509D01*
X79810000Y-127005000D02*
X69034000Y-127005000D01*
X79854000Y-126965000D02*
X68990000Y-126965000D01*
X79897000Y-126925000D02*
X68947000Y-126925000D01*
X79940000Y-126885000D02*
X68904000Y-126885000D01*
X79982000Y-126845000D02*
X68862000Y-126845000D01*
X80024000Y-126805000D02*
X68820000Y-126805000D01*
X80065000Y-126765000D02*
X68779000Y-126765000D01*
X80106000Y-126725000D02*
X68738000Y-126725000D01*
X80146000Y-126685000D02*
X68698000Y-126685000D01*
X80185000Y-126645000D02*
X68659000Y-126645000D01*
X80224000Y-126605000D02*
X68620000Y-126605000D01*
X80262000Y-126565000D02*
X68582000Y-126565000D01*
X80300000Y-126525000D02*
X68544000Y-126525000D01*
X80338000Y-126485000D02*
X68506000Y-126485000D01*
X80374000Y-126445000D02*
X68470000Y-126445000D01*
X80411000Y-126405000D02*
X68433000Y-126405000D01*
X80447000Y-126365000D02*
X68397000Y-126365000D01*
X80482000Y-126325000D02*
X68362000Y-126325000D01*
X80517000Y-126285000D02*
X68327000Y-126285000D01*
X80551000Y-126245000D02*
X68293000Y-126245000D01*
X80585000Y-126205000D02*
X68259000Y-126205000D01*
X80619000Y-126165000D02*
X68225000Y-126165000D01*
X80652000Y-126125000D02*
X75862000Y-126125000D01*
X80685000Y-126085000D02*
X75862000Y-126085000D01*
X80717000Y-126045000D02*
X75862000Y-126045000D01*
X80749000Y-126005000D02*
X75862000Y-126005000D01*
X80780000Y-125965000D02*
X75862000Y-125965000D01*
X80812000Y-125925000D02*
X75862000Y-125925000D01*
X80842000Y-125885000D02*
X75862000Y-125885000D01*
X80872000Y-125845000D02*
X75862000Y-125845000D01*
X80902000Y-125805000D02*
X75862000Y-125805000D01*
X80932000Y-125765000D02*
X75862000Y-125765000D01*
X80961000Y-125725000D02*
X75862000Y-125725000D01*
X80990000Y-125685000D02*
X75862000Y-125685000D01*
X81018000Y-125645000D02*
X75862000Y-125645000D01*
X81046000Y-125605000D02*
X75862000Y-125605000D01*
X81074000Y-125565000D02*
X75862000Y-125565000D01*
X81101000Y-125525000D02*
X75862000Y-125525000D01*
X81128000Y-125485000D02*
X75862000Y-125485000D01*
X81155000Y-125445000D02*
X75862000Y-125445000D01*
X81181000Y-125405000D02*
X75862000Y-125405000D01*
X81207000Y-125365000D02*
X75862000Y-125365000D01*
X81233000Y-125325000D02*
X75862000Y-125325000D01*
X81258000Y-125285000D02*
X75862000Y-125285000D01*
X81283000Y-125245000D02*
X75862000Y-125245000D01*
X81308000Y-125205000D02*
X75862000Y-125205000D01*
X81332000Y-125165000D02*
X75862000Y-125165000D01*
X81356000Y-125125000D02*
X75862000Y-125125000D01*
X81380000Y-125085000D02*
X75862000Y-125085000D01*
X81403000Y-125045000D02*
X75862000Y-125045000D01*
X81426000Y-125005000D02*
X75862000Y-125005000D01*
X81449000Y-124965000D02*
X75862000Y-124965000D01*
X81471000Y-124925000D02*
X75862000Y-124925000D01*
X81494000Y-124885000D02*
X75862000Y-124885000D01*
X81516000Y-124845000D02*
X75862000Y-124845000D01*
X81537000Y-124805000D02*
X75862000Y-124805000D01*
X81558000Y-124765000D02*
X75862000Y-124765000D01*
X81579000Y-124725000D02*
X75862000Y-124725000D01*
X81600000Y-124685000D02*
X75862000Y-124685000D01*
X81621000Y-124645000D02*
X75862000Y-124645000D01*
X81641000Y-124605000D02*
X75862000Y-124605000D01*
X81661000Y-124565000D02*
X75862000Y-124565000D01*
X81680000Y-124525000D02*
X75862000Y-124525000D01*
X81700000Y-124485000D02*
X75862000Y-124485000D01*
X81719000Y-124445000D02*
X75862000Y-124445000D01*
X81738000Y-124405000D02*
X75862000Y-124405000D01*
X81756000Y-124365000D02*
X75862000Y-124365000D01*
X81775000Y-124325000D02*
X75862000Y-124325000D01*
X81793000Y-124285000D02*
X75862000Y-124285000D01*
X81811000Y-124245000D02*
X75862000Y-124245000D01*
X81828000Y-124205000D02*
X75862000Y-124205000D01*
X81845000Y-124165000D02*
X75862000Y-124165000D01*
X81862000Y-124125000D02*
X75862000Y-124125000D01*
X81879000Y-124085000D02*
X75862000Y-124085000D01*
X81896000Y-124045000D02*
X75862000Y-124045000D01*
X81912000Y-124005000D02*
X75862000Y-124005000D01*
X81928000Y-123965000D02*
X75862000Y-123965000D01*
X81944000Y-123925000D02*
X75862000Y-123925000D01*
X81959000Y-123885000D02*
X75862000Y-123885000D01*
X81975000Y-123845000D02*
X75862000Y-123845000D01*
X81990000Y-123805000D02*
X75862000Y-123805000D01*
X82004000Y-123765000D02*
X75862000Y-123765000D01*
X82019000Y-123725000D02*
X75862000Y-123725000D01*
X82033000Y-123685000D02*
X75862000Y-123685000D01*
X82047000Y-123645000D02*
X75862000Y-123645000D01*
X82061000Y-123605000D02*
X75862000Y-123605000D01*
X82075000Y-123565000D02*
X75862000Y-123565000D01*
X82088000Y-123525000D02*
X75862000Y-123525000D01*
X82102000Y-123485000D02*
X75862000Y-123485000D01*
X82115000Y-123445000D02*
X75862000Y-123445000D01*
X82127000Y-123405000D02*
X75862000Y-123405000D01*
X82140000Y-123365000D02*
X75862000Y-123365000D01*
X82152000Y-123325000D02*
X75862000Y-123325000D01*
X82164000Y-123285000D02*
X75862000Y-123285000D01*
X82176000Y-123245000D02*
X66668000Y-123245000D01*
X82187000Y-123205000D02*
X66657000Y-123205000D01*
X82199000Y-123165000D02*
X66645000Y-123165000D01*
X82210000Y-123125000D02*
X66634000Y-123125000D01*
X82221000Y-123085000D02*
X66623000Y-123085000D01*
X82232000Y-123045000D02*
X66612000Y-123045000D01*
X82242000Y-123005000D02*
X66602000Y-123005000D01*
X82252000Y-122965000D02*
X66592000Y-122965000D01*
X82262000Y-122925000D02*
X66582000Y-122925000D01*
X82272000Y-122885000D02*
X66572000Y-122885000D01*
X82282000Y-122845000D02*
X66562000Y-122845000D01*
X82291000Y-122805000D02*
X66553000Y-122805000D01*
X82300000Y-122765000D02*
X66544000Y-122765000D01*
X82309000Y-122725000D02*
X66535000Y-122725000D01*
X82318000Y-122685000D02*
X66526000Y-122685000D01*
X82327000Y-122645000D02*
X66517000Y-122645000D01*
X82335000Y-122605000D02*
X66509000Y-122605000D01*
X82343000Y-122565000D02*
X66501000Y-122565000D01*
X82351000Y-122525000D02*
X66493000Y-122525000D01*
X82359000Y-122485000D02*
X66485000Y-122485000D01*
X82366000Y-122445000D02*
X66478000Y-122445000D01*
X82374000Y-122405000D02*
X66470000Y-122405000D01*
X82381000Y-122365000D02*
X66463000Y-122365000D01*
X82388000Y-122325000D02*
X66456000Y-122325000D01*
X82394000Y-122285000D02*
X66450000Y-122285000D01*
X82401000Y-122245000D02*
X66443000Y-122245000D01*
X82407000Y-122205000D02*
X66437000Y-122205000D01*
X82413000Y-122165000D02*
X66431000Y-122165000D01*
X82419000Y-122125000D02*
X66425000Y-122125000D01*
X82425000Y-122085000D02*
X66419000Y-122085000D01*
X82430000Y-122045000D02*
X66414000Y-122045000D01*
X82436000Y-122005000D02*
X66408000Y-122005000D01*
X82441000Y-121965000D02*
X66403000Y-121965000D01*
X82446000Y-121925000D02*
X66398000Y-121925000D01*
X82450000Y-121885000D02*
X66394000Y-121885000D01*
X82455000Y-121845000D02*
X66389000Y-121845000D01*
X82459000Y-121805000D02*
X66385000Y-121805000D01*
X82463000Y-121765000D02*
X66381000Y-121765000D01*
X82467000Y-121725000D02*
X66377000Y-121725000D01*
X82471000Y-121685000D02*
X66373000Y-121685000D01*
X82474000Y-121644000D02*
X66370000Y-121644000D01*
X82477000Y-121604000D02*
X66367000Y-121604000D01*
X82480000Y-121564000D02*
X66364000Y-121564000D01*
X82483000Y-121524000D02*
X66361000Y-121524000D01*
X82486000Y-121484000D02*
X66358000Y-121484000D01*
X82488000Y-121444000D02*
X66356000Y-121444000D01*
X82491000Y-121404000D02*
X66353000Y-121404000D01*
X82493000Y-121364000D02*
X66351000Y-121364000D01*
X82495000Y-121324000D02*
X66349000Y-121324000D01*
X82496000Y-121284000D02*
X66348000Y-121284000D01*
X82498000Y-121244000D02*
X66346000Y-121244000D01*
X82499000Y-121204000D02*
X66345000Y-121204000D01*
X82500000Y-121164000D02*
X66344000Y-121164000D01*
X82501000Y-121124000D02*
X66343000Y-121124000D01*
X82502000Y-121004000D02*
X66342000Y-121004000D01*
X82502000Y-121044000D02*
X66342000Y-121044000D01*
X82502000Y-121084000D02*
X66342000Y-121084000D01*
X82503000Y-120964000D02*
X66341000Y-120964000D01*
X82542000Y-120964000D02*
G75*
G02*
X66302000Y-120964000I-8120000J0D01*
G01*
X66302000Y-120964000D02*
G75*
G02*
X82542000Y-120964000I8120000J0D01*
G01*
%TO.C,D1*%
X86240000Y-93249000D02*
X88050000Y-93249000D01*
X86240000Y-94749000D02*
X86240000Y-93249000D01*
X96640000Y-93249000D02*
X94830000Y-93249000D01*
X96640000Y-94749000D02*
X96640000Y-93249000D01*
X95160000Y-90926500D02*
X94830000Y-90686500D01*
X95160000Y-90446500D01*
X95160000Y-90926500D01*
G36*
X95160000Y-90926500D02*
G01*
X94830000Y-90686500D01*
X95160000Y-90446500D01*
X95160000Y-90926500D01*
G37*
%TO.C,C2*%
X90254000Y-123285000D02*
X83952000Y-123285000D01*
X90254000Y-123325000D02*
X83964000Y-123325000D01*
X90254000Y-123365000D02*
X83976000Y-123365000D01*
X90254000Y-123405000D02*
X83989000Y-123405000D01*
X90254000Y-123445000D02*
X84001000Y-123445000D01*
X90254000Y-123485000D02*
X84014000Y-123485000D01*
X90254000Y-123525000D02*
X84028000Y-123525000D01*
X90254000Y-123565000D02*
X84041000Y-123565000D01*
X90254000Y-123605000D02*
X84055000Y-123605000D01*
X90254000Y-123645000D02*
X84069000Y-123645000D01*
X90254000Y-123685000D02*
X84083000Y-123685000D01*
X90254000Y-123725000D02*
X84097000Y-123725000D01*
X90254000Y-123765000D02*
X84112000Y-123765000D01*
X90254000Y-123805000D02*
X84126000Y-123805000D01*
X90254000Y-123845000D02*
X84141000Y-123845000D01*
X90254000Y-123885000D02*
X84157000Y-123885000D01*
X90254000Y-123925000D02*
X84172000Y-123925000D01*
X90254000Y-123965000D02*
X84188000Y-123965000D01*
X90254000Y-124005000D02*
X84204000Y-124005000D01*
X90254000Y-124045000D02*
X84220000Y-124045000D01*
X90254000Y-124085000D02*
X84237000Y-124085000D01*
X90254000Y-124125000D02*
X84254000Y-124125000D01*
X90254000Y-124165000D02*
X84271000Y-124165000D01*
X90254000Y-124205000D02*
X84288000Y-124205000D01*
X90254000Y-124245000D02*
X84305000Y-124245000D01*
X90254000Y-124285000D02*
X84323000Y-124285000D01*
X90254000Y-124325000D02*
X84341000Y-124325000D01*
X90254000Y-124365000D02*
X84360000Y-124365000D01*
X90254000Y-124405000D02*
X84378000Y-124405000D01*
X90254000Y-124445000D02*
X84397000Y-124445000D01*
X90254000Y-124485000D02*
X84416000Y-124485000D01*
X90254000Y-124525000D02*
X84436000Y-124525000D01*
X90254000Y-124565000D02*
X84455000Y-124565000D01*
X90254000Y-124605000D02*
X84475000Y-124605000D01*
X90254000Y-124645000D02*
X84495000Y-124645000D01*
X90254000Y-124685000D02*
X84516000Y-124685000D01*
X90254000Y-124725000D02*
X84537000Y-124725000D01*
X90254000Y-124765000D02*
X84558000Y-124765000D01*
X90254000Y-124805000D02*
X84579000Y-124805000D01*
X90254000Y-124845000D02*
X84600000Y-124845000D01*
X90254000Y-124885000D02*
X84622000Y-124885000D01*
X90254000Y-124925000D02*
X84645000Y-124925000D01*
X90254000Y-124965000D02*
X84667000Y-124965000D01*
X90254000Y-125005000D02*
X84690000Y-125005000D01*
X90254000Y-125045000D02*
X84713000Y-125045000D01*
X90254000Y-125085000D02*
X84736000Y-125085000D01*
X90254000Y-125125000D02*
X84760000Y-125125000D01*
X90254000Y-125165000D02*
X84784000Y-125165000D01*
X90254000Y-125205000D02*
X84808000Y-125205000D01*
X90254000Y-125245000D02*
X84833000Y-125245000D01*
X90254000Y-125285000D02*
X84858000Y-125285000D01*
X90254000Y-125325000D02*
X84883000Y-125325000D01*
X90254000Y-125365000D02*
X84909000Y-125365000D01*
X90254000Y-125405000D02*
X84935000Y-125405000D01*
X90254000Y-125445000D02*
X84961000Y-125445000D01*
X90254000Y-125485000D02*
X84988000Y-125485000D01*
X90254000Y-125525000D02*
X85015000Y-125525000D01*
X90254000Y-125565000D02*
X85042000Y-125565000D01*
X90254000Y-125605000D02*
X85070000Y-125605000D01*
X90254000Y-125645000D02*
X85098000Y-125645000D01*
X90254000Y-125685000D02*
X85126000Y-125685000D01*
X90254000Y-125725000D02*
X85155000Y-125725000D01*
X90254000Y-125765000D02*
X85184000Y-125765000D01*
X90254000Y-125805000D02*
X85214000Y-125805000D01*
X90254000Y-125845000D02*
X85244000Y-125845000D01*
X90254000Y-125885000D02*
X85274000Y-125885000D01*
X90254000Y-125925000D02*
X85304000Y-125925000D01*
X90254000Y-125965000D02*
X85336000Y-125965000D01*
X90254000Y-126005000D02*
X85367000Y-126005000D01*
X90254000Y-126045000D02*
X85399000Y-126045000D01*
X90254000Y-126085000D02*
X85431000Y-126085000D01*
X90254000Y-126125000D02*
X85464000Y-126125000D01*
X92459000Y-129045000D02*
X90929000Y-129045000D01*
X92792000Y-129005000D02*
X90596000Y-129005000D01*
X93045000Y-128965000D02*
X90343000Y-128965000D01*
X93258000Y-128925000D02*
X90130000Y-128925000D01*
X93446000Y-128885000D02*
X89942000Y-128885000D01*
X93614000Y-128845000D02*
X89774000Y-128845000D01*
X93768000Y-128805000D02*
X89620000Y-128805000D01*
X93912000Y-128765000D02*
X89476000Y-128765000D01*
X94045000Y-128725000D02*
X89343000Y-128725000D01*
X94172000Y-128685000D02*
X89216000Y-128685000D01*
X94291000Y-128645000D02*
X89097000Y-128645000D01*
X94405000Y-128605000D02*
X88983000Y-128605000D01*
X94514000Y-128565000D02*
X88874000Y-128565000D01*
X94618000Y-128525000D02*
X88770000Y-128525000D01*
X94718000Y-128485000D02*
X88670000Y-128485000D01*
X94814000Y-128445000D02*
X88574000Y-128445000D01*
X94907000Y-128405000D02*
X88481000Y-128405000D01*
X94997000Y-128365000D02*
X88391000Y-128365000D01*
X95084000Y-128325000D02*
X88304000Y-128325000D01*
X95169000Y-128285000D02*
X88219000Y-128285000D01*
X95251000Y-128245000D02*
X88137000Y-128245000D01*
X95331000Y-128205000D02*
X88057000Y-128205000D01*
X95409000Y-128165000D02*
X87979000Y-128165000D01*
X95484000Y-128125000D02*
X87904000Y-128125000D01*
X95558000Y-128085000D02*
X87830000Y-128085000D01*
X95630000Y-128045000D02*
X87758000Y-128045000D01*
X95701000Y-128005000D02*
X87687000Y-128005000D01*
X95770000Y-127965000D02*
X87618000Y-127965000D01*
X95837000Y-127925000D02*
X87551000Y-127925000D01*
X95903000Y-127885000D02*
X87485000Y-127885000D01*
X95967000Y-127845000D02*
X87421000Y-127845000D01*
X96030000Y-127805000D02*
X87358000Y-127805000D01*
X96092000Y-127765000D02*
X87296000Y-127765000D01*
X96153000Y-127725000D02*
X87235000Y-127725000D01*
X96213000Y-127685000D02*
X87175000Y-127685000D01*
X96249000Y-112274509D02*
X96249000Y-113874509D01*
X96271000Y-127645000D02*
X87117000Y-127645000D01*
X96328000Y-127605000D02*
X87060000Y-127605000D01*
X96385000Y-127565000D02*
X87003000Y-127565000D01*
X96440000Y-127525000D02*
X86948000Y-127525000D01*
X96494000Y-127485000D02*
X86894000Y-127485000D01*
X96548000Y-127445000D02*
X86840000Y-127445000D01*
X96600000Y-127405000D02*
X86788000Y-127405000D01*
X96652000Y-127365000D02*
X86736000Y-127365000D01*
X96703000Y-127325000D02*
X86685000Y-127325000D01*
X96753000Y-127285000D02*
X86635000Y-127285000D01*
X96802000Y-127245000D02*
X86586000Y-127245000D01*
X96850000Y-127205000D02*
X86538000Y-127205000D01*
X96898000Y-127165000D02*
X86490000Y-127165000D01*
X96945000Y-127125000D02*
X86443000Y-127125000D01*
X96991000Y-127085000D02*
X86397000Y-127085000D01*
X97037000Y-127045000D02*
X86351000Y-127045000D01*
X97049000Y-113074509D02*
X95449000Y-113074509D01*
X97082000Y-127005000D02*
X86306000Y-127005000D01*
X97126000Y-126965000D02*
X86262000Y-126965000D01*
X97169000Y-126925000D02*
X86219000Y-126925000D01*
X97212000Y-126885000D02*
X86176000Y-126885000D01*
X97254000Y-126845000D02*
X86134000Y-126845000D01*
X97296000Y-126805000D02*
X86092000Y-126805000D01*
X97337000Y-126765000D02*
X86051000Y-126765000D01*
X97378000Y-126725000D02*
X86010000Y-126725000D01*
X97418000Y-126685000D02*
X85970000Y-126685000D01*
X97457000Y-126645000D02*
X85931000Y-126645000D01*
X97496000Y-126605000D02*
X85892000Y-126605000D01*
X97534000Y-126565000D02*
X85854000Y-126565000D01*
X97572000Y-126525000D02*
X85816000Y-126525000D01*
X97610000Y-126485000D02*
X85778000Y-126485000D01*
X97646000Y-126445000D02*
X85742000Y-126445000D01*
X97683000Y-126405000D02*
X85705000Y-126405000D01*
X97719000Y-126365000D02*
X85669000Y-126365000D01*
X97754000Y-126325000D02*
X85634000Y-126325000D01*
X97789000Y-126285000D02*
X85599000Y-126285000D01*
X97823000Y-126245000D02*
X85565000Y-126245000D01*
X97857000Y-126205000D02*
X85531000Y-126205000D01*
X97891000Y-126165000D02*
X85497000Y-126165000D01*
X97924000Y-126125000D02*
X93134000Y-126125000D01*
X97957000Y-126085000D02*
X93134000Y-126085000D01*
X97989000Y-126045000D02*
X93134000Y-126045000D01*
X98021000Y-126005000D02*
X93134000Y-126005000D01*
X98052000Y-125965000D02*
X93134000Y-125965000D01*
X98084000Y-125925000D02*
X93134000Y-125925000D01*
X98114000Y-125885000D02*
X93134000Y-125885000D01*
X98144000Y-125845000D02*
X93134000Y-125845000D01*
X98174000Y-125805000D02*
X93134000Y-125805000D01*
X98204000Y-125765000D02*
X93134000Y-125765000D01*
X98233000Y-125725000D02*
X93134000Y-125725000D01*
X98262000Y-125685000D02*
X93134000Y-125685000D01*
X98290000Y-125645000D02*
X93134000Y-125645000D01*
X98318000Y-125605000D02*
X93134000Y-125605000D01*
X98346000Y-125565000D02*
X93134000Y-125565000D01*
X98373000Y-125525000D02*
X93134000Y-125525000D01*
X98400000Y-125485000D02*
X93134000Y-125485000D01*
X98427000Y-125445000D02*
X93134000Y-125445000D01*
X98453000Y-125405000D02*
X93134000Y-125405000D01*
X98479000Y-125365000D02*
X93134000Y-125365000D01*
X98505000Y-125325000D02*
X93134000Y-125325000D01*
X98530000Y-125285000D02*
X93134000Y-125285000D01*
X98555000Y-125245000D02*
X93134000Y-125245000D01*
X98580000Y-125205000D02*
X93134000Y-125205000D01*
X98604000Y-125165000D02*
X93134000Y-125165000D01*
X98628000Y-125125000D02*
X93134000Y-125125000D01*
X98652000Y-125085000D02*
X93134000Y-125085000D01*
X98675000Y-125045000D02*
X93134000Y-125045000D01*
X98698000Y-125005000D02*
X93134000Y-125005000D01*
X98721000Y-124965000D02*
X93134000Y-124965000D01*
X98743000Y-124925000D02*
X93134000Y-124925000D01*
X98766000Y-124885000D02*
X93134000Y-124885000D01*
X98788000Y-124845000D02*
X93134000Y-124845000D01*
X98809000Y-124805000D02*
X93134000Y-124805000D01*
X98830000Y-124765000D02*
X93134000Y-124765000D01*
X98851000Y-124725000D02*
X93134000Y-124725000D01*
X98872000Y-124685000D02*
X93134000Y-124685000D01*
X98893000Y-124645000D02*
X93134000Y-124645000D01*
X98913000Y-124605000D02*
X93134000Y-124605000D01*
X98933000Y-124565000D02*
X93134000Y-124565000D01*
X98952000Y-124525000D02*
X93134000Y-124525000D01*
X98972000Y-124485000D02*
X93134000Y-124485000D01*
X98991000Y-124445000D02*
X93134000Y-124445000D01*
X99010000Y-124405000D02*
X93134000Y-124405000D01*
X99028000Y-124365000D02*
X93134000Y-124365000D01*
X99047000Y-124325000D02*
X93134000Y-124325000D01*
X99065000Y-124285000D02*
X93134000Y-124285000D01*
X99083000Y-124245000D02*
X93134000Y-124245000D01*
X99100000Y-124205000D02*
X93134000Y-124205000D01*
X99117000Y-124165000D02*
X93134000Y-124165000D01*
X99134000Y-124125000D02*
X93134000Y-124125000D01*
X99151000Y-124085000D02*
X93134000Y-124085000D01*
X99168000Y-124045000D02*
X93134000Y-124045000D01*
X99184000Y-124005000D02*
X93134000Y-124005000D01*
X99200000Y-123965000D02*
X93134000Y-123965000D01*
X99216000Y-123925000D02*
X93134000Y-123925000D01*
X99231000Y-123885000D02*
X93134000Y-123885000D01*
X99247000Y-123845000D02*
X93134000Y-123845000D01*
X99262000Y-123805000D02*
X93134000Y-123805000D01*
X99276000Y-123765000D02*
X93134000Y-123765000D01*
X99291000Y-123725000D02*
X93134000Y-123725000D01*
X99305000Y-123685000D02*
X93134000Y-123685000D01*
X99319000Y-123645000D02*
X93134000Y-123645000D01*
X99333000Y-123605000D02*
X93134000Y-123605000D01*
X99347000Y-123565000D02*
X93134000Y-123565000D01*
X99360000Y-123525000D02*
X93134000Y-123525000D01*
X99374000Y-123485000D02*
X93134000Y-123485000D01*
X99387000Y-123445000D02*
X93134000Y-123445000D01*
X99399000Y-123405000D02*
X93134000Y-123405000D01*
X99412000Y-123365000D02*
X93134000Y-123365000D01*
X99424000Y-123325000D02*
X93134000Y-123325000D01*
X99436000Y-123285000D02*
X93134000Y-123285000D01*
X99448000Y-123245000D02*
X83940000Y-123245000D01*
X99459000Y-123205000D02*
X83929000Y-123205000D01*
X99471000Y-123165000D02*
X83917000Y-123165000D01*
X99482000Y-123125000D02*
X83906000Y-123125000D01*
X99493000Y-123085000D02*
X83895000Y-123085000D01*
X99504000Y-123045000D02*
X83884000Y-123045000D01*
X99514000Y-123005000D02*
X83874000Y-123005000D01*
X99524000Y-122965000D02*
X83864000Y-122965000D01*
X99534000Y-122925000D02*
X83854000Y-122925000D01*
X99544000Y-122885000D02*
X83844000Y-122885000D01*
X99554000Y-122845000D02*
X83834000Y-122845000D01*
X99563000Y-122805000D02*
X83825000Y-122805000D01*
X99572000Y-122765000D02*
X83816000Y-122765000D01*
X99581000Y-122725000D02*
X83807000Y-122725000D01*
X99590000Y-122685000D02*
X83798000Y-122685000D01*
X99599000Y-122645000D02*
X83789000Y-122645000D01*
X99607000Y-122605000D02*
X83781000Y-122605000D01*
X99615000Y-122565000D02*
X83773000Y-122565000D01*
X99623000Y-122525000D02*
X83765000Y-122525000D01*
X99631000Y-122485000D02*
X83757000Y-122485000D01*
X99638000Y-122445000D02*
X83750000Y-122445000D01*
X99646000Y-122405000D02*
X83742000Y-122405000D01*
X99653000Y-122365000D02*
X83735000Y-122365000D01*
X99660000Y-122325000D02*
X83728000Y-122325000D01*
X99666000Y-122285000D02*
X83722000Y-122285000D01*
X99673000Y-122245000D02*
X83715000Y-122245000D01*
X99679000Y-122205000D02*
X83709000Y-122205000D01*
X99685000Y-122165000D02*
X83703000Y-122165000D01*
X99691000Y-122125000D02*
X83697000Y-122125000D01*
X99697000Y-122085000D02*
X83691000Y-122085000D01*
X99702000Y-122045000D02*
X83686000Y-122045000D01*
X99708000Y-122005000D02*
X83680000Y-122005000D01*
X99713000Y-121965000D02*
X83675000Y-121965000D01*
X99718000Y-121925000D02*
X83670000Y-121925000D01*
X99722000Y-121885000D02*
X83666000Y-121885000D01*
X99727000Y-121845000D02*
X83661000Y-121845000D01*
X99731000Y-121805000D02*
X83657000Y-121805000D01*
X99735000Y-121765000D02*
X83653000Y-121765000D01*
X99739000Y-121725000D02*
X83649000Y-121725000D01*
X99743000Y-121685000D02*
X83645000Y-121685000D01*
X99746000Y-121644000D02*
X83642000Y-121644000D01*
X99749000Y-121604000D02*
X83639000Y-121604000D01*
X99752000Y-121564000D02*
X83636000Y-121564000D01*
X99755000Y-121524000D02*
X83633000Y-121524000D01*
X99758000Y-121484000D02*
X83630000Y-121484000D01*
X99760000Y-121444000D02*
X83628000Y-121444000D01*
X99763000Y-121404000D02*
X83625000Y-121404000D01*
X99765000Y-121364000D02*
X83623000Y-121364000D01*
X99767000Y-121324000D02*
X83621000Y-121324000D01*
X99768000Y-121284000D02*
X83620000Y-121284000D01*
X99770000Y-121244000D02*
X83618000Y-121244000D01*
X99771000Y-121204000D02*
X83617000Y-121204000D01*
X99772000Y-121164000D02*
X83616000Y-121164000D01*
X99773000Y-121124000D02*
X83615000Y-121124000D01*
X99774000Y-121004000D02*
X83614000Y-121004000D01*
X99774000Y-121044000D02*
X83614000Y-121044000D01*
X99774000Y-121084000D02*
X83614000Y-121084000D01*
X99775000Y-120964000D02*
X83613000Y-120964000D01*
X99814000Y-120964000D02*
G75*
G02*
X83574000Y-120964000I-8120000J0D01*
G01*
X83574000Y-120964000D02*
G75*
G02*
X99814000Y-120964000I8120000J0D01*
G01*
%TD*%
M02*
