%TF.GenerationSoftware,KiCad,Pcbnew,8.0.5*%
%TF.CreationDate,2024-10-31T22:41:55-05:00*%
%TF.ProjectId,fuse breakout board,66757365-2062-4726-9561-6b6f75742062,rev?*%
%TF.SameCoordinates,Original*%
%TF.FileFunction,Legend,Bot*%
%TF.FilePolarity,Positive*%
%FSLAX46Y46*%
G04 Gerber Fmt 4.6, Leading zero omitted, Abs format (unit mm)*
G04 Created by KiCad (PCBNEW 8.0.5) date 2024-10-31 22:41:55*
%MOMM*%
%LPD*%
G01*
G04 APERTURE LIST*
%ADD10C,0.150000*%
G04 APERTURE END LIST*
D10*
X49250580Y-76759990D02*
X49298200Y-76712371D01*
X49298200Y-76712371D02*
X49345819Y-76569514D01*
X49345819Y-76569514D02*
X49345819Y-76474276D01*
X49345819Y-76474276D02*
X49298200Y-76331419D01*
X49298200Y-76331419D02*
X49202961Y-76236181D01*
X49202961Y-76236181D02*
X49107723Y-76188562D01*
X49107723Y-76188562D02*
X48917247Y-76140943D01*
X48917247Y-76140943D02*
X48774390Y-76140943D01*
X48774390Y-76140943D02*
X48583914Y-76188562D01*
X48583914Y-76188562D02*
X48488676Y-76236181D01*
X48488676Y-76236181D02*
X48393438Y-76331419D01*
X48393438Y-76331419D02*
X48345819Y-76474276D01*
X48345819Y-76474276D02*
X48345819Y-76569514D01*
X48345819Y-76569514D02*
X48393438Y-76712371D01*
X48393438Y-76712371D02*
X48441057Y-76759990D01*
X49345819Y-77331419D02*
X49298200Y-77236181D01*
X49298200Y-77236181D02*
X49250580Y-77188562D01*
X49250580Y-77188562D02*
X49155342Y-77140943D01*
X49155342Y-77140943D02*
X48869628Y-77140943D01*
X48869628Y-77140943D02*
X48774390Y-77188562D01*
X48774390Y-77188562D02*
X48726771Y-77236181D01*
X48726771Y-77236181D02*
X48679152Y-77331419D01*
X48679152Y-77331419D02*
X48679152Y-77474276D01*
X48679152Y-77474276D02*
X48726771Y-77569514D01*
X48726771Y-77569514D02*
X48774390Y-77617133D01*
X48774390Y-77617133D02*
X48869628Y-77664752D01*
X48869628Y-77664752D02*
X49155342Y-77664752D01*
X49155342Y-77664752D02*
X49250580Y-77617133D01*
X49250580Y-77617133D02*
X49298200Y-77569514D01*
X49298200Y-77569514D02*
X49345819Y-77474276D01*
X49345819Y-77474276D02*
X49345819Y-77331419D01*
X48679152Y-78093324D02*
X49345819Y-78093324D01*
X48774390Y-78093324D02*
X48726771Y-78140943D01*
X48726771Y-78140943D02*
X48679152Y-78236181D01*
X48679152Y-78236181D02*
X48679152Y-78379038D01*
X48679152Y-78379038D02*
X48726771Y-78474276D01*
X48726771Y-78474276D02*
X48822009Y-78521895D01*
X48822009Y-78521895D02*
X49345819Y-78521895D01*
X48679152Y-78998086D02*
X49345819Y-78998086D01*
X48774390Y-78998086D02*
X48726771Y-79045705D01*
X48726771Y-79045705D02*
X48679152Y-79140943D01*
X48679152Y-79140943D02*
X48679152Y-79283800D01*
X48679152Y-79283800D02*
X48726771Y-79379038D01*
X48726771Y-79379038D02*
X48822009Y-79426657D01*
X48822009Y-79426657D02*
X49345819Y-79426657D01*
X49345819Y-80426657D02*
X49345819Y-79855229D01*
X49345819Y-80140943D02*
X48345819Y-80140943D01*
X48345819Y-80140943D02*
X48488676Y-80045705D01*
X48488676Y-80045705D02*
X48583914Y-79950467D01*
X48583914Y-79950467D02*
X48631533Y-79855229D01*
%TO.C,Conn1*%
X32004000Y-63486000D02*
X32004000Y-64705200D01*
X32004000Y-63562200D02*
X32004000Y-55815200D01*
X32004000Y-67016600D02*
X32004000Y-68108800D01*
X32004000Y-80427800D02*
X32004000Y-68134200D01*
X34315400Y-65848200D02*
X33147000Y-65848200D01*
X34315400Y-65848200D02*
X37592000Y-65848200D01*
X38735000Y-65848200D02*
X37592000Y-65848200D01*
X39852600Y-64705200D02*
X39852600Y-55815200D01*
X39878000Y-66991200D02*
X39878000Y-68134200D01*
X39878000Y-80427800D02*
X39878000Y-68134200D01*
X41021000Y-65848200D02*
X42164000Y-65848200D01*
X45466000Y-65848200D02*
X42164000Y-65848200D01*
X46609000Y-65848200D02*
X45440600Y-65848200D01*
X47752000Y-55789800D02*
X32004000Y-55789800D01*
X47752000Y-55815200D02*
X47752000Y-63562200D01*
X47752000Y-64705200D02*
X47752000Y-63536800D01*
X47752000Y-66965800D02*
X47752000Y-68159600D01*
X47752000Y-80427800D02*
X32004000Y-80427800D01*
X47752000Y-80427800D02*
X47752000Y-68134200D01*
X32004000Y-64705200D02*
G75*
G02*
X33147000Y-65848200I0J-1143000D01*
G01*
X33147000Y-65848200D02*
G75*
G02*
X32004000Y-66991200I-1143000J0D01*
G01*
X46634400Y-65848200D02*
G75*
G02*
X47752000Y-64730600I1117598J2D01*
G01*
X47752000Y-66965800D02*
G75*
G02*
X46634400Y-65848200I-2J1117598D01*
G01*
X41021000Y-65848200D02*
G75*
G02*
X38735000Y-65848200I-1143000J0D01*
G01*
X38735000Y-65848200D02*
G75*
G02*
X41021000Y-65848200I1143000J0D01*
G01*
%TD*%
M02*
