M48
; DRILL file {KiCad 8.0.5} date 2024-10-31T22:42:08-0500
; FORMAT={-:-/ absolute / inch / decimal}
; #@! TF.CreationDate,2024-10-31T22:42:08-05:00
; #@! TF.GenerationSoftware,Kicad,Pcbnew,8.0.5
; #@! TF.FileFunction,Plated,1,2,PTH
FMAT,2
INCH
; #@! TA.AperFunction,Plated,PTH,ViaDrill
T1C0.0118
; #@! TA.AperFunction,Plated,PTH,ComponentDrill
T2C0.0472
; #@! TA.AperFunction,Plated,PTH,ComponentDrill
T3C0.0787
%
G90
G05
T1
X1.2Y-2.8
X1.2Y-3.0
X1.2Y-3.2
X1.2Y-3.4
X1.2Y-3.6
X1.2Y-3.8
X1.2Y-4.0
X1.2Y-4.2
X1.2Y-4.4
X1.2Y-4.6
X1.2Y-4.8
X1.4Y-2.8
X1.4Y-3.0
X1.4Y-3.2
X1.4Y-3.4
X1.4Y-3.6
X1.4Y-3.8
X1.4Y-4.0
X1.4Y-4.2
X1.4Y-4.4
X1.4Y-4.8
X1.4Y-5.0
X1.6Y-5.0
X1.8Y-5.0
X2.0Y-5.0
X2.2Y-5.0
X2.4Y-5.0
X2.6Y-5.0
X2.8Y-5.0
X3.0Y-5.0
X3.2Y-5.0
X3.4Y-2.8
X3.4Y-3.0
X3.4Y-3.2
X3.4Y-3.4
X3.4Y-5.0
X3.6Y-2.8
X3.6Y-3.0
X3.6Y-3.2
X3.6Y-3.4
X3.6Y-5.0
X3.8Y-2.8
X3.8Y-3.0
X3.8Y-3.2
X3.8Y-3.4
X3.8Y-5.0
X4.0Y-2.8
X4.0Y-3.0
X4.0Y-3.2
X4.0Y-3.4
X4.0Y-3.6
X4.0Y-5.0
X4.2Y-2.8
X4.2Y-3.0
X4.2Y-3.2
X4.2Y-3.4
X4.2Y-3.6
X4.2Y-5.0
X4.4Y-2.8
X4.4Y-3.0
X4.4Y-3.2
X4.4Y-3.4
X4.4Y-3.6
X4.4Y-5.0
X4.6Y-2.8
X4.6Y-3.0
X4.6Y-3.2
X4.6Y-3.4
X4.6Y-3.6
X4.6Y-3.8
X4.6Y-4.0
X4.6Y-4.2
X4.6Y-4.4
X4.6Y-4.6
X4.6Y-4.8
X4.6Y-5.0
T2
X2.26Y-4.6147
X2.26Y-4.91
X2.93Y-4.6147
X2.93Y-4.91
X3.61Y-4.6147
X3.61Y-4.91
X4.28Y-4.6047
X4.28Y-4.9
T3
G00X1.4563Y-3.3074
M15
G01X1.3737Y-3.3074
M16
G05
G00X1.3737Y-4.6326
M15
G01X1.4563Y-4.6326
M16
G05
G00X1.7663Y-3.3074
M15
G01X1.6837Y-3.3074
M16
G05
G00X1.6837Y-4.6326
M15
G01X1.7663Y-4.6326
M16
G05
M30
