%TF.GenerationSoftware,KiCad,Pcbnew,8.0.5*%
%TF.CreationDate,2024-10-31T22:41:55-05:00*%
%TF.ProjectId,fuse breakout board,66757365-2062-4726-9561-6b6f75742062,rev?*%
%TF.SameCoordinates,Original*%
%TF.FileFunction,Copper,L1,Top*%
%TF.FilePolarity,Positive*%
%FSLAX46Y46*%
G04 Gerber Fmt 4.6, Leading zero omitted, Abs format (unit mm)*
G04 Created by KiCad (PCBNEW 8.0.5) date 2024-10-31 22:41:55*
%MOMM*%
%LPD*%
G01*
G04 APERTURE LIST*
G04 Aperture macros list*
%AMRoundRect*
0 Rectangle with rounded corners*
0 $1 Rounding radius*
0 $2 $3 $4 $5 $6 $7 $8 $9 X,Y pos of 4 corners*
0 Add a 4 corners polygon primitive as box body*
4,1,4,$2,$3,$4,$5,$6,$7,$8,$9,$2,$3,0*
0 Add four circle primitives for the rounded corners*
1,1,$1+$1,$2,$3*
1,1,$1+$1,$4,$5*
1,1,$1+$1,$6,$7*
1,1,$1+$1,$8,$9*
0 Add four rect primitives between the rounded corners*
20,1,$1+$1,$2,$3,$4,$5,0*
20,1,$1+$1,$4,$5,$6,$7,0*
20,1,$1+$1,$6,$7,$8,$9,0*
20,1,$1+$1,$8,$9,$2,$3,0*%
G04 Aperture macros list end*
%TA.AperFunction,ComponentPad*%
%ADD10O,5.100000X3.000000*%
%TD*%
%TA.AperFunction,ComponentPad*%
%ADD11R,2.400000X2.400000*%
%TD*%
%TA.AperFunction,ComponentPad*%
%ADD12C,2.400000*%
%TD*%
%TA.AperFunction,SMDPad,CuDef*%
%ADD13R,6.150000X3.400000*%
%TD*%
%TA.AperFunction,SMDPad,CuDef*%
%ADD14RoundRect,0.275000X-0.275000X2.025000X-0.275000X-2.025000X0.275000X-2.025000X0.275000X2.025000X0*%
%TD*%
%TA.AperFunction,SMDPad,CuDef*%
%ADD15RoundRect,0.250000X-5.150000X4.450000X-5.150000X-4.450000X5.150000X-4.450000X5.150000X4.450000X0*%
%TD*%
%TA.AperFunction,ViaPad*%
%ADD16C,0.600000*%
%TD*%
%TA.AperFunction,Conductor*%
%ADD17C,1.092200*%
%TD*%
%TA.AperFunction,Conductor*%
%ADD18C,0.889000*%
%TD*%
G04 APERTURE END LIST*
D10*
%TO.P,Conn2,1,GND*%
%TO.N,GND*%
X35941000Y-117666800D03*
%TO.P,Conn2,4,PV+*%
%TO.N,Load_Tester*%
X43815000Y-117666800D03*
%TD*%
D11*
%TO.P,C4,1*%
%TO.N,Load_Tester*%
X108712000Y-116960000D03*
D12*
%TO.P,C4,2*%
%TO.N,GND*%
X108712000Y-124460000D03*
%TD*%
D11*
%TO.P,C1,1*%
%TO.N,Load_Tester*%
X57404000Y-117214000D03*
D12*
%TO.P,C1,2*%
%TO.N,GND*%
X57404000Y-124714000D03*
%TD*%
D13*
%TO.P,F1,1*%
%TO.N,+BATT*%
X53848000Y-90074000D03*
%TO.P,F1,2*%
%TO.N,Load_Tester*%
X53848000Y-96774000D03*
%TD*%
D11*
%TO.P,C3,1*%
%TO.N,Load_Tester*%
X74422000Y-117214000D03*
D12*
%TO.P,C3,2*%
%TO.N,GND*%
X74422000Y-124714000D03*
%TD*%
D14*
%TO.P,D1,1,K*%
%TO.N,Load_Tester*%
X93980000Y-90424000D03*
D15*
X91440000Y-99574000D03*
D14*
%TO.P,D1,2,A*%
%TO.N,GND*%
X88900000Y-90424000D03*
%TD*%
D11*
%TO.P,C2,1*%
%TO.N,Load_Tester*%
X91694000Y-117214000D03*
D12*
%TO.P,C2,2*%
%TO.N,GND*%
X91694000Y-124714000D03*
%TD*%
D10*
%TO.P,Conn1,1,GND*%
%TO.N,GND*%
X35941000Y-84009200D03*
%TO.P,Conn1,4,PV+*%
%TO.N,+BATT*%
X43815000Y-84009200D03*
%TD*%
D16*
%TO.N,GND*%
X101600000Y-86360000D03*
X96520000Y-127000000D03*
X116840000Y-121920000D03*
X101600000Y-127000000D03*
X91440000Y-81280000D03*
X30480000Y-91440000D03*
X101600000Y-91440000D03*
X35560000Y-86360000D03*
X116840000Y-106680000D03*
X106680000Y-71120000D03*
X30480000Y-76200000D03*
X111760000Y-81280000D03*
X101600000Y-76200000D03*
X116840000Y-96520000D03*
X35560000Y-111760000D03*
X55880000Y-127000000D03*
X30480000Y-106680000D03*
X101600000Y-71120000D03*
X111760000Y-127000000D03*
X86360000Y-81280000D03*
X81280000Y-127000000D03*
X45720000Y-127000000D03*
X35560000Y-91440000D03*
X60960000Y-127000000D03*
X106680000Y-76200000D03*
X116840000Y-101600000D03*
X35560000Y-76200000D03*
X30480000Y-101600000D03*
X86360000Y-127000000D03*
X111760000Y-71120000D03*
X71120000Y-127000000D03*
X30480000Y-81280000D03*
X76200000Y-127000000D03*
X106680000Y-127000000D03*
X116840000Y-86360000D03*
X86360000Y-86360000D03*
X91440000Y-127000000D03*
X35560000Y-71120000D03*
X96520000Y-81280000D03*
X30480000Y-116840000D03*
X35560000Y-121920000D03*
X116840000Y-91440000D03*
X30480000Y-111760000D03*
X111760000Y-91440000D03*
X111760000Y-86360000D03*
X30480000Y-96520000D03*
X116840000Y-111760000D03*
X91440000Y-86360000D03*
X66040000Y-127000000D03*
X106680000Y-91440000D03*
X86360000Y-76200000D03*
X86360000Y-71120000D03*
X91440000Y-76200000D03*
X116840000Y-71120000D03*
X116840000Y-127000000D03*
X30480000Y-71120000D03*
X101600000Y-81280000D03*
X30480000Y-86360000D03*
X91440000Y-71120000D03*
X106680000Y-81280000D03*
X35560000Y-106680000D03*
X35560000Y-127000000D03*
X96520000Y-71120000D03*
X111760000Y-76200000D03*
X116840000Y-76200000D03*
X116840000Y-81280000D03*
X96520000Y-76200000D03*
X35560000Y-96520000D03*
X35560000Y-101600000D03*
X96520000Y-86360000D03*
X106680000Y-86360000D03*
X40640000Y-127000000D03*
X116840000Y-116840000D03*
X35560000Y-81280000D03*
X50800000Y-127000000D03*
X30480000Y-121920000D03*
%TD*%
D17*
%TO.N,Load_Tester*%
X93980000Y-90424000D02*
X93980000Y-97034000D01*
D18*
X93980000Y-97034000D02*
X91440000Y-99574000D01*
%TD*%
%TA.AperFunction,Conductor*%
%TO.N,+BATT*%
G36*
X82746976Y-66292740D02*
G01*
X82792763Y-66345516D01*
X82804000Y-66397096D01*
X82804000Y-92943270D01*
X82784315Y-93010309D01*
X82731511Y-93056064D01*
X82680441Y-93067269D01*
X39748441Y-93220053D01*
X39681332Y-93200607D01*
X39635390Y-93147967D01*
X39624000Y-93096054D01*
X39624000Y-66423220D01*
X39643685Y-66356181D01*
X39696489Y-66310426D01*
X39747921Y-66299220D01*
X82679927Y-66273096D01*
X82746976Y-66292740D01*
G37*
%TD.AperFunction*%
%TD*%
%TA.AperFunction,Conductor*%
%TO.N,Load_Tester*%
G36*
X110940668Y-93491888D02*
G01*
X110986610Y-93544528D01*
X110998000Y-93596441D01*
X110998000Y-121288440D01*
X110978315Y-121355479D01*
X110925511Y-121401234D01*
X110874441Y-121412439D01*
X39748441Y-121665557D01*
X39681332Y-121646111D01*
X39635390Y-121593471D01*
X39624000Y-121541558D01*
X39624000Y-93849559D01*
X39643685Y-93782520D01*
X39696489Y-93736765D01*
X39747557Y-93725560D01*
X110873561Y-93472442D01*
X110940668Y-93491888D01*
G37*
%TD.AperFunction*%
%TD*%
%TA.AperFunction,Conductor*%
%TO.N,GND*%
G36*
X114818813Y-66253712D02*
G01*
X115131121Y-66270076D01*
X115144008Y-66271430D01*
X115449717Y-66319846D01*
X115462394Y-66322542D01*
X115761354Y-66402645D01*
X115773669Y-66406646D01*
X116062615Y-66517560D01*
X116074470Y-66522838D01*
X116350233Y-66663345D01*
X116361451Y-66669821D01*
X116621047Y-66838403D01*
X116631515Y-66846009D01*
X116852723Y-67025139D01*
X116872048Y-67040788D01*
X116881693Y-67049473D01*
X117100526Y-67268306D01*
X117109211Y-67277951D01*
X117303988Y-67518481D01*
X117311599Y-67528956D01*
X117480175Y-67788542D01*
X117486657Y-67799771D01*
X117627160Y-68075527D01*
X117632439Y-68087384D01*
X117743348Y-68376315D01*
X117747359Y-68388660D01*
X117827455Y-68687596D01*
X117830154Y-68700291D01*
X117878568Y-69005981D01*
X117879924Y-69018890D01*
X117896286Y-69331155D01*
X117896456Y-69337714D01*
X117863541Y-127179942D01*
X117863500Y-127180591D01*
X117863500Y-127254655D01*
X117863458Y-127327367D01*
X117863500Y-127328005D01*
X117863500Y-128010588D01*
X117863028Y-128021396D01*
X117848896Y-128182919D01*
X117845143Y-128204205D01*
X117804582Y-128355581D01*
X117797189Y-128375892D01*
X117730962Y-128517915D01*
X117720155Y-128536634D01*
X117630265Y-128665010D01*
X117616371Y-128681567D01*
X117505567Y-128792371D01*
X117489010Y-128806265D01*
X117360634Y-128896155D01*
X117341915Y-128906962D01*
X117199892Y-128973189D01*
X117179581Y-128980582D01*
X117028205Y-129021143D01*
X117006919Y-129024896D01*
X116861332Y-129037633D01*
X116845394Y-129039028D01*
X116834588Y-129039500D01*
X34038561Y-129039500D01*
X34033437Y-129039394D01*
X33621006Y-129022336D01*
X33610792Y-129021490D01*
X33203713Y-128970747D01*
X33193604Y-128969060D01*
X32792111Y-128884876D01*
X32782176Y-128882360D01*
X32389002Y-128765307D01*
X32379309Y-128761979D01*
X31997148Y-128612859D01*
X31987763Y-128608742D01*
X31619236Y-128428580D01*
X31610222Y-128423703D01*
X31257803Y-128213707D01*
X31249223Y-128208101D01*
X30915361Y-127969728D01*
X30907274Y-127963433D01*
X30594243Y-127698309D01*
X30586703Y-127691368D01*
X30296631Y-127401296D01*
X30289690Y-127393756D01*
X30226889Y-127319607D01*
X30024561Y-127080719D01*
X30018271Y-127072638D01*
X29915905Y-126929266D01*
X29779894Y-126738770D01*
X29774292Y-126730196D01*
X29564296Y-126377777D01*
X29559419Y-126368763D01*
X29379257Y-126000236D01*
X29375140Y-125990851D01*
X29226015Y-125608678D01*
X29222696Y-125599010D01*
X29105635Y-125205810D01*
X29103126Y-125195902D01*
X29018936Y-124794381D01*
X29017254Y-124784301D01*
X28966507Y-124377186D01*
X28965664Y-124367013D01*
X28948606Y-123954562D01*
X28948500Y-123949438D01*
X28948500Y-68348117D01*
X28948765Y-68340008D01*
X28952819Y-68278159D01*
X28965417Y-68085934D01*
X28967532Y-68069878D01*
X29016410Y-67824149D01*
X29020603Y-67808502D01*
X29101136Y-67571259D01*
X29107337Y-67556288D01*
X29218149Y-67331583D01*
X29226252Y-67317548D01*
X29365448Y-67109226D01*
X29375305Y-67096380D01*
X29540501Y-66908010D01*
X29551959Y-66896552D01*
X29740330Y-66731355D01*
X29753176Y-66721498D01*
X29961498Y-66582302D01*
X29975533Y-66574199D01*
X30200239Y-66463386D01*
X30215205Y-66457187D01*
X30393582Y-66396637D01*
X30452444Y-66376656D01*
X30468105Y-66372459D01*
X30713829Y-66323581D01*
X30729881Y-66321467D01*
X30983940Y-66304816D01*
X30992050Y-66304551D01*
X31061813Y-66304551D01*
X31062482Y-66304504D01*
X38994426Y-66299678D01*
X39061476Y-66319322D01*
X39107263Y-66372098D01*
X39118500Y-66423678D01*
X39118500Y-93096056D01*
X39130245Y-93204388D01*
X39131947Y-93212144D01*
X39141635Y-93256300D01*
X39176322Y-93359595D01*
X39204130Y-93402528D01*
X39224053Y-93469497D01*
X39212848Y-93521451D01*
X39158664Y-93640093D01*
X39138976Y-93707141D01*
X39118500Y-93849560D01*
X39118500Y-121541560D01*
X39130245Y-121649892D01*
X39141634Y-121701800D01*
X39141638Y-121701813D01*
X39176322Y-121805099D01*
X39176323Y-121805102D01*
X39254533Y-121925853D01*
X39254535Y-121925854D01*
X39254540Y-121925861D01*
X39300482Y-121978501D01*
X39300489Y-121978507D01*
X39409549Y-122072332D01*
X39409550Y-122072332D01*
X39409552Y-122072334D01*
X39540642Y-122131638D01*
X39607751Y-122151084D01*
X39607752Y-122151084D01*
X39607912Y-122151106D01*
X39616097Y-122152268D01*
X39616314Y-122152284D01*
X39750240Y-122171054D01*
X110876240Y-121917936D01*
X110982773Y-121906194D01*
X111033843Y-121894989D01*
X111135504Y-121861053D01*
X111256543Y-121783265D01*
X111309347Y-121737510D01*
X111403567Y-121628776D01*
X111463338Y-121497899D01*
X111483023Y-121430860D01*
X111483024Y-121430856D01*
X111503500Y-121288440D01*
X111503500Y-93596441D01*
X111491755Y-93488108D01*
X111480365Y-93436195D01*
X111445678Y-93332900D01*
X111445676Y-93332897D01*
X111445676Y-93332896D01*
X111367466Y-93212145D01*
X111367464Y-93212144D01*
X111367463Y-93212143D01*
X111367460Y-93212138D01*
X111321518Y-93159498D01*
X111321510Y-93159491D01*
X111212450Y-93065666D01*
X111081361Y-93006361D01*
X111014274Y-92986921D01*
X111014261Y-92986917D01*
X111014255Y-92986916D01*
X111014250Y-92986915D01*
X111014246Y-92986914D01*
X110871759Y-92966944D01*
X95151041Y-93022890D01*
X95083932Y-93003444D01*
X95037990Y-92950804D01*
X95026600Y-92898891D01*
X95026600Y-92534127D01*
X95027380Y-92520242D01*
X95030500Y-92492554D01*
X95030500Y-88355445D01*
X95030499Y-88355441D01*
X95015842Y-88225351D01*
X95015841Y-88225349D01*
X95015841Y-88225343D01*
X94958122Y-88060394D01*
X94865147Y-87912424D01*
X94741576Y-87788853D01*
X94593606Y-87695878D01*
X94593605Y-87695877D01*
X94593604Y-87695877D01*
X94428658Y-87638159D01*
X94428648Y-87638157D01*
X94298558Y-87623500D01*
X94298552Y-87623500D01*
X93661448Y-87623500D01*
X93661441Y-87623500D01*
X93531351Y-87638157D01*
X93531341Y-87638159D01*
X93366395Y-87695877D01*
X93218423Y-87788853D01*
X93094853Y-87912423D01*
X93001877Y-88060395D01*
X92944159Y-88225341D01*
X92944157Y-88225351D01*
X92929500Y-88355441D01*
X92929500Y-92492554D01*
X92932620Y-92520242D01*
X92933400Y-92534127D01*
X92933400Y-92907222D01*
X92913715Y-92974261D01*
X92860911Y-93020016D01*
X92809841Y-93031221D01*
X83433941Y-93064587D01*
X83366832Y-93045141D01*
X83320890Y-92992501D01*
X83309500Y-92940588D01*
X83309500Y-66396637D01*
X83329185Y-66329598D01*
X83381989Y-66283843D01*
X83433423Y-66272637D01*
X114812325Y-66253543D01*
X114818813Y-66253712D01*
G37*
%TD.AperFunction*%
%TD*%
M02*
