%TF.GenerationSoftware,KiCad,Pcbnew,9.0.6-9.0.6~ubuntu22.04.1*%
%TF.CreationDate,2025-11-18T18:37:08-06:00*%
%TF.ProjectId,BattBreakout,42617474-4272-4656-916b-6f75742e6b69,rev?*%
%TF.SameCoordinates,Original*%
%TF.FileFunction,Legend,Bot*%
%TF.FilePolarity,Positive*%
%FSLAX46Y46*%
G04 Gerber Fmt 4.6, Leading zero omitted, Abs format (unit mm)*
G04 Created by KiCad (PCBNEW 9.0.6-9.0.6~ubuntu22.04.1) date 2025-11-18 18:37:08*
%MOMM*%
%LPD*%
G01*
G04 APERTURE LIST*
%ADD10C,0.000000*%
G04 APERTURE END LIST*
D10*
%TO.C,G\u002A\u002A\u002A*%
G36*
X72904195Y-64135000D02*
G01*
X72904195Y-74047195D01*
X62992000Y-74047195D01*
X53079805Y-74047195D01*
X53079805Y-71569147D01*
X58035902Y-71569147D01*
X58655414Y-71569147D01*
X59274926Y-71569147D01*
X67948097Y-71569147D01*
X69187122Y-71569147D01*
X70426146Y-71569147D01*
X70426146Y-70949635D01*
X70426146Y-70330122D01*
X69187122Y-70330122D01*
X67948097Y-70330122D01*
X67948097Y-70949635D01*
X67948097Y-71569147D01*
X59274926Y-71569147D01*
X59274926Y-70949635D01*
X59274926Y-70330122D01*
X61752975Y-70330122D01*
X62992000Y-70330122D01*
X64231024Y-70330122D01*
X64231024Y-69710610D01*
X64231024Y-69091098D01*
X62992000Y-69091098D01*
X61752975Y-69091098D01*
X61752975Y-69710610D01*
X61752975Y-70330122D01*
X59274926Y-70330122D01*
X58655414Y-70330122D01*
X58035902Y-70330122D01*
X58035902Y-70949635D01*
X58035902Y-71569147D01*
X53079805Y-71569147D01*
X53079805Y-70949635D01*
X53079805Y-69710610D01*
X53079805Y-66613049D01*
X53079805Y-65374025D01*
X56796878Y-65374025D01*
X56796878Y-65993537D01*
X56796878Y-66613049D01*
X58035902Y-66613049D01*
X59274926Y-66613049D01*
X59274926Y-67232561D01*
X59274926Y-67852074D01*
X60513951Y-67852074D01*
X61752975Y-67852074D01*
X65470048Y-67852074D01*
X66709073Y-67852074D01*
X67948097Y-67852074D01*
X67948097Y-66613049D01*
X67948097Y-65374025D01*
X66709073Y-65374025D01*
X65470048Y-65374025D01*
X65470048Y-66613049D01*
X65470048Y-67852074D01*
X61752975Y-67852074D01*
X61752975Y-67232561D01*
X61752975Y-66613049D01*
X62372487Y-66613049D01*
X62992000Y-66613049D01*
X62992000Y-65993537D01*
X62992000Y-65374025D01*
X59894439Y-65374025D01*
X56796878Y-65374025D01*
X53079805Y-65374025D01*
X53079805Y-64135000D01*
X54318829Y-64135000D01*
X55557853Y-64135000D01*
X56796878Y-64135000D01*
X56796878Y-63515488D01*
X56796878Y-62895976D01*
X55557853Y-62895976D01*
X54318829Y-62895976D01*
X54318829Y-63515488D01*
X54318829Y-64135000D01*
X53079805Y-64135000D01*
X53079805Y-63515488D01*
X53079805Y-61656952D01*
X58035902Y-61656952D01*
X58655414Y-61656952D01*
X59274926Y-61656952D01*
X61752975Y-61656952D01*
X61752975Y-62276464D01*
X61752975Y-62895976D01*
X62372487Y-62895976D01*
X62992000Y-62895976D01*
X62992000Y-63515488D01*
X62992000Y-64135000D01*
X64231024Y-64135000D01*
X65470048Y-64135000D01*
X65470048Y-63515488D01*
X65470048Y-62895976D01*
X66089561Y-62895976D01*
X66709073Y-62895976D01*
X66709073Y-62276464D01*
X66709073Y-61656952D01*
X64231024Y-61656952D01*
X61752975Y-61656952D01*
X59274926Y-61656952D01*
X59274926Y-61037439D01*
X59274926Y-60417927D01*
X58655414Y-60417927D01*
X58035902Y-60417927D01*
X58035902Y-61037439D01*
X58035902Y-61656952D01*
X53079805Y-61656952D01*
X53079805Y-61037439D01*
X53079805Y-59178903D01*
X53079805Y-57939878D01*
X56796878Y-57939878D01*
X58035902Y-57939878D01*
X59274926Y-57939878D01*
X62992000Y-57939878D01*
X62992000Y-58559391D01*
X62992000Y-59178903D01*
X64850536Y-59178903D01*
X66709073Y-59178903D01*
X66709073Y-59798415D01*
X66709073Y-60417927D01*
X67948097Y-60417927D01*
X69187122Y-60417927D01*
X69187122Y-59798415D01*
X69187122Y-59178903D01*
X69806634Y-59178903D01*
X70426146Y-59178903D01*
X70426146Y-58559391D01*
X70426146Y-57939878D01*
X68567609Y-57939878D01*
X66709073Y-57939878D01*
X66709073Y-57320366D01*
X66709073Y-56700854D01*
X65470048Y-56700854D01*
X64231024Y-56700854D01*
X64231024Y-57320366D01*
X64231024Y-57939878D01*
X63611512Y-57939878D01*
X62992000Y-57939878D01*
X59274926Y-57939878D01*
X59274926Y-57320366D01*
X59274926Y-56700854D01*
X58035902Y-56700854D01*
X56796878Y-56700854D01*
X56796878Y-57320366D01*
X56796878Y-57939878D01*
X53079805Y-57939878D01*
X53079805Y-57320366D01*
X53079805Y-54222805D01*
X62992000Y-54222805D01*
X72904195Y-54222805D01*
X72904195Y-64135000D01*
G37*
%TD*%
M02*
