%TF.GenerationSoftware,KiCad,Pcbnew,9.0.6-9.0.6~ubuntu22.04.1*%
%TF.CreationDate,2025-11-18T18:37:08-06:00*%
%TF.ProjectId,BattBreakout,42617474-4272-4656-916b-6f75742e6b69,rev?*%
%TF.SameCoordinates,Original*%
%TF.FileFunction,Paste,Top*%
%TF.FilePolarity,Positive*%
%FSLAX46Y46*%
G04 Gerber Fmt 4.6, Leading zero omitted, Abs format (unit mm)*
G04 Created by KiCad (PCBNEW 9.0.6-9.0.6~ubuntu22.04.1) date 2025-11-18 18:37:08*
%MOMM*%
%LPD*%
G01*
G04 APERTURE LIST*
G04 Aperture macros list*
%AMRoundRect*
0 Rectangle with rounded corners*
0 $1 Rounding radius*
0 $2 $3 $4 $5 $6 $7 $8 $9 X,Y pos of 4 corners*
0 Add a 4 corners polygon primitive as box body*
4,1,4,$2,$3,$4,$5,$6,$7,$8,$9,$2,$3,0*
0 Add four circle primitives for the rounded corners*
1,1,$1+$1,$2,$3*
1,1,$1+$1,$4,$5*
1,1,$1+$1,$6,$7*
1,1,$1+$1,$8,$9*
0 Add four rect primitives between the rounded corners*
20,1,$1+$1,$2,$3,$4,$5,0*
20,1,$1+$1,$4,$5,$6,$7,0*
20,1,$1+$1,$6,$7,$8,$9,0*
20,1,$1+$1,$8,$9,$2,$3,0*%
G04 Aperture macros list end*
%ADD10RoundRect,0.200000X-2.100000X-0.200000X2.100000X-0.200000X2.100000X0.200000X-2.100000X0.200000X0*%
%ADD11RoundRect,0.250000X-2.025000X-2.375000X2.025000X-2.375000X2.025000X2.375000X-2.025000X2.375000X0*%
%ADD12RoundRect,0.237500X-0.300000X-0.237500X0.300000X-0.237500X0.300000X0.237500X-0.300000X0.237500X0*%
%ADD13RoundRect,0.237500X0.237500X-0.250000X0.237500X0.250000X-0.237500X0.250000X-0.237500X-0.250000X0*%
%ADD14RoundRect,0.073750X-0.221250X0.651250X-0.221250X-0.651250X0.221250X-0.651250X0.221250X0.651250X0*%
%ADD15RoundRect,0.237500X0.237500X-0.300000X0.237500X0.300000X-0.237500X0.300000X-0.237500X-0.300000X0*%
%ADD16RoundRect,0.250000X-1.000000X-0.900000X1.000000X-0.900000X1.000000X0.900000X-1.000000X0.900000X0*%
%ADD17RoundRect,0.250000X1.000000X0.650000X-1.000000X0.650000X-1.000000X-0.650000X1.000000X-0.650000X0*%
%ADD18RoundRect,0.250000X-1.000000X-0.650000X1.000000X-0.650000X1.000000X0.650000X-1.000000X0.650000X0*%
%ADD19RoundRect,0.237500X-0.250000X-0.237500X0.250000X-0.237500X0.250000X0.237500X-0.250000X0.237500X0*%
%ADD20RoundRect,0.250000X0.900000X-1.000000X0.900000X1.000000X-0.900000X1.000000X-0.900000X-1.000000X0*%
G04 APERTURE END LIST*
D10*
%TO.C,Q9*%
X56927400Y-74930000D03*
X56927400Y-73660000D03*
X56927400Y-72390000D03*
X56927400Y-69850000D03*
X56927400Y-68580000D03*
X56927400Y-67310000D03*
D11*
X68502400Y-73895000D03*
X68502400Y-68345000D03*
X63652400Y-73895000D03*
X63652400Y-68345000D03*
%TD*%
D12*
%TO.C,C11*%
X59208500Y-41656000D03*
X60933500Y-41656000D03*
%TD*%
D13*
%TO.C,R39*%
X65405000Y-44727500D03*
X65405000Y-42902500D03*
%TD*%
D12*
%TO.C,C10*%
X63526500Y-82423000D03*
X65251500Y-82423000D03*
%TD*%
%TO.C,C5*%
X59208500Y-88011000D03*
X60933500Y-88011000D03*
%TD*%
D14*
%TO.C,U3*%
X61021000Y-82506500D03*
X60071000Y-82506500D03*
X59121000Y-82506500D03*
X59121000Y-84816500D03*
X60071000Y-84816500D03*
X61021000Y-84816500D03*
%TD*%
D15*
%TO.C,C12*%
X63627000Y-44677500D03*
X63627000Y-42952500D03*
%TD*%
D16*
%TO.C,D5*%
X68081000Y-83185000D03*
X72381000Y-83185000D03*
%TD*%
D17*
%TO.C,D13*%
X69310000Y-50673000D03*
X65310000Y-50673000D03*
%TD*%
D18*
%TO.C,D4*%
X58071000Y-50673000D03*
X62071000Y-50673000D03*
%TD*%
D14*
%TO.C,U2*%
X61021000Y-44692000D03*
X60071000Y-44692000D03*
X59121000Y-44692000D03*
X59121000Y-47002000D03*
X60071000Y-47002000D03*
X61021000Y-47002000D03*
%TD*%
D18*
%TO.C,D2*%
X58071000Y-78867000D03*
X62071000Y-78867000D03*
%TD*%
D17*
%TO.C,D3*%
X69310000Y-78867000D03*
X65310000Y-78867000D03*
%TD*%
D19*
%TO.C,R2*%
X63476500Y-84074000D03*
X65301500Y-84074000D03*
%TD*%
D20*
%TO.C,D14*%
X70866000Y-46727000D03*
X70866000Y-42427000D03*
%TD*%
D11*
%TO.C,Q4*%
X63434000Y-55645000D03*
X63434000Y-61195000D03*
X68284000Y-55645000D03*
X68284000Y-61195000D03*
D10*
X56709000Y-54610000D03*
X56709000Y-55880000D03*
X56709000Y-57150000D03*
X56709000Y-59690000D03*
X56709000Y-60960000D03*
X56709000Y-62230000D03*
%TD*%
M02*
