%TF.GenerationSoftware,KiCad,Pcbnew,9.0.6-9.0.6~ubuntu22.04.1*%
%TF.CreationDate,2025-11-18T18:37:08-06:00*%
%TF.ProjectId,BattBreakout,42617474-4272-4656-916b-6f75742e6b69,rev?*%
%TF.SameCoordinates,Original*%
%TF.FileFunction,Copper,L1,Top*%
%TF.FilePolarity,Positive*%
%FSLAX46Y46*%
G04 Gerber Fmt 4.6, Leading zero omitted, Abs format (unit mm)*
G04 Created by KiCad (PCBNEW 9.0.6-9.0.6~ubuntu22.04.1) date 2025-11-18 18:37:08*
%MOMM*%
%LPD*%
G01*
G04 APERTURE LIST*
G04 Aperture macros list*
%AMRoundRect*
0 Rectangle with rounded corners*
0 $1 Rounding radius*
0 $2 $3 $4 $5 $6 $7 $8 $9 X,Y pos of 4 corners*
0 Add a 4 corners polygon primitive as box body*
4,1,4,$2,$3,$4,$5,$6,$7,$8,$9,$2,$3,0*
0 Add four circle primitives for the rounded corners*
1,1,$1+$1,$2,$3*
1,1,$1+$1,$4,$5*
1,1,$1+$1,$6,$7*
1,1,$1+$1,$8,$9*
0 Add four rect primitives between the rounded corners*
20,1,$1+$1,$2,$3,$4,$5,0*
20,1,$1+$1,$4,$5,$6,$7,0*
20,1,$1+$1,$6,$7,$8,$9,0*
20,1,$1+$1,$8,$9,$2,$3,0*%
G04 Aperture macros list end*
%TA.AperFunction,SMDPad,CuDef*%
%ADD10RoundRect,0.200000X-2.100000X-0.200000X2.100000X-0.200000X2.100000X0.200000X-2.100000X0.200000X0*%
%TD*%
%TA.AperFunction,SMDPad,CuDef*%
%ADD11RoundRect,0.250002X-4.449998X-5.149998X4.449998X-5.149998X4.449998X5.149998X-4.449998X5.149998X0*%
%TD*%
%TA.AperFunction,SMDPad,CuDef*%
%ADD12RoundRect,0.237500X-0.300000X-0.237500X0.300000X-0.237500X0.300000X0.237500X-0.300000X0.237500X0*%
%TD*%
%TA.AperFunction,SMDPad,CuDef*%
%ADD13RoundRect,0.237500X0.237500X-0.250000X0.237500X0.250000X-0.237500X0.250000X-0.237500X-0.250000X0*%
%TD*%
%TA.AperFunction,ComponentPad*%
%ADD14C,18.288000*%
%TD*%
%TA.AperFunction,SMDPad,CuDef*%
%ADD15RoundRect,0.073750X-0.221250X0.651250X-0.221250X-0.651250X0.221250X-0.651250X0.221250X0.651250X0*%
%TD*%
%TA.AperFunction,SMDPad,CuDef*%
%ADD16RoundRect,0.237500X0.237500X-0.300000X0.237500X0.300000X-0.237500X0.300000X-0.237500X-0.300000X0*%
%TD*%
%TA.AperFunction,SMDPad,CuDef*%
%ADD17RoundRect,0.250000X-1.000000X-0.900000X1.000000X-0.900000X1.000000X0.900000X-1.000000X0.900000X0*%
%TD*%
%TA.AperFunction,SMDPad,CuDef*%
%ADD18RoundRect,0.250000X1.000000X0.650000X-1.000000X0.650000X-1.000000X-0.650000X1.000000X-0.650000X0*%
%TD*%
%TA.AperFunction,SMDPad,CuDef*%
%ADD19RoundRect,0.250000X-1.000000X-0.650000X1.000000X-0.650000X1.000000X0.650000X-1.000000X0.650000X0*%
%TD*%
%TA.AperFunction,SMDPad,CuDef*%
%ADD20RoundRect,0.237500X-0.250000X-0.237500X0.250000X-0.237500X0.250000X0.237500X-0.250000X0.237500X0*%
%TD*%
%TA.AperFunction,SMDPad,CuDef*%
%ADD21RoundRect,0.250000X0.900000X-1.000000X0.900000X1.000000X-0.900000X1.000000X-0.900000X-1.000000X0*%
%TD*%
%TA.AperFunction,ViaPad*%
%ADD22C,0.600000*%
%TD*%
%TA.AperFunction,Conductor*%
%ADD23C,0.254000*%
%TD*%
G04 APERTURE END LIST*
D10*
%TO.P,Q9,7,S*%
%TO.N,/Batt2*%
X56927400Y-74930000D03*
%TO.P,Q9,6,S*%
X56927400Y-73660000D03*
%TO.P,Q9,5,S*%
X56927400Y-72390000D03*
D11*
%TO.P,Q9,4,D*%
%TO.N,+24V*%
X66077400Y-71120000D03*
D10*
%TO.P,Q9,3,S*%
%TO.N,/Batt2*%
X56927400Y-69850000D03*
%TO.P,Q9,2,S*%
X56927400Y-68580000D03*
%TO.P,Q9,1,G*%
%TO.N,Net-(Q9-G)*%
X56927400Y-67310000D03*
%TD*%
D12*
%TO.P,C11,1*%
%TO.N,/Batt1*%
X59208500Y-41656000D03*
%TO.P,C11,2*%
%TO.N,GND*%
X60933500Y-41656000D03*
%TD*%
D13*
%TO.P,R39,1*%
%TO.N,Net-(U2-VS)*%
X65405000Y-44727500D03*
%TO.P,R39,2*%
%TO.N,+24V*%
X65405000Y-42902500D03*
%TD*%
D12*
%TO.P,C10,1*%
%TO.N,Net-(U3-VS)*%
X63526500Y-82423000D03*
%TO.P,C10,2*%
%TO.N,Net-(D2-A)*%
X65251500Y-82423000D03*
%TD*%
D14*
%TO.P,V1,1,1*%
%TO.N,/Batt1*%
X43180000Y-52070000D03*
%TD*%
D12*
%TO.P,C5,1*%
%TO.N,/Batt2*%
X59208500Y-88011000D03*
%TO.P,C5,2*%
%TO.N,GND*%
X60933500Y-88011000D03*
%TD*%
D15*
%TO.P,U3,1,VS*%
%TO.N,Net-(U3-VS)*%
X61021000Y-82506500D03*
%TO.P,U3,2,GND*%
%TO.N,Net-(D2-A)*%
X60071000Y-82506500D03*
%TO.P,U3,3,OFF*%
X59121000Y-82506500D03*
%TO.P,U3,4,IN*%
%TO.N,/Batt2*%
X59121000Y-84816500D03*
%TO.P,U3,5,GATE*%
%TO.N,Net-(Q9-G)*%
X60071000Y-84816500D03*
%TO.P,U3,6,OUT*%
%TO.N,+24V*%
X61021000Y-84816500D03*
%TD*%
D14*
%TO.P,V2,1,1*%
%TO.N,GND*%
X82296000Y-75565000D03*
%TD*%
D16*
%TO.P,C12,1*%
%TO.N,Net-(U2-VS)*%
X63627000Y-44677500D03*
%TO.P,C12,2*%
%TO.N,Net-(D13-A)*%
X63627000Y-42952500D03*
%TD*%
D17*
%TO.P,D5,1,K*%
%TO.N,+24V*%
X68081000Y-83185000D03*
%TO.P,D5,2,A*%
%TO.N,GND*%
X72381000Y-83185000D03*
%TD*%
D18*
%TO.P,D13,1,K*%
%TO.N,GND*%
X69310000Y-50673000D03*
%TO.P,D13,2,A*%
%TO.N,Net-(D13-A)*%
X65310000Y-50673000D03*
%TD*%
D19*
%TO.P,D4,1,K*%
%TO.N,/Batt1*%
X58071000Y-50673000D03*
%TO.P,D4,2,A*%
%TO.N,Net-(D13-A)*%
X62071000Y-50673000D03*
%TD*%
D14*
%TO.P,V4,1,1*%
%TO.N,+24V*%
X82550000Y-52070000D03*
%TD*%
%TO.P,V3,1,1*%
%TO.N,/Batt2*%
X43180000Y-77470000D03*
%TD*%
D15*
%TO.P,U2,1,VS*%
%TO.N,Net-(U2-VS)*%
X61021000Y-44692000D03*
%TO.P,U2,2,GND*%
%TO.N,Net-(D13-A)*%
X60071000Y-44692000D03*
%TO.P,U2,3,OFF*%
X59121000Y-44692000D03*
%TO.P,U2,4,IN*%
%TO.N,/Batt1*%
X59121000Y-47002000D03*
%TO.P,U2,5,GATE*%
%TO.N,Net-(Q4-G)*%
X60071000Y-47002000D03*
%TO.P,U2,6,OUT*%
%TO.N,+24V*%
X61021000Y-47002000D03*
%TD*%
D19*
%TO.P,D2,1,K*%
%TO.N,/Batt2*%
X58071000Y-78867000D03*
%TO.P,D2,2,A*%
%TO.N,Net-(D2-A)*%
X62071000Y-78867000D03*
%TD*%
D18*
%TO.P,D3,1,K*%
%TO.N,GND*%
X69310000Y-78867000D03*
%TO.P,D3,2,A*%
%TO.N,Net-(D2-A)*%
X65310000Y-78867000D03*
%TD*%
D20*
%TO.P,R2,1*%
%TO.N,Net-(U3-VS)*%
X63476500Y-84074000D03*
%TO.P,R2,2*%
%TO.N,+24V*%
X65301500Y-84074000D03*
%TD*%
D21*
%TO.P,D14,1,K*%
%TO.N,+24V*%
X70866000Y-46727000D03*
%TO.P,D14,2,A*%
%TO.N,GND*%
X70866000Y-42427000D03*
%TD*%
D10*
%TO.P,Q4,1,G*%
%TO.N,Net-(Q4-G)*%
X56709000Y-54610000D03*
%TO.P,Q4,2,S*%
%TO.N,/Batt1*%
X56709000Y-55880000D03*
%TO.P,Q4,3,S*%
X56709000Y-57150000D03*
D11*
%TO.P,Q4,4,D*%
%TO.N,+24V*%
X65859000Y-58420000D03*
D10*
%TO.P,Q4,5,S*%
%TO.N,/Batt1*%
X56709000Y-59690000D03*
%TO.P,Q4,6,S*%
X56709000Y-60960000D03*
%TO.P,Q4,7,S*%
X56709000Y-62230000D03*
%TD*%
D22*
%TO.N,GND*%
X60933500Y-41656000D03*
X69310000Y-78867000D03*
X72381000Y-83185000D03*
X70866000Y-42427000D03*
X60933500Y-88011000D03*
X69310000Y-50673000D03*
%TO.N,Net-(D13-A)*%
X67564000Y-42672000D03*
X67564000Y-47498000D03*
%TO.N,Net-(Q9-G)*%
X60071000Y-84816500D03*
X60325000Y-80518000D03*
%TD*%
D23*
%TO.N,Net-(D2-A)*%
X65310000Y-79470000D02*
X63881000Y-80899000D01*
X65310000Y-78867000D02*
X65310000Y-79470000D01*
X60071000Y-81781500D02*
X60953500Y-80899000D01*
X60953500Y-80899000D02*
X61468000Y-80899000D01*
X65251500Y-81687500D02*
X65251500Y-82423000D01*
X61468000Y-80899000D02*
X63881000Y-80899000D01*
X63881000Y-80899000D02*
X64463000Y-80899000D01*
X59121000Y-82506500D02*
X60071000Y-82506500D01*
X62071000Y-78867000D02*
X62071000Y-80296000D01*
X60071000Y-82506500D02*
X60071000Y-81781500D01*
X62071000Y-80296000D02*
X61468000Y-80899000D01*
X64463000Y-80899000D02*
X65251500Y-81687500D01*
%TO.N,Net-(U3-VS)*%
X61774250Y-83259750D02*
X62588500Y-84074000D01*
X62588500Y-84074000D02*
X63476500Y-84074000D01*
X62689750Y-83259750D02*
X63526500Y-82423000D01*
X61021000Y-82506500D02*
X61774250Y-83259750D01*
X61774250Y-83259750D02*
X62689750Y-83259750D01*
%TO.N,Net-(D13-A)*%
X61849000Y-42952500D02*
X63627000Y-42952500D01*
X61085500Y-42952500D02*
X61849000Y-42952500D01*
X59409500Y-42952500D02*
X61085500Y-42952500D01*
X60071000Y-44692000D02*
X60071000Y-43967000D01*
X66675000Y-41783000D02*
X62510500Y-41783000D01*
X62510500Y-41783000D02*
X61341000Y-42952500D01*
X66548000Y-48514000D02*
X65310000Y-49752000D01*
X66548000Y-48514000D02*
X67564000Y-47498000D01*
X65310000Y-49752000D02*
X65310000Y-50673000D01*
X59121000Y-44692000D02*
X59121000Y-43241000D01*
X59121000Y-43241000D02*
X59409500Y-42952500D01*
X62071000Y-49435000D02*
X62992000Y-48514000D01*
X62992000Y-48514000D02*
X66548000Y-48514000D01*
X62071000Y-50673000D02*
X62071000Y-49435000D01*
X60071000Y-43967000D02*
X61085500Y-42952500D01*
X67564000Y-42672000D02*
X66675000Y-41783000D01*
%TO.N,Net-(U2-VS)*%
X63627000Y-44677500D02*
X62103000Y-44677500D01*
X61035500Y-44677500D02*
X61021000Y-44692000D01*
X61722000Y-44677500D02*
X61772250Y-44677500D01*
X62103000Y-44677500D02*
X61035500Y-44677500D01*
X63068750Y-45974000D02*
X64516000Y-45974000D01*
X64516000Y-45974000D02*
X65405000Y-45085000D01*
X65405000Y-45085000D02*
X65405000Y-44727500D01*
X61772250Y-44677500D02*
X63068750Y-45974000D01*
%TO.N,Net-(Q4-G)*%
X60071000Y-47002000D02*
X60071000Y-52357500D01*
X60071000Y-52357500D02*
X57818500Y-54610000D01*
X57818500Y-54610000D02*
X56709000Y-54610000D01*
%TO.N,Net-(Q9-G)*%
X60325000Y-80518000D02*
X59944000Y-80137000D01*
X59227400Y-67310000D02*
X56927400Y-67310000D01*
X59944000Y-80137000D02*
X59944000Y-68026600D01*
X59944000Y-68026600D02*
X59227400Y-67310000D01*
%TD*%
%TA.AperFunction,Conductor*%
%TO.N,+24V*%
G36*
X95993717Y-39389685D02*
G01*
X96009949Y-39402121D01*
X96256148Y-39625262D01*
X96264737Y-39633851D01*
X96373510Y-39753863D01*
X96487878Y-39880049D01*
X96518314Y-39942941D01*
X96520000Y-39963322D01*
X96520000Y-62890923D01*
X96500315Y-62957962D01*
X96447511Y-63003717D01*
X96378353Y-63013661D01*
X96314797Y-62984636D01*
X96286642Y-62949376D01*
X96122472Y-62642237D01*
X96122471Y-62642235D01*
X96122466Y-62642226D01*
X95905555Y-62317595D01*
X95657868Y-62015788D01*
X95657867Y-62015787D01*
X95657863Y-62015782D01*
X95381797Y-61739716D01*
X95079990Y-61492029D01*
X95079989Y-61492028D01*
X95079985Y-61492025D01*
X94755354Y-61275114D01*
X94755349Y-61275111D01*
X94755342Y-61275107D01*
X94411032Y-61091069D01*
X94411027Y-61091067D01*
X94050319Y-60941655D01*
X93676685Y-60828315D01*
X93676674Y-60828312D01*
X93293765Y-60752148D01*
X93001126Y-60723326D01*
X92905215Y-60713880D01*
X92514785Y-60713880D01*
X92426165Y-60722608D01*
X92126234Y-60752148D01*
X91743325Y-60828312D01*
X91743314Y-60828315D01*
X91369680Y-60941655D01*
X91008972Y-61091067D01*
X91008967Y-61091069D01*
X90664657Y-61275107D01*
X90664639Y-61275118D01*
X90340023Y-61492019D01*
X90340009Y-61492029D01*
X90038202Y-61739716D01*
X89762136Y-62015782D01*
X89514449Y-62317589D01*
X89514439Y-62317603D01*
X89297538Y-62642219D01*
X89297527Y-62642237D01*
X89113489Y-62986547D01*
X89113487Y-62986552D01*
X88964075Y-63347260D01*
X88850735Y-63720894D01*
X88850732Y-63720905D01*
X88774568Y-64103814D01*
X88736300Y-64492368D01*
X88736300Y-64882791D01*
X88774568Y-65271345D01*
X88850732Y-65654254D01*
X88850735Y-65654265D01*
X88964075Y-66027899D01*
X89113487Y-66388607D01*
X89113489Y-66388612D01*
X89297527Y-66732922D01*
X89297538Y-66732940D01*
X89514439Y-67057556D01*
X89514449Y-67057570D01*
X89762136Y-67359377D01*
X90038202Y-67635443D01*
X90038207Y-67635447D01*
X90038208Y-67635448D01*
X90340015Y-67883135D01*
X90664646Y-68100046D01*
X90664655Y-68100051D01*
X90664657Y-68100052D01*
X91008967Y-68284090D01*
X91008969Y-68284090D01*
X91008975Y-68284094D01*
X91228812Y-68375154D01*
X91369680Y-68433504D01*
X91369684Y-68433505D01*
X91369686Y-68433506D01*
X91743305Y-68546842D01*
X91743311Y-68546843D01*
X91743314Y-68546844D01*
X91743325Y-68546847D01*
X92126234Y-68623011D01*
X92514785Y-68661280D01*
X92514788Y-68661280D01*
X92905212Y-68661280D01*
X92905215Y-68661280D01*
X93293766Y-68623011D01*
X93368307Y-68608183D01*
X93676674Y-68546847D01*
X93676685Y-68546844D01*
X93676685Y-68546843D01*
X93676695Y-68546842D01*
X94050314Y-68433506D01*
X94411025Y-68284094D01*
X94755354Y-68100046D01*
X95079985Y-67883135D01*
X95381792Y-67635448D01*
X95657868Y-67359372D01*
X95905555Y-67057565D01*
X96122466Y-66732934D01*
X96286642Y-66425783D01*
X96335604Y-66375938D01*
X96403742Y-66360478D01*
X96469422Y-66384310D01*
X96511790Y-66439867D01*
X96520000Y-66484236D01*
X96520000Y-88306677D01*
X96500315Y-88373716D01*
X96487878Y-88389950D01*
X96264745Y-88636140D01*
X96256140Y-88644745D01*
X96183146Y-88710903D01*
X96040955Y-88839778D01*
X96009951Y-88867878D01*
X95947059Y-88898314D01*
X95926678Y-88900000D01*
X61920921Y-88900000D01*
X61853882Y-88880315D01*
X61808127Y-88827511D01*
X61798183Y-88758353D01*
X61815382Y-88710903D01*
X61816340Y-88709350D01*
X61906908Y-88562516D01*
X61961174Y-88398753D01*
X61971500Y-88297677D01*
X61971499Y-87724324D01*
X61961174Y-87623247D01*
X61906908Y-87459484D01*
X61816340Y-87312650D01*
X61694350Y-87190660D01*
X61547516Y-87100092D01*
X61383753Y-87045826D01*
X61383751Y-87045825D01*
X61282678Y-87035500D01*
X60584326Y-87035500D01*
X60582303Y-87035604D01*
X60581872Y-87035500D01*
X60581167Y-87035501D01*
X60581167Y-87035332D01*
X60514350Y-87019352D01*
X60465970Y-86968943D01*
X60452000Y-86911764D01*
X60452000Y-86105996D01*
X60471685Y-86038957D01*
X60524489Y-85993202D01*
X60528493Y-85991458D01*
X60581853Y-85969356D01*
X60701810Y-85877310D01*
X60793856Y-85757353D01*
X60851719Y-85617659D01*
X60866500Y-85505387D01*
X60866499Y-84920480D01*
X60871500Y-84895342D01*
X60871500Y-84737658D01*
X60866499Y-84712518D01*
X60866499Y-84127614D01*
X60851719Y-84015341D01*
X60805372Y-83903451D01*
X60797904Y-83833982D01*
X60829179Y-83771503D01*
X60889268Y-83735851D01*
X60919928Y-83731999D01*
X61279886Y-83731999D01*
X61279887Y-83731999D01*
X61282520Y-83731652D01*
X61289235Y-83730768D01*
X61358270Y-83741530D01*
X61393106Y-83766025D01*
X62188488Y-84561408D01*
X62188492Y-84561411D01*
X62291260Y-84630079D01*
X62291273Y-84630086D01*
X62405460Y-84677383D01*
X62405465Y-84677385D01*
X62405469Y-84677385D01*
X62405470Y-84677386D01*
X62526693Y-84701500D01*
X62526696Y-84701500D01*
X62526697Y-84701500D01*
X62530753Y-84701500D01*
X62597792Y-84721185D01*
X62636290Y-84760402D01*
X62643660Y-84772350D01*
X62765650Y-84894340D01*
X62912484Y-84984908D01*
X63076247Y-85039174D01*
X63177323Y-85049500D01*
X63775676Y-85049499D01*
X63775684Y-85049498D01*
X63775687Y-85049498D01*
X63831030Y-85043844D01*
X63876753Y-85039174D01*
X64040516Y-84984908D01*
X64187350Y-84894340D01*
X64309340Y-84772350D01*
X64399908Y-84625516D01*
X64454174Y-84461753D01*
X64464500Y-84360677D01*
X64464499Y-83787324D01*
X64457906Y-83722786D01*
X64454174Y-83686247D01*
X64399908Y-83522484D01*
X64340939Y-83426881D01*
X64322500Y-83359489D01*
X64343423Y-83292826D01*
X64397065Y-83248056D01*
X64466396Y-83239395D01*
X64511576Y-83256247D01*
X64637475Y-83333903D01*
X64637478Y-83333904D01*
X64637484Y-83333908D01*
X64801247Y-83388174D01*
X64902323Y-83398500D01*
X65600676Y-83398499D01*
X65600684Y-83398498D01*
X65600687Y-83398498D01*
X65656030Y-83392844D01*
X65701753Y-83388174D01*
X65865516Y-83333908D01*
X66012350Y-83243340D01*
X66134340Y-83121350D01*
X66224908Y-82974516D01*
X66279174Y-82810753D01*
X66289500Y-82709677D01*
X66289499Y-82234983D01*
X70630500Y-82234983D01*
X70630500Y-84135001D01*
X70630501Y-84135018D01*
X70641000Y-84237796D01*
X70641001Y-84237799D01*
X70641802Y-84240215D01*
X70696186Y-84404334D01*
X70788288Y-84553656D01*
X70912344Y-84677712D01*
X71061666Y-84769814D01*
X71228203Y-84824999D01*
X71330991Y-84835500D01*
X73431008Y-84835499D01*
X73533797Y-84824999D01*
X73700334Y-84769814D01*
X73849656Y-84677712D01*
X73973712Y-84553656D01*
X74065814Y-84404334D01*
X74120999Y-84237797D01*
X74131500Y-84135009D01*
X74131499Y-82234992D01*
X74120999Y-82132203D01*
X74065814Y-81965666D01*
X73973712Y-81816344D01*
X73849656Y-81692288D01*
X73756888Y-81635069D01*
X73700336Y-81600187D01*
X73700331Y-81600185D01*
X73696722Y-81598989D01*
X73533797Y-81545001D01*
X73533795Y-81545000D01*
X73431010Y-81534500D01*
X71330998Y-81534500D01*
X71330981Y-81534501D01*
X71228203Y-81545000D01*
X71228200Y-81545001D01*
X71061668Y-81600185D01*
X71061663Y-81600187D01*
X70912342Y-81692289D01*
X70788289Y-81816342D01*
X70696187Y-81965663D01*
X70696186Y-81965666D01*
X70641001Y-82132203D01*
X70641001Y-82132204D01*
X70641000Y-82132204D01*
X70630500Y-82234983D01*
X66289499Y-82234983D01*
X66289499Y-82136324D01*
X66279174Y-82035247D01*
X66224908Y-81871484D01*
X66134340Y-81724650D01*
X66012350Y-81602660D01*
X66012346Y-81602657D01*
X65889602Y-81526947D01*
X65842877Y-81474999D01*
X65840138Y-81468861D01*
X65807586Y-81390273D01*
X65807579Y-81390260D01*
X65738911Y-81287492D01*
X65738908Y-81287488D01*
X65147099Y-80695680D01*
X65113614Y-80634357D01*
X65118598Y-80564666D01*
X65147095Y-80520322D01*
X65363600Y-80303817D01*
X65424923Y-80270333D01*
X65451281Y-80267499D01*
X66360002Y-80267499D01*
X66360008Y-80267499D01*
X66462797Y-80256999D01*
X66629334Y-80201814D01*
X66778656Y-80109712D01*
X66902712Y-79985656D01*
X66994814Y-79836334D01*
X67049999Y-79669797D01*
X67060500Y-79567009D01*
X67060499Y-78166992D01*
X67060498Y-78166983D01*
X67559500Y-78166983D01*
X67559500Y-79567001D01*
X67559501Y-79567018D01*
X67570000Y-79669796D01*
X67570001Y-79669799D01*
X67609492Y-79788972D01*
X67625186Y-79836334D01*
X67717288Y-79985656D01*
X67841344Y-80109712D01*
X67990666Y-80201814D01*
X68157203Y-80256999D01*
X68259991Y-80267500D01*
X70360008Y-80267499D01*
X70462797Y-80256999D01*
X70629334Y-80201814D01*
X70778656Y-80109712D01*
X70902712Y-79985656D01*
X70994814Y-79836334D01*
X71049999Y-79669797D01*
X71060500Y-79567009D01*
X71060499Y-78166992D01*
X71049999Y-78064203D01*
X70994814Y-77897666D01*
X70902712Y-77748344D01*
X70778656Y-77624288D01*
X70633018Y-77534458D01*
X70629336Y-77532187D01*
X70629331Y-77532185D01*
X70580195Y-77515903D01*
X70462797Y-77477001D01*
X70462795Y-77477000D01*
X70360010Y-77466500D01*
X68259998Y-77466500D01*
X68259981Y-77466501D01*
X68157203Y-77477000D01*
X68157200Y-77477001D01*
X67990668Y-77532185D01*
X67990663Y-77532187D01*
X67841342Y-77624289D01*
X67717289Y-77748342D01*
X67625187Y-77897663D01*
X67625186Y-77897666D01*
X67570001Y-78064203D01*
X67570001Y-78064204D01*
X67570000Y-78064204D01*
X67559500Y-78166983D01*
X67060498Y-78166983D01*
X67049999Y-78064203D01*
X66994814Y-77897666D01*
X66902712Y-77748344D01*
X66778656Y-77624288D01*
X66633018Y-77534458D01*
X66629336Y-77532187D01*
X66629331Y-77532185D01*
X66580195Y-77515903D01*
X66462797Y-77477001D01*
X66462795Y-77477000D01*
X66360010Y-77466500D01*
X64259998Y-77466500D01*
X64259981Y-77466501D01*
X64157203Y-77477000D01*
X64157200Y-77477001D01*
X63990668Y-77532185D01*
X63990663Y-77532187D01*
X63841342Y-77624289D01*
X63778181Y-77687451D01*
X63716858Y-77720936D01*
X63647166Y-77715952D01*
X63602819Y-77687451D01*
X63539657Y-77624289D01*
X63539656Y-77624288D01*
X63394018Y-77534458D01*
X63390336Y-77532187D01*
X63390331Y-77532185D01*
X63341195Y-77515903D01*
X63223797Y-77477001D01*
X63223795Y-77477000D01*
X63121010Y-77466500D01*
X61020998Y-77466500D01*
X61020981Y-77466501D01*
X60918203Y-77477000D01*
X60918200Y-77477001D01*
X60751659Y-77532188D01*
X60747894Y-77533944D01*
X60745067Y-77534373D01*
X60744811Y-77534458D01*
X60744796Y-77534414D01*
X60678815Y-77544429D01*
X60615034Y-77515903D01*
X60576800Y-77457423D01*
X60571500Y-77421557D01*
X60571500Y-75273565D01*
X72651500Y-75273565D01*
X72651500Y-75856434D01*
X72686691Y-76438215D01*
X72756946Y-77016809D01*
X72862009Y-77590123D01*
X73001493Y-78156037D01*
X73001495Y-78156043D01*
X73174893Y-78712495D01*
X73381572Y-79257464D01*
X73567147Y-79669796D01*
X73620787Y-79788978D01*
X73871934Y-80267499D01*
X73891657Y-80305077D01*
X74193177Y-80803852D01*
X74193193Y-80803877D01*
X74524279Y-81283537D01*
X74883730Y-81742344D01*
X74883731Y-81742345D01*
X75270229Y-82178611D01*
X75270263Y-82178647D01*
X75682352Y-82590736D01*
X75682388Y-82590770D01*
X76118654Y-82977268D01*
X76118655Y-82977269D01*
X76577462Y-83336720D01*
X76666966Y-83398500D01*
X77057138Y-83667817D01*
X77555932Y-83969348D01*
X78072022Y-84240213D01*
X78603525Y-84479423D01*
X78603532Y-84479425D01*
X78603535Y-84479427D01*
X78799261Y-84553656D01*
X79148501Y-84686105D01*
X79704962Y-84859506D01*
X80270878Y-84998991D01*
X80844183Y-85104053D01*
X81350459Y-85165526D01*
X81422784Y-85174308D01*
X81490973Y-85178432D01*
X82004574Y-85209500D01*
X82004587Y-85209500D01*
X82587413Y-85209500D01*
X82587426Y-85209500D01*
X83169215Y-85174308D01*
X83747817Y-85104053D01*
X84321122Y-84998991D01*
X84887038Y-84859506D01*
X85443499Y-84686105D01*
X85988475Y-84479423D01*
X86519978Y-84240213D01*
X87036068Y-83969348D01*
X87534862Y-83667817D01*
X88014539Y-83336719D01*
X88289436Y-83121351D01*
X88473344Y-82977269D01*
X88473345Y-82977268D01*
X88476449Y-82974518D01*
X88909622Y-82590761D01*
X89321761Y-82178622D01*
X89708263Y-81742351D01*
X89708268Y-81742345D01*
X89708269Y-81742344D01*
X89917720Y-81474999D01*
X90067719Y-81283539D01*
X90398817Y-80803862D01*
X90700348Y-80305068D01*
X90971213Y-79788978D01*
X91210423Y-79257475D01*
X91417105Y-78712499D01*
X91590506Y-78156038D01*
X91729991Y-77590122D01*
X91835053Y-77016817D01*
X91905308Y-76438215D01*
X91940500Y-75856426D01*
X91940500Y-75273574D01*
X91905308Y-74691785D01*
X91835053Y-74113183D01*
X91729991Y-73539878D01*
X91590506Y-72973962D01*
X91417105Y-72417501D01*
X91210423Y-71872525D01*
X90971213Y-71341022D01*
X90700348Y-70824932D01*
X90398817Y-70326138D01*
X90067719Y-69846461D01*
X89708269Y-69387655D01*
X89708268Y-69387654D01*
X89321770Y-68951388D01*
X89321736Y-68951352D01*
X88909647Y-68539263D01*
X88909611Y-68539229D01*
X88473345Y-68152731D01*
X88473344Y-68152730D01*
X88014537Y-67793279D01*
X87534877Y-67462193D01*
X87534869Y-67462188D01*
X87534862Y-67462183D01*
X87364792Y-67359372D01*
X87036077Y-67160657D01*
X87036071Y-67160654D01*
X87036068Y-67160652D01*
X86519978Y-66889787D01*
X86519976Y-66889786D01*
X86519972Y-66889784D01*
X85988464Y-66650572D01*
X85443495Y-66443893D01*
X84887043Y-66270495D01*
X84887037Y-66270493D01*
X84321122Y-66131009D01*
X84321124Y-66131009D01*
X84068738Y-66084758D01*
X83747817Y-66025947D01*
X83747809Y-66025946D01*
X83169215Y-65955691D01*
X82587434Y-65920500D01*
X82587426Y-65920500D01*
X82004574Y-65920500D01*
X82004565Y-65920500D01*
X81422784Y-65955691D01*
X80844190Y-66025946D01*
X80844187Y-66025946D01*
X80844183Y-66025947D01*
X80594492Y-66071704D01*
X80270876Y-66131009D01*
X79704962Y-66270493D01*
X79704956Y-66270495D01*
X79148504Y-66443893D01*
X78603535Y-66650572D01*
X78072027Y-66889784D01*
X77555922Y-67160657D01*
X77057147Y-67462177D01*
X77057122Y-67462193D01*
X76577462Y-67793279D01*
X76118655Y-68152730D01*
X76118654Y-68152731D01*
X75682388Y-68539229D01*
X75682352Y-68539263D01*
X75270263Y-68951352D01*
X75270229Y-68951388D01*
X74883731Y-69387654D01*
X74883730Y-69387655D01*
X74524279Y-69846462D01*
X74193193Y-70326122D01*
X74193177Y-70326147D01*
X73891657Y-70824922D01*
X73620784Y-71341027D01*
X73381572Y-71872535D01*
X73174893Y-72417504D01*
X73001495Y-72973956D01*
X73001493Y-72973962D01*
X72862009Y-73539876D01*
X72756946Y-74113190D01*
X72686691Y-74691784D01*
X72651500Y-75273565D01*
X60571500Y-75273565D01*
X60571500Y-67964794D01*
X60547386Y-67843570D01*
X60547385Y-67843569D01*
X60547385Y-67843565D01*
X60500083Y-67729367D01*
X60472897Y-67688680D01*
X60452020Y-67622002D01*
X60452000Y-67619790D01*
X60452000Y-52915281D01*
X60471685Y-52848242D01*
X60488314Y-52827604D01*
X60558411Y-52757508D01*
X60627083Y-52654733D01*
X60674385Y-52540535D01*
X60698500Y-52419303D01*
X60698500Y-52161916D01*
X60718185Y-52094877D01*
X60770989Y-52049122D01*
X60840147Y-52039178D01*
X60861493Y-52044207D01*
X60918203Y-52062999D01*
X61020991Y-52073500D01*
X63121008Y-52073499D01*
X63223797Y-52062999D01*
X63390334Y-52007814D01*
X63539656Y-51915712D01*
X63602819Y-51852549D01*
X63664142Y-51819064D01*
X63733834Y-51824048D01*
X63778181Y-51852549D01*
X63841344Y-51915712D01*
X63990666Y-52007814D01*
X64157203Y-52062999D01*
X64259991Y-52073500D01*
X66360008Y-52073499D01*
X66462797Y-52062999D01*
X66629334Y-52007814D01*
X66778656Y-51915712D01*
X66902712Y-51791656D01*
X66994814Y-51642334D01*
X67049999Y-51475797D01*
X67060500Y-51373009D01*
X67060499Y-49972992D01*
X67060498Y-49972983D01*
X67559500Y-49972983D01*
X67559500Y-51373001D01*
X67559501Y-51373018D01*
X67570000Y-51475796D01*
X67570001Y-51475799D01*
X67625185Y-51642331D01*
X67625186Y-51642334D01*
X67717288Y-51791656D01*
X67841344Y-51915712D01*
X67990666Y-52007814D01*
X68157203Y-52062999D01*
X68259991Y-52073500D01*
X70360008Y-52073499D01*
X70462797Y-52062999D01*
X70629334Y-52007814D01*
X70778656Y-51915712D01*
X70902712Y-51791656D01*
X70994814Y-51642334D01*
X71049999Y-51475797D01*
X71060500Y-51373009D01*
X71060499Y-49972992D01*
X71049999Y-49870203D01*
X70994814Y-49703666D01*
X70902712Y-49554344D01*
X70778656Y-49430288D01*
X70654879Y-49353942D01*
X70629336Y-49338187D01*
X70629331Y-49338185D01*
X70571709Y-49319091D01*
X70462797Y-49283001D01*
X70462795Y-49283000D01*
X70360010Y-49272500D01*
X68259998Y-49272500D01*
X68259981Y-49272501D01*
X68157203Y-49283000D01*
X68157200Y-49283001D01*
X67990668Y-49338185D01*
X67990663Y-49338187D01*
X67841342Y-49430289D01*
X67717289Y-49554342D01*
X67625187Y-49703663D01*
X67625186Y-49703666D01*
X67570001Y-49870203D01*
X67570001Y-49870204D01*
X67570000Y-49870204D01*
X67559500Y-49972983D01*
X67060498Y-49972983D01*
X67049999Y-49870203D01*
X66994814Y-49703666D01*
X66902712Y-49554344D01*
X66778656Y-49430288D01*
X66778652Y-49430285D01*
X66751613Y-49413607D01*
X66704888Y-49361659D01*
X66693667Y-49292697D01*
X66721510Y-49228615D01*
X66729004Y-49220413D01*
X67035411Y-48914008D01*
X67626328Y-48323089D01*
X67687649Y-48289606D01*
X67689648Y-48289189D01*
X67797497Y-48267737D01*
X67943179Y-48207394D01*
X68074289Y-48119789D01*
X68185789Y-48008289D01*
X68273394Y-47877179D01*
X68333737Y-47731497D01*
X68364500Y-47576842D01*
X68364500Y-47419158D01*
X68364500Y-47419155D01*
X68364499Y-47419153D01*
X68333738Y-47264510D01*
X68333738Y-47264508D01*
X68333737Y-47264503D01*
X68333735Y-47264498D01*
X68273397Y-47118827D01*
X68273390Y-47118814D01*
X68185789Y-46987711D01*
X68185786Y-46987707D01*
X68074292Y-46876213D01*
X68074288Y-46876210D01*
X67943185Y-46788609D01*
X67943172Y-46788602D01*
X67797501Y-46728264D01*
X67797489Y-46728261D01*
X67642845Y-46697500D01*
X67642842Y-46697500D01*
X67485158Y-46697500D01*
X67485155Y-46697500D01*
X67330510Y-46728261D01*
X67330498Y-46728264D01*
X67184827Y-46788602D01*
X67184814Y-46788609D01*
X67053711Y-46876210D01*
X67053707Y-46876213D01*
X66942213Y-46987707D01*
X66942210Y-46987711D01*
X66854609Y-47118814D01*
X66854602Y-47118827D01*
X66794264Y-47264498D01*
X66794261Y-47264508D01*
X66772843Y-47372183D01*
X66740458Y-47434094D01*
X66738907Y-47435672D01*
X66324400Y-47850181D01*
X66263077Y-47883666D01*
X66236719Y-47886500D01*
X62930192Y-47886500D01*
X62808973Y-47910611D01*
X62808973Y-47910612D01*
X62808970Y-47910613D01*
X62808966Y-47910614D01*
X62742070Y-47938323D01*
X62742068Y-47938323D01*
X62694768Y-47957916D01*
X62694764Y-47957918D01*
X62619379Y-48008289D01*
X62619379Y-48008290D01*
X62591989Y-48026590D01*
X62591988Y-48026591D01*
X61704574Y-48914007D01*
X61670992Y-48947589D01*
X61627289Y-48991292D01*
X61583586Y-49034994D01*
X61583585Y-49034996D01*
X61514233Y-49138789D01*
X61512586Y-49143393D01*
X61490815Y-49195953D01*
X61446974Y-49250356D01*
X61380680Y-49272421D01*
X61376254Y-49272500D01*
X61020998Y-49272500D01*
X61020980Y-49272501D01*
X60918203Y-49283000D01*
X60918200Y-49283001D01*
X60861504Y-49301789D01*
X60791676Y-49304191D01*
X60731634Y-49268459D01*
X60700441Y-49205939D01*
X60698500Y-49184083D01*
X60698500Y-48109215D01*
X60718185Y-48042176D01*
X60724125Y-48033728D01*
X60729602Y-48026591D01*
X60793856Y-47942853D01*
X60851719Y-47803159D01*
X60866500Y-47690887D01*
X60866499Y-46313114D01*
X60851719Y-46200841D01*
X60805372Y-46088951D01*
X60797904Y-46019482D01*
X60829179Y-45957003D01*
X60889268Y-45921351D01*
X60919928Y-45917499D01*
X61279886Y-45917499D01*
X61279888Y-45917499D01*
X61392151Y-45902720D01*
X61392150Y-45902720D01*
X61392159Y-45902719D01*
X61531853Y-45844856D01*
X61651810Y-45752810D01*
X61699604Y-45690522D01*
X61756031Y-45649321D01*
X61825777Y-45645166D01*
X61885660Y-45678329D01*
X62581339Y-46374008D01*
X62668742Y-46461411D01*
X62668744Y-46461413D01*
X62668747Y-46461414D01*
X62771517Y-46530083D01*
X62804965Y-46543937D01*
X62885715Y-46577386D01*
X63006942Y-46601499D01*
X63006946Y-46601500D01*
X63006947Y-46601500D01*
X64577804Y-46601500D01*
X64577805Y-46601499D01*
X64699035Y-46577386D01*
X64779784Y-46543937D01*
X64813233Y-46530083D01*
X64916008Y-46461411D01*
X65003411Y-46374008D01*
X65627341Y-45750076D01*
X65688662Y-45716593D01*
X65702411Y-45714402D01*
X65792753Y-45705174D01*
X65956516Y-45650908D01*
X66103350Y-45560340D01*
X66225340Y-45438350D01*
X66315908Y-45291516D01*
X66370174Y-45127753D01*
X66380500Y-45026677D01*
X66380499Y-44428324D01*
X66370174Y-44327247D01*
X66315908Y-44163484D01*
X66225340Y-44016650D01*
X66103350Y-43894660D01*
X65956516Y-43804092D01*
X65792753Y-43749826D01*
X65792751Y-43749825D01*
X65691678Y-43739500D01*
X65118330Y-43739500D01*
X65118312Y-43739501D01*
X65017247Y-43749825D01*
X64853484Y-43804092D01*
X64853481Y-43804093D01*
X64706650Y-43894659D01*
X64648766Y-43952543D01*
X64634930Y-43960097D01*
X64624170Y-43971614D01*
X64604895Y-43976497D01*
X64587442Y-43986027D01*
X64571719Y-43984902D01*
X64556440Y-43988773D01*
X64537583Y-43982459D01*
X64517751Y-43981041D01*
X64504283Y-43971311D01*
X64490185Y-43966591D01*
X64473880Y-43949346D01*
X64464397Y-43942495D01*
X64459584Y-43936500D01*
X64447340Y-43916650D01*
X64428592Y-43897902D01*
X64424363Y-43892635D01*
X64413520Y-43866328D01*
X64399886Y-43841358D01*
X64400380Y-43834444D01*
X64397739Y-43828036D01*
X64402840Y-43800046D01*
X64404870Y-43771666D01*
X64409257Y-43764839D01*
X64410267Y-43759299D01*
X64418439Y-43750552D01*
X64433371Y-43727319D01*
X64447340Y-43713350D01*
X64537908Y-43566516D01*
X64592174Y-43402753D01*
X64602500Y-43301677D01*
X64602499Y-42603324D01*
X64596756Y-42547101D01*
X64609526Y-42478408D01*
X64657407Y-42427524D01*
X64720114Y-42410500D01*
X66363719Y-42410500D01*
X66430758Y-42430185D01*
X66451400Y-42446819D01*
X66738907Y-42734326D01*
X66772392Y-42795649D01*
X66772843Y-42797815D01*
X66794261Y-42905491D01*
X66794264Y-42905501D01*
X66854602Y-43051172D01*
X66854609Y-43051185D01*
X66942210Y-43182288D01*
X66942213Y-43182292D01*
X67053707Y-43293786D01*
X67053711Y-43293789D01*
X67184814Y-43381390D01*
X67184827Y-43381397D01*
X67330498Y-43441735D01*
X67330503Y-43441737D01*
X67485153Y-43472499D01*
X67485156Y-43472500D01*
X67485158Y-43472500D01*
X67642844Y-43472500D01*
X67642845Y-43472499D01*
X67797497Y-43441737D01*
X67943179Y-43381394D01*
X68074289Y-43293789D01*
X68185789Y-43182289D01*
X68273394Y-43051179D01*
X68333737Y-42905497D01*
X68364500Y-42750842D01*
X68364500Y-42593158D01*
X68364500Y-42593155D01*
X68364499Y-42593153D01*
X68355339Y-42547101D01*
X68333737Y-42438503D01*
X68322138Y-42410500D01*
X68273397Y-42292827D01*
X68273390Y-42292814D01*
X68185789Y-42161711D01*
X68185786Y-42161707D01*
X68074292Y-42050213D01*
X68074288Y-42050210D01*
X67943185Y-41962609D01*
X67943172Y-41962602D01*
X67797501Y-41902264D01*
X67797491Y-41902261D01*
X67689815Y-41880843D01*
X67627904Y-41848458D01*
X67626326Y-41846907D01*
X67240935Y-41461515D01*
X67156403Y-41376983D01*
X69215500Y-41376983D01*
X69215500Y-43477001D01*
X69215501Y-43477018D01*
X69226000Y-43579796D01*
X69226001Y-43579799D01*
X69281185Y-43746331D01*
X69281187Y-43746336D01*
X69284343Y-43751452D01*
X69373288Y-43895656D01*
X69497344Y-44019712D01*
X69646666Y-44111814D01*
X69813203Y-44166999D01*
X69915991Y-44177500D01*
X71816008Y-44177499D01*
X71918797Y-44166999D01*
X72085334Y-44111814D01*
X72234656Y-44019712D01*
X72358712Y-43895656D01*
X72450814Y-43746334D01*
X72505999Y-43579797D01*
X72516500Y-43477009D01*
X72516499Y-41376992D01*
X72508183Y-41295588D01*
X72505999Y-41274203D01*
X72505998Y-41274200D01*
X72490329Y-41226915D01*
X72450814Y-41107666D01*
X72358712Y-40958344D01*
X72234656Y-40834288D01*
X72090047Y-40745093D01*
X72085336Y-40742187D01*
X72085331Y-40742185D01*
X72083862Y-40741698D01*
X71918797Y-40687001D01*
X71918795Y-40687000D01*
X71816010Y-40676500D01*
X69915998Y-40676500D01*
X69915981Y-40676501D01*
X69813203Y-40687000D01*
X69813200Y-40687001D01*
X69646668Y-40742185D01*
X69646663Y-40742187D01*
X69497342Y-40834289D01*
X69373289Y-40958342D01*
X69281187Y-41107663D01*
X69281186Y-41107666D01*
X69226001Y-41274203D01*
X69226001Y-41274204D01*
X69226000Y-41274204D01*
X69215500Y-41376983D01*
X67156403Y-41376983D01*
X67075011Y-41295591D01*
X67075007Y-41295588D01*
X66972239Y-41226920D01*
X66972226Y-41226913D01*
X66938785Y-41213062D01*
X66858035Y-41179614D01*
X66858027Y-41179612D01*
X66736807Y-41155500D01*
X66736803Y-41155500D01*
X62572303Y-41155500D01*
X62448697Y-41155500D01*
X62448692Y-41155500D01*
X62327473Y-41179611D01*
X62327473Y-41179612D01*
X62327470Y-41179613D01*
X62327466Y-41179614D01*
X62260570Y-41207323D01*
X62260568Y-41207323D01*
X62213270Y-41226915D01*
X62131040Y-41281859D01*
X62064362Y-41302736D01*
X61996982Y-41284251D01*
X61950293Y-41232272D01*
X61944444Y-41217760D01*
X61940986Y-41207324D01*
X61906908Y-41104484D01*
X61816340Y-40957650D01*
X61694350Y-40835660D01*
X61547516Y-40745092D01*
X61383753Y-40690826D01*
X61383751Y-40690825D01*
X61282678Y-40680500D01*
X60584326Y-40680500D01*
X60582303Y-40680604D01*
X60581872Y-40680500D01*
X60581167Y-40680501D01*
X60581167Y-40680332D01*
X60514350Y-40664352D01*
X60465970Y-40613943D01*
X60452000Y-40556764D01*
X60452000Y-39494000D01*
X60471685Y-39426961D01*
X60524489Y-39381206D01*
X60576000Y-39370000D01*
X95926678Y-39370000D01*
X95993717Y-39389685D01*
G37*
%TD.AperFunction*%
%TD*%
%TA.AperFunction,Conductor*%
%TO.N,/Batt2*%
G36*
X59633039Y-65424685D02*
G01*
X59678794Y-65477489D01*
X59690000Y-65529000D01*
X59690000Y-66482580D01*
X59670315Y-66549619D01*
X59617511Y-66595374D01*
X59548353Y-66605318D01*
X59484797Y-66576293D01*
X59478319Y-66570261D01*
X59462588Y-66554530D01*
X59454464Y-66549619D01*
X59317006Y-66466522D01*
X59154596Y-66415914D01*
X59154594Y-66415913D01*
X59154592Y-66415913D01*
X59105178Y-66411423D01*
X59084016Y-66409500D01*
X54770784Y-66409500D01*
X54751545Y-66411248D01*
X54700207Y-66415913D01*
X54537793Y-66466522D01*
X54392211Y-66554530D01*
X54271930Y-66674811D01*
X54183922Y-66820393D01*
X54133313Y-66982807D01*
X54126900Y-67053386D01*
X54126900Y-67566613D01*
X54133313Y-67637192D01*
X54183922Y-67799606D01*
X54271930Y-67945188D01*
X54392211Y-68065469D01*
X54392213Y-68065470D01*
X54392215Y-68065472D01*
X54537794Y-68153478D01*
X54700204Y-68204086D01*
X54770784Y-68210500D01*
X54770787Y-68210500D01*
X59084013Y-68210500D01*
X59084016Y-68210500D01*
X59154596Y-68204086D01*
X59154611Y-68204081D01*
X59155867Y-68203832D01*
X59156634Y-68203900D01*
X59161131Y-68203492D01*
X59161205Y-68204309D01*
X59163779Y-68204539D01*
X59171221Y-68201764D01*
X59198079Y-68207606D01*
X59225459Y-68210055D01*
X59233472Y-68215306D01*
X59239494Y-68216616D01*
X59267748Y-68237767D01*
X59280181Y-68250200D01*
X59313666Y-68311523D01*
X59316500Y-68337881D01*
X59316500Y-80198807D01*
X59340612Y-80320027D01*
X59340614Y-80320035D01*
X59374062Y-80400785D01*
X59387915Y-80434229D01*
X59387917Y-80434233D01*
X59417852Y-80479034D01*
X59456589Y-80537008D01*
X59504455Y-80584874D01*
X59508500Y-80589857D01*
X59519606Y-80616402D01*
X59533392Y-80641648D01*
X59533843Y-80643815D01*
X59555261Y-80751491D01*
X59555264Y-80751501D01*
X59615602Y-80897172D01*
X59615606Y-80897179D01*
X59669102Y-80977242D01*
X59674753Y-80995288D01*
X59684977Y-81011197D01*
X59689428Y-81042156D01*
X59689980Y-81043918D01*
X59690000Y-81046132D01*
X59690000Y-81192150D01*
X59670315Y-81259189D01*
X59617511Y-81304944D01*
X59548353Y-81314888D01*
X59518549Y-81306712D01*
X59518121Y-81306534D01*
X59492159Y-81295781D01*
X59379887Y-81281000D01*
X58862111Y-81281000D01*
X58749848Y-81295779D01*
X58749837Y-81295782D01*
X58610149Y-81353642D01*
X58490190Y-81445690D01*
X58398142Y-81565649D01*
X58340282Y-81705337D01*
X58340281Y-81705341D01*
X58325500Y-81817605D01*
X58325500Y-83195388D01*
X58340279Y-83307651D01*
X58340282Y-83307662D01*
X58398142Y-83447350D01*
X58398143Y-83447352D01*
X58398144Y-83447353D01*
X58490190Y-83567310D01*
X58610147Y-83659356D01*
X58610148Y-83659356D01*
X58610149Y-83659357D01*
X58656711Y-83678643D01*
X58749841Y-83717219D01*
X58862113Y-83732000D01*
X59222066Y-83731999D01*
X59289104Y-83751683D01*
X59334859Y-83804487D01*
X59344803Y-83873646D01*
X59336626Y-83903451D01*
X59290282Y-84015337D01*
X59290281Y-84015341D01*
X59275500Y-84127605D01*
X59275500Y-84127613D01*
X59275500Y-84712519D01*
X59270500Y-84737658D01*
X59270500Y-84895342D01*
X59275500Y-84920481D01*
X59275500Y-85505388D01*
X59290279Y-85617651D01*
X59290282Y-85617662D01*
X59348142Y-85757350D01*
X59348143Y-85757352D01*
X59348144Y-85757353D01*
X59440190Y-85877310D01*
X59560147Y-85969356D01*
X59613454Y-85991436D01*
X59667855Y-86035275D01*
X59689921Y-86101568D01*
X59690000Y-86105996D01*
X59690000Y-88776000D01*
X59670315Y-88843039D01*
X59617511Y-88888794D01*
X59566000Y-88900000D01*
X32343322Y-88900000D01*
X32276283Y-88880315D01*
X32260049Y-88867878D01*
X32013851Y-88644737D01*
X32005262Y-88636148D01*
X31894543Y-88513989D01*
X31782122Y-88389950D01*
X31751686Y-88327058D01*
X31750000Y-88306677D01*
X31750000Y-66566656D01*
X31769685Y-66499617D01*
X31822489Y-66453862D01*
X31891647Y-66443918D01*
X31955203Y-66472943D01*
X31983358Y-66508203D01*
X32147527Y-66815342D01*
X32147538Y-66815360D01*
X32364439Y-67139976D01*
X32364449Y-67139990D01*
X32612136Y-67441797D01*
X32888202Y-67717863D01*
X32888207Y-67717867D01*
X32888208Y-67717868D01*
X33190015Y-67965555D01*
X33514646Y-68182466D01*
X33514655Y-68182471D01*
X33514657Y-68182472D01*
X33858967Y-68366510D01*
X33858969Y-68366510D01*
X33858975Y-68366514D01*
X34078812Y-68457574D01*
X34219680Y-68515924D01*
X34219684Y-68515925D01*
X34219686Y-68515926D01*
X34593305Y-68629262D01*
X34593311Y-68629263D01*
X34593314Y-68629264D01*
X34593325Y-68629267D01*
X34976234Y-68705431D01*
X35364785Y-68743700D01*
X35364788Y-68743700D01*
X35755212Y-68743700D01*
X35755215Y-68743700D01*
X36143766Y-68705431D01*
X36218307Y-68690603D01*
X36526674Y-68629267D01*
X36526685Y-68629264D01*
X36526685Y-68629263D01*
X36526695Y-68629262D01*
X36900314Y-68515926D01*
X37261025Y-68366514D01*
X37605354Y-68182466D01*
X37929985Y-67965555D01*
X38231792Y-67717868D01*
X38507868Y-67441792D01*
X38755555Y-67139985D01*
X38972466Y-66815354D01*
X39156514Y-66471025D01*
X39305926Y-66110314D01*
X39419262Y-65736695D01*
X39419264Y-65736685D01*
X39419267Y-65736674D01*
X39465387Y-65504809D01*
X39497771Y-65442898D01*
X39558487Y-65408324D01*
X39587004Y-65405000D01*
X59566000Y-65405000D01*
X59633039Y-65424685D01*
G37*
%TD.AperFunction*%
%TD*%
%TA.AperFunction,Conductor*%
%TO.N,/Batt1*%
G36*
X59633039Y-39389685D02*
G01*
X59678794Y-39442489D01*
X59690000Y-39494000D01*
X59690000Y-42201000D01*
X59670315Y-42268039D01*
X59617511Y-42313794D01*
X59566000Y-42325000D01*
X59347692Y-42325000D01*
X59226473Y-42349111D01*
X59226473Y-42349112D01*
X59226470Y-42349113D01*
X59226466Y-42349114D01*
X59159570Y-42376823D01*
X59159568Y-42376823D01*
X59112270Y-42396415D01*
X59112260Y-42396420D01*
X59022346Y-42456499D01*
X59022346Y-42456500D01*
X59013795Y-42462213D01*
X59009490Y-42465090D01*
X59009489Y-42465091D01*
X58819314Y-42655267D01*
X58720992Y-42753589D01*
X58677289Y-42797292D01*
X58633586Y-42840994D01*
X58633585Y-42840996D01*
X58564233Y-42944789D01*
X58562586Y-42949393D01*
X58517614Y-43057964D01*
X58517612Y-43057972D01*
X58502184Y-43135532D01*
X58502185Y-43135533D01*
X58493500Y-43179198D01*
X58493500Y-43584783D01*
X58473815Y-43651822D01*
X58467876Y-43660269D01*
X58398143Y-43751146D01*
X58340282Y-43890837D01*
X58340281Y-43890841D01*
X58325500Y-44003105D01*
X58325500Y-45380888D01*
X58340279Y-45493151D01*
X58340282Y-45493162D01*
X58398142Y-45632850D01*
X58398143Y-45632852D01*
X58398144Y-45632853D01*
X58490190Y-45752810D01*
X58610147Y-45844856D01*
X58749841Y-45902719D01*
X58862113Y-45917500D01*
X59222066Y-45917499D01*
X59289104Y-45937183D01*
X59334859Y-45989987D01*
X59344803Y-46059146D01*
X59336626Y-46088951D01*
X59290282Y-46200837D01*
X59290281Y-46200841D01*
X59275500Y-46313105D01*
X59275500Y-47690888D01*
X59290279Y-47803151D01*
X59290282Y-47803162D01*
X59348143Y-47942853D01*
X59417875Y-48033728D01*
X59443070Y-48098897D01*
X59443500Y-48109215D01*
X59443500Y-52046219D01*
X59423815Y-52113258D01*
X59407181Y-52133900D01*
X57867900Y-53673181D01*
X57806577Y-53706666D01*
X57780219Y-53709500D01*
X54552384Y-53709500D01*
X54533145Y-53711248D01*
X54481807Y-53715913D01*
X54319393Y-53766522D01*
X54173811Y-53854530D01*
X54053530Y-53974811D01*
X53965522Y-54120393D01*
X53914913Y-54282807D01*
X53908500Y-54353386D01*
X53908500Y-54866613D01*
X53914913Y-54937192D01*
X53965522Y-55099606D01*
X54053530Y-55245188D01*
X54173811Y-55365469D01*
X54173813Y-55365470D01*
X54173815Y-55365472D01*
X54319394Y-55453478D01*
X54481804Y-55504086D01*
X54552384Y-55510500D01*
X54552387Y-55510500D01*
X58865613Y-55510500D01*
X58865616Y-55510500D01*
X58936196Y-55504086D01*
X59098606Y-55453478D01*
X59244185Y-55365472D01*
X59364472Y-55245185D01*
X59452478Y-55099606D01*
X59452479Y-55099603D01*
X59452923Y-55098617D01*
X59453440Y-55098012D01*
X59456358Y-55093187D01*
X59457160Y-55093671D01*
X59498385Y-55045561D01*
X59565314Y-55025506D01*
X59632462Y-55044819D01*
X59678508Y-55097370D01*
X59690000Y-55149504D01*
X59690000Y-64519000D01*
X59670315Y-64586039D01*
X59617511Y-64631794D01*
X59566000Y-64643000D01*
X39652805Y-64643000D01*
X39585766Y-64623315D01*
X39540011Y-64570511D01*
X39529403Y-64531158D01*
X39495431Y-64186234D01*
X39466076Y-64038655D01*
X39419267Y-63803325D01*
X39419264Y-63803314D01*
X39419263Y-63803311D01*
X39419262Y-63803305D01*
X39305926Y-63429686D01*
X39156514Y-63068975D01*
X39136641Y-63031796D01*
X38972472Y-62724657D01*
X38972471Y-62724655D01*
X38972466Y-62724646D01*
X38755555Y-62400015D01*
X38507868Y-62098208D01*
X38507867Y-62098207D01*
X38507863Y-62098202D01*
X38231797Y-61822136D01*
X37929990Y-61574449D01*
X37929989Y-61574448D01*
X37929985Y-61574445D01*
X37605354Y-61357534D01*
X37605349Y-61357531D01*
X37605342Y-61357527D01*
X37261032Y-61173489D01*
X37261027Y-61173487D01*
X36900319Y-61024075D01*
X36526685Y-60910735D01*
X36526674Y-60910732D01*
X36143765Y-60834568D01*
X35851126Y-60805746D01*
X35755215Y-60796300D01*
X35364785Y-60796300D01*
X35276165Y-60805028D01*
X34976234Y-60834568D01*
X34593325Y-60910732D01*
X34593314Y-60910735D01*
X34219680Y-61024075D01*
X33858972Y-61173487D01*
X33858967Y-61173489D01*
X33514657Y-61357527D01*
X33514639Y-61357538D01*
X33190023Y-61574439D01*
X33190009Y-61574449D01*
X32888202Y-61822136D01*
X32612136Y-62098202D01*
X32364449Y-62400009D01*
X32364439Y-62400023D01*
X32147538Y-62724639D01*
X32147527Y-62724657D01*
X31983358Y-63031796D01*
X31934396Y-63081641D01*
X31866258Y-63097101D01*
X31800578Y-63073269D01*
X31758210Y-63017712D01*
X31750000Y-62973343D01*
X31750000Y-39963322D01*
X31769685Y-39896283D01*
X31782122Y-39880049D01*
X32005271Y-39633841D01*
X32013841Y-39625271D01*
X32260049Y-39402121D01*
X32322941Y-39371686D01*
X32343322Y-39370000D01*
X59566000Y-39370000D01*
X59633039Y-39389685D01*
G37*
%TD.AperFunction*%
%TD*%
%TA.AperFunction,Conductor*%
%TO.N,GND*%
G36*
X60392329Y-87510508D02*
G01*
X60392461Y-87509957D01*
X60438090Y-87520869D01*
X60463587Y-87526967D01*
X60463587Y-87526966D01*
X60463681Y-87526989D01*
X60463729Y-87527001D01*
X60464977Y-87527300D01*
X60464987Y-87527300D01*
X60469316Y-87528337D01*
X60469317Y-87528337D01*
X60487155Y-87532604D01*
X60489324Y-87531732D01*
X60512632Y-87531669D01*
X60519927Y-87532337D01*
X60526069Y-87533056D01*
X60541665Y-87535275D01*
X60543771Y-87535575D01*
X60555696Y-87541000D01*
X60584326Y-87541000D01*
X61250612Y-87541000D01*
X61263051Y-87541625D01*
X61263641Y-87541685D01*
X61290185Y-87547350D01*
X61318678Y-87556792D01*
X61344762Y-87568956D01*
X61366354Y-87582274D01*
X61388936Y-87600130D01*
X61406867Y-87618061D01*
X61424723Y-87640643D01*
X61438042Y-87662236D01*
X61450208Y-87688326D01*
X61459645Y-87716805D01*
X61465287Y-87743114D01*
X61465347Y-87743697D01*
X61465999Y-87756392D01*
X61465999Y-88265606D01*
X61465347Y-88278301D01*
X61465287Y-88278884D01*
X61459644Y-88305195D01*
X61450207Y-88333672D01*
X61438042Y-88359761D01*
X61385144Y-88445524D01*
X61340140Y-88538638D01*
X61340139Y-88538639D01*
X61322939Y-88586092D01*
X61322934Y-88586106D01*
X61297828Y-88686414D01*
X61297828Y-88830293D01*
X61297829Y-88830297D01*
X61307773Y-88899455D01*
X61307774Y-88899460D01*
X61307775Y-88899463D01*
X61348307Y-89037501D01*
X61348310Y-89037507D01*
X61426092Y-89158537D01*
X61426100Y-89158548D01*
X61471844Y-89211340D01*
X61471847Y-89211343D01*
X61471851Y-89211347D01*
X61580585Y-89305567D01*
X61580588Y-89305568D01*
X61580589Y-89305569D01*
X61674846Y-89348616D01*
X61711462Y-89365338D01*
X61778501Y-89385023D01*
X61778505Y-89385024D01*
X61920921Y-89405500D01*
X94099428Y-89405500D01*
X94166467Y-89425185D01*
X94212222Y-89477989D01*
X94222166Y-89547147D01*
X94193141Y-89610703D01*
X94134363Y-89648477D01*
X94105513Y-89653351D01*
X93779833Y-89669351D01*
X93773748Y-89669500D01*
X34496252Y-89669500D01*
X34490167Y-89669351D01*
X34164487Y-89653351D01*
X34098495Y-89630400D01*
X34055386Y-89575415D01*
X34048848Y-89505852D01*
X34080956Y-89443797D01*
X34141517Y-89408952D01*
X34170572Y-89405500D01*
X59565990Y-89405500D01*
X59566000Y-89405500D01*
X59673456Y-89393947D01*
X59724967Y-89382741D01*
X59759197Y-89371347D01*
X59827497Y-89348616D01*
X59827501Y-89348613D01*
X59827504Y-89348613D01*
X59948543Y-89270825D01*
X60001347Y-89225070D01*
X60095567Y-89116336D01*
X60155338Y-88985459D01*
X60175023Y-88918420D01*
X60175024Y-88918416D01*
X60195500Y-88776000D01*
X60195500Y-88541507D01*
X60201794Y-88502503D01*
X60236174Y-88398753D01*
X60246500Y-88297677D01*
X60246499Y-87724324D01*
X60238139Y-87642485D01*
X60250909Y-87573793D01*
X60298789Y-87522908D01*
X60366579Y-87505988D01*
X60392329Y-87510508D01*
G37*
%TD.AperFunction*%
%TA.AperFunction,Conductor*%
G36*
X82575884Y-66426226D02*
G01*
X83119742Y-66459122D01*
X83127148Y-66459795D01*
X83667999Y-66525467D01*
X83675390Y-66526592D01*
X84211308Y-66624802D01*
X84218594Y-66626366D01*
X84747616Y-66756756D01*
X84754799Y-66758759D01*
X85274951Y-66920846D01*
X85282008Y-66923281D01*
X85791436Y-67116480D01*
X85798345Y-67119342D01*
X86295154Y-67342938D01*
X86301872Y-67346208D01*
X86784329Y-67599421D01*
X86790817Y-67603080D01*
X87257070Y-67884940D01*
X87257078Y-67884945D01*
X87263368Y-67889012D01*
X87711717Y-68198485D01*
X87717750Y-68202924D01*
X88146626Y-68538927D01*
X88152380Y-68543723D01*
X88560191Y-68905011D01*
X88565645Y-68910145D01*
X88950852Y-69295352D01*
X88955986Y-69300806D01*
X89317273Y-69708616D01*
X89322069Y-69714370D01*
X89658072Y-70143246D01*
X89662511Y-70149279D01*
X89971986Y-70597630D01*
X89976053Y-70603920D01*
X90257901Y-71070154D01*
X90257907Y-71070163D01*
X90261587Y-71076687D01*
X90514779Y-71559105D01*
X90518058Y-71565840D01*
X90741649Y-72062639D01*
X90744515Y-72069559D01*
X90937715Y-72578985D01*
X90940158Y-72586066D01*
X91102232Y-73106179D01*
X91104244Y-73113394D01*
X91234625Y-73642374D01*
X91236197Y-73649697D01*
X91334406Y-74185601D01*
X91335533Y-74193007D01*
X91401199Y-74733819D01*
X91401877Y-74741278D01*
X91434774Y-75285116D01*
X91435000Y-75292603D01*
X91435000Y-75837395D01*
X91434774Y-75844882D01*
X91401877Y-76388720D01*
X91401199Y-76396179D01*
X91335533Y-76936991D01*
X91334406Y-76944397D01*
X91236197Y-77480301D01*
X91234625Y-77487624D01*
X91104244Y-78016604D01*
X91102232Y-78023819D01*
X90940158Y-78543932D01*
X90937715Y-78551013D01*
X90744515Y-79060439D01*
X90741649Y-79067359D01*
X90518058Y-79564158D01*
X90514779Y-79570893D01*
X90261587Y-80053311D01*
X90257907Y-80059835D01*
X89976053Y-80526078D01*
X89971986Y-80532368D01*
X89662511Y-80980719D01*
X89658072Y-80986752D01*
X89322063Y-81415635D01*
X89317268Y-81421389D01*
X88956001Y-81829177D01*
X88950866Y-81834631D01*
X88565631Y-82219866D01*
X88560177Y-82225001D01*
X88152380Y-82586276D01*
X88146626Y-82591071D01*
X87717762Y-82927064D01*
X87711729Y-82931503D01*
X87263367Y-83240986D01*
X87257077Y-83245053D01*
X86790835Y-83526907D01*
X86784311Y-83530587D01*
X86301893Y-83783779D01*
X86295158Y-83787058D01*
X85798359Y-84010649D01*
X85791439Y-84013515D01*
X85282013Y-84206715D01*
X85274932Y-84209158D01*
X84754819Y-84371232D01*
X84747604Y-84373244D01*
X84218624Y-84503625D01*
X84211301Y-84505197D01*
X83675397Y-84603406D01*
X83667991Y-84604533D01*
X83127179Y-84670199D01*
X83119720Y-84670877D01*
X82575882Y-84703774D01*
X82568395Y-84704000D01*
X82023604Y-84704000D01*
X82016117Y-84703774D01*
X81472278Y-84670877D01*
X81464819Y-84670199D01*
X80924005Y-84604532D01*
X80916605Y-84603406D01*
X80648649Y-84554301D01*
X80380697Y-84505197D01*
X80373374Y-84503625D01*
X79844394Y-84373244D01*
X79837179Y-84371232D01*
X79704858Y-84329999D01*
X79317060Y-84209156D01*
X79309991Y-84206717D01*
X79052991Y-84109250D01*
X78800562Y-84013516D01*
X78793642Y-84010650D01*
X78296840Y-83787058D01*
X78290105Y-83783779D01*
X77807687Y-83530587D01*
X77801171Y-83526911D01*
X77334920Y-83245053D01*
X77328630Y-83240986D01*
X76880280Y-82931512D01*
X76874247Y-82927073D01*
X76445371Y-82591070D01*
X76439617Y-82586274D01*
X76031806Y-82224986D01*
X76026352Y-82219852D01*
X75641145Y-81834645D01*
X75636011Y-81829191D01*
X75274724Y-81421381D01*
X75269928Y-81415627D01*
X74933924Y-80986750D01*
X74929485Y-80980717D01*
X74620007Y-80532360D01*
X74615940Y-80526070D01*
X74462046Y-80271500D01*
X74334090Y-80059835D01*
X74330432Y-80053350D01*
X74077214Y-79570884D01*
X74073940Y-79564158D01*
X74073575Y-79563348D01*
X73850340Y-79067338D01*
X73847476Y-79060423D01*
X73654274Y-78550990D01*
X73651848Y-78543959D01*
X73489760Y-78023800D01*
X73487761Y-78016633D01*
X73357372Y-77487620D01*
X73355800Y-77480297D01*
X73257588Y-76944370D01*
X73256469Y-76937014D01*
X73190795Y-76396148D01*
X73190122Y-76388742D01*
X73157226Y-75844891D01*
X73157000Y-75837404D01*
X73157000Y-75292593D01*
X73157226Y-75285106D01*
X73190122Y-74741252D01*
X73190795Y-74733852D01*
X73256469Y-74192978D01*
X73257587Y-74185632D01*
X73355802Y-73649689D01*
X73357372Y-73642377D01*
X73357373Y-73642374D01*
X73487758Y-73113373D01*
X73489756Y-73106207D01*
X73651849Y-72586036D01*
X73654283Y-72578985D01*
X73847485Y-72069549D01*
X73850336Y-72062664D01*
X74073948Y-71565820D01*
X74077211Y-71559120D01*
X74330423Y-71076667D01*
X74334096Y-71070154D01*
X74615951Y-70603908D01*
X74619995Y-70597654D01*
X74929494Y-70149267D01*
X74933914Y-70143259D01*
X75269932Y-69714364D01*
X75274723Y-69708617D01*
X75274724Y-69708616D01*
X75636027Y-69300788D01*
X75641128Y-69295369D01*
X76026369Y-68910128D01*
X76031788Y-68905027D01*
X76439622Y-68543718D01*
X76445370Y-68538928D01*
X76874259Y-68202914D01*
X76880267Y-68198494D01*
X77328654Y-67888995D01*
X77334908Y-67884951D01*
X77801165Y-67603089D01*
X77807667Y-67599423D01*
X78290120Y-67346211D01*
X78296820Y-67342948D01*
X78793664Y-67119336D01*
X78800549Y-67116485D01*
X79310017Y-66923270D01*
X79317027Y-66920852D01*
X79837205Y-66758757D01*
X79844356Y-66756763D01*
X80373379Y-66626371D01*
X80380686Y-66624803D01*
X80916628Y-66526588D01*
X80923974Y-66525470D01*
X81464852Y-66459795D01*
X81472252Y-66459122D01*
X82016107Y-66426226D01*
X82023594Y-66426000D01*
X82568397Y-66426000D01*
X82575884Y-66426226D01*
G37*
%TD.AperFunction*%
%TA.AperFunction,Conductor*%
G36*
X73411499Y-82040637D02*
G01*
X73413803Y-82040872D01*
X73440236Y-82046528D01*
X73471487Y-82056884D01*
X73497578Y-82069050D01*
X73521662Y-82083905D01*
X73544247Y-82101763D01*
X73564238Y-82121754D01*
X73582096Y-82144339D01*
X73596946Y-82168415D01*
X73609112Y-82194506D01*
X73619469Y-82225760D01*
X73625121Y-82252150D01*
X73625356Y-82254448D01*
X73625999Y-82267063D01*
X73625999Y-84102933D01*
X73625356Y-84115542D01*
X73625121Y-84117841D01*
X73619470Y-84144236D01*
X73609113Y-84175491D01*
X73596947Y-84201580D01*
X73596946Y-84201583D01*
X73582096Y-84225659D01*
X73564238Y-84248244D01*
X73544244Y-84268238D01*
X73521659Y-84286096D01*
X73497583Y-84300946D01*
X73471492Y-84313112D01*
X73440238Y-84323469D01*
X73413848Y-84329121D01*
X73412399Y-84329269D01*
X73411548Y-84329356D01*
X73398935Y-84329999D01*
X71363065Y-84329999D01*
X71350456Y-84329356D01*
X71348157Y-84329121D01*
X71321762Y-84323470D01*
X71290507Y-84313113D01*
X71264415Y-84300946D01*
X71240339Y-84286096D01*
X71217754Y-84268238D01*
X71197760Y-84248244D01*
X71179901Y-84225657D01*
X71165051Y-84201580D01*
X71152886Y-84175493D01*
X71142529Y-84144240D01*
X71136874Y-84117810D01*
X71136637Y-84115491D01*
X71136000Y-84102936D01*
X71136000Y-82267058D01*
X71136637Y-82254501D01*
X71136872Y-82252200D01*
X71142525Y-82225771D01*
X71152887Y-82194501D01*
X71165053Y-82168413D01*
X71179904Y-82144336D01*
X71197757Y-82121756D01*
X71217758Y-82101755D01*
X71240330Y-82083907D01*
X71264418Y-82069049D01*
X71290499Y-82056887D01*
X71321766Y-82046526D01*
X71348196Y-82040873D01*
X71350516Y-82040636D01*
X71363063Y-82040000D01*
X73398943Y-82040000D01*
X73411499Y-82040637D01*
G37*
%TD.AperFunction*%
%TA.AperFunction,Conductor*%
G36*
X70340499Y-77972637D02*
G01*
X70342803Y-77972872D01*
X70369236Y-77978528D01*
X70400487Y-77988884D01*
X70426578Y-78001050D01*
X70450662Y-78015905D01*
X70473247Y-78033763D01*
X70493238Y-78053754D01*
X70511096Y-78076339D01*
X70525946Y-78100415D01*
X70538112Y-78126506D01*
X70548469Y-78157760D01*
X70554121Y-78184150D01*
X70554356Y-78186448D01*
X70554999Y-78199063D01*
X70554999Y-79534933D01*
X70554356Y-79547542D01*
X70554121Y-79549841D01*
X70548470Y-79576236D01*
X70538113Y-79607491D01*
X70525947Y-79633580D01*
X70525946Y-79633583D01*
X70511096Y-79657659D01*
X70493238Y-79680244D01*
X70473244Y-79700238D01*
X70450659Y-79718096D01*
X70426583Y-79732946D01*
X70400492Y-79745112D01*
X70369238Y-79755469D01*
X70342848Y-79761121D01*
X70341399Y-79761269D01*
X70340548Y-79761356D01*
X70327935Y-79761999D01*
X68292065Y-79761999D01*
X68279456Y-79761356D01*
X68277157Y-79761121D01*
X68250762Y-79755470D01*
X68219507Y-79745113D01*
X68193415Y-79732946D01*
X68169339Y-79718096D01*
X68146754Y-79700238D01*
X68126760Y-79680244D01*
X68108901Y-79657657D01*
X68094051Y-79633580D01*
X68081886Y-79607493D01*
X68071529Y-79576240D01*
X68065874Y-79549810D01*
X68065637Y-79547491D01*
X68065000Y-79534936D01*
X68065000Y-78199058D01*
X68065637Y-78186501D01*
X68065872Y-78184200D01*
X68071525Y-78157771D01*
X68081887Y-78126501D01*
X68094053Y-78100413D01*
X68108904Y-78076336D01*
X68126757Y-78053756D01*
X68146758Y-78033755D01*
X68169330Y-78015907D01*
X68193418Y-78001049D01*
X68219499Y-77988887D01*
X68250766Y-77978526D01*
X68277196Y-77972873D01*
X68279516Y-77972636D01*
X68292063Y-77972000D01*
X70327943Y-77972000D01*
X70340499Y-77972637D01*
G37*
%TD.AperFunction*%
%TA.AperFunction,Conductor*%
G36*
X70340499Y-49778637D02*
G01*
X70342803Y-49778872D01*
X70369236Y-49784528D01*
X70400487Y-49794884D01*
X70426578Y-49807050D01*
X70450662Y-49821905D01*
X70473247Y-49839763D01*
X70493238Y-49859754D01*
X70511096Y-49882339D01*
X70525946Y-49906415D01*
X70538112Y-49932506D01*
X70548469Y-49963760D01*
X70554121Y-49990150D01*
X70554356Y-49992448D01*
X70554999Y-50005063D01*
X70554999Y-51340933D01*
X70554356Y-51353542D01*
X70554121Y-51355841D01*
X70548470Y-51382236D01*
X70538113Y-51413491D01*
X70525947Y-51439580D01*
X70525946Y-51439583D01*
X70511096Y-51463659D01*
X70493238Y-51486244D01*
X70473244Y-51506238D01*
X70450659Y-51524096D01*
X70426583Y-51538946D01*
X70400492Y-51551112D01*
X70369238Y-51561469D01*
X70342848Y-51567121D01*
X70341399Y-51567269D01*
X70340548Y-51567356D01*
X70327935Y-51567999D01*
X68292065Y-51567999D01*
X68279456Y-51567356D01*
X68277157Y-51567121D01*
X68250762Y-51561470D01*
X68219507Y-51551113D01*
X68193415Y-51538946D01*
X68169339Y-51524096D01*
X68146754Y-51506238D01*
X68126760Y-51486244D01*
X68108901Y-51463657D01*
X68094051Y-51439580D01*
X68081886Y-51413493D01*
X68071529Y-51382240D01*
X68065874Y-51355810D01*
X68065637Y-51353491D01*
X68065000Y-51340936D01*
X68065000Y-50005058D01*
X68065637Y-49992501D01*
X68065872Y-49990200D01*
X68071525Y-49963771D01*
X68081887Y-49932501D01*
X68094053Y-49906413D01*
X68108904Y-49882336D01*
X68126757Y-49859756D01*
X68146758Y-49839755D01*
X68169330Y-49821907D01*
X68193418Y-49807049D01*
X68219499Y-49794887D01*
X68250766Y-49784526D01*
X68277196Y-49778873D01*
X68279516Y-49778636D01*
X68292063Y-49778000D01*
X70327943Y-49778000D01*
X70340499Y-49778637D01*
G37*
%TD.AperFunction*%
%TA.AperFunction,Conductor*%
G36*
X71796499Y-41182637D02*
G01*
X71798803Y-41182872D01*
X71825236Y-41188528D01*
X71856487Y-41198884D01*
X71882578Y-41211050D01*
X71906662Y-41225905D01*
X71929242Y-41243759D01*
X71929247Y-41243763D01*
X71949238Y-41263754D01*
X71967096Y-41286339D01*
X71981946Y-41310415D01*
X71994113Y-41336507D01*
X72004469Y-41367759D01*
X72010119Y-41394144D01*
X72010355Y-41396451D01*
X72010999Y-41409070D01*
X72010999Y-43444933D01*
X72010356Y-43457542D01*
X72010121Y-43459841D01*
X72004470Y-43486236D01*
X71994113Y-43517491D01*
X71981946Y-43543583D01*
X71967096Y-43567659D01*
X71949238Y-43590244D01*
X71929244Y-43610238D01*
X71906659Y-43628096D01*
X71882583Y-43642946D01*
X71856492Y-43655112D01*
X71825238Y-43665469D01*
X71798848Y-43671121D01*
X71797399Y-43671269D01*
X71796548Y-43671356D01*
X71783935Y-43671999D01*
X69948065Y-43671999D01*
X69935456Y-43671356D01*
X69933157Y-43671121D01*
X69906762Y-43665470D01*
X69875507Y-43655113D01*
X69849415Y-43642946D01*
X69825339Y-43628096D01*
X69802754Y-43610238D01*
X69782763Y-43590247D01*
X69764906Y-43567664D01*
X69761646Y-43562379D01*
X69750049Y-43543578D01*
X69737883Y-43517486D01*
X69727528Y-43486236D01*
X69721873Y-43459799D01*
X69721636Y-43457483D01*
X69721000Y-43444934D01*
X69721000Y-41409058D01*
X69721637Y-41396501D01*
X69721872Y-41394200D01*
X69727525Y-41367771D01*
X69737887Y-41336501D01*
X69750053Y-41310413D01*
X69764904Y-41286336D01*
X69782757Y-41263756D01*
X69802758Y-41243755D01*
X69825330Y-41225907D01*
X69849418Y-41211049D01*
X69875499Y-41198887D01*
X69906766Y-41188526D01*
X69933196Y-41182873D01*
X69935516Y-41182636D01*
X69948063Y-41182000D01*
X71783943Y-41182000D01*
X71796499Y-41182637D01*
G37*
%TD.AperFunction*%
%TA.AperFunction,Conductor*%
G36*
X60392329Y-41155508D02*
G01*
X60392461Y-41154957D01*
X60438090Y-41165869D01*
X60463587Y-41171967D01*
X60463587Y-41171966D01*
X60463681Y-41171989D01*
X60463729Y-41172001D01*
X60464977Y-41172300D01*
X60464987Y-41172300D01*
X60469316Y-41173337D01*
X60469317Y-41173337D01*
X60487155Y-41177604D01*
X60489324Y-41176732D01*
X60512632Y-41176669D01*
X60519927Y-41177337D01*
X60526069Y-41178056D01*
X60541665Y-41180275D01*
X60543771Y-41180575D01*
X60555696Y-41186000D01*
X60584326Y-41186000D01*
X61250612Y-41186000D01*
X61263051Y-41186625D01*
X61263641Y-41186685D01*
X61290185Y-41192350D01*
X61318678Y-41201792D01*
X61344762Y-41213956D01*
X61366354Y-41227274D01*
X61388936Y-41245130D01*
X61406867Y-41263061D01*
X61424724Y-41285643D01*
X61438040Y-41307232D01*
X61450207Y-41333324D01*
X61464602Y-41376764D01*
X61474131Y-41402741D01*
X61474134Y-41402749D01*
X61475592Y-41406725D01*
X61481442Y-41421240D01*
X61494294Y-41450434D01*
X61494297Y-41450440D01*
X61574224Y-41570062D01*
X61617253Y-41617966D01*
X61619641Y-41620705D01*
X61621882Y-41623352D01*
X61622558Y-41624879D01*
X61624203Y-41626427D01*
X61625223Y-41627787D01*
X61624189Y-41628562D01*
X61634665Y-41652215D01*
X61649062Y-41680313D01*
X61648708Y-41683922D01*
X61650176Y-41687236D01*
X61645326Y-41718420D01*
X61642246Y-41749849D01*
X61639884Y-41753419D01*
X61639440Y-41756276D01*
X61633753Y-41762688D01*
X61614925Y-41791155D01*
X61117400Y-42288681D01*
X61056077Y-42322166D01*
X61029719Y-42325000D01*
X60319500Y-42325000D01*
X60252461Y-42305315D01*
X60206706Y-42252511D01*
X60195500Y-42201000D01*
X60195500Y-42186507D01*
X60201794Y-42147503D01*
X60236174Y-42043753D01*
X60246500Y-41942677D01*
X60246499Y-41369324D01*
X60238139Y-41287485D01*
X60250909Y-41218793D01*
X60298789Y-41167908D01*
X60366579Y-41150988D01*
X60392329Y-41155508D01*
G37*
%TD.AperFunction*%
%TD*%
M02*
