%TF.GenerationSoftware,KiCad,Pcbnew,9.0.6-9.0.6~ubuntu22.04.1*%
%TF.CreationDate,2025-11-18T18:37:08-06:00*%
%TF.ProjectId,BattBreakout,42617474-4272-4656-916b-6f75742e6b69,rev?*%
%TF.SameCoordinates,Original*%
%TF.FileFunction,Copper,L2,Bot*%
%TF.FilePolarity,Positive*%
%FSLAX46Y46*%
G04 Gerber Fmt 4.6, Leading zero omitted, Abs format (unit mm)*
G04 Created by KiCad (PCBNEW 9.0.6-9.0.6~ubuntu22.04.1) date 2025-11-18 18:37:08*
%MOMM*%
%LPD*%
G01*
G04 APERTURE LIST*
%TA.AperFunction,ComponentPad*%
%ADD10C,18.288000*%
%TD*%
%TA.AperFunction,ViaPad*%
%ADD11C,0.600000*%
%TD*%
%TA.AperFunction,Conductor*%
%ADD12C,0.254000*%
%TD*%
G04 APERTURE END LIST*
D10*
%TO.P,V1,1,1*%
%TO.N,/Batt1*%
X43180000Y-52070000D03*
%TD*%
%TO.P,V2,1,1*%
%TO.N,GND*%
X82296000Y-75565000D03*
%TD*%
%TO.P,V4,1,1*%
%TO.N,+24V*%
X82550000Y-52070000D03*
%TD*%
%TO.P,V3,1,1*%
%TO.N,/Batt2*%
X43180000Y-77470000D03*
%TD*%
D11*
%TO.N,GND*%
X60933500Y-41656000D03*
X69310000Y-78867000D03*
X72381000Y-83185000D03*
X70866000Y-42427000D03*
X60933500Y-88011000D03*
X69310000Y-50673000D03*
%TO.N,Net-(D13-A)*%
X67564000Y-42672000D03*
X67564000Y-47498000D03*
%TO.N,Net-(Q9-G)*%
X60071000Y-84816500D03*
X60325000Y-80518000D03*
%TD*%
D12*
%TO.N,Net-(D13-A)*%
X67564000Y-47498000D02*
X67564000Y-42672000D01*
%TO.N,Net-(Q9-G)*%
X62230000Y-84328000D02*
X61849000Y-84709000D01*
X60325000Y-80518000D02*
X61087000Y-80518000D01*
X60178500Y-84709000D02*
X60071000Y-84816500D01*
X61849000Y-84709000D02*
X60178500Y-84709000D01*
X61087000Y-80518000D02*
X62230000Y-81661000D01*
X62230000Y-81661000D02*
X62230000Y-84328000D01*
%TD*%
%TA.AperFunction,Conductor*%
%TO.N,GND*%
G36*
X93779832Y-38600649D02*
G01*
X93854130Y-38604299D01*
X94115025Y-38617116D01*
X94127129Y-38618308D01*
X94456070Y-38667102D01*
X94468002Y-38669476D01*
X94790571Y-38750275D01*
X94802210Y-38753805D01*
X95115327Y-38865839D01*
X95126548Y-38870487D01*
X95427185Y-39012678D01*
X95437893Y-39018402D01*
X95723122Y-39189362D01*
X95733240Y-39196122D01*
X96000344Y-39394220D01*
X96009750Y-39401940D01*
X96256148Y-39625262D01*
X96264737Y-39633851D01*
X96452299Y-39840794D01*
X96488059Y-39880249D01*
X96495779Y-39889655D01*
X96693877Y-40156759D01*
X96700637Y-40166877D01*
X96871590Y-40452094D01*
X96877327Y-40462826D01*
X97019507Y-40763440D01*
X97024164Y-40774683D01*
X97136192Y-41087783D01*
X97139724Y-41099428D01*
X97220523Y-41421997D01*
X97222897Y-41433931D01*
X97271690Y-41762866D01*
X97272883Y-41774976D01*
X97289351Y-42110167D01*
X97289500Y-42116252D01*
X97289500Y-86153747D01*
X97289351Y-86159832D01*
X97272883Y-86495023D01*
X97271690Y-86507133D01*
X97222897Y-86836068D01*
X97220523Y-86848002D01*
X97139724Y-87170571D01*
X97136192Y-87182216D01*
X97024164Y-87495316D01*
X97019507Y-87506559D01*
X96877327Y-87807173D01*
X96871590Y-87817905D01*
X96700637Y-88103122D01*
X96693877Y-88113240D01*
X96495779Y-88380344D01*
X96488059Y-88389750D01*
X96264745Y-88636140D01*
X96256140Y-88644745D01*
X96009750Y-88868059D01*
X96000344Y-88875779D01*
X95733240Y-89073877D01*
X95723122Y-89080637D01*
X95437905Y-89251590D01*
X95427173Y-89257327D01*
X95126559Y-89399507D01*
X95115316Y-89404164D01*
X94802216Y-89516192D01*
X94790571Y-89519724D01*
X94468002Y-89600523D01*
X94456068Y-89602897D01*
X94127133Y-89651690D01*
X94115023Y-89652883D01*
X93779833Y-89669351D01*
X93773748Y-89669500D01*
X34496252Y-89669500D01*
X34490167Y-89669351D01*
X34154976Y-89652883D01*
X34142866Y-89651690D01*
X33813931Y-89602897D01*
X33801997Y-89600523D01*
X33479428Y-89519724D01*
X33467783Y-89516192D01*
X33154683Y-89404164D01*
X33143440Y-89399507D01*
X32842826Y-89257327D01*
X32832099Y-89251592D01*
X32546877Y-89080637D01*
X32536759Y-89073877D01*
X32269655Y-88875779D01*
X32260249Y-88868059D01*
X32220794Y-88832299D01*
X32013851Y-88644737D01*
X32005262Y-88636148D01*
X31781940Y-88389750D01*
X31774220Y-88380344D01*
X31576122Y-88113240D01*
X31569362Y-88103122D01*
X31398402Y-87817893D01*
X31392678Y-87807185D01*
X31250487Y-87506548D01*
X31245839Y-87495327D01*
X31133805Y-87182210D01*
X31130275Y-87170571D01*
X31049476Y-86848002D01*
X31047102Y-86836068D01*
X31036487Y-86764506D01*
X30998308Y-86507129D01*
X30997116Y-86495022D01*
X30980649Y-86159831D01*
X30980500Y-86153747D01*
X30980500Y-77178565D01*
X33535500Y-77178565D01*
X33535500Y-77761434D01*
X33570691Y-78343215D01*
X33640946Y-78921809D01*
X33746009Y-79495123D01*
X33885493Y-80061037D01*
X33885495Y-80061043D01*
X34058893Y-80617495D01*
X34265572Y-81162464D01*
X34504784Y-81693972D01*
X34775657Y-82210077D01*
X35077177Y-82708852D01*
X35077193Y-82708877D01*
X35408279Y-83188537D01*
X35767730Y-83647344D01*
X35767731Y-83647345D01*
X36154229Y-84083611D01*
X36154263Y-84083647D01*
X36566352Y-84495736D01*
X36566388Y-84495770D01*
X37002654Y-84882268D01*
X37002655Y-84882269D01*
X37461462Y-85241720D01*
X37873153Y-85525890D01*
X37941138Y-85572817D01*
X38439932Y-85874348D01*
X38956022Y-86145213D01*
X39487525Y-86384423D01*
X39487532Y-86384425D01*
X39487535Y-86384427D01*
X39779151Y-86495022D01*
X40032501Y-86591105D01*
X40588962Y-86764506D01*
X41154878Y-86903991D01*
X41728183Y-87009053D01*
X42234459Y-87070526D01*
X42306784Y-87079308D01*
X42374973Y-87083432D01*
X42888574Y-87114500D01*
X42888587Y-87114500D01*
X43471413Y-87114500D01*
X43471426Y-87114500D01*
X44053215Y-87079308D01*
X44631817Y-87009053D01*
X45205122Y-86903991D01*
X45771038Y-86764506D01*
X46327499Y-86591105D01*
X46872475Y-86384423D01*
X47403978Y-86145213D01*
X47920068Y-85874348D01*
X48418862Y-85572817D01*
X48898539Y-85241719D01*
X49340657Y-84895342D01*
X49357344Y-84882269D01*
X49357344Y-84882268D01*
X49357351Y-84882263D01*
X49520581Y-84737653D01*
X59270500Y-84737653D01*
X59270500Y-84895346D01*
X59301261Y-85049989D01*
X59301264Y-85050001D01*
X59361602Y-85195672D01*
X59361609Y-85195685D01*
X59449210Y-85326788D01*
X59449213Y-85326792D01*
X59560707Y-85438286D01*
X59560711Y-85438289D01*
X59691814Y-85525890D01*
X59691827Y-85525897D01*
X59805077Y-85572806D01*
X59837503Y-85586237D01*
X59992153Y-85616999D01*
X59992156Y-85617000D01*
X59992158Y-85617000D01*
X60149844Y-85617000D01*
X60149845Y-85616999D01*
X60304497Y-85586237D01*
X60450179Y-85525894D01*
X60581289Y-85438289D01*
X60646760Y-85372817D01*
X60708081Y-85339334D01*
X60734440Y-85336500D01*
X61910804Y-85336500D01*
X61910805Y-85336499D01*
X62032035Y-85312386D01*
X62112784Y-85278937D01*
X62146233Y-85265083D01*
X62249008Y-85196411D01*
X62336411Y-85109008D01*
X62717411Y-84728008D01*
X62786083Y-84625233D01*
X62833385Y-84511035D01*
X62848048Y-84437321D01*
X62857500Y-84389806D01*
X62857500Y-81599194D01*
X62833386Y-81477970D01*
X62833385Y-81477969D01*
X62833385Y-81477965D01*
X62833383Y-81477960D01*
X62786086Y-81363773D01*
X62786079Y-81363760D01*
X62717412Y-81260993D01*
X62673741Y-81217322D01*
X62630008Y-81173589D01*
X62073914Y-80617495D01*
X61487011Y-80030591D01*
X61487009Y-80030589D01*
X61463487Y-80014873D01*
X61463488Y-80014873D01*
X61460271Y-80012724D01*
X61384233Y-79961917D01*
X61350784Y-79948062D01*
X61343103Y-79944880D01*
X61343099Y-79944878D01*
X61270035Y-79914614D01*
X61270027Y-79914612D01*
X61148807Y-79890500D01*
X61148803Y-79890500D01*
X60864357Y-79890500D01*
X60797318Y-79870815D01*
X60795466Y-79869602D01*
X60704185Y-79808609D01*
X60704172Y-79808602D01*
X60558501Y-79748264D01*
X60558489Y-79748261D01*
X60403845Y-79717500D01*
X60403842Y-79717500D01*
X60246158Y-79717500D01*
X60246155Y-79717500D01*
X60091510Y-79748261D01*
X60091498Y-79748264D01*
X59945827Y-79808602D01*
X59945814Y-79808609D01*
X59814711Y-79896210D01*
X59814707Y-79896213D01*
X59703213Y-80007707D01*
X59703210Y-80007711D01*
X59615609Y-80138814D01*
X59615602Y-80138827D01*
X59555264Y-80284498D01*
X59555261Y-80284510D01*
X59524500Y-80439153D01*
X59524500Y-80596846D01*
X59555261Y-80751489D01*
X59555264Y-80751501D01*
X59615602Y-80897172D01*
X59615609Y-80897185D01*
X59703210Y-81028288D01*
X59703213Y-81028292D01*
X59814707Y-81139786D01*
X59814711Y-81139789D01*
X59945814Y-81227390D01*
X59945827Y-81227397D01*
X60091498Y-81287735D01*
X60091503Y-81287737D01*
X60246153Y-81318499D01*
X60246156Y-81318500D01*
X60246158Y-81318500D01*
X60403844Y-81318500D01*
X60403845Y-81318499D01*
X60558497Y-81287737D01*
X60704179Y-81227394D01*
X60742331Y-81201901D01*
X60809006Y-81181023D01*
X60876387Y-81199506D01*
X60898903Y-81217322D01*
X61566181Y-81884600D01*
X61599666Y-81945923D01*
X61602500Y-81972281D01*
X61602500Y-83957500D01*
X61582815Y-84024539D01*
X61530011Y-84070294D01*
X61478500Y-84081500D01*
X60413025Y-84081500D01*
X60365573Y-84072061D01*
X60304501Y-84046764D01*
X60304489Y-84046761D01*
X60149845Y-84016000D01*
X60149842Y-84016000D01*
X59992158Y-84016000D01*
X59992155Y-84016000D01*
X59837510Y-84046761D01*
X59837498Y-84046764D01*
X59691827Y-84107102D01*
X59691814Y-84107109D01*
X59560711Y-84194710D01*
X59560707Y-84194713D01*
X59449213Y-84306207D01*
X59449210Y-84306211D01*
X59361609Y-84437314D01*
X59361602Y-84437327D01*
X59301264Y-84582998D01*
X59301261Y-84583010D01*
X59270500Y-84737653D01*
X49520581Y-84737653D01*
X49562648Y-84700385D01*
X49632220Y-84638751D01*
X49695152Y-84582998D01*
X49793622Y-84495761D01*
X50205761Y-84083622D01*
X50592263Y-83647351D01*
X50592268Y-83647345D01*
X50592269Y-83647344D01*
X50763521Y-83428755D01*
X50951719Y-83188539D01*
X51282817Y-82708862D01*
X51584348Y-82210068D01*
X51855213Y-81693978D01*
X52094423Y-81162475D01*
X52301105Y-80617499D01*
X52474506Y-80061038D01*
X52613991Y-79495122D01*
X52719053Y-78921817D01*
X52789308Y-78343215D01*
X52824500Y-77761426D01*
X52824500Y-77178574D01*
X52789308Y-76596785D01*
X52719053Y-76018183D01*
X52613991Y-75444878D01*
X52474506Y-74878962D01*
X52301105Y-74322501D01*
X52094423Y-73777525D01*
X51855213Y-73246022D01*
X51584348Y-72729932D01*
X51282817Y-72231138D01*
X50951719Y-71751461D01*
X50592269Y-71292655D01*
X50592268Y-71292654D01*
X50205770Y-70856388D01*
X50205736Y-70856352D01*
X49793647Y-70444263D01*
X49793611Y-70444229D01*
X49357345Y-70057731D01*
X49357344Y-70057730D01*
X48898537Y-69698279D01*
X48418877Y-69367193D01*
X48418869Y-69367188D01*
X48418862Y-69367183D01*
X48372451Y-69339126D01*
X47920077Y-69065657D01*
X47920071Y-69065654D01*
X47920068Y-69065652D01*
X47403978Y-68794787D01*
X47403976Y-68794786D01*
X47403972Y-68794784D01*
X46872464Y-68555572D01*
X46327495Y-68348893D01*
X45771043Y-68175495D01*
X45771037Y-68175493D01*
X45205122Y-68036009D01*
X45205124Y-68036009D01*
X44952738Y-67989758D01*
X44631817Y-67930947D01*
X44631809Y-67930946D01*
X44053215Y-67860691D01*
X43471434Y-67825500D01*
X43471426Y-67825500D01*
X42888574Y-67825500D01*
X42888565Y-67825500D01*
X42306784Y-67860691D01*
X41728190Y-67930946D01*
X41728187Y-67930946D01*
X41728183Y-67930947D01*
X41539306Y-67965560D01*
X41154876Y-68036009D01*
X40588962Y-68175493D01*
X40588956Y-68175495D01*
X40032504Y-68348893D01*
X39487535Y-68555572D01*
X38956027Y-68794784D01*
X38439922Y-69065657D01*
X37941147Y-69367177D01*
X37941122Y-69367193D01*
X37461462Y-69698279D01*
X37002655Y-70057730D01*
X37002654Y-70057731D01*
X36566388Y-70444229D01*
X36566352Y-70444263D01*
X36154263Y-70856352D01*
X36154229Y-70856388D01*
X35767731Y-71292654D01*
X35767730Y-71292655D01*
X35408279Y-71751462D01*
X35077193Y-72231122D01*
X35077177Y-72231147D01*
X34775657Y-72729922D01*
X34504784Y-73246027D01*
X34265572Y-73777535D01*
X34058893Y-74322504D01*
X33885495Y-74878956D01*
X33885493Y-74878962D01*
X33746009Y-75444876D01*
X33640946Y-76018190D01*
X33570691Y-76596784D01*
X33535500Y-77178565D01*
X30980500Y-77178565D01*
X30980500Y-64574788D01*
X31586300Y-64574788D01*
X31586300Y-64965211D01*
X31624568Y-65353765D01*
X31700732Y-65736674D01*
X31700735Y-65736685D01*
X31814075Y-66110319D01*
X31963487Y-66471027D01*
X31963489Y-66471032D01*
X32147527Y-66815342D01*
X32147538Y-66815360D01*
X32364439Y-67139976D01*
X32364449Y-67139990D01*
X32612136Y-67441797D01*
X32888202Y-67717863D01*
X32888207Y-67717867D01*
X32888208Y-67717868D01*
X33190015Y-67965555D01*
X33514646Y-68182466D01*
X33514655Y-68182471D01*
X33514657Y-68182472D01*
X33858967Y-68366510D01*
X33858969Y-68366510D01*
X33858975Y-68366514D01*
X34078812Y-68457574D01*
X34219680Y-68515924D01*
X34219684Y-68515925D01*
X34219686Y-68515926D01*
X34593305Y-68629262D01*
X34593311Y-68629263D01*
X34593314Y-68629264D01*
X34593325Y-68629267D01*
X34976234Y-68705431D01*
X35364785Y-68743700D01*
X35364788Y-68743700D01*
X35755212Y-68743700D01*
X35755215Y-68743700D01*
X36143766Y-68705431D01*
X36218307Y-68690603D01*
X36526674Y-68629267D01*
X36526685Y-68629264D01*
X36526685Y-68629263D01*
X36526695Y-68629262D01*
X36900314Y-68515926D01*
X37261025Y-68366514D01*
X37605354Y-68182466D01*
X37929985Y-67965555D01*
X38231792Y-67717868D01*
X38507868Y-67441792D01*
X38755555Y-67139985D01*
X38972466Y-66815354D01*
X39156514Y-66471025D01*
X39305926Y-66110314D01*
X39419262Y-65736695D01*
X39419264Y-65736685D01*
X39419267Y-65736674D01*
X39495431Y-65353765D01*
X39533700Y-64965211D01*
X39533700Y-64574789D01*
X39533700Y-64574785D01*
X39525583Y-64492368D01*
X88736300Y-64492368D01*
X88736300Y-64882791D01*
X88774568Y-65271345D01*
X88850732Y-65654254D01*
X88850735Y-65654265D01*
X88964075Y-66027899D01*
X89113487Y-66388607D01*
X89113489Y-66388612D01*
X89297527Y-66732922D01*
X89297538Y-66732940D01*
X89514439Y-67057556D01*
X89514449Y-67057570D01*
X89762136Y-67359377D01*
X90038202Y-67635443D01*
X90038207Y-67635447D01*
X90038208Y-67635448D01*
X90340015Y-67883135D01*
X90664646Y-68100046D01*
X90664655Y-68100051D01*
X90664657Y-68100052D01*
X91008967Y-68284090D01*
X91008969Y-68284090D01*
X91008975Y-68284094D01*
X91165418Y-68348895D01*
X91369680Y-68433504D01*
X91369684Y-68433505D01*
X91369686Y-68433506D01*
X91743305Y-68546842D01*
X91743311Y-68546843D01*
X91743314Y-68546844D01*
X91743325Y-68546847D01*
X92126234Y-68623011D01*
X92514785Y-68661280D01*
X92514788Y-68661280D01*
X92905212Y-68661280D01*
X92905215Y-68661280D01*
X93293766Y-68623011D01*
X93368307Y-68608183D01*
X93676674Y-68546847D01*
X93676685Y-68546844D01*
X93676685Y-68546843D01*
X93676695Y-68546842D01*
X94050314Y-68433506D01*
X94411025Y-68284094D01*
X94755354Y-68100046D01*
X95079985Y-67883135D01*
X95381792Y-67635448D01*
X95657868Y-67359372D01*
X95905555Y-67057565D01*
X96122466Y-66732934D01*
X96306514Y-66388605D01*
X96455926Y-66027894D01*
X96569262Y-65654275D01*
X96569264Y-65654265D01*
X96569267Y-65654254D01*
X96645431Y-65271345D01*
X96675582Y-64965215D01*
X96683700Y-64882795D01*
X96683700Y-64492365D01*
X96645431Y-64103814D01*
X96569267Y-63720905D01*
X96569264Y-63720894D01*
X96569263Y-63720891D01*
X96569262Y-63720885D01*
X96455926Y-63347266D01*
X96306514Y-62986555D01*
X96166526Y-62724657D01*
X96122472Y-62642237D01*
X96122471Y-62642235D01*
X96122466Y-62642226D01*
X95905555Y-62317595D01*
X95657868Y-62015788D01*
X95657867Y-62015787D01*
X95657863Y-62015782D01*
X95381797Y-61739716D01*
X95079990Y-61492029D01*
X95079989Y-61492028D01*
X95079985Y-61492025D01*
X94755354Y-61275114D01*
X94755349Y-61275111D01*
X94755342Y-61275107D01*
X94411032Y-61091069D01*
X94411027Y-61091067D01*
X94050319Y-60941655D01*
X93697302Y-60834569D01*
X93676695Y-60828318D01*
X93676694Y-60828317D01*
X93676685Y-60828315D01*
X93676674Y-60828312D01*
X93293765Y-60752148D01*
X93001126Y-60723326D01*
X92905215Y-60713880D01*
X92514785Y-60713880D01*
X92426165Y-60722608D01*
X92126234Y-60752148D01*
X91743325Y-60828312D01*
X91743314Y-60828315D01*
X91369680Y-60941655D01*
X91008972Y-61091067D01*
X91008967Y-61091069D01*
X90664657Y-61275107D01*
X90664639Y-61275118D01*
X90340023Y-61492019D01*
X90340009Y-61492029D01*
X90038202Y-61739716D01*
X89762136Y-62015782D01*
X89514449Y-62317589D01*
X89514439Y-62317603D01*
X89297538Y-62642219D01*
X89297527Y-62642237D01*
X89113489Y-62986547D01*
X89113487Y-62986552D01*
X88964075Y-63347260D01*
X88850735Y-63720894D01*
X88850732Y-63720905D01*
X88774568Y-64103814D01*
X88736300Y-64492368D01*
X39525583Y-64492368D01*
X39495431Y-64186234D01*
X39479037Y-64103814D01*
X39419267Y-63803325D01*
X39419264Y-63803314D01*
X39419263Y-63803311D01*
X39419262Y-63803305D01*
X39305926Y-63429686D01*
X39271786Y-63347266D01*
X39247574Y-63288812D01*
X39156514Y-63068975D01*
X38972466Y-62724646D01*
X38755555Y-62400015D01*
X38507868Y-62098208D01*
X38507867Y-62098207D01*
X38507863Y-62098202D01*
X38231797Y-61822136D01*
X37929990Y-61574449D01*
X37929989Y-61574448D01*
X37929985Y-61574445D01*
X37605354Y-61357534D01*
X37605349Y-61357531D01*
X37605342Y-61357527D01*
X37261032Y-61173489D01*
X37261027Y-61173487D01*
X36900319Y-61024075D01*
X36526685Y-60910735D01*
X36526674Y-60910732D01*
X36143765Y-60834568D01*
X35851126Y-60805746D01*
X35755215Y-60796300D01*
X35364785Y-60796300D01*
X35276165Y-60805028D01*
X34976234Y-60834568D01*
X34593325Y-60910732D01*
X34593314Y-60910735D01*
X34219680Y-61024075D01*
X33858972Y-61173487D01*
X33858967Y-61173489D01*
X33514657Y-61357527D01*
X33514639Y-61357538D01*
X33190023Y-61574439D01*
X33190009Y-61574449D01*
X32888202Y-61822136D01*
X32612136Y-62098202D01*
X32364449Y-62400009D01*
X32364439Y-62400023D01*
X32147538Y-62724639D01*
X32147527Y-62724657D01*
X31963489Y-63068967D01*
X31963487Y-63068972D01*
X31814075Y-63429680D01*
X31700735Y-63803314D01*
X31700732Y-63803325D01*
X31624568Y-64186234D01*
X31586300Y-64574788D01*
X30980500Y-64574788D01*
X30980500Y-51778565D01*
X33535500Y-51778565D01*
X33535500Y-52361434D01*
X33570691Y-52943215D01*
X33640946Y-53521809D01*
X33746009Y-54095123D01*
X33885493Y-54661037D01*
X33885495Y-54661043D01*
X34058893Y-55217495D01*
X34265572Y-55762464D01*
X34504784Y-56293972D01*
X34775657Y-56810077D01*
X35077177Y-57308852D01*
X35077193Y-57308877D01*
X35408279Y-57788537D01*
X35767730Y-58247344D01*
X35767731Y-58247345D01*
X36154229Y-58683611D01*
X36154263Y-58683647D01*
X36566352Y-59095736D01*
X36566388Y-59095770D01*
X37002654Y-59482268D01*
X37002655Y-59482269D01*
X37461461Y-59841719D01*
X37941138Y-60172817D01*
X38439932Y-60474348D01*
X38956022Y-60745213D01*
X39487525Y-60984423D01*
X39487532Y-60984425D01*
X39487535Y-60984427D01*
X39815071Y-61108644D01*
X40032501Y-61191105D01*
X40588962Y-61364506D01*
X41154878Y-61503991D01*
X41728183Y-61609053D01*
X42234459Y-61670526D01*
X42306784Y-61679308D01*
X42374973Y-61683432D01*
X42888574Y-61714500D01*
X42888587Y-61714500D01*
X43471413Y-61714500D01*
X43471426Y-61714500D01*
X44053215Y-61679308D01*
X44631817Y-61609053D01*
X45205122Y-61503991D01*
X45771038Y-61364506D01*
X46327499Y-61191105D01*
X46872475Y-60984423D01*
X47403978Y-60745213D01*
X47920068Y-60474348D01*
X48418862Y-60172817D01*
X48898539Y-59841719D01*
X49138755Y-59653521D01*
X49357344Y-59482269D01*
X49357345Y-59482268D01*
X49357351Y-59482263D01*
X49793622Y-59095761D01*
X50205761Y-58683622D01*
X50592263Y-58247351D01*
X50592268Y-58247345D01*
X50592269Y-58247344D01*
X50763521Y-58028755D01*
X50951719Y-57788539D01*
X51282817Y-57308862D01*
X51584348Y-56810068D01*
X51855213Y-56293978D01*
X52094423Y-55762475D01*
X52301105Y-55217499D01*
X52474506Y-54661038D01*
X52613991Y-54095122D01*
X52719053Y-53521817D01*
X52789308Y-52943215D01*
X52824500Y-52361426D01*
X52824500Y-51778574D01*
X52824499Y-51778565D01*
X72905500Y-51778565D01*
X72905500Y-52361434D01*
X72940691Y-52943215D01*
X73010946Y-53521809D01*
X73116009Y-54095123D01*
X73255493Y-54661037D01*
X73255495Y-54661043D01*
X73428893Y-55217495D01*
X73635572Y-55762464D01*
X73874784Y-56293972D01*
X74145657Y-56810077D01*
X74447177Y-57308852D01*
X74447193Y-57308877D01*
X74778279Y-57788537D01*
X75137730Y-58247344D01*
X75137731Y-58247345D01*
X75524229Y-58683611D01*
X75524263Y-58683647D01*
X75936352Y-59095736D01*
X75936388Y-59095770D01*
X76372654Y-59482268D01*
X76372655Y-59482269D01*
X76831461Y-59841719D01*
X77311138Y-60172817D01*
X77809932Y-60474348D01*
X78326022Y-60745213D01*
X78857525Y-60984423D01*
X78857532Y-60984425D01*
X78857535Y-60984427D01*
X79185071Y-61108644D01*
X79402501Y-61191105D01*
X79958962Y-61364506D01*
X80524878Y-61503991D01*
X81098183Y-61609053D01*
X81604459Y-61670526D01*
X81676784Y-61679308D01*
X81744973Y-61683432D01*
X82258574Y-61714500D01*
X82258587Y-61714500D01*
X82841413Y-61714500D01*
X82841426Y-61714500D01*
X83423215Y-61679308D01*
X84001817Y-61609053D01*
X84575122Y-61503991D01*
X85141038Y-61364506D01*
X85697499Y-61191105D01*
X86242475Y-60984423D01*
X86773978Y-60745213D01*
X87290068Y-60474348D01*
X87788862Y-60172817D01*
X88268539Y-59841719D01*
X88508755Y-59653521D01*
X88727344Y-59482269D01*
X88727345Y-59482268D01*
X88727351Y-59482263D01*
X89163622Y-59095761D01*
X89575761Y-58683622D01*
X89962263Y-58247351D01*
X89962268Y-58247345D01*
X89962269Y-58247344D01*
X90133521Y-58028755D01*
X90321719Y-57788539D01*
X90652817Y-57308862D01*
X90954348Y-56810068D01*
X91225213Y-56293978D01*
X91464423Y-55762475D01*
X91671105Y-55217499D01*
X91844506Y-54661038D01*
X91983991Y-54095122D01*
X92089053Y-53521817D01*
X92159308Y-52943215D01*
X92194500Y-52361426D01*
X92194500Y-51778574D01*
X92159308Y-51196785D01*
X92089053Y-50618183D01*
X91983991Y-50044878D01*
X91844506Y-49478962D01*
X91671105Y-48922501D01*
X91464423Y-48377525D01*
X91225213Y-47846022D01*
X90954348Y-47329932D01*
X90652817Y-46831138D01*
X90321719Y-46351461D01*
X89962269Y-45892655D01*
X89962268Y-45892654D01*
X89575770Y-45456388D01*
X89575736Y-45456352D01*
X89163647Y-45044263D01*
X89163611Y-45044229D01*
X88727345Y-44657731D01*
X88727344Y-44657730D01*
X88268537Y-44298279D01*
X87788877Y-43967193D01*
X87788869Y-43967188D01*
X87788862Y-43967183D01*
X87742451Y-43939126D01*
X87290077Y-43665657D01*
X87290071Y-43665654D01*
X87290068Y-43665652D01*
X86773978Y-43394787D01*
X86773976Y-43394786D01*
X86773972Y-43394784D01*
X86242464Y-43155572D01*
X85697495Y-42948893D01*
X85141043Y-42775495D01*
X85141037Y-42775493D01*
X84575122Y-42636009D01*
X84575124Y-42636009D01*
X84322738Y-42589758D01*
X84001817Y-42530947D01*
X84001809Y-42530946D01*
X83423215Y-42460691D01*
X82841434Y-42425500D01*
X82841426Y-42425500D01*
X82258574Y-42425500D01*
X82258565Y-42425500D01*
X81676784Y-42460691D01*
X81098190Y-42530946D01*
X81098187Y-42530946D01*
X81098183Y-42530947D01*
X80848492Y-42576704D01*
X80524876Y-42636009D01*
X79958962Y-42775493D01*
X79958956Y-42775495D01*
X79402504Y-42948893D01*
X78857535Y-43155572D01*
X78326027Y-43394784D01*
X77809922Y-43665657D01*
X77311147Y-43967177D01*
X77311122Y-43967193D01*
X76831462Y-44298279D01*
X76372655Y-44657730D01*
X76372654Y-44657731D01*
X75936388Y-45044229D01*
X75936352Y-45044263D01*
X75524263Y-45456352D01*
X75524229Y-45456388D01*
X75137731Y-45892654D01*
X75137730Y-45892655D01*
X74778279Y-46351462D01*
X74447193Y-46831122D01*
X74447177Y-46831147D01*
X74145657Y-47329922D01*
X73874784Y-47846027D01*
X73635572Y-48377535D01*
X73428893Y-48922504D01*
X73255495Y-49478956D01*
X73255493Y-49478962D01*
X73116009Y-50044876D01*
X73010946Y-50618190D01*
X72940691Y-51196784D01*
X72905500Y-51778565D01*
X52824499Y-51778565D01*
X52789308Y-51196785D01*
X52719053Y-50618183D01*
X52613991Y-50044878D01*
X52474506Y-49478962D01*
X52301105Y-48922501D01*
X52094423Y-48377525D01*
X51855213Y-47846022D01*
X51584348Y-47329932D01*
X51282817Y-46831138D01*
X50951719Y-46351461D01*
X50592269Y-45892655D01*
X50592268Y-45892654D01*
X50205770Y-45456388D01*
X50205736Y-45456352D01*
X49793647Y-45044263D01*
X49793611Y-45044229D01*
X49357345Y-44657731D01*
X49357344Y-44657730D01*
X48898537Y-44298279D01*
X48418877Y-43967193D01*
X48418869Y-43967188D01*
X48418862Y-43967183D01*
X48372451Y-43939126D01*
X47920077Y-43665657D01*
X47920071Y-43665654D01*
X47920068Y-43665652D01*
X47403978Y-43394787D01*
X47403976Y-43394786D01*
X47403972Y-43394784D01*
X46872464Y-43155572D01*
X46327495Y-42948893D01*
X45771043Y-42775495D01*
X45771037Y-42775493D01*
X45495024Y-42707463D01*
X45205122Y-42636009D01*
X45205124Y-42636009D01*
X44971264Y-42593153D01*
X66763500Y-42593153D01*
X66763500Y-42750846D01*
X66794261Y-42905489D01*
X66794264Y-42905501D01*
X66854603Y-43051174D01*
X66854604Y-43051175D01*
X66854606Y-43051179D01*
X66915602Y-43142465D01*
X66936480Y-43209142D01*
X66936500Y-43211356D01*
X66936500Y-46958642D01*
X66916815Y-47025681D01*
X66915602Y-47027533D01*
X66854609Y-47118814D01*
X66854602Y-47118827D01*
X66794264Y-47264498D01*
X66794261Y-47264510D01*
X66763500Y-47419153D01*
X66763500Y-47576846D01*
X66794261Y-47731489D01*
X66794264Y-47731501D01*
X66854602Y-47877172D01*
X66854609Y-47877185D01*
X66942210Y-48008288D01*
X66942213Y-48008292D01*
X67053707Y-48119786D01*
X67053711Y-48119789D01*
X67184814Y-48207390D01*
X67184827Y-48207397D01*
X67330498Y-48267735D01*
X67330503Y-48267737D01*
X67485153Y-48298499D01*
X67485156Y-48298500D01*
X67485158Y-48298500D01*
X67642844Y-48298500D01*
X67642845Y-48298499D01*
X67797497Y-48267737D01*
X67943179Y-48207394D01*
X68074289Y-48119789D01*
X68185789Y-48008289D01*
X68273394Y-47877179D01*
X68333737Y-47731497D01*
X68364500Y-47576842D01*
X68364500Y-47419158D01*
X68364500Y-47419155D01*
X68364499Y-47419153D01*
X68333737Y-47264503D01*
X68333735Y-47264498D01*
X68273397Y-47118827D01*
X68273390Y-47118814D01*
X68212398Y-47027533D01*
X68191520Y-46960855D01*
X68191500Y-46958642D01*
X68191500Y-43211356D01*
X68211185Y-43144317D01*
X68212398Y-43142465D01*
X68273394Y-43051179D01*
X68333737Y-42905497D01*
X68364500Y-42750842D01*
X68364500Y-42593158D01*
X68364500Y-42593155D01*
X68364499Y-42593153D01*
X68352125Y-42530946D01*
X68333737Y-42438503D01*
X68328351Y-42425500D01*
X68273397Y-42292827D01*
X68273390Y-42292814D01*
X68185789Y-42161711D01*
X68185786Y-42161707D01*
X68074292Y-42050213D01*
X68074288Y-42050210D01*
X67943185Y-41962609D01*
X67943172Y-41962602D01*
X67797501Y-41902264D01*
X67797489Y-41902261D01*
X67642845Y-41871500D01*
X67642842Y-41871500D01*
X67485158Y-41871500D01*
X67485155Y-41871500D01*
X67330510Y-41902261D01*
X67330498Y-41902264D01*
X67184827Y-41962602D01*
X67184814Y-41962609D01*
X67053711Y-42050210D01*
X67053707Y-42050213D01*
X66942213Y-42161707D01*
X66942210Y-42161711D01*
X66854609Y-42292814D01*
X66854602Y-42292827D01*
X66794264Y-42438498D01*
X66794261Y-42438510D01*
X66763500Y-42593153D01*
X44971264Y-42593153D01*
X44952738Y-42589758D01*
X44631817Y-42530947D01*
X44631809Y-42530946D01*
X44053215Y-42460691D01*
X43471434Y-42425500D01*
X43471426Y-42425500D01*
X42888574Y-42425500D01*
X42888565Y-42425500D01*
X42306784Y-42460691D01*
X41728190Y-42530946D01*
X41728187Y-42530946D01*
X41728183Y-42530947D01*
X41478492Y-42576704D01*
X41154876Y-42636009D01*
X40588962Y-42775493D01*
X40588956Y-42775495D01*
X40032504Y-42948893D01*
X39487535Y-43155572D01*
X38956027Y-43394784D01*
X38439922Y-43665657D01*
X37941147Y-43967177D01*
X37941122Y-43967193D01*
X37461462Y-44298279D01*
X37002655Y-44657730D01*
X37002654Y-44657731D01*
X36566388Y-45044229D01*
X36566352Y-45044263D01*
X36154263Y-45456352D01*
X36154229Y-45456388D01*
X35767731Y-45892654D01*
X35767730Y-45892655D01*
X35408279Y-46351462D01*
X35077193Y-46831122D01*
X35077177Y-46831147D01*
X34775657Y-47329922D01*
X34504784Y-47846027D01*
X34265572Y-48377535D01*
X34058893Y-48922504D01*
X33885495Y-49478956D01*
X33885493Y-49478962D01*
X33746009Y-50044876D01*
X33640946Y-50618190D01*
X33570691Y-51196784D01*
X33535500Y-51778565D01*
X30980500Y-51778565D01*
X30980500Y-42116252D01*
X30980649Y-42110168D01*
X30997116Y-41774977D01*
X30998309Y-41762866D01*
X31047102Y-41433931D01*
X31049476Y-41421997D01*
X31130275Y-41099428D01*
X31133803Y-41087794D01*
X31245842Y-40774665D01*
X31250484Y-40763458D01*
X31392682Y-40462806D01*
X31398397Y-40452114D01*
X31569370Y-40166864D01*
X31576113Y-40156771D01*
X31774228Y-39889644D01*
X31781931Y-39880259D01*
X32005271Y-39633841D01*
X32013841Y-39625271D01*
X32260259Y-39401931D01*
X32269644Y-39394228D01*
X32536771Y-39196113D01*
X32546864Y-39189370D01*
X32832114Y-39018397D01*
X32842806Y-39012682D01*
X33143458Y-38870484D01*
X33154665Y-38865842D01*
X33467794Y-38753803D01*
X33479420Y-38750277D01*
X33801999Y-38669475D01*
X33813925Y-38667103D01*
X34142872Y-38618308D01*
X34154972Y-38617116D01*
X34430597Y-38603575D01*
X34490168Y-38600649D01*
X34496252Y-38600500D01*
X34559092Y-38600500D01*
X93710908Y-38600500D01*
X93773748Y-38600500D01*
X93779832Y-38600649D01*
G37*
%TD.AperFunction*%
%TD*%
M02*
