%TF.GenerationSoftware,KiCad,Pcbnew,9.0.6-9.0.6~ubuntu22.04.1*%
%TF.CreationDate,2025-11-18T18:37:08-06:00*%
%TF.ProjectId,BattBreakout,42617474-4272-4656-916b-6f75742e6b69,rev?*%
%TF.SameCoordinates,Original*%
%TF.FileFunction,Legend,Top*%
%TF.FilePolarity,Positive*%
%FSLAX46Y46*%
G04 Gerber Fmt 4.6, Leading zero omitted, Abs format (unit mm)*
G04 Created by KiCad (PCBNEW 9.0.6-9.0.6~ubuntu22.04.1) date 2025-11-18 18:37:08*
%MOMM*%
%LPD*%
G01*
G04 APERTURE LIST*
%ADD10C,0.158750*%
%ADD11C,0.635000*%
%ADD12C,0.150000*%
%ADD13C,0.120000*%
%ADD14C,0.127000*%
%ADD15C,0.200000*%
%ADD16C,0.010000*%
G04 APERTURE END LIST*
D10*
X41107297Y-62167158D02*
X41198011Y-62197396D01*
X41198011Y-62197396D02*
X41228249Y-62227634D01*
X41228249Y-62227634D02*
X41258487Y-62288110D01*
X41258487Y-62288110D02*
X41258487Y-62378824D01*
X41258487Y-62378824D02*
X41228249Y-62439300D01*
X41228249Y-62439300D02*
X41198011Y-62469539D01*
X41198011Y-62469539D02*
X41137535Y-62499777D01*
X41137535Y-62499777D02*
X40895630Y-62499777D01*
X40895630Y-62499777D02*
X40895630Y-61864777D01*
X40895630Y-61864777D02*
X41107297Y-61864777D01*
X41107297Y-61864777D02*
X41167773Y-61895015D01*
X41167773Y-61895015D02*
X41198011Y-61925253D01*
X41198011Y-61925253D02*
X41228249Y-61985729D01*
X41228249Y-61985729D02*
X41228249Y-62046205D01*
X41228249Y-62046205D02*
X41198011Y-62106681D01*
X41198011Y-62106681D02*
X41167773Y-62136919D01*
X41167773Y-62136919D02*
X41107297Y-62167158D01*
X41107297Y-62167158D02*
X40895630Y-62167158D01*
X41530630Y-62499777D02*
X41530630Y-62076443D01*
X41530630Y-62197396D02*
X41560868Y-62136919D01*
X41560868Y-62136919D02*
X41591106Y-62106681D01*
X41591106Y-62106681D02*
X41651582Y-62076443D01*
X41651582Y-62076443D02*
X41712059Y-62076443D01*
X41923725Y-62499777D02*
X41923725Y-62076443D01*
X41923725Y-61864777D02*
X41893487Y-61895015D01*
X41893487Y-61895015D02*
X41923725Y-61925253D01*
X41923725Y-61925253D02*
X41953963Y-61895015D01*
X41953963Y-61895015D02*
X41923725Y-61864777D01*
X41923725Y-61864777D02*
X41923725Y-61925253D01*
X42498249Y-62499777D02*
X42498249Y-61864777D01*
X42498249Y-62469539D02*
X42437773Y-62499777D01*
X42437773Y-62499777D02*
X42316820Y-62499777D01*
X42316820Y-62499777D02*
X42256344Y-62469539D01*
X42256344Y-62469539D02*
X42226106Y-62439300D01*
X42226106Y-62439300D02*
X42195868Y-62378824D01*
X42195868Y-62378824D02*
X42195868Y-62197396D01*
X42195868Y-62197396D02*
X42226106Y-62136919D01*
X42226106Y-62136919D02*
X42256344Y-62106681D01*
X42256344Y-62106681D02*
X42316820Y-62076443D01*
X42316820Y-62076443D02*
X42437773Y-62076443D01*
X42437773Y-62076443D02*
X42498249Y-62106681D01*
X43072773Y-62076443D02*
X43072773Y-62590491D01*
X43072773Y-62590491D02*
X43042535Y-62650967D01*
X43042535Y-62650967D02*
X43012297Y-62681205D01*
X43012297Y-62681205D02*
X42951820Y-62711443D01*
X42951820Y-62711443D02*
X42861106Y-62711443D01*
X42861106Y-62711443D02*
X42800630Y-62681205D01*
X43072773Y-62469539D02*
X43012297Y-62499777D01*
X43012297Y-62499777D02*
X42891344Y-62499777D01*
X42891344Y-62499777D02*
X42830868Y-62469539D01*
X42830868Y-62469539D02*
X42800630Y-62439300D01*
X42800630Y-62439300D02*
X42770392Y-62378824D01*
X42770392Y-62378824D02*
X42770392Y-62197396D01*
X42770392Y-62197396D02*
X42800630Y-62136919D01*
X42800630Y-62136919D02*
X42830868Y-62106681D01*
X42830868Y-62106681D02*
X42891344Y-62076443D01*
X42891344Y-62076443D02*
X43012297Y-62076443D01*
X43012297Y-62076443D02*
X43072773Y-62106681D01*
X43617059Y-62469539D02*
X43556583Y-62499777D01*
X43556583Y-62499777D02*
X43435630Y-62499777D01*
X43435630Y-62499777D02*
X43375154Y-62469539D01*
X43375154Y-62469539D02*
X43344916Y-62409062D01*
X43344916Y-62409062D02*
X43344916Y-62167158D01*
X43344916Y-62167158D02*
X43375154Y-62106681D01*
X43375154Y-62106681D02*
X43435630Y-62076443D01*
X43435630Y-62076443D02*
X43556583Y-62076443D01*
X43556583Y-62076443D02*
X43617059Y-62106681D01*
X43617059Y-62106681D02*
X43647297Y-62167158D01*
X43647297Y-62167158D02*
X43647297Y-62227634D01*
X43647297Y-62227634D02*
X43344916Y-62288110D01*
X44614917Y-62167158D02*
X44705631Y-62197396D01*
X44705631Y-62197396D02*
X44735869Y-62227634D01*
X44735869Y-62227634D02*
X44766107Y-62288110D01*
X44766107Y-62288110D02*
X44766107Y-62378824D01*
X44766107Y-62378824D02*
X44735869Y-62439300D01*
X44735869Y-62439300D02*
X44705631Y-62469539D01*
X44705631Y-62469539D02*
X44645155Y-62499777D01*
X44645155Y-62499777D02*
X44403250Y-62499777D01*
X44403250Y-62499777D02*
X44403250Y-61864777D01*
X44403250Y-61864777D02*
X44614917Y-61864777D01*
X44614917Y-61864777D02*
X44675393Y-61895015D01*
X44675393Y-61895015D02*
X44705631Y-61925253D01*
X44705631Y-61925253D02*
X44735869Y-61985729D01*
X44735869Y-61985729D02*
X44735869Y-62046205D01*
X44735869Y-62046205D02*
X44705631Y-62106681D01*
X44705631Y-62106681D02*
X44675393Y-62136919D01*
X44675393Y-62136919D02*
X44614917Y-62167158D01*
X44614917Y-62167158D02*
X44403250Y-62167158D01*
X45128964Y-62499777D02*
X45068488Y-62469539D01*
X45068488Y-62469539D02*
X45038250Y-62439300D01*
X45038250Y-62439300D02*
X45008012Y-62378824D01*
X45008012Y-62378824D02*
X45008012Y-62197396D01*
X45008012Y-62197396D02*
X45038250Y-62136919D01*
X45038250Y-62136919D02*
X45068488Y-62106681D01*
X45068488Y-62106681D02*
X45128964Y-62076443D01*
X45128964Y-62076443D02*
X45219679Y-62076443D01*
X45219679Y-62076443D02*
X45280155Y-62106681D01*
X45280155Y-62106681D02*
X45310393Y-62136919D01*
X45310393Y-62136919D02*
X45340631Y-62197396D01*
X45340631Y-62197396D02*
X45340631Y-62378824D01*
X45340631Y-62378824D02*
X45310393Y-62439300D01*
X45310393Y-62439300D02*
X45280155Y-62469539D01*
X45280155Y-62469539D02*
X45219679Y-62499777D01*
X45219679Y-62499777D02*
X45128964Y-62499777D01*
X45884917Y-62499777D02*
X45884917Y-62167158D01*
X45884917Y-62167158D02*
X45854679Y-62106681D01*
X45854679Y-62106681D02*
X45794203Y-62076443D01*
X45794203Y-62076443D02*
X45673250Y-62076443D01*
X45673250Y-62076443D02*
X45612774Y-62106681D01*
X45884917Y-62469539D02*
X45824441Y-62499777D01*
X45824441Y-62499777D02*
X45673250Y-62499777D01*
X45673250Y-62499777D02*
X45612774Y-62469539D01*
X45612774Y-62469539D02*
X45582536Y-62409062D01*
X45582536Y-62409062D02*
X45582536Y-62348586D01*
X45582536Y-62348586D02*
X45612774Y-62288110D01*
X45612774Y-62288110D02*
X45673250Y-62257872D01*
X45673250Y-62257872D02*
X45824441Y-62257872D01*
X45824441Y-62257872D02*
X45884917Y-62227634D01*
X46187298Y-62499777D02*
X46187298Y-62076443D01*
X46187298Y-62197396D02*
X46217536Y-62136919D01*
X46217536Y-62136919D02*
X46247774Y-62106681D01*
X46247774Y-62106681D02*
X46308250Y-62076443D01*
X46308250Y-62076443D02*
X46368727Y-62076443D01*
X46852536Y-62499777D02*
X46852536Y-61864777D01*
X46852536Y-62469539D02*
X46792060Y-62499777D01*
X46792060Y-62499777D02*
X46671107Y-62499777D01*
X46671107Y-62499777D02*
X46610631Y-62469539D01*
X46610631Y-62469539D02*
X46580393Y-62439300D01*
X46580393Y-62439300D02*
X46550155Y-62378824D01*
X46550155Y-62378824D02*
X46550155Y-62197396D01*
X46550155Y-62197396D02*
X46580393Y-62136919D01*
X46580393Y-62136919D02*
X46610631Y-62106681D01*
X46610631Y-62106681D02*
X46671107Y-62076443D01*
X46671107Y-62076443D02*
X46792060Y-62076443D01*
X46792060Y-62076443D02*
X46852536Y-62106681D01*
X47185155Y-62469539D02*
X47185155Y-62499777D01*
X47185155Y-62499777D02*
X47154917Y-62560253D01*
X47154917Y-62560253D02*
X47124679Y-62590491D01*
X48303965Y-62499777D02*
X48092298Y-62197396D01*
X47941108Y-62499777D02*
X47941108Y-61864777D01*
X47941108Y-61864777D02*
X48183013Y-61864777D01*
X48183013Y-61864777D02*
X48243489Y-61895015D01*
X48243489Y-61895015D02*
X48273727Y-61925253D01*
X48273727Y-61925253D02*
X48303965Y-61985729D01*
X48303965Y-61985729D02*
X48303965Y-62076443D01*
X48303965Y-62076443D02*
X48273727Y-62136919D01*
X48273727Y-62136919D02*
X48243489Y-62167158D01*
X48243489Y-62167158D02*
X48183013Y-62197396D01*
X48183013Y-62197396D02*
X47941108Y-62197396D01*
X48818013Y-62469539D02*
X48757537Y-62499777D01*
X48757537Y-62499777D02*
X48636584Y-62499777D01*
X48636584Y-62499777D02*
X48576108Y-62469539D01*
X48576108Y-62469539D02*
X48545870Y-62409062D01*
X48545870Y-62409062D02*
X48545870Y-62167158D01*
X48545870Y-62167158D02*
X48576108Y-62106681D01*
X48576108Y-62106681D02*
X48636584Y-62076443D01*
X48636584Y-62076443D02*
X48757537Y-62076443D01*
X48757537Y-62076443D02*
X48818013Y-62106681D01*
X48818013Y-62106681D02*
X48848251Y-62167158D01*
X48848251Y-62167158D02*
X48848251Y-62227634D01*
X48848251Y-62227634D02*
X48545870Y-62288110D01*
X49059918Y-62076443D02*
X49211108Y-62499777D01*
X49211108Y-62499777D02*
X49362299Y-62076443D01*
X50420633Y-62499777D02*
X50057776Y-62499777D01*
X50239204Y-62499777D02*
X50239204Y-61864777D01*
X50239204Y-61864777D02*
X50178728Y-61955491D01*
X50178728Y-61955491D02*
X50118252Y-62015967D01*
X50118252Y-62015967D02*
X50057776Y-62046205D01*
X40895630Y-63522091D02*
X40895630Y-62887091D01*
X40895630Y-62887091D02*
X41107297Y-63340662D01*
X41107297Y-63340662D02*
X41318963Y-62887091D01*
X41318963Y-62887091D02*
X41318963Y-63522091D01*
X41893487Y-63522091D02*
X41893487Y-63189472D01*
X41893487Y-63189472D02*
X41863249Y-63128995D01*
X41863249Y-63128995D02*
X41802773Y-63098757D01*
X41802773Y-63098757D02*
X41681820Y-63098757D01*
X41681820Y-63098757D02*
X41621344Y-63128995D01*
X41893487Y-63491853D02*
X41833011Y-63522091D01*
X41833011Y-63522091D02*
X41681820Y-63522091D01*
X41681820Y-63522091D02*
X41621344Y-63491853D01*
X41621344Y-63491853D02*
X41591106Y-63431376D01*
X41591106Y-63431376D02*
X41591106Y-63370900D01*
X41591106Y-63370900D02*
X41621344Y-63310424D01*
X41621344Y-63310424D02*
X41681820Y-63280186D01*
X41681820Y-63280186D02*
X41833011Y-63280186D01*
X41833011Y-63280186D02*
X41893487Y-63249948D01*
X42195868Y-63522091D02*
X42195868Y-63098757D01*
X42195868Y-63219710D02*
X42226106Y-63159233D01*
X42226106Y-63159233D02*
X42256344Y-63128995D01*
X42256344Y-63128995D02*
X42316820Y-63098757D01*
X42316820Y-63098757D02*
X42377297Y-63098757D01*
X42558725Y-63491853D02*
X42619201Y-63522091D01*
X42619201Y-63522091D02*
X42740153Y-63522091D01*
X42740153Y-63522091D02*
X42800630Y-63491853D01*
X42800630Y-63491853D02*
X42830868Y-63431376D01*
X42830868Y-63431376D02*
X42830868Y-63401138D01*
X42830868Y-63401138D02*
X42800630Y-63340662D01*
X42800630Y-63340662D02*
X42740153Y-63310424D01*
X42740153Y-63310424D02*
X42649439Y-63310424D01*
X42649439Y-63310424D02*
X42588963Y-63280186D01*
X42588963Y-63280186D02*
X42558725Y-63219710D01*
X42558725Y-63219710D02*
X42558725Y-63189472D01*
X42558725Y-63189472D02*
X42588963Y-63128995D01*
X42588963Y-63128995D02*
X42649439Y-63098757D01*
X42649439Y-63098757D02*
X42740153Y-63098757D01*
X42740153Y-63098757D02*
X42800630Y-63128995D01*
X43949678Y-63522091D02*
X43738011Y-63219710D01*
X43586821Y-63522091D02*
X43586821Y-62887091D01*
X43586821Y-62887091D02*
X43828726Y-62887091D01*
X43828726Y-62887091D02*
X43889202Y-62917329D01*
X43889202Y-62917329D02*
X43919440Y-62947567D01*
X43919440Y-62947567D02*
X43949678Y-63008043D01*
X43949678Y-63008043D02*
X43949678Y-63098757D01*
X43949678Y-63098757D02*
X43919440Y-63159233D01*
X43919440Y-63159233D02*
X43889202Y-63189472D01*
X43889202Y-63189472D02*
X43828726Y-63219710D01*
X43828726Y-63219710D02*
X43586821Y-63219710D01*
X44312535Y-63522091D02*
X44252059Y-63491853D01*
X44252059Y-63491853D02*
X44221821Y-63461614D01*
X44221821Y-63461614D02*
X44191583Y-63401138D01*
X44191583Y-63401138D02*
X44191583Y-63219710D01*
X44191583Y-63219710D02*
X44221821Y-63159233D01*
X44221821Y-63159233D02*
X44252059Y-63128995D01*
X44252059Y-63128995D02*
X44312535Y-63098757D01*
X44312535Y-63098757D02*
X44403250Y-63098757D01*
X44403250Y-63098757D02*
X44463726Y-63128995D01*
X44463726Y-63128995D02*
X44493964Y-63159233D01*
X44493964Y-63159233D02*
X44524202Y-63219710D01*
X44524202Y-63219710D02*
X44524202Y-63401138D01*
X44524202Y-63401138D02*
X44493964Y-63461614D01*
X44493964Y-63461614D02*
X44463726Y-63491853D01*
X44463726Y-63491853D02*
X44403250Y-63522091D01*
X44403250Y-63522091D02*
X44312535Y-63522091D01*
X44735869Y-63098757D02*
X44887059Y-63522091D01*
X44887059Y-63522091D02*
X45038250Y-63098757D01*
X45522060Y-63491853D02*
X45461584Y-63522091D01*
X45461584Y-63522091D02*
X45340631Y-63522091D01*
X45340631Y-63522091D02*
X45280155Y-63491853D01*
X45280155Y-63491853D02*
X45249917Y-63431376D01*
X45249917Y-63431376D02*
X45249917Y-63189472D01*
X45249917Y-63189472D02*
X45280155Y-63128995D01*
X45280155Y-63128995D02*
X45340631Y-63098757D01*
X45340631Y-63098757D02*
X45461584Y-63098757D01*
X45461584Y-63098757D02*
X45522060Y-63128995D01*
X45522060Y-63128995D02*
X45552298Y-63189472D01*
X45552298Y-63189472D02*
X45552298Y-63249948D01*
X45552298Y-63249948D02*
X45249917Y-63310424D01*
X45824441Y-63522091D02*
X45824441Y-63098757D01*
X45824441Y-63219710D02*
X45854679Y-63159233D01*
X45854679Y-63159233D02*
X45884917Y-63128995D01*
X45884917Y-63128995D02*
X45945393Y-63098757D01*
X45945393Y-63098757D02*
X46005870Y-63098757D01*
X46701346Y-63522091D02*
X46701346Y-62887091D01*
X46701346Y-62887091D02*
X46852536Y-62887091D01*
X46852536Y-62887091D02*
X46943251Y-62917329D01*
X46943251Y-62917329D02*
X47003727Y-62977805D01*
X47003727Y-62977805D02*
X47033965Y-63038281D01*
X47033965Y-63038281D02*
X47064203Y-63159233D01*
X47064203Y-63159233D02*
X47064203Y-63249948D01*
X47064203Y-63249948D02*
X47033965Y-63370900D01*
X47033965Y-63370900D02*
X47003727Y-63431376D01*
X47003727Y-63431376D02*
X46943251Y-63491853D01*
X46943251Y-63491853D02*
X46852536Y-63522091D01*
X46852536Y-63522091D02*
X46701346Y-63522091D01*
X47578251Y-63491853D02*
X47517775Y-63522091D01*
X47517775Y-63522091D02*
X47396822Y-63522091D01*
X47396822Y-63522091D02*
X47336346Y-63491853D01*
X47336346Y-63491853D02*
X47306108Y-63431376D01*
X47306108Y-63431376D02*
X47306108Y-63189472D01*
X47306108Y-63189472D02*
X47336346Y-63128995D01*
X47336346Y-63128995D02*
X47396822Y-63098757D01*
X47396822Y-63098757D02*
X47517775Y-63098757D01*
X47517775Y-63098757D02*
X47578251Y-63128995D01*
X47578251Y-63128995D02*
X47608489Y-63189472D01*
X47608489Y-63189472D02*
X47608489Y-63249948D01*
X47608489Y-63249948D02*
X47306108Y-63310424D01*
X47850394Y-63491853D02*
X47910870Y-63522091D01*
X47910870Y-63522091D02*
X48031822Y-63522091D01*
X48031822Y-63522091D02*
X48092299Y-63491853D01*
X48092299Y-63491853D02*
X48122537Y-63431376D01*
X48122537Y-63431376D02*
X48122537Y-63401138D01*
X48122537Y-63401138D02*
X48092299Y-63340662D01*
X48092299Y-63340662D02*
X48031822Y-63310424D01*
X48031822Y-63310424D02*
X47941108Y-63310424D01*
X47941108Y-63310424D02*
X47880632Y-63280186D01*
X47880632Y-63280186D02*
X47850394Y-63219710D01*
X47850394Y-63219710D02*
X47850394Y-63189472D01*
X47850394Y-63189472D02*
X47880632Y-63128995D01*
X47880632Y-63128995D02*
X47941108Y-63098757D01*
X47941108Y-63098757D02*
X48031822Y-63098757D01*
X48031822Y-63098757D02*
X48092299Y-63128995D01*
X48394680Y-63522091D02*
X48394680Y-63098757D01*
X48394680Y-62887091D02*
X48364442Y-62917329D01*
X48364442Y-62917329D02*
X48394680Y-62947567D01*
X48394680Y-62947567D02*
X48424918Y-62917329D01*
X48424918Y-62917329D02*
X48394680Y-62887091D01*
X48394680Y-62887091D02*
X48394680Y-62947567D01*
X48969204Y-63098757D02*
X48969204Y-63612805D01*
X48969204Y-63612805D02*
X48938966Y-63673281D01*
X48938966Y-63673281D02*
X48908728Y-63703519D01*
X48908728Y-63703519D02*
X48848251Y-63733757D01*
X48848251Y-63733757D02*
X48757537Y-63733757D01*
X48757537Y-63733757D02*
X48697061Y-63703519D01*
X48969204Y-63491853D02*
X48908728Y-63522091D01*
X48908728Y-63522091D02*
X48787775Y-63522091D01*
X48787775Y-63522091D02*
X48727299Y-63491853D01*
X48727299Y-63491853D02*
X48697061Y-63461614D01*
X48697061Y-63461614D02*
X48666823Y-63401138D01*
X48666823Y-63401138D02*
X48666823Y-63219710D01*
X48666823Y-63219710D02*
X48697061Y-63159233D01*
X48697061Y-63159233D02*
X48727299Y-63128995D01*
X48727299Y-63128995D02*
X48787775Y-63098757D01*
X48787775Y-63098757D02*
X48908728Y-63098757D01*
X48908728Y-63098757D02*
X48969204Y-63128995D01*
X49271585Y-63098757D02*
X49271585Y-63522091D01*
X49271585Y-63159233D02*
X49301823Y-63128995D01*
X49301823Y-63128995D02*
X49362299Y-63098757D01*
X49362299Y-63098757D02*
X49453014Y-63098757D01*
X49453014Y-63098757D02*
X49513490Y-63128995D01*
X49513490Y-63128995D02*
X49543728Y-63189472D01*
X49543728Y-63189472D02*
X49543728Y-63522091D01*
X50239205Y-62887091D02*
X50602062Y-62887091D01*
X50420633Y-63522091D02*
X50420633Y-62887091D01*
X51055634Y-63491853D02*
X50995158Y-63522091D01*
X50995158Y-63522091D02*
X50874205Y-63522091D01*
X50874205Y-63522091D02*
X50813729Y-63491853D01*
X50813729Y-63491853D02*
X50783491Y-63431376D01*
X50783491Y-63431376D02*
X50783491Y-63189472D01*
X50783491Y-63189472D02*
X50813729Y-63128995D01*
X50813729Y-63128995D02*
X50874205Y-63098757D01*
X50874205Y-63098757D02*
X50995158Y-63098757D01*
X50995158Y-63098757D02*
X51055634Y-63128995D01*
X51055634Y-63128995D02*
X51085872Y-63189472D01*
X51085872Y-63189472D02*
X51085872Y-63249948D01*
X51085872Y-63249948D02*
X50783491Y-63310424D01*
X51630158Y-63522091D02*
X51630158Y-63189472D01*
X51630158Y-63189472D02*
X51599920Y-63128995D01*
X51599920Y-63128995D02*
X51539444Y-63098757D01*
X51539444Y-63098757D02*
X51418491Y-63098757D01*
X51418491Y-63098757D02*
X51358015Y-63128995D01*
X51630158Y-63491853D02*
X51569682Y-63522091D01*
X51569682Y-63522091D02*
X51418491Y-63522091D01*
X51418491Y-63522091D02*
X51358015Y-63491853D01*
X51358015Y-63491853D02*
X51327777Y-63431376D01*
X51327777Y-63431376D02*
X51327777Y-63370900D01*
X51327777Y-63370900D02*
X51358015Y-63310424D01*
X51358015Y-63310424D02*
X51418491Y-63280186D01*
X51418491Y-63280186D02*
X51569682Y-63280186D01*
X51569682Y-63280186D02*
X51630158Y-63249948D01*
X51932539Y-63522091D02*
X51932539Y-63098757D01*
X51932539Y-63159233D02*
X51962777Y-63128995D01*
X51962777Y-63128995D02*
X52023253Y-63098757D01*
X52023253Y-63098757D02*
X52113968Y-63098757D01*
X52113968Y-63098757D02*
X52174444Y-63128995D01*
X52174444Y-63128995D02*
X52204682Y-63189472D01*
X52204682Y-63189472D02*
X52204682Y-63522091D01*
X52204682Y-63189472D02*
X52234920Y-63128995D01*
X52234920Y-63128995D02*
X52295396Y-63098757D01*
X52295396Y-63098757D02*
X52386110Y-63098757D01*
X52386110Y-63098757D02*
X52446587Y-63128995D01*
X52446587Y-63128995D02*
X52476825Y-63189472D01*
X52476825Y-63189472D02*
X52476825Y-63522091D01*
X40895630Y-64544405D02*
X40895630Y-63909405D01*
X40895630Y-63909405D02*
X41107297Y-64362976D01*
X41107297Y-64362976D02*
X41318963Y-63909405D01*
X41318963Y-63909405D02*
X41318963Y-64544405D01*
X41621344Y-64544405D02*
X41621344Y-64121071D01*
X41621344Y-63909405D02*
X41591106Y-63939643D01*
X41591106Y-63939643D02*
X41621344Y-63969881D01*
X41621344Y-63969881D02*
X41651582Y-63939643D01*
X41651582Y-63939643D02*
X41621344Y-63909405D01*
X41621344Y-63909405D02*
X41621344Y-63969881D01*
X41893487Y-64514167D02*
X41953963Y-64544405D01*
X41953963Y-64544405D02*
X42074915Y-64544405D01*
X42074915Y-64544405D02*
X42135392Y-64514167D01*
X42135392Y-64514167D02*
X42165630Y-64453690D01*
X42165630Y-64453690D02*
X42165630Y-64423452D01*
X42165630Y-64423452D02*
X42135392Y-64362976D01*
X42135392Y-64362976D02*
X42074915Y-64332738D01*
X42074915Y-64332738D02*
X41984201Y-64332738D01*
X41984201Y-64332738D02*
X41923725Y-64302500D01*
X41923725Y-64302500D02*
X41893487Y-64242024D01*
X41893487Y-64242024D02*
X41893487Y-64211786D01*
X41893487Y-64211786D02*
X41923725Y-64151309D01*
X41923725Y-64151309D02*
X41984201Y-64121071D01*
X41984201Y-64121071D02*
X42074915Y-64121071D01*
X42074915Y-64121071D02*
X42135392Y-64151309D01*
X42407535Y-64514167D02*
X42468011Y-64544405D01*
X42468011Y-64544405D02*
X42588963Y-64544405D01*
X42588963Y-64544405D02*
X42649440Y-64514167D01*
X42649440Y-64514167D02*
X42679678Y-64453690D01*
X42679678Y-64453690D02*
X42679678Y-64423452D01*
X42679678Y-64423452D02*
X42649440Y-64362976D01*
X42649440Y-64362976D02*
X42588963Y-64332738D01*
X42588963Y-64332738D02*
X42498249Y-64332738D01*
X42498249Y-64332738D02*
X42437773Y-64302500D01*
X42437773Y-64302500D02*
X42407535Y-64242024D01*
X42407535Y-64242024D02*
X42407535Y-64211786D01*
X42407535Y-64211786D02*
X42437773Y-64151309D01*
X42437773Y-64151309D02*
X42498249Y-64121071D01*
X42498249Y-64121071D02*
X42588963Y-64121071D01*
X42588963Y-64121071D02*
X42649440Y-64151309D01*
X43042535Y-64544405D02*
X42982059Y-64514167D01*
X42982059Y-64514167D02*
X42951821Y-64483928D01*
X42951821Y-64483928D02*
X42921583Y-64423452D01*
X42921583Y-64423452D02*
X42921583Y-64242024D01*
X42921583Y-64242024D02*
X42951821Y-64181547D01*
X42951821Y-64181547D02*
X42982059Y-64151309D01*
X42982059Y-64151309D02*
X43042535Y-64121071D01*
X43042535Y-64121071D02*
X43133250Y-64121071D01*
X43133250Y-64121071D02*
X43193726Y-64151309D01*
X43193726Y-64151309D02*
X43223964Y-64181547D01*
X43223964Y-64181547D02*
X43254202Y-64242024D01*
X43254202Y-64242024D02*
X43254202Y-64423452D01*
X43254202Y-64423452D02*
X43223964Y-64483928D01*
X43223964Y-64483928D02*
X43193726Y-64514167D01*
X43193726Y-64514167D02*
X43133250Y-64544405D01*
X43133250Y-64544405D02*
X43042535Y-64544405D01*
X43798488Y-64121071D02*
X43798488Y-64544405D01*
X43526345Y-64121071D02*
X43526345Y-64453690D01*
X43526345Y-64453690D02*
X43556583Y-64514167D01*
X43556583Y-64514167D02*
X43617059Y-64544405D01*
X43617059Y-64544405D02*
X43707774Y-64544405D01*
X43707774Y-64544405D02*
X43768250Y-64514167D01*
X43768250Y-64514167D02*
X43798488Y-64483928D01*
X44100869Y-64544405D02*
X44100869Y-64121071D01*
X44100869Y-64242024D02*
X44131107Y-64181547D01*
X44131107Y-64181547D02*
X44161345Y-64151309D01*
X44161345Y-64151309D02*
X44221821Y-64121071D01*
X44221821Y-64121071D02*
X44282298Y-64121071D01*
X44493964Y-64544405D02*
X44493964Y-64121071D01*
X44493964Y-63909405D02*
X44463726Y-63939643D01*
X44463726Y-63939643D02*
X44493964Y-63969881D01*
X44493964Y-63969881D02*
X44524202Y-63939643D01*
X44524202Y-63939643D02*
X44493964Y-63909405D01*
X44493964Y-63909405D02*
X44493964Y-63969881D01*
X45249917Y-64514167D02*
X45340631Y-64544405D01*
X45340631Y-64544405D02*
X45491822Y-64544405D01*
X45491822Y-64544405D02*
X45552298Y-64514167D01*
X45552298Y-64514167D02*
X45582536Y-64483928D01*
X45582536Y-64483928D02*
X45612774Y-64423452D01*
X45612774Y-64423452D02*
X45612774Y-64362976D01*
X45612774Y-64362976D02*
X45582536Y-64302500D01*
X45582536Y-64302500D02*
X45552298Y-64272262D01*
X45552298Y-64272262D02*
X45491822Y-64242024D01*
X45491822Y-64242024D02*
X45370869Y-64211786D01*
X45370869Y-64211786D02*
X45310393Y-64181547D01*
X45310393Y-64181547D02*
X45280155Y-64151309D01*
X45280155Y-64151309D02*
X45249917Y-64090833D01*
X45249917Y-64090833D02*
X45249917Y-64030357D01*
X45249917Y-64030357D02*
X45280155Y-63969881D01*
X45280155Y-63969881D02*
X45310393Y-63939643D01*
X45310393Y-63939643D02*
X45370869Y-63909405D01*
X45370869Y-63909405D02*
X45522060Y-63909405D01*
X45522060Y-63909405D02*
X45612774Y-63939643D01*
X46398965Y-64544405D02*
X46368727Y-64544405D01*
X46368727Y-64544405D02*
X46308250Y-64514167D01*
X46308250Y-64514167D02*
X46217536Y-64423452D01*
X46217536Y-64423452D02*
X46066346Y-64242024D01*
X46066346Y-64242024D02*
X46005869Y-64151309D01*
X46005869Y-64151309D02*
X45975631Y-64060595D01*
X45975631Y-64060595D02*
X45975631Y-64000119D01*
X45975631Y-64000119D02*
X46005869Y-63939643D01*
X46005869Y-63939643D02*
X46066346Y-63909405D01*
X46066346Y-63909405D02*
X46096584Y-63909405D01*
X46096584Y-63909405D02*
X46157060Y-63939643D01*
X46157060Y-63939643D02*
X46187298Y-64000119D01*
X46187298Y-64000119D02*
X46187298Y-64030357D01*
X46187298Y-64030357D02*
X46157060Y-64090833D01*
X46157060Y-64090833D02*
X46126822Y-64121071D01*
X46126822Y-64121071D02*
X45945393Y-64242024D01*
X45945393Y-64242024D02*
X45915155Y-64272262D01*
X45915155Y-64272262D02*
X45884917Y-64332738D01*
X45884917Y-64332738D02*
X45884917Y-64423452D01*
X45884917Y-64423452D02*
X45915155Y-64483928D01*
X45915155Y-64483928D02*
X45945393Y-64514167D01*
X45945393Y-64514167D02*
X46005869Y-64544405D01*
X46005869Y-64544405D02*
X46096584Y-64544405D01*
X46096584Y-64544405D02*
X46157060Y-64514167D01*
X46157060Y-64514167D02*
X46187298Y-64483928D01*
X46187298Y-64483928D02*
X46278012Y-64362976D01*
X46278012Y-64362976D02*
X46308250Y-64272262D01*
X46308250Y-64272262D02*
X46308250Y-64211786D01*
X46580393Y-63909405D02*
X46943250Y-63909405D01*
X46761821Y-64544405D02*
X46761821Y-63909405D01*
X47185155Y-64514167D02*
X47185155Y-64544405D01*
X47185155Y-64544405D02*
X47154917Y-64604881D01*
X47154917Y-64604881D02*
X47124679Y-64635119D01*
X47910870Y-63969881D02*
X47941108Y-63939643D01*
X47941108Y-63939643D02*
X48001584Y-63909405D01*
X48001584Y-63909405D02*
X48152775Y-63909405D01*
X48152775Y-63909405D02*
X48213251Y-63939643D01*
X48213251Y-63939643D02*
X48243489Y-63969881D01*
X48243489Y-63969881D02*
X48273727Y-64030357D01*
X48273727Y-64030357D02*
X48273727Y-64090833D01*
X48273727Y-64090833D02*
X48243489Y-64181547D01*
X48243489Y-64181547D02*
X47880632Y-64544405D01*
X47880632Y-64544405D02*
X48273727Y-64544405D01*
X48666822Y-63909405D02*
X48727299Y-63909405D01*
X48727299Y-63909405D02*
X48787775Y-63939643D01*
X48787775Y-63939643D02*
X48818013Y-63969881D01*
X48818013Y-63969881D02*
X48848251Y-64030357D01*
X48848251Y-64030357D02*
X48878489Y-64151309D01*
X48878489Y-64151309D02*
X48878489Y-64302500D01*
X48878489Y-64302500D02*
X48848251Y-64423452D01*
X48848251Y-64423452D02*
X48818013Y-64483928D01*
X48818013Y-64483928D02*
X48787775Y-64514167D01*
X48787775Y-64514167D02*
X48727299Y-64544405D01*
X48727299Y-64544405D02*
X48666822Y-64544405D01*
X48666822Y-64544405D02*
X48606346Y-64514167D01*
X48606346Y-64514167D02*
X48576108Y-64483928D01*
X48576108Y-64483928D02*
X48545870Y-64423452D01*
X48545870Y-64423452D02*
X48515632Y-64302500D01*
X48515632Y-64302500D02*
X48515632Y-64151309D01*
X48515632Y-64151309D02*
X48545870Y-64030357D01*
X48545870Y-64030357D02*
X48576108Y-63969881D01*
X48576108Y-63969881D02*
X48606346Y-63939643D01*
X48606346Y-63939643D02*
X48666822Y-63909405D01*
X49120394Y-63969881D02*
X49150632Y-63939643D01*
X49150632Y-63939643D02*
X49211108Y-63909405D01*
X49211108Y-63909405D02*
X49362299Y-63909405D01*
X49362299Y-63909405D02*
X49422775Y-63939643D01*
X49422775Y-63939643D02*
X49453013Y-63969881D01*
X49453013Y-63969881D02*
X49483251Y-64030357D01*
X49483251Y-64030357D02*
X49483251Y-64090833D01*
X49483251Y-64090833D02*
X49453013Y-64181547D01*
X49453013Y-64181547D02*
X49090156Y-64544405D01*
X49090156Y-64544405D02*
X49483251Y-64544405D01*
X50027537Y-63909405D02*
X49906584Y-63909405D01*
X49906584Y-63909405D02*
X49846108Y-63939643D01*
X49846108Y-63939643D02*
X49815870Y-63969881D01*
X49815870Y-63969881D02*
X49755394Y-64060595D01*
X49755394Y-64060595D02*
X49725156Y-64181547D01*
X49725156Y-64181547D02*
X49725156Y-64423452D01*
X49725156Y-64423452D02*
X49755394Y-64483928D01*
X49755394Y-64483928D02*
X49785632Y-64514167D01*
X49785632Y-64514167D02*
X49846108Y-64544405D01*
X49846108Y-64544405D02*
X49967061Y-64544405D01*
X49967061Y-64544405D02*
X50027537Y-64514167D01*
X50027537Y-64514167D02*
X50057775Y-64483928D01*
X50057775Y-64483928D02*
X50088013Y-64423452D01*
X50088013Y-64423452D02*
X50088013Y-64272262D01*
X50088013Y-64272262D02*
X50057775Y-64211786D01*
X50057775Y-64211786D02*
X50027537Y-64181547D01*
X50027537Y-64181547D02*
X49967061Y-64151309D01*
X49967061Y-64151309D02*
X49846108Y-64151309D01*
X49846108Y-64151309D02*
X49785632Y-64181547D01*
X49785632Y-64181547D02*
X49755394Y-64211786D01*
X49755394Y-64211786D02*
X49725156Y-64272262D01*
X40865392Y-65385290D02*
X41167773Y-65385290D01*
X40804916Y-65566719D02*
X41016582Y-64931719D01*
X41016582Y-64931719D02*
X41228249Y-65566719D01*
X41439916Y-65566719D02*
X41439916Y-65143385D01*
X41439916Y-64931719D02*
X41409678Y-64961957D01*
X41409678Y-64961957D02*
X41439916Y-64992195D01*
X41439916Y-64992195D02*
X41470154Y-64961957D01*
X41470154Y-64961957D02*
X41439916Y-64931719D01*
X41439916Y-64931719D02*
X41439916Y-64992195D01*
X42014440Y-65566719D02*
X42014440Y-64931719D01*
X42014440Y-65536481D02*
X41953964Y-65566719D01*
X41953964Y-65566719D02*
X41833011Y-65566719D01*
X41833011Y-65566719D02*
X41772535Y-65536481D01*
X41772535Y-65536481D02*
X41742297Y-65506242D01*
X41742297Y-65506242D02*
X41712059Y-65445766D01*
X41712059Y-65445766D02*
X41712059Y-65264338D01*
X41712059Y-65264338D02*
X41742297Y-65203861D01*
X41742297Y-65203861D02*
X41772535Y-65173623D01*
X41772535Y-65173623D02*
X41833011Y-65143385D01*
X41833011Y-65143385D02*
X41953964Y-65143385D01*
X41953964Y-65143385D02*
X42014440Y-65173623D01*
X42558726Y-65536481D02*
X42498250Y-65566719D01*
X42498250Y-65566719D02*
X42377297Y-65566719D01*
X42377297Y-65566719D02*
X42316821Y-65536481D01*
X42316821Y-65536481D02*
X42286583Y-65476004D01*
X42286583Y-65476004D02*
X42286583Y-65234100D01*
X42286583Y-65234100D02*
X42316821Y-65173623D01*
X42316821Y-65173623D02*
X42377297Y-65143385D01*
X42377297Y-65143385D02*
X42498250Y-65143385D01*
X42498250Y-65143385D02*
X42558726Y-65173623D01*
X42558726Y-65173623D02*
X42588964Y-65234100D01*
X42588964Y-65234100D02*
X42588964Y-65294576D01*
X42588964Y-65294576D02*
X42286583Y-65355052D01*
X42861107Y-65143385D02*
X42861107Y-65566719D01*
X42861107Y-65203861D02*
X42891345Y-65173623D01*
X42891345Y-65173623D02*
X42951821Y-65143385D01*
X42951821Y-65143385D02*
X43042536Y-65143385D01*
X43042536Y-65143385D02*
X43103012Y-65173623D01*
X43103012Y-65173623D02*
X43133250Y-65234100D01*
X43133250Y-65234100D02*
X43133250Y-65566719D01*
X44131108Y-65234100D02*
X44221822Y-65264338D01*
X44221822Y-65264338D02*
X44252060Y-65294576D01*
X44252060Y-65294576D02*
X44282298Y-65355052D01*
X44282298Y-65355052D02*
X44282298Y-65445766D01*
X44282298Y-65445766D02*
X44252060Y-65506242D01*
X44252060Y-65506242D02*
X44221822Y-65536481D01*
X44221822Y-65536481D02*
X44161346Y-65566719D01*
X44161346Y-65566719D02*
X43919441Y-65566719D01*
X43919441Y-65566719D02*
X43919441Y-64931719D01*
X43919441Y-64931719D02*
X44131108Y-64931719D01*
X44131108Y-64931719D02*
X44191584Y-64961957D01*
X44191584Y-64961957D02*
X44221822Y-64992195D01*
X44221822Y-64992195D02*
X44252060Y-65052671D01*
X44252060Y-65052671D02*
X44252060Y-65113147D01*
X44252060Y-65113147D02*
X44221822Y-65173623D01*
X44221822Y-65173623D02*
X44191584Y-65203861D01*
X44191584Y-65203861D02*
X44131108Y-65234100D01*
X44131108Y-65234100D02*
X43919441Y-65234100D01*
X44554441Y-65566719D02*
X44554441Y-65143385D01*
X44554441Y-65264338D02*
X44584679Y-65203861D01*
X44584679Y-65203861D02*
X44614917Y-65173623D01*
X44614917Y-65173623D02*
X44675393Y-65143385D01*
X44675393Y-65143385D02*
X44735870Y-65143385D01*
X45038250Y-65566719D02*
X44977774Y-65536481D01*
X44977774Y-65536481D02*
X44947536Y-65506242D01*
X44947536Y-65506242D02*
X44917298Y-65445766D01*
X44917298Y-65445766D02*
X44917298Y-65264338D01*
X44917298Y-65264338D02*
X44947536Y-65203861D01*
X44947536Y-65203861D02*
X44977774Y-65173623D01*
X44977774Y-65173623D02*
X45038250Y-65143385D01*
X45038250Y-65143385D02*
X45128965Y-65143385D01*
X45128965Y-65143385D02*
X45189441Y-65173623D01*
X45189441Y-65173623D02*
X45219679Y-65203861D01*
X45219679Y-65203861D02*
X45249917Y-65264338D01*
X45249917Y-65264338D02*
X45249917Y-65445766D01*
X45249917Y-65445766D02*
X45219679Y-65506242D01*
X45219679Y-65506242D02*
X45189441Y-65536481D01*
X45189441Y-65536481D02*
X45128965Y-65566719D01*
X45128965Y-65566719D02*
X45038250Y-65566719D01*
X45612774Y-65566719D02*
X45552298Y-65536481D01*
X45552298Y-65536481D02*
X45522060Y-65506242D01*
X45522060Y-65506242D02*
X45491822Y-65445766D01*
X45491822Y-65445766D02*
X45491822Y-65264338D01*
X45491822Y-65264338D02*
X45522060Y-65203861D01*
X45522060Y-65203861D02*
X45552298Y-65173623D01*
X45552298Y-65173623D02*
X45612774Y-65143385D01*
X45612774Y-65143385D02*
X45703489Y-65143385D01*
X45703489Y-65143385D02*
X45763965Y-65173623D01*
X45763965Y-65173623D02*
X45794203Y-65203861D01*
X45794203Y-65203861D02*
X45824441Y-65264338D01*
X45824441Y-65264338D02*
X45824441Y-65445766D01*
X45824441Y-65445766D02*
X45794203Y-65506242D01*
X45794203Y-65506242D02*
X45763965Y-65536481D01*
X45763965Y-65536481D02*
X45703489Y-65566719D01*
X45703489Y-65566719D02*
X45612774Y-65566719D01*
X46096584Y-65566719D02*
X46096584Y-64931719D01*
X46157060Y-65324814D02*
X46338489Y-65566719D01*
X46338489Y-65143385D02*
X46096584Y-65385290D01*
X46580394Y-65536481D02*
X46640870Y-65566719D01*
X46640870Y-65566719D02*
X46761822Y-65566719D01*
X46761822Y-65566719D02*
X46822299Y-65536481D01*
X46822299Y-65536481D02*
X46852537Y-65476004D01*
X46852537Y-65476004D02*
X46852537Y-65445766D01*
X46852537Y-65445766D02*
X46822299Y-65385290D01*
X46822299Y-65385290D02*
X46761822Y-65355052D01*
X46761822Y-65355052D02*
X46671108Y-65355052D01*
X46671108Y-65355052D02*
X46610632Y-65324814D01*
X46610632Y-65324814D02*
X46580394Y-65264338D01*
X46580394Y-65264338D02*
X46580394Y-65234100D01*
X46580394Y-65234100D02*
X46610632Y-65173623D01*
X46610632Y-65173623D02*
X46671108Y-65143385D01*
X46671108Y-65143385D02*
X46761822Y-65143385D01*
X46761822Y-65143385D02*
X46822299Y-65173623D01*
X47154918Y-65536481D02*
X47154918Y-65566719D01*
X47154918Y-65566719D02*
X47124680Y-65627195D01*
X47124680Y-65627195D02*
X47094442Y-65657433D01*
X48273728Y-65506242D02*
X48243490Y-65536481D01*
X48243490Y-65536481D02*
X48152776Y-65566719D01*
X48152776Y-65566719D02*
X48092300Y-65566719D01*
X48092300Y-65566719D02*
X48001585Y-65536481D01*
X48001585Y-65536481D02*
X47941109Y-65476004D01*
X47941109Y-65476004D02*
X47910871Y-65415528D01*
X47910871Y-65415528D02*
X47880633Y-65294576D01*
X47880633Y-65294576D02*
X47880633Y-65203861D01*
X47880633Y-65203861D02*
X47910871Y-65082909D01*
X47910871Y-65082909D02*
X47941109Y-65022433D01*
X47941109Y-65022433D02*
X48001585Y-64961957D01*
X48001585Y-64961957D02*
X48092300Y-64931719D01*
X48092300Y-64931719D02*
X48152776Y-64931719D01*
X48152776Y-64931719D02*
X48243490Y-64961957D01*
X48243490Y-64961957D02*
X48273728Y-64992195D01*
X48636585Y-65566719D02*
X48576109Y-65536481D01*
X48576109Y-65536481D02*
X48545871Y-65506242D01*
X48545871Y-65506242D02*
X48515633Y-65445766D01*
X48515633Y-65445766D02*
X48515633Y-65264338D01*
X48515633Y-65264338D02*
X48545871Y-65203861D01*
X48545871Y-65203861D02*
X48576109Y-65173623D01*
X48576109Y-65173623D02*
X48636585Y-65143385D01*
X48636585Y-65143385D02*
X48727300Y-65143385D01*
X48727300Y-65143385D02*
X48787776Y-65173623D01*
X48787776Y-65173623D02*
X48818014Y-65203861D01*
X48818014Y-65203861D02*
X48848252Y-65264338D01*
X48848252Y-65264338D02*
X48848252Y-65445766D01*
X48848252Y-65445766D02*
X48818014Y-65506242D01*
X48818014Y-65506242D02*
X48787776Y-65536481D01*
X48787776Y-65536481D02*
X48727300Y-65566719D01*
X48727300Y-65566719D02*
X48636585Y-65566719D01*
X49120395Y-65566719D02*
X49120395Y-64931719D01*
X49392538Y-65566719D02*
X49392538Y-65234100D01*
X49392538Y-65234100D02*
X49362300Y-65173623D01*
X49362300Y-65173623D02*
X49301824Y-65143385D01*
X49301824Y-65143385D02*
X49211109Y-65143385D01*
X49211109Y-65143385D02*
X49150633Y-65173623D01*
X49150633Y-65173623D02*
X49120395Y-65203861D01*
X49936824Y-65536481D02*
X49876348Y-65566719D01*
X49876348Y-65566719D02*
X49755395Y-65566719D01*
X49755395Y-65566719D02*
X49694919Y-65536481D01*
X49694919Y-65536481D02*
X49664681Y-65476004D01*
X49664681Y-65476004D02*
X49664681Y-65234100D01*
X49664681Y-65234100D02*
X49694919Y-65173623D01*
X49694919Y-65173623D02*
X49755395Y-65143385D01*
X49755395Y-65143385D02*
X49876348Y-65143385D01*
X49876348Y-65143385D02*
X49936824Y-65173623D01*
X49936824Y-65173623D02*
X49967062Y-65234100D01*
X49967062Y-65234100D02*
X49967062Y-65294576D01*
X49967062Y-65294576D02*
X49664681Y-65355052D01*
X50239205Y-65143385D02*
X50239205Y-65566719D01*
X50239205Y-65203861D02*
X50269443Y-65173623D01*
X50269443Y-65173623D02*
X50329919Y-65143385D01*
X50329919Y-65143385D02*
X50420634Y-65143385D01*
X50420634Y-65143385D02*
X50481110Y-65173623D01*
X50481110Y-65173623D02*
X50511348Y-65234100D01*
X50511348Y-65234100D02*
X50511348Y-65566719D01*
X51297539Y-65566719D02*
X51297539Y-64931719D01*
X51297539Y-64931719D02*
X51448729Y-64931719D01*
X51448729Y-64931719D02*
X51539444Y-64961957D01*
X51539444Y-64961957D02*
X51599920Y-65022433D01*
X51599920Y-65022433D02*
X51630158Y-65082909D01*
X51630158Y-65082909D02*
X51660396Y-65203861D01*
X51660396Y-65203861D02*
X51660396Y-65294576D01*
X51660396Y-65294576D02*
X51630158Y-65415528D01*
X51630158Y-65415528D02*
X51599920Y-65476004D01*
X51599920Y-65476004D02*
X51539444Y-65536481D01*
X51539444Y-65536481D02*
X51448729Y-65566719D01*
X51448729Y-65566719D02*
X51297539Y-65566719D01*
X52204682Y-65143385D02*
X52204682Y-65566719D01*
X51932539Y-65143385D02*
X51932539Y-65476004D01*
X51932539Y-65476004D02*
X51962777Y-65536481D01*
X51962777Y-65536481D02*
X52023253Y-65566719D01*
X52023253Y-65566719D02*
X52113968Y-65566719D01*
X52113968Y-65566719D02*
X52174444Y-65536481D01*
X52174444Y-65536481D02*
X52204682Y-65506242D01*
X52507063Y-65566719D02*
X52507063Y-65143385D01*
X52507063Y-65203861D02*
X52537301Y-65173623D01*
X52537301Y-65173623D02*
X52597777Y-65143385D01*
X52597777Y-65143385D02*
X52688492Y-65143385D01*
X52688492Y-65143385D02*
X52748968Y-65173623D01*
X52748968Y-65173623D02*
X52779206Y-65234100D01*
X52779206Y-65234100D02*
X52779206Y-65566719D01*
X52779206Y-65234100D02*
X52809444Y-65173623D01*
X52809444Y-65173623D02*
X52869920Y-65143385D01*
X52869920Y-65143385D02*
X52960634Y-65143385D01*
X52960634Y-65143385D02*
X53021111Y-65173623D01*
X53021111Y-65173623D02*
X53051349Y-65234100D01*
X53051349Y-65234100D02*
X53051349Y-65566719D01*
X53353730Y-65566719D02*
X53353730Y-65143385D01*
X53353730Y-65203861D02*
X53383968Y-65173623D01*
X53383968Y-65173623D02*
X53444444Y-65143385D01*
X53444444Y-65143385D02*
X53535159Y-65143385D01*
X53535159Y-65143385D02*
X53595635Y-65173623D01*
X53595635Y-65173623D02*
X53625873Y-65234100D01*
X53625873Y-65234100D02*
X53625873Y-65566719D01*
X53625873Y-65234100D02*
X53656111Y-65173623D01*
X53656111Y-65173623D02*
X53716587Y-65143385D01*
X53716587Y-65143385D02*
X53807301Y-65143385D01*
X53807301Y-65143385D02*
X53867778Y-65173623D01*
X53867778Y-65173623D02*
X53898016Y-65234100D01*
X53898016Y-65234100D02*
X53898016Y-65566719D01*
X54442302Y-65536481D02*
X54381826Y-65566719D01*
X54381826Y-65566719D02*
X54260873Y-65566719D01*
X54260873Y-65566719D02*
X54200397Y-65536481D01*
X54200397Y-65536481D02*
X54170159Y-65476004D01*
X54170159Y-65476004D02*
X54170159Y-65234100D01*
X54170159Y-65234100D02*
X54200397Y-65173623D01*
X54200397Y-65173623D02*
X54260873Y-65143385D01*
X54260873Y-65143385D02*
X54381826Y-65143385D01*
X54381826Y-65143385D02*
X54442302Y-65173623D01*
X54442302Y-65173623D02*
X54472540Y-65234100D01*
X54472540Y-65234100D02*
X54472540Y-65294576D01*
X54472540Y-65294576D02*
X54170159Y-65355052D01*
X54744683Y-65566719D02*
X54744683Y-65143385D01*
X54744683Y-65264338D02*
X54774921Y-65203861D01*
X54774921Y-65203861D02*
X54805159Y-65173623D01*
X54805159Y-65173623D02*
X54865635Y-65143385D01*
X54865635Y-65143385D02*
X54926112Y-65143385D01*
X55047064Y-65143385D02*
X55288968Y-65143385D01*
X55137778Y-64931719D02*
X55137778Y-65476004D01*
X55137778Y-65476004D02*
X55168016Y-65536481D01*
X55168016Y-65536481D02*
X55228492Y-65566719D01*
X55228492Y-65566719D02*
X55288968Y-65566719D01*
X55500635Y-65566719D02*
X55500635Y-64931719D01*
X55772778Y-65566719D02*
X55772778Y-65234100D01*
X55772778Y-65234100D02*
X55742540Y-65173623D01*
X55742540Y-65173623D02*
X55682064Y-65143385D01*
X55682064Y-65143385D02*
X55591349Y-65143385D01*
X55591349Y-65143385D02*
X55530873Y-65173623D01*
X55530873Y-65173623D02*
X55500635Y-65203861D01*
X56105397Y-65536481D02*
X56105397Y-65566719D01*
X56105397Y-65566719D02*
X56075159Y-65627195D01*
X56075159Y-65627195D02*
X56044921Y-65657433D01*
X40895630Y-66256414D02*
X41107297Y-66256414D01*
X41198011Y-66589033D02*
X40895630Y-66589033D01*
X40895630Y-66589033D02*
X40895630Y-65954033D01*
X40895630Y-65954033D02*
X41198011Y-65954033D01*
X41470154Y-66589033D02*
X41470154Y-66165699D01*
X41470154Y-66226175D02*
X41500392Y-66195937D01*
X41500392Y-66195937D02*
X41560868Y-66165699D01*
X41560868Y-66165699D02*
X41651583Y-66165699D01*
X41651583Y-66165699D02*
X41712059Y-66195937D01*
X41712059Y-66195937D02*
X41742297Y-66256414D01*
X41742297Y-66256414D02*
X41742297Y-66589033D01*
X41742297Y-66256414D02*
X41772535Y-66195937D01*
X41772535Y-66195937D02*
X41833011Y-66165699D01*
X41833011Y-66165699D02*
X41923725Y-66165699D01*
X41923725Y-66165699D02*
X41984202Y-66195937D01*
X41984202Y-66195937D02*
X42014440Y-66256414D01*
X42014440Y-66256414D02*
X42014440Y-66589033D01*
X42316821Y-66589033D02*
X42316821Y-66165699D01*
X42316821Y-65954033D02*
X42286583Y-65984271D01*
X42286583Y-65984271D02*
X42316821Y-66014509D01*
X42316821Y-66014509D02*
X42347059Y-65984271D01*
X42347059Y-65984271D02*
X42316821Y-65954033D01*
X42316821Y-65954033D02*
X42316821Y-66014509D01*
X42709916Y-66589033D02*
X42649440Y-66558795D01*
X42649440Y-66558795D02*
X42619202Y-66498318D01*
X42619202Y-66498318D02*
X42619202Y-65954033D01*
X42951821Y-66589033D02*
X42951821Y-66165699D01*
X42951821Y-65954033D02*
X42921583Y-65984271D01*
X42921583Y-65984271D02*
X42951821Y-66014509D01*
X42951821Y-66014509D02*
X42982059Y-65984271D01*
X42982059Y-65984271D02*
X42951821Y-65954033D01*
X42951821Y-65954033D02*
X42951821Y-66014509D01*
X43344916Y-66589033D02*
X43284440Y-66558795D01*
X43284440Y-66558795D02*
X43254202Y-66528556D01*
X43254202Y-66528556D02*
X43223964Y-66468080D01*
X43223964Y-66468080D02*
X43223964Y-66286652D01*
X43223964Y-66286652D02*
X43254202Y-66226175D01*
X43254202Y-66226175D02*
X43284440Y-66195937D01*
X43284440Y-66195937D02*
X43344916Y-66165699D01*
X43344916Y-66165699D02*
X43435631Y-66165699D01*
X43435631Y-66165699D02*
X43496107Y-66195937D01*
X43496107Y-66195937D02*
X43526345Y-66226175D01*
X43526345Y-66226175D02*
X43556583Y-66286652D01*
X43556583Y-66286652D02*
X43556583Y-66468080D01*
X43556583Y-66468080D02*
X43526345Y-66528556D01*
X43526345Y-66528556D02*
X43496107Y-66558795D01*
X43496107Y-66558795D02*
X43435631Y-66589033D01*
X43435631Y-66589033D02*
X43344916Y-66589033D01*
X44524203Y-66256414D02*
X44614917Y-66286652D01*
X44614917Y-66286652D02*
X44645155Y-66316890D01*
X44645155Y-66316890D02*
X44675393Y-66377366D01*
X44675393Y-66377366D02*
X44675393Y-66468080D01*
X44675393Y-66468080D02*
X44645155Y-66528556D01*
X44645155Y-66528556D02*
X44614917Y-66558795D01*
X44614917Y-66558795D02*
X44554441Y-66589033D01*
X44554441Y-66589033D02*
X44312536Y-66589033D01*
X44312536Y-66589033D02*
X44312536Y-65954033D01*
X44312536Y-65954033D02*
X44524203Y-65954033D01*
X44524203Y-65954033D02*
X44584679Y-65984271D01*
X44584679Y-65984271D02*
X44614917Y-66014509D01*
X44614917Y-66014509D02*
X44645155Y-66074985D01*
X44645155Y-66074985D02*
X44645155Y-66135461D01*
X44645155Y-66135461D02*
X44614917Y-66195937D01*
X44614917Y-66195937D02*
X44584679Y-66226175D01*
X44584679Y-66226175D02*
X44524203Y-66256414D01*
X44524203Y-66256414D02*
X44312536Y-66256414D01*
X45219679Y-66589033D02*
X45219679Y-66256414D01*
X45219679Y-66256414D02*
X45189441Y-66195937D01*
X45189441Y-66195937D02*
X45128965Y-66165699D01*
X45128965Y-66165699D02*
X45008012Y-66165699D01*
X45008012Y-66165699D02*
X44947536Y-66195937D01*
X45219679Y-66558795D02*
X45159203Y-66589033D01*
X45159203Y-66589033D02*
X45008012Y-66589033D01*
X45008012Y-66589033D02*
X44947536Y-66558795D01*
X44947536Y-66558795D02*
X44917298Y-66498318D01*
X44917298Y-66498318D02*
X44917298Y-66437842D01*
X44917298Y-66437842D02*
X44947536Y-66377366D01*
X44947536Y-66377366D02*
X45008012Y-66347128D01*
X45008012Y-66347128D02*
X45159203Y-66347128D01*
X45159203Y-66347128D02*
X45219679Y-66316890D01*
X45763965Y-66558795D02*
X45703489Y-66589033D01*
X45703489Y-66589033D02*
X45582536Y-66589033D01*
X45582536Y-66589033D02*
X45522060Y-66558795D01*
X45522060Y-66558795D02*
X45491822Y-66498318D01*
X45491822Y-66498318D02*
X45491822Y-66256414D01*
X45491822Y-66256414D02*
X45522060Y-66195937D01*
X45522060Y-66195937D02*
X45582536Y-66165699D01*
X45582536Y-66165699D02*
X45703489Y-66165699D01*
X45703489Y-66165699D02*
X45763965Y-66195937D01*
X45763965Y-66195937D02*
X45794203Y-66256414D01*
X45794203Y-66256414D02*
X45794203Y-66316890D01*
X45794203Y-66316890D02*
X45491822Y-66377366D01*
X46005870Y-66165699D02*
X46338489Y-66165699D01*
X46338489Y-66165699D02*
X46005870Y-66589033D01*
X46005870Y-66589033D02*
X46338489Y-66589033D01*
X46852537Y-66589033D02*
X46852537Y-66256414D01*
X46852537Y-66256414D02*
X46822299Y-66195937D01*
X46822299Y-66195937D02*
X46761823Y-66165699D01*
X46761823Y-66165699D02*
X46640870Y-66165699D01*
X46640870Y-66165699D02*
X46580394Y-66195937D01*
X46852537Y-66558795D02*
X46792061Y-66589033D01*
X46792061Y-66589033D02*
X46640870Y-66589033D01*
X46640870Y-66589033D02*
X46580394Y-66558795D01*
X46580394Y-66558795D02*
X46550156Y-66498318D01*
X46550156Y-66498318D02*
X46550156Y-66437842D01*
X46550156Y-66437842D02*
X46580394Y-66377366D01*
X46580394Y-66377366D02*
X46640870Y-66347128D01*
X46640870Y-66347128D02*
X46792061Y-66347128D01*
X46792061Y-66347128D02*
X46852537Y-66316890D01*
X47185156Y-66558795D02*
X47185156Y-66589033D01*
X47185156Y-66589033D02*
X47154918Y-66649509D01*
X47154918Y-66649509D02*
X47124680Y-66679747D01*
X47941109Y-66589033D02*
X47941109Y-65954033D01*
X47941109Y-65954033D02*
X48152776Y-66407604D01*
X48152776Y-66407604D02*
X48364442Y-65954033D01*
X48364442Y-65954033D02*
X48364442Y-66589033D01*
X48938966Y-66589033D02*
X48938966Y-66256414D01*
X48938966Y-66256414D02*
X48908728Y-66195937D01*
X48908728Y-66195937D02*
X48848252Y-66165699D01*
X48848252Y-66165699D02*
X48727299Y-66165699D01*
X48727299Y-66165699D02*
X48666823Y-66195937D01*
X48938966Y-66558795D02*
X48878490Y-66589033D01*
X48878490Y-66589033D02*
X48727299Y-66589033D01*
X48727299Y-66589033D02*
X48666823Y-66558795D01*
X48666823Y-66558795D02*
X48636585Y-66498318D01*
X48636585Y-66498318D02*
X48636585Y-66437842D01*
X48636585Y-66437842D02*
X48666823Y-66377366D01*
X48666823Y-66377366D02*
X48727299Y-66347128D01*
X48727299Y-66347128D02*
X48878490Y-66347128D01*
X48878490Y-66347128D02*
X48938966Y-66316890D01*
X49180871Y-66589033D02*
X49513490Y-66165699D01*
X49180871Y-66165699D02*
X49513490Y-66589033D01*
X50148491Y-65954033D02*
X50511348Y-65954033D01*
X50329919Y-66589033D02*
X50329919Y-65954033D01*
X50723015Y-66589033D02*
X50723015Y-65954033D01*
X50995158Y-66589033D02*
X50995158Y-66256414D01*
X50995158Y-66256414D02*
X50964920Y-66195937D01*
X50964920Y-66195937D02*
X50904444Y-66165699D01*
X50904444Y-66165699D02*
X50813729Y-66165699D01*
X50813729Y-66165699D02*
X50753253Y-66195937D01*
X50753253Y-66195937D02*
X50723015Y-66226175D01*
X51539444Y-66558795D02*
X51478968Y-66589033D01*
X51478968Y-66589033D02*
X51358015Y-66589033D01*
X51358015Y-66589033D02*
X51297539Y-66558795D01*
X51297539Y-66558795D02*
X51267301Y-66498318D01*
X51267301Y-66498318D02*
X51267301Y-66256414D01*
X51267301Y-66256414D02*
X51297539Y-66195937D01*
X51297539Y-66195937D02*
X51358015Y-66165699D01*
X51358015Y-66165699D02*
X51478968Y-66165699D01*
X51478968Y-66165699D02*
X51539444Y-66195937D01*
X51539444Y-66195937D02*
X51569682Y-66256414D01*
X51569682Y-66256414D02*
X51569682Y-66316890D01*
X51569682Y-66316890D02*
X51267301Y-66377366D01*
X51841825Y-66589033D02*
X51841825Y-66165699D01*
X51841825Y-66286652D02*
X51872063Y-66226175D01*
X51872063Y-66226175D02*
X51902301Y-66195937D01*
X51902301Y-66195937D02*
X51962777Y-66165699D01*
X51962777Y-66165699D02*
X52023254Y-66165699D01*
X52234920Y-66589033D02*
X52234920Y-66165699D01*
X52234920Y-65954033D02*
X52204682Y-65984271D01*
X52204682Y-65984271D02*
X52234920Y-66014509D01*
X52234920Y-66014509D02*
X52265158Y-65984271D01*
X52265158Y-65984271D02*
X52234920Y-65954033D01*
X52234920Y-65954033D02*
X52234920Y-66014509D01*
X52537301Y-66165699D02*
X52537301Y-66589033D01*
X52537301Y-66226175D02*
X52567539Y-66195937D01*
X52567539Y-66195937D02*
X52628015Y-66165699D01*
X52628015Y-66165699D02*
X52718730Y-66165699D01*
X52718730Y-66165699D02*
X52779206Y-66195937D01*
X52779206Y-66195937D02*
X52809444Y-66256414D01*
X52809444Y-66256414D02*
X52809444Y-66589033D01*
X53383968Y-66165699D02*
X53383968Y-66679747D01*
X53383968Y-66679747D02*
X53353730Y-66740223D01*
X53353730Y-66740223D02*
X53323492Y-66770461D01*
X53323492Y-66770461D02*
X53263015Y-66800699D01*
X53263015Y-66800699D02*
X53172301Y-66800699D01*
X53172301Y-66800699D02*
X53111825Y-66770461D01*
X53383968Y-66558795D02*
X53323492Y-66589033D01*
X53323492Y-66589033D02*
X53202539Y-66589033D01*
X53202539Y-66589033D02*
X53142063Y-66558795D01*
X53142063Y-66558795D02*
X53111825Y-66528556D01*
X53111825Y-66528556D02*
X53081587Y-66468080D01*
X53081587Y-66468080D02*
X53081587Y-66286652D01*
X53081587Y-66286652D02*
X53111825Y-66226175D01*
X53111825Y-66226175D02*
X53142063Y-66195937D01*
X53142063Y-66195937D02*
X53202539Y-66165699D01*
X53202539Y-66165699D02*
X53323492Y-66165699D01*
X53323492Y-66165699D02*
X53383968Y-66195937D01*
D11*
X92487084Y-77021998D02*
X92366132Y-77263903D01*
X92366132Y-77263903D02*
X92366132Y-77626760D01*
X92366132Y-77626760D02*
X92487084Y-77989617D01*
X92487084Y-77989617D02*
X92728989Y-78231522D01*
X92728989Y-78231522D02*
X92970894Y-78352475D01*
X92970894Y-78352475D02*
X93454703Y-78473427D01*
X93454703Y-78473427D02*
X93817560Y-78473427D01*
X93817560Y-78473427D02*
X94301370Y-78352475D01*
X94301370Y-78352475D02*
X94543275Y-78231522D01*
X94543275Y-78231522D02*
X94785180Y-77989617D01*
X94785180Y-77989617D02*
X94906132Y-77626760D01*
X94906132Y-77626760D02*
X94906132Y-77384856D01*
X94906132Y-77384856D02*
X94785180Y-77021998D01*
X94785180Y-77021998D02*
X94664227Y-76901046D01*
X94664227Y-76901046D02*
X93817560Y-76901046D01*
X93817560Y-76901046D02*
X93817560Y-77384856D01*
X94906132Y-75812475D02*
X92366132Y-75812475D01*
X92366132Y-75812475D02*
X94906132Y-74361046D01*
X94906132Y-74361046D02*
X92366132Y-74361046D01*
X94906132Y-73151523D02*
X92366132Y-73151523D01*
X92366132Y-73151523D02*
X92366132Y-72546761D01*
X92366132Y-72546761D02*
X92487084Y-72183904D01*
X92487084Y-72183904D02*
X92728989Y-71941999D01*
X92728989Y-71941999D02*
X92970894Y-71821046D01*
X92970894Y-71821046D02*
X93454703Y-71700094D01*
X93454703Y-71700094D02*
X93817560Y-71700094D01*
X93817560Y-71700094D02*
X94301370Y-71821046D01*
X94301370Y-71821046D02*
X94543275Y-71941999D01*
X94543275Y-71941999D02*
X94785180Y-72183904D01*
X94785180Y-72183904D02*
X94906132Y-72546761D01*
X94906132Y-72546761D02*
X94906132Y-73151523D01*
X54205656Y-87030808D02*
X54326608Y-86667951D01*
X54326608Y-86667951D02*
X54447560Y-86546998D01*
X54447560Y-86546998D02*
X54689465Y-86426046D01*
X54689465Y-86426046D02*
X55052322Y-86426046D01*
X55052322Y-86426046D02*
X55294227Y-86546998D01*
X55294227Y-86546998D02*
X55415180Y-86667951D01*
X55415180Y-86667951D02*
X55536132Y-86909856D01*
X55536132Y-86909856D02*
X55536132Y-87877475D01*
X55536132Y-87877475D02*
X52996132Y-87877475D01*
X52996132Y-87877475D02*
X52996132Y-87030808D01*
X52996132Y-87030808D02*
X53117084Y-86788903D01*
X53117084Y-86788903D02*
X53238037Y-86667951D01*
X53238037Y-86667951D02*
X53479941Y-86546998D01*
X53479941Y-86546998D02*
X53721846Y-86546998D01*
X53721846Y-86546998D02*
X53963751Y-86667951D01*
X53963751Y-86667951D02*
X54084703Y-86788903D01*
X54084703Y-86788903D02*
X54205656Y-87030808D01*
X54205656Y-87030808D02*
X54205656Y-87877475D01*
X55536132Y-84248903D02*
X54205656Y-84248903D01*
X54205656Y-84248903D02*
X53963751Y-84369856D01*
X53963751Y-84369856D02*
X53842799Y-84611760D01*
X53842799Y-84611760D02*
X53842799Y-85095570D01*
X53842799Y-85095570D02*
X53963751Y-85337475D01*
X55415180Y-84248903D02*
X55536132Y-84490808D01*
X55536132Y-84490808D02*
X55536132Y-85095570D01*
X55536132Y-85095570D02*
X55415180Y-85337475D01*
X55415180Y-85337475D02*
X55173275Y-85458427D01*
X55173275Y-85458427D02*
X54931370Y-85458427D01*
X54931370Y-85458427D02*
X54689465Y-85337475D01*
X54689465Y-85337475D02*
X54568513Y-85095570D01*
X54568513Y-85095570D02*
X54568513Y-84490808D01*
X54568513Y-84490808D02*
X54447560Y-84248903D01*
X53842799Y-83402237D02*
X53842799Y-82434618D01*
X52996132Y-83039380D02*
X55173275Y-83039380D01*
X55173275Y-83039380D02*
X55415180Y-82918427D01*
X55415180Y-82918427D02*
X55536132Y-82676522D01*
X55536132Y-82676522D02*
X55536132Y-82434618D01*
X53842799Y-81950808D02*
X53842799Y-80983189D01*
X52996132Y-81587951D02*
X55173275Y-81587951D01*
X55173275Y-81587951D02*
X55415180Y-81466998D01*
X55415180Y-81466998D02*
X55536132Y-81225093D01*
X55536132Y-81225093D02*
X55536132Y-80983189D01*
X53238037Y-80257474D02*
X53117084Y-80136522D01*
X53117084Y-80136522D02*
X52996132Y-79894617D01*
X52996132Y-79894617D02*
X52996132Y-79289855D01*
X52996132Y-79289855D02*
X53117084Y-79047950D01*
X53117084Y-79047950D02*
X53238037Y-78926998D01*
X53238037Y-78926998D02*
X53479941Y-78806045D01*
X53479941Y-78806045D02*
X53721846Y-78806045D01*
X53721846Y-78806045D02*
X54084703Y-78926998D01*
X54084703Y-78926998D02*
X55536132Y-80378426D01*
X55536132Y-80378426D02*
X55536132Y-78806045D01*
X54568513Y-77717474D02*
X54568513Y-75782236D01*
X55536132Y-76749855D02*
X53600894Y-76749855D01*
X54840656Y-51470808D02*
X54961608Y-51107951D01*
X54961608Y-51107951D02*
X55082560Y-50986998D01*
X55082560Y-50986998D02*
X55324465Y-50866046D01*
X55324465Y-50866046D02*
X55687322Y-50866046D01*
X55687322Y-50866046D02*
X55929227Y-50986998D01*
X55929227Y-50986998D02*
X56050180Y-51107951D01*
X56050180Y-51107951D02*
X56171132Y-51349856D01*
X56171132Y-51349856D02*
X56171132Y-52317475D01*
X56171132Y-52317475D02*
X53631132Y-52317475D01*
X53631132Y-52317475D02*
X53631132Y-51470808D01*
X53631132Y-51470808D02*
X53752084Y-51228903D01*
X53752084Y-51228903D02*
X53873037Y-51107951D01*
X53873037Y-51107951D02*
X54114941Y-50986998D01*
X54114941Y-50986998D02*
X54356846Y-50986998D01*
X54356846Y-50986998D02*
X54598751Y-51107951D01*
X54598751Y-51107951D02*
X54719703Y-51228903D01*
X54719703Y-51228903D02*
X54840656Y-51470808D01*
X54840656Y-51470808D02*
X54840656Y-52317475D01*
X56171132Y-48688903D02*
X54840656Y-48688903D01*
X54840656Y-48688903D02*
X54598751Y-48809856D01*
X54598751Y-48809856D02*
X54477799Y-49051760D01*
X54477799Y-49051760D02*
X54477799Y-49535570D01*
X54477799Y-49535570D02*
X54598751Y-49777475D01*
X56050180Y-48688903D02*
X56171132Y-48930808D01*
X56171132Y-48930808D02*
X56171132Y-49535570D01*
X56171132Y-49535570D02*
X56050180Y-49777475D01*
X56050180Y-49777475D02*
X55808275Y-49898427D01*
X55808275Y-49898427D02*
X55566370Y-49898427D01*
X55566370Y-49898427D02*
X55324465Y-49777475D01*
X55324465Y-49777475D02*
X55203513Y-49535570D01*
X55203513Y-49535570D02*
X55203513Y-48930808D01*
X55203513Y-48930808D02*
X55082560Y-48688903D01*
X54477799Y-47842237D02*
X54477799Y-46874618D01*
X53631132Y-47479380D02*
X55808275Y-47479380D01*
X55808275Y-47479380D02*
X56050180Y-47358427D01*
X56050180Y-47358427D02*
X56171132Y-47116522D01*
X56171132Y-47116522D02*
X56171132Y-46874618D01*
X54477799Y-46390808D02*
X54477799Y-45423189D01*
X53631132Y-46027951D02*
X55808275Y-46027951D01*
X55808275Y-46027951D02*
X56050180Y-45906998D01*
X56050180Y-45906998D02*
X56171132Y-45665093D01*
X56171132Y-45665093D02*
X56171132Y-45423189D01*
X56171132Y-43246045D02*
X56171132Y-44697474D01*
X56171132Y-43971760D02*
X53631132Y-43971760D01*
X53631132Y-43971760D02*
X53993989Y-44213664D01*
X53993989Y-44213664D02*
X54235894Y-44455569D01*
X54235894Y-44455569D02*
X54356846Y-44697474D01*
X55203513Y-42157474D02*
X55203513Y-40222236D01*
X56171132Y-41189855D02*
X54235894Y-41189855D01*
X93001132Y-56278665D02*
X93001132Y-55794856D01*
X93001132Y-55794856D02*
X93122084Y-55552951D01*
X93122084Y-55552951D02*
X93363989Y-55311046D01*
X93363989Y-55311046D02*
X93847799Y-55190094D01*
X93847799Y-55190094D02*
X94694465Y-55190094D01*
X94694465Y-55190094D02*
X95178275Y-55311046D01*
X95178275Y-55311046D02*
X95420180Y-55552951D01*
X95420180Y-55552951D02*
X95541132Y-55794856D01*
X95541132Y-55794856D02*
X95541132Y-56278665D01*
X95541132Y-56278665D02*
X95420180Y-56520570D01*
X95420180Y-56520570D02*
X95178275Y-56762475D01*
X95178275Y-56762475D02*
X94694465Y-56883427D01*
X94694465Y-56883427D02*
X93847799Y-56883427D01*
X93847799Y-56883427D02*
X93363989Y-56762475D01*
X93363989Y-56762475D02*
X93122084Y-56520570D01*
X93122084Y-56520570D02*
X93001132Y-56278665D01*
X93001132Y-54101523D02*
X95057322Y-54101523D01*
X95057322Y-54101523D02*
X95299227Y-53980570D01*
X95299227Y-53980570D02*
X95420180Y-53859618D01*
X95420180Y-53859618D02*
X95541132Y-53617713D01*
X95541132Y-53617713D02*
X95541132Y-53133904D01*
X95541132Y-53133904D02*
X95420180Y-52891999D01*
X95420180Y-52891999D02*
X95299227Y-52771046D01*
X95299227Y-52771046D02*
X95057322Y-52650094D01*
X95057322Y-52650094D02*
X93001132Y-52650094D01*
X93001132Y-51803428D02*
X93001132Y-50351999D01*
X95541132Y-51077713D02*
X93001132Y-51077713D01*
X94573513Y-49505333D02*
X94573513Y-47570095D01*
X95541132Y-48537714D02*
X93605894Y-48537714D01*
D12*
X72305057Y-71215238D02*
X72257438Y-71310476D01*
X72257438Y-71310476D02*
X72162200Y-71405714D01*
X72162200Y-71405714D02*
X72019342Y-71548571D01*
X72019342Y-71548571D02*
X71971723Y-71643809D01*
X71971723Y-71643809D02*
X71971723Y-71739047D01*
X72209819Y-71691428D02*
X72162200Y-71786666D01*
X72162200Y-71786666D02*
X72066961Y-71881904D01*
X72066961Y-71881904D02*
X71876485Y-71929523D01*
X71876485Y-71929523D02*
X71543152Y-71929523D01*
X71543152Y-71929523D02*
X71352676Y-71881904D01*
X71352676Y-71881904D02*
X71257438Y-71786666D01*
X71257438Y-71786666D02*
X71209819Y-71691428D01*
X71209819Y-71691428D02*
X71209819Y-71500952D01*
X71209819Y-71500952D02*
X71257438Y-71405714D01*
X71257438Y-71405714D02*
X71352676Y-71310476D01*
X71352676Y-71310476D02*
X71543152Y-71262857D01*
X71543152Y-71262857D02*
X71876485Y-71262857D01*
X71876485Y-71262857D02*
X72066961Y-71310476D01*
X72066961Y-71310476D02*
X72162200Y-71405714D01*
X72162200Y-71405714D02*
X72209819Y-71500952D01*
X72209819Y-71500952D02*
X72209819Y-71691428D01*
X72209819Y-70786666D02*
X72209819Y-70596190D01*
X72209819Y-70596190D02*
X72162200Y-70500952D01*
X72162200Y-70500952D02*
X72114580Y-70453333D01*
X72114580Y-70453333D02*
X71971723Y-70358095D01*
X71971723Y-70358095D02*
X71781247Y-70310476D01*
X71781247Y-70310476D02*
X71400295Y-70310476D01*
X71400295Y-70310476D02*
X71305057Y-70358095D01*
X71305057Y-70358095D02*
X71257438Y-70405714D01*
X71257438Y-70405714D02*
X71209819Y-70500952D01*
X71209819Y-70500952D02*
X71209819Y-70691428D01*
X71209819Y-70691428D02*
X71257438Y-70786666D01*
X71257438Y-70786666D02*
X71305057Y-70834285D01*
X71305057Y-70834285D02*
X71400295Y-70881904D01*
X71400295Y-70881904D02*
X71638390Y-70881904D01*
X71638390Y-70881904D02*
X71733628Y-70834285D01*
X71733628Y-70834285D02*
X71781247Y-70786666D01*
X71781247Y-70786666D02*
X71828866Y-70691428D01*
X71828866Y-70691428D02*
X71828866Y-70500952D01*
X71828866Y-70500952D02*
X71781247Y-70405714D01*
X71781247Y-70405714D02*
X71733628Y-70358095D01*
X71733628Y-70358095D02*
X71638390Y-70310476D01*
X59428142Y-40491580D02*
X59380523Y-40539200D01*
X59380523Y-40539200D02*
X59237666Y-40586819D01*
X59237666Y-40586819D02*
X59142428Y-40586819D01*
X59142428Y-40586819D02*
X58999571Y-40539200D01*
X58999571Y-40539200D02*
X58904333Y-40443961D01*
X58904333Y-40443961D02*
X58856714Y-40348723D01*
X58856714Y-40348723D02*
X58809095Y-40158247D01*
X58809095Y-40158247D02*
X58809095Y-40015390D01*
X58809095Y-40015390D02*
X58856714Y-39824914D01*
X58856714Y-39824914D02*
X58904333Y-39729676D01*
X58904333Y-39729676D02*
X58999571Y-39634438D01*
X58999571Y-39634438D02*
X59142428Y-39586819D01*
X59142428Y-39586819D02*
X59237666Y-39586819D01*
X59237666Y-39586819D02*
X59380523Y-39634438D01*
X59380523Y-39634438D02*
X59428142Y-39682057D01*
X60380523Y-40586819D02*
X59809095Y-40586819D01*
X60094809Y-40586819D02*
X60094809Y-39586819D01*
X60094809Y-39586819D02*
X59999571Y-39729676D01*
X59999571Y-39729676D02*
X59904333Y-39824914D01*
X59904333Y-39824914D02*
X59809095Y-39872533D01*
X61332904Y-40586819D02*
X60761476Y-40586819D01*
X61047190Y-40586819D02*
X61047190Y-39586819D01*
X61047190Y-39586819D02*
X60951952Y-39729676D01*
X60951952Y-39729676D02*
X60856714Y-39824914D01*
X60856714Y-39824914D02*
X60761476Y-39872533D01*
X64429819Y-44457857D02*
X63953628Y-44791190D01*
X64429819Y-45029285D02*
X63429819Y-45029285D01*
X63429819Y-45029285D02*
X63429819Y-44648333D01*
X63429819Y-44648333D02*
X63477438Y-44553095D01*
X63477438Y-44553095D02*
X63525057Y-44505476D01*
X63525057Y-44505476D02*
X63620295Y-44457857D01*
X63620295Y-44457857D02*
X63763152Y-44457857D01*
X63763152Y-44457857D02*
X63858390Y-44505476D01*
X63858390Y-44505476D02*
X63906009Y-44553095D01*
X63906009Y-44553095D02*
X63953628Y-44648333D01*
X63953628Y-44648333D02*
X63953628Y-45029285D01*
X63429819Y-44124523D02*
X63429819Y-43505476D01*
X63429819Y-43505476D02*
X63810771Y-43838809D01*
X63810771Y-43838809D02*
X63810771Y-43695952D01*
X63810771Y-43695952D02*
X63858390Y-43600714D01*
X63858390Y-43600714D02*
X63906009Y-43553095D01*
X63906009Y-43553095D02*
X64001247Y-43505476D01*
X64001247Y-43505476D02*
X64239342Y-43505476D01*
X64239342Y-43505476D02*
X64334580Y-43553095D01*
X64334580Y-43553095D02*
X64382200Y-43600714D01*
X64382200Y-43600714D02*
X64429819Y-43695952D01*
X64429819Y-43695952D02*
X64429819Y-43981666D01*
X64429819Y-43981666D02*
X64382200Y-44076904D01*
X64382200Y-44076904D02*
X64334580Y-44124523D01*
X64429819Y-43029285D02*
X64429819Y-42838809D01*
X64429819Y-42838809D02*
X64382200Y-42743571D01*
X64382200Y-42743571D02*
X64334580Y-42695952D01*
X64334580Y-42695952D02*
X64191723Y-42600714D01*
X64191723Y-42600714D02*
X64001247Y-42553095D01*
X64001247Y-42553095D02*
X63620295Y-42553095D01*
X63620295Y-42553095D02*
X63525057Y-42600714D01*
X63525057Y-42600714D02*
X63477438Y-42648333D01*
X63477438Y-42648333D02*
X63429819Y-42743571D01*
X63429819Y-42743571D02*
X63429819Y-42934047D01*
X63429819Y-42934047D02*
X63477438Y-43029285D01*
X63477438Y-43029285D02*
X63525057Y-43076904D01*
X63525057Y-43076904D02*
X63620295Y-43124523D01*
X63620295Y-43124523D02*
X63858390Y-43124523D01*
X63858390Y-43124523D02*
X63953628Y-43076904D01*
X63953628Y-43076904D02*
X64001247Y-43029285D01*
X64001247Y-43029285D02*
X64048866Y-42934047D01*
X64048866Y-42934047D02*
X64048866Y-42743571D01*
X64048866Y-42743571D02*
X64001247Y-42648333D01*
X64001247Y-42648333D02*
X63953628Y-42600714D01*
X63953628Y-42600714D02*
X63858390Y-42553095D01*
X63746142Y-81352580D02*
X63698523Y-81400200D01*
X63698523Y-81400200D02*
X63555666Y-81447819D01*
X63555666Y-81447819D02*
X63460428Y-81447819D01*
X63460428Y-81447819D02*
X63317571Y-81400200D01*
X63317571Y-81400200D02*
X63222333Y-81304961D01*
X63222333Y-81304961D02*
X63174714Y-81209723D01*
X63174714Y-81209723D02*
X63127095Y-81019247D01*
X63127095Y-81019247D02*
X63127095Y-80876390D01*
X63127095Y-80876390D02*
X63174714Y-80685914D01*
X63174714Y-80685914D02*
X63222333Y-80590676D01*
X63222333Y-80590676D02*
X63317571Y-80495438D01*
X63317571Y-80495438D02*
X63460428Y-80447819D01*
X63460428Y-80447819D02*
X63555666Y-80447819D01*
X63555666Y-80447819D02*
X63698523Y-80495438D01*
X63698523Y-80495438D02*
X63746142Y-80543057D01*
X64698523Y-81447819D02*
X64127095Y-81447819D01*
X64412809Y-81447819D02*
X64412809Y-80447819D01*
X64412809Y-80447819D02*
X64317571Y-80590676D01*
X64317571Y-80590676D02*
X64222333Y-80685914D01*
X64222333Y-80685914D02*
X64127095Y-80733533D01*
X65317571Y-80447819D02*
X65412809Y-80447819D01*
X65412809Y-80447819D02*
X65508047Y-80495438D01*
X65508047Y-80495438D02*
X65555666Y-80543057D01*
X65555666Y-80543057D02*
X65603285Y-80638295D01*
X65603285Y-80638295D02*
X65650904Y-80828771D01*
X65650904Y-80828771D02*
X65650904Y-81066866D01*
X65650904Y-81066866D02*
X65603285Y-81257342D01*
X65603285Y-81257342D02*
X65555666Y-81352580D01*
X65555666Y-81352580D02*
X65508047Y-81400200D01*
X65508047Y-81400200D02*
X65412809Y-81447819D01*
X65412809Y-81447819D02*
X65317571Y-81447819D01*
X65317571Y-81447819D02*
X65222333Y-81400200D01*
X65222333Y-81400200D02*
X65174714Y-81352580D01*
X65174714Y-81352580D02*
X65127095Y-81257342D01*
X65127095Y-81257342D02*
X65079476Y-81066866D01*
X65079476Y-81066866D02*
X65079476Y-80828771D01*
X65079476Y-80828771D02*
X65127095Y-80638295D01*
X65127095Y-80638295D02*
X65174714Y-80543057D01*
X65174714Y-80543057D02*
X65222333Y-80495438D01*
X65222333Y-80495438D02*
X65317571Y-80447819D01*
X59904333Y-86940580D02*
X59856714Y-86988200D01*
X59856714Y-86988200D02*
X59713857Y-87035819D01*
X59713857Y-87035819D02*
X59618619Y-87035819D01*
X59618619Y-87035819D02*
X59475762Y-86988200D01*
X59475762Y-86988200D02*
X59380524Y-86892961D01*
X59380524Y-86892961D02*
X59332905Y-86797723D01*
X59332905Y-86797723D02*
X59285286Y-86607247D01*
X59285286Y-86607247D02*
X59285286Y-86464390D01*
X59285286Y-86464390D02*
X59332905Y-86273914D01*
X59332905Y-86273914D02*
X59380524Y-86178676D01*
X59380524Y-86178676D02*
X59475762Y-86083438D01*
X59475762Y-86083438D02*
X59618619Y-86035819D01*
X59618619Y-86035819D02*
X59713857Y-86035819D01*
X59713857Y-86035819D02*
X59856714Y-86083438D01*
X59856714Y-86083438D02*
X59904333Y-86131057D01*
X60809095Y-86035819D02*
X60332905Y-86035819D01*
X60332905Y-86035819D02*
X60285286Y-86512009D01*
X60285286Y-86512009D02*
X60332905Y-86464390D01*
X60332905Y-86464390D02*
X60428143Y-86416771D01*
X60428143Y-86416771D02*
X60666238Y-86416771D01*
X60666238Y-86416771D02*
X60761476Y-86464390D01*
X60761476Y-86464390D02*
X60809095Y-86512009D01*
X60809095Y-86512009D02*
X60856714Y-86607247D01*
X60856714Y-86607247D02*
X60856714Y-86845342D01*
X60856714Y-86845342D02*
X60809095Y-86940580D01*
X60809095Y-86940580D02*
X60761476Y-86988200D01*
X60761476Y-86988200D02*
X60666238Y-87035819D01*
X60666238Y-87035819D02*
X60428143Y-87035819D01*
X60428143Y-87035819D02*
X60332905Y-86988200D01*
X60332905Y-86988200D02*
X60285286Y-86940580D01*
X61925676Y-84081119D02*
X62443771Y-84081119D01*
X62443771Y-84081119D02*
X62504723Y-84050642D01*
X62504723Y-84050642D02*
X62535200Y-84020166D01*
X62535200Y-84020166D02*
X62565676Y-83959214D01*
X62565676Y-83959214D02*
X62565676Y-83837309D01*
X62565676Y-83837309D02*
X62535200Y-83776357D01*
X62535200Y-83776357D02*
X62504723Y-83745880D01*
X62504723Y-83745880D02*
X62443771Y-83715404D01*
X62443771Y-83715404D02*
X61925676Y-83715404D01*
X61925676Y-83471595D02*
X61925676Y-83075404D01*
X61925676Y-83075404D02*
X62169485Y-83288738D01*
X62169485Y-83288738D02*
X62169485Y-83197309D01*
X62169485Y-83197309D02*
X62199961Y-83136357D01*
X62199961Y-83136357D02*
X62230438Y-83105881D01*
X62230438Y-83105881D02*
X62291390Y-83075404D01*
X62291390Y-83075404D02*
X62443771Y-83075404D01*
X62443771Y-83075404D02*
X62504723Y-83105881D01*
X62504723Y-83105881D02*
X62535200Y-83136357D01*
X62535200Y-83136357D02*
X62565676Y-83197309D01*
X62565676Y-83197309D02*
X62565676Y-83380166D01*
X62565676Y-83380166D02*
X62535200Y-83441119D01*
X62535200Y-83441119D02*
X62504723Y-83471595D01*
X65510580Y-44457857D02*
X65558200Y-44505476D01*
X65558200Y-44505476D02*
X65605819Y-44648333D01*
X65605819Y-44648333D02*
X65605819Y-44743571D01*
X65605819Y-44743571D02*
X65558200Y-44886428D01*
X65558200Y-44886428D02*
X65462961Y-44981666D01*
X65462961Y-44981666D02*
X65367723Y-45029285D01*
X65367723Y-45029285D02*
X65177247Y-45076904D01*
X65177247Y-45076904D02*
X65034390Y-45076904D01*
X65034390Y-45076904D02*
X64843914Y-45029285D01*
X64843914Y-45029285D02*
X64748676Y-44981666D01*
X64748676Y-44981666D02*
X64653438Y-44886428D01*
X64653438Y-44886428D02*
X64605819Y-44743571D01*
X64605819Y-44743571D02*
X64605819Y-44648333D01*
X64605819Y-44648333D02*
X64653438Y-44505476D01*
X64653438Y-44505476D02*
X64701057Y-44457857D01*
X65605819Y-43505476D02*
X65605819Y-44076904D01*
X65605819Y-43791190D02*
X64605819Y-43791190D01*
X64605819Y-43791190D02*
X64748676Y-43886428D01*
X64748676Y-43886428D02*
X64843914Y-43981666D01*
X64843914Y-43981666D02*
X64891533Y-44076904D01*
X64701057Y-43124523D02*
X64653438Y-43076904D01*
X64653438Y-43076904D02*
X64605819Y-42981666D01*
X64605819Y-42981666D02*
X64605819Y-42743571D01*
X64605819Y-42743571D02*
X64653438Y-42648333D01*
X64653438Y-42648333D02*
X64701057Y-42600714D01*
X64701057Y-42600714D02*
X64796295Y-42553095D01*
X64796295Y-42553095D02*
X64891533Y-42553095D01*
X64891533Y-42553095D02*
X65034390Y-42600714D01*
X65034390Y-42600714D02*
X65605819Y-43172142D01*
X65605819Y-43172142D02*
X65605819Y-42553095D01*
X69492905Y-86687819D02*
X69492905Y-85687819D01*
X69492905Y-85687819D02*
X69731000Y-85687819D01*
X69731000Y-85687819D02*
X69873857Y-85735438D01*
X69873857Y-85735438D02*
X69969095Y-85830676D01*
X69969095Y-85830676D02*
X70016714Y-85925914D01*
X70016714Y-85925914D02*
X70064333Y-86116390D01*
X70064333Y-86116390D02*
X70064333Y-86259247D01*
X70064333Y-86259247D02*
X70016714Y-86449723D01*
X70016714Y-86449723D02*
X69969095Y-86544961D01*
X69969095Y-86544961D02*
X69873857Y-86640200D01*
X69873857Y-86640200D02*
X69731000Y-86687819D01*
X69731000Y-86687819D02*
X69492905Y-86687819D01*
X70969095Y-85687819D02*
X70492905Y-85687819D01*
X70492905Y-85687819D02*
X70445286Y-86164009D01*
X70445286Y-86164009D02*
X70492905Y-86116390D01*
X70492905Y-86116390D02*
X70588143Y-86068771D01*
X70588143Y-86068771D02*
X70826238Y-86068771D01*
X70826238Y-86068771D02*
X70921476Y-86116390D01*
X70921476Y-86116390D02*
X70969095Y-86164009D01*
X70969095Y-86164009D02*
X71016714Y-86259247D01*
X71016714Y-86259247D02*
X71016714Y-86497342D01*
X71016714Y-86497342D02*
X70969095Y-86592580D01*
X70969095Y-86592580D02*
X70921476Y-86640200D01*
X70921476Y-86640200D02*
X70826238Y-86687819D01*
X70826238Y-86687819D02*
X70588143Y-86687819D01*
X70588143Y-86687819D02*
X70492905Y-86640200D01*
X70492905Y-86640200D02*
X70445286Y-86592580D01*
X72336819Y-51887285D02*
X71336819Y-51887285D01*
X71336819Y-51887285D02*
X71336819Y-51649190D01*
X71336819Y-51649190D02*
X71384438Y-51506333D01*
X71384438Y-51506333D02*
X71479676Y-51411095D01*
X71479676Y-51411095D02*
X71574914Y-51363476D01*
X71574914Y-51363476D02*
X71765390Y-51315857D01*
X71765390Y-51315857D02*
X71908247Y-51315857D01*
X71908247Y-51315857D02*
X72098723Y-51363476D01*
X72098723Y-51363476D02*
X72193961Y-51411095D01*
X72193961Y-51411095D02*
X72289200Y-51506333D01*
X72289200Y-51506333D02*
X72336819Y-51649190D01*
X72336819Y-51649190D02*
X72336819Y-51887285D01*
X72336819Y-50363476D02*
X72336819Y-50934904D01*
X72336819Y-50649190D02*
X71336819Y-50649190D01*
X71336819Y-50649190D02*
X71479676Y-50744428D01*
X71479676Y-50744428D02*
X71574914Y-50839666D01*
X71574914Y-50839666D02*
X71622533Y-50934904D01*
X71336819Y-50030142D02*
X71336819Y-49411095D01*
X71336819Y-49411095D02*
X71717771Y-49744428D01*
X71717771Y-49744428D02*
X71717771Y-49601571D01*
X71717771Y-49601571D02*
X71765390Y-49506333D01*
X71765390Y-49506333D02*
X71813009Y-49458714D01*
X71813009Y-49458714D02*
X71908247Y-49411095D01*
X71908247Y-49411095D02*
X72146342Y-49411095D01*
X72146342Y-49411095D02*
X72241580Y-49458714D01*
X72241580Y-49458714D02*
X72289200Y-49506333D01*
X72289200Y-49506333D02*
X72336819Y-49601571D01*
X72336819Y-49601571D02*
X72336819Y-49887285D01*
X72336819Y-49887285D02*
X72289200Y-49982523D01*
X72289200Y-49982523D02*
X72241580Y-50030142D01*
X59332905Y-48627819D02*
X59332905Y-47627819D01*
X59332905Y-47627819D02*
X59571000Y-47627819D01*
X59571000Y-47627819D02*
X59713857Y-47675438D01*
X59713857Y-47675438D02*
X59809095Y-47770676D01*
X59809095Y-47770676D02*
X59856714Y-47865914D01*
X59856714Y-47865914D02*
X59904333Y-48056390D01*
X59904333Y-48056390D02*
X59904333Y-48199247D01*
X59904333Y-48199247D02*
X59856714Y-48389723D01*
X59856714Y-48389723D02*
X59809095Y-48484961D01*
X59809095Y-48484961D02*
X59713857Y-48580200D01*
X59713857Y-48580200D02*
X59571000Y-48627819D01*
X59571000Y-48627819D02*
X59332905Y-48627819D01*
X60761476Y-47961152D02*
X60761476Y-48627819D01*
X60523381Y-47580200D02*
X60285286Y-48294485D01*
X60285286Y-48294485D02*
X60904333Y-48294485D01*
X61925676Y-46266619D02*
X62443771Y-46266619D01*
X62443771Y-46266619D02*
X62504723Y-46236142D01*
X62504723Y-46236142D02*
X62535200Y-46205666D01*
X62535200Y-46205666D02*
X62565676Y-46144714D01*
X62565676Y-46144714D02*
X62565676Y-46022809D01*
X62565676Y-46022809D02*
X62535200Y-45961857D01*
X62535200Y-45961857D02*
X62504723Y-45931380D01*
X62504723Y-45931380D02*
X62443771Y-45900904D01*
X62443771Y-45900904D02*
X61925676Y-45900904D01*
X61986628Y-45626619D02*
X61956152Y-45596143D01*
X61956152Y-45596143D02*
X61925676Y-45535190D01*
X61925676Y-45535190D02*
X61925676Y-45382809D01*
X61925676Y-45382809D02*
X61956152Y-45321857D01*
X61956152Y-45321857D02*
X61986628Y-45291381D01*
X61986628Y-45291381D02*
X62047580Y-45260904D01*
X62047580Y-45260904D02*
X62108533Y-45260904D01*
X62108533Y-45260904D02*
X62199961Y-45291381D01*
X62199961Y-45291381D02*
X62565676Y-45657095D01*
X62565676Y-45657095D02*
X62565676Y-45260904D01*
X58239819Y-82653094D02*
X57239819Y-82653094D01*
X57239819Y-82653094D02*
X57239819Y-82414999D01*
X57239819Y-82414999D02*
X57287438Y-82272142D01*
X57287438Y-82272142D02*
X57382676Y-82176904D01*
X57382676Y-82176904D02*
X57477914Y-82129285D01*
X57477914Y-82129285D02*
X57668390Y-82081666D01*
X57668390Y-82081666D02*
X57811247Y-82081666D01*
X57811247Y-82081666D02*
X58001723Y-82129285D01*
X58001723Y-82129285D02*
X58096961Y-82176904D01*
X58096961Y-82176904D02*
X58192200Y-82272142D01*
X58192200Y-82272142D02*
X58239819Y-82414999D01*
X58239819Y-82414999D02*
X58239819Y-82653094D01*
X57335057Y-81700713D02*
X57287438Y-81653094D01*
X57287438Y-81653094D02*
X57239819Y-81557856D01*
X57239819Y-81557856D02*
X57239819Y-81319761D01*
X57239819Y-81319761D02*
X57287438Y-81224523D01*
X57287438Y-81224523D02*
X57335057Y-81176904D01*
X57335057Y-81176904D02*
X57430295Y-81129285D01*
X57430295Y-81129285D02*
X57525533Y-81129285D01*
X57525533Y-81129285D02*
X57668390Y-81176904D01*
X57668390Y-81176904D02*
X58239819Y-81748332D01*
X58239819Y-81748332D02*
X58239819Y-81129285D01*
X72209819Y-79605094D02*
X71209819Y-79605094D01*
X71209819Y-79605094D02*
X71209819Y-79366999D01*
X71209819Y-79366999D02*
X71257438Y-79224142D01*
X71257438Y-79224142D02*
X71352676Y-79128904D01*
X71352676Y-79128904D02*
X71447914Y-79081285D01*
X71447914Y-79081285D02*
X71638390Y-79033666D01*
X71638390Y-79033666D02*
X71781247Y-79033666D01*
X71781247Y-79033666D02*
X71971723Y-79081285D01*
X71971723Y-79081285D02*
X72066961Y-79128904D01*
X72066961Y-79128904D02*
X72162200Y-79224142D01*
X72162200Y-79224142D02*
X72209819Y-79366999D01*
X72209819Y-79366999D02*
X72209819Y-79605094D01*
X71209819Y-78700332D02*
X71209819Y-78081285D01*
X71209819Y-78081285D02*
X71590771Y-78414618D01*
X71590771Y-78414618D02*
X71590771Y-78271761D01*
X71590771Y-78271761D02*
X71638390Y-78176523D01*
X71638390Y-78176523D02*
X71686009Y-78128904D01*
X71686009Y-78128904D02*
X71781247Y-78081285D01*
X71781247Y-78081285D02*
X72019342Y-78081285D01*
X72019342Y-78081285D02*
X72114580Y-78128904D01*
X72114580Y-78128904D02*
X72162200Y-78176523D01*
X72162200Y-78176523D02*
X72209819Y-78271761D01*
X72209819Y-78271761D02*
X72209819Y-78557475D01*
X72209819Y-78557475D02*
X72162200Y-78652713D01*
X72162200Y-78652713D02*
X72114580Y-78700332D01*
X64222333Y-86052819D02*
X63889000Y-85576628D01*
X63650905Y-86052819D02*
X63650905Y-85052819D01*
X63650905Y-85052819D02*
X64031857Y-85052819D01*
X64031857Y-85052819D02*
X64127095Y-85100438D01*
X64127095Y-85100438D02*
X64174714Y-85148057D01*
X64174714Y-85148057D02*
X64222333Y-85243295D01*
X64222333Y-85243295D02*
X64222333Y-85386152D01*
X64222333Y-85386152D02*
X64174714Y-85481390D01*
X64174714Y-85481390D02*
X64127095Y-85529009D01*
X64127095Y-85529009D02*
X64031857Y-85576628D01*
X64031857Y-85576628D02*
X63650905Y-85576628D01*
X64603286Y-85148057D02*
X64650905Y-85100438D01*
X64650905Y-85100438D02*
X64746143Y-85052819D01*
X64746143Y-85052819D02*
X64984238Y-85052819D01*
X64984238Y-85052819D02*
X65079476Y-85100438D01*
X65079476Y-85100438D02*
X65127095Y-85148057D01*
X65127095Y-85148057D02*
X65174714Y-85243295D01*
X65174714Y-85243295D02*
X65174714Y-85338533D01*
X65174714Y-85338533D02*
X65127095Y-85481390D01*
X65127095Y-85481390D02*
X64555667Y-86052819D01*
X64555667Y-86052819D02*
X65174714Y-86052819D01*
X74495819Y-45791285D02*
X73495819Y-45791285D01*
X73495819Y-45791285D02*
X73495819Y-45553190D01*
X73495819Y-45553190D02*
X73543438Y-45410333D01*
X73543438Y-45410333D02*
X73638676Y-45315095D01*
X73638676Y-45315095D02*
X73733914Y-45267476D01*
X73733914Y-45267476D02*
X73924390Y-45219857D01*
X73924390Y-45219857D02*
X74067247Y-45219857D01*
X74067247Y-45219857D02*
X74257723Y-45267476D01*
X74257723Y-45267476D02*
X74352961Y-45315095D01*
X74352961Y-45315095D02*
X74448200Y-45410333D01*
X74448200Y-45410333D02*
X74495819Y-45553190D01*
X74495819Y-45553190D02*
X74495819Y-45791285D01*
X74495819Y-44267476D02*
X74495819Y-44838904D01*
X74495819Y-44553190D02*
X73495819Y-44553190D01*
X73495819Y-44553190D02*
X73638676Y-44648428D01*
X73638676Y-44648428D02*
X73733914Y-44743666D01*
X73733914Y-44743666D02*
X73781533Y-44838904D01*
X73829152Y-43410333D02*
X74495819Y-43410333D01*
X73448200Y-43648428D02*
X74162485Y-43886523D01*
X74162485Y-43886523D02*
X74162485Y-43267476D01*
X72178057Y-58515238D02*
X72130438Y-58610476D01*
X72130438Y-58610476D02*
X72035200Y-58705714D01*
X72035200Y-58705714D02*
X71892342Y-58848571D01*
X71892342Y-58848571D02*
X71844723Y-58943809D01*
X71844723Y-58943809D02*
X71844723Y-59039047D01*
X72082819Y-58991428D02*
X72035200Y-59086666D01*
X72035200Y-59086666D02*
X71939961Y-59181904D01*
X71939961Y-59181904D02*
X71749485Y-59229523D01*
X71749485Y-59229523D02*
X71416152Y-59229523D01*
X71416152Y-59229523D02*
X71225676Y-59181904D01*
X71225676Y-59181904D02*
X71130438Y-59086666D01*
X71130438Y-59086666D02*
X71082819Y-58991428D01*
X71082819Y-58991428D02*
X71082819Y-58800952D01*
X71082819Y-58800952D02*
X71130438Y-58705714D01*
X71130438Y-58705714D02*
X71225676Y-58610476D01*
X71225676Y-58610476D02*
X71416152Y-58562857D01*
X71416152Y-58562857D02*
X71749485Y-58562857D01*
X71749485Y-58562857D02*
X71939961Y-58610476D01*
X71939961Y-58610476D02*
X72035200Y-58705714D01*
X72035200Y-58705714D02*
X72082819Y-58800952D01*
X72082819Y-58800952D02*
X72082819Y-58991428D01*
X71416152Y-57705714D02*
X72082819Y-57705714D01*
X71035200Y-57943809D02*
X71749485Y-58181904D01*
X71749485Y-58181904D02*
X71749485Y-57562857D01*
D13*
%TO.C,Q9*%
X56927400Y-66650000D02*
X56587400Y-66180000D01*
X57267400Y-66180000D01*
X56927400Y-66650000D01*
G36*
X56927400Y-66650000D02*
G01*
X56587400Y-66180000D01*
X57267400Y-66180000D01*
X56927400Y-66650000D01*
G37*
X61117400Y-76320000D02*
X59752400Y-76320000D01*
X61117400Y-65920000D02*
X59752400Y-65920000D01*
X59752400Y-76320000D02*
X59752400Y-75630000D01*
X59752400Y-65920000D02*
X59752400Y-66610000D01*
%TO.C,C11*%
X59924733Y-41146000D02*
X60217267Y-41146000D01*
X59924733Y-42166000D02*
X60217267Y-42166000D01*
%TO.C,R39*%
X64882500Y-44069724D02*
X64882500Y-43560276D01*
X65927500Y-44069724D02*
X65927500Y-43560276D01*
%TO.C,C10*%
X64242733Y-81913000D02*
X64535267Y-81913000D01*
X64242733Y-82933000D02*
X64535267Y-82933000D01*
D12*
%TO.C,H2*%
X96723200Y-64687580D02*
G75*
G02*
X88696800Y-64687580I-4013200J0D01*
G01*
X88696800Y-64687580D02*
G75*
G02*
X96723200Y-64687580I4013200J0D01*
G01*
D13*
%TO.C,C5*%
X59924733Y-87501000D02*
X60217267Y-87501000D01*
X59924733Y-88521000D02*
X60217267Y-88521000D01*
D14*
%TO.C,U3*%
X58506000Y-82861500D02*
X58506000Y-84461500D01*
X61636000Y-82861500D02*
X61636000Y-84461500D01*
D15*
X61371000Y-81261500D02*
G75*
G02*
X61171000Y-81261500I-100000J0D01*
G01*
X61171000Y-81261500D02*
G75*
G02*
X61371000Y-81261500I100000J0D01*
G01*
D12*
%TO.C,H1*%
X39573200Y-64770000D02*
G75*
G02*
X31546800Y-64770000I-4013200J0D01*
G01*
X31546800Y-64770000D02*
G75*
G02*
X39573200Y-64770000I4013200J0D01*
G01*
D13*
%TO.C,C12*%
X63117000Y-43961267D02*
X63117000Y-43668733D01*
X64137000Y-43961267D02*
X64137000Y-43668733D01*
%TO.C,D5*%
X66571000Y-81035000D02*
X66571000Y-85335000D01*
X66571000Y-81035000D02*
X72381000Y-81035000D01*
X66571000Y-85335000D02*
X72381000Y-85335000D01*
%TO.C,D13*%
X70820000Y-49023000D02*
X65310000Y-49023000D01*
X70820000Y-52323000D02*
X65310000Y-52323000D01*
X70820000Y-52323000D02*
X70820000Y-49023000D01*
%TO.C,D4*%
X56561000Y-49023000D02*
X56561000Y-52323000D01*
X56561000Y-49023000D02*
X62071000Y-49023000D01*
X56561000Y-52323000D02*
X62071000Y-52323000D01*
D14*
%TO.C,U2*%
X58506000Y-45047000D02*
X58506000Y-46647000D01*
X61636000Y-45047000D02*
X61636000Y-46647000D01*
D15*
X61371000Y-43447000D02*
G75*
G02*
X61171000Y-43447000I-100000J0D01*
G01*
X61171000Y-43447000D02*
G75*
G02*
X61371000Y-43447000I100000J0D01*
G01*
D13*
%TO.C,D2*%
X56561000Y-77217000D02*
X56561000Y-80517000D01*
X56561000Y-77217000D02*
X62071000Y-77217000D01*
X56561000Y-80517000D02*
X62071000Y-80517000D01*
D16*
%TO.C,G1*%
X92697451Y-84673360D02*
X92692431Y-84678380D01*
X92687411Y-84673360D01*
X92692431Y-84668340D01*
X92697451Y-84673360D01*
G36*
X92697451Y-84673360D02*
G01*
X92692431Y-84678380D01*
X92687411Y-84673360D01*
X92692431Y-84668340D01*
X92697451Y-84673360D01*
G37*
X96929611Y-80076769D02*
X96995325Y-80086247D01*
X97048830Y-80101802D01*
X97056991Y-80105335D01*
X97089743Y-80120513D01*
X97059625Y-80115418D01*
X96954801Y-80103662D01*
X96856617Y-80104445D01*
X96769532Y-80117718D01*
X96765937Y-80118611D01*
X96664457Y-80151983D01*
X96558707Y-80201990D01*
X96448329Y-80268926D01*
X96332959Y-80353084D01*
X96212239Y-80454758D01*
X96085807Y-80574241D01*
X95953302Y-80711827D01*
X95814364Y-80867810D01*
X95745131Y-80949484D01*
X95680990Y-81026949D01*
X95619712Y-81102490D01*
X95560339Y-81177494D01*
X95501908Y-81253349D01*
X95443460Y-81331443D01*
X95384035Y-81413164D01*
X95322672Y-81499901D01*
X95258412Y-81593042D01*
X95190293Y-81693974D01*
X95117356Y-81804086D01*
X95038640Y-81924766D01*
X94953185Y-82057402D01*
X94860032Y-82203382D01*
X94758218Y-82364094D01*
X94672657Y-82499803D01*
X94477545Y-82814436D01*
X94289882Y-83126350D01*
X94112685Y-83430508D01*
X94068089Y-83508775D01*
X94027787Y-83579489D01*
X93981095Y-83660819D01*
X93931858Y-83746107D01*
X93883919Y-83828695D01*
X93841857Y-83900674D01*
X93799962Y-83972491D01*
X93754005Y-84052024D01*
X93707534Y-84133086D01*
X93664095Y-84209487D01*
X93627235Y-84275041D01*
X93626056Y-84277156D01*
X93594267Y-84334093D01*
X93564110Y-84387926D01*
X93537591Y-84435088D01*
X93516717Y-84472012D01*
X93503493Y-84495129D01*
X93503077Y-84495844D01*
X93477822Y-84539198D01*
X93438847Y-84435607D01*
X93418404Y-84384375D01*
X93392989Y-84325534D01*
X93363877Y-84261588D01*
X93332341Y-84195037D01*
X93299658Y-84128382D01*
X93267103Y-84064126D01*
X93235949Y-84004768D01*
X93207473Y-83952811D01*
X93182950Y-83910756D01*
X93163654Y-83881104D01*
X93150860Y-83866357D01*
X93148081Y-83865178D01*
X93141335Y-83873572D01*
X93126854Y-83896847D01*
X93106309Y-83932146D01*
X93081370Y-83976609D01*
X93058609Y-84018281D01*
X93021856Y-84086074D01*
X92982446Y-84158307D01*
X92941579Y-84232820D01*
X92900455Y-84307458D01*
X92860274Y-84380062D01*
X92822236Y-84448475D01*
X92787542Y-84510539D01*
X92757392Y-84564098D01*
X92732986Y-84606993D01*
X92715524Y-84637067D01*
X92706207Y-84652163D01*
X92705350Y-84653281D01*
X92704653Y-84648874D01*
X92709990Y-84629080D01*
X92720345Y-84597314D01*
X92730701Y-84567945D01*
X92755852Y-84498839D01*
X92783809Y-84422605D01*
X92813773Y-84341372D01*
X92844946Y-84257267D01*
X92876528Y-84172420D01*
X92907720Y-84088958D01*
X92937723Y-84009010D01*
X92965739Y-83934705D01*
X92990966Y-83868170D01*
X93012608Y-83811535D01*
X93029864Y-83766927D01*
X93041936Y-83736475D01*
X93048024Y-83722307D01*
X93048455Y-83721613D01*
X93056923Y-83725539D01*
X93072805Y-83743113D01*
X93093061Y-83770842D01*
X93098705Y-83779340D01*
X93119646Y-83810290D01*
X93136714Y-83833329D01*
X93146855Y-83844390D01*
X93147899Y-83844812D01*
X93154255Y-83836266D01*
X93168546Y-83812483D01*
X93189341Y-83775993D01*
X93215212Y-83729322D01*
X93244730Y-83674996D01*
X93259664Y-83647148D01*
X93294835Y-83581663D01*
X93336945Y-83503853D01*
X93383151Y-83418931D01*
X93430615Y-83332110D01*
X93476494Y-83248602D01*
X93504343Y-83198166D01*
X93544768Y-83125007D01*
X93592255Y-83038862D01*
X93644250Y-82944376D01*
X93698202Y-82846191D01*
X93751558Y-82748949D01*
X93801766Y-82657295D01*
X93819269Y-82625297D01*
X93900620Y-82477700D01*
X93980524Y-82335022D01*
X94058118Y-82198716D01*
X94132536Y-82070233D01*
X94202911Y-81951026D01*
X94268379Y-81842547D01*
X94328074Y-81746248D01*
X94381131Y-81663581D01*
X94426683Y-81595998D01*
X94461089Y-81548561D01*
X94509284Y-81490448D01*
X94552268Y-81448666D01*
X94589327Y-81423611D01*
X94619750Y-81415683D01*
X94642825Y-81425278D01*
X94653547Y-81441105D01*
X94663486Y-81467923D01*
X94665196Y-81483690D01*
X94659540Y-81485795D01*
X94647379Y-81471630D01*
X94644813Y-81467557D01*
X94625440Y-81444026D01*
X94607440Y-81437450D01*
X94607202Y-81437492D01*
X94588334Y-81449535D01*
X94562203Y-81479608D01*
X94529126Y-81527147D01*
X94489420Y-81591588D01*
X94443404Y-81672369D01*
X94391393Y-81768925D01*
X94333707Y-81880694D01*
X94270662Y-82007113D01*
X94202576Y-82147616D01*
X94178278Y-82198617D01*
X94154348Y-82249608D01*
X94125141Y-82312769D01*
X94091391Y-82386448D01*
X94053833Y-82468993D01*
X94013202Y-82558752D01*
X93970233Y-82654073D01*
X93925660Y-82753302D01*
X93880220Y-82854789D01*
X93834646Y-82956880D01*
X93789674Y-83057923D01*
X93746038Y-83156266D01*
X93704474Y-83250257D01*
X93665715Y-83338244D01*
X93630499Y-83418573D01*
X93599558Y-83489594D01*
X93573628Y-83549653D01*
X93553444Y-83597099D01*
X93539741Y-83630279D01*
X93533254Y-83647541D01*
X93532874Y-83649666D01*
X93539020Y-83642482D01*
X93554760Y-83620835D01*
X93578536Y-83586958D01*
X93608791Y-83543087D01*
X93643968Y-83491456D01*
X93671285Y-83451006D01*
X93716822Y-83383757D01*
X93770733Y-83304848D01*
X93831643Y-83216245D01*
X93898175Y-83119915D01*
X93968953Y-83017824D01*
X94042602Y-82911937D01*
X94117745Y-82804222D01*
X94193006Y-82696642D01*
X94267009Y-82591166D01*
X94338378Y-82489758D01*
X94405736Y-82394385D01*
X94467709Y-82307013D01*
X94522919Y-82229608D01*
X94569991Y-82164135D01*
X94607548Y-82112562D01*
X94618143Y-82098222D01*
X94801410Y-81854530D01*
X94976183Y-81628455D01*
X95142843Y-81419603D01*
X95301766Y-81227578D01*
X95453334Y-81051985D01*
X95597924Y-80892429D01*
X95735915Y-80748515D01*
X95867686Y-80619847D01*
X95993617Y-80506031D01*
X96114087Y-80406671D01*
X96229473Y-80321373D01*
X96340156Y-80249741D01*
X96446514Y-80191379D01*
X96447214Y-80191032D01*
X96526495Y-80153195D01*
X96593971Y-80124791D01*
X96654587Y-80104175D01*
X96713283Y-80089703D01*
X96775003Y-80079731D01*
X96785606Y-80078429D01*
X96857700Y-80073964D01*
X96929611Y-80076769D01*
G36*
X96929611Y-80076769D02*
G01*
X96995325Y-80086247D01*
X97048830Y-80101802D01*
X97056991Y-80105335D01*
X97089743Y-80120513D01*
X97059625Y-80115418D01*
X96954801Y-80103662D01*
X96856617Y-80104445D01*
X96769532Y-80117718D01*
X96765937Y-80118611D01*
X96664457Y-80151983D01*
X96558707Y-80201990D01*
X96448329Y-80268926D01*
X96332959Y-80353084D01*
X96212239Y-80454758D01*
X96085807Y-80574241D01*
X95953302Y-80711827D01*
X95814364Y-80867810D01*
X95745131Y-80949484D01*
X95680990Y-81026949D01*
X95619712Y-81102490D01*
X95560339Y-81177494D01*
X95501908Y-81253349D01*
X95443460Y-81331443D01*
X95384035Y-81413164D01*
X95322672Y-81499901D01*
X95258412Y-81593042D01*
X95190293Y-81693974D01*
X95117356Y-81804086D01*
X95038640Y-81924766D01*
X94953185Y-82057402D01*
X94860032Y-82203382D01*
X94758218Y-82364094D01*
X94672657Y-82499803D01*
X94477545Y-82814436D01*
X94289882Y-83126350D01*
X94112685Y-83430508D01*
X94068089Y-83508775D01*
X94027787Y-83579489D01*
X93981095Y-83660819D01*
X93931858Y-83746107D01*
X93883919Y-83828695D01*
X93841857Y-83900674D01*
X93799962Y-83972491D01*
X93754005Y-84052024D01*
X93707534Y-84133086D01*
X93664095Y-84209487D01*
X93627235Y-84275041D01*
X93626056Y-84277156D01*
X93594267Y-84334093D01*
X93564110Y-84387926D01*
X93537591Y-84435088D01*
X93516717Y-84472012D01*
X93503493Y-84495129D01*
X93503077Y-84495844D01*
X93477822Y-84539198D01*
X93438847Y-84435607D01*
X93418404Y-84384375D01*
X93392989Y-84325534D01*
X93363877Y-84261588D01*
X93332341Y-84195037D01*
X93299658Y-84128382D01*
X93267103Y-84064126D01*
X93235949Y-84004768D01*
X93207473Y-83952811D01*
X93182950Y-83910756D01*
X93163654Y-83881104D01*
X93150860Y-83866357D01*
X93148081Y-83865178D01*
X93141335Y-83873572D01*
X93126854Y-83896847D01*
X93106309Y-83932146D01*
X93081370Y-83976609D01*
X93058609Y-84018281D01*
X93021856Y-84086074D01*
X92982446Y-84158307D01*
X92941579Y-84232820D01*
X92900455Y-84307458D01*
X92860274Y-84380062D01*
X92822236Y-84448475D01*
X92787542Y-84510539D01*
X92757392Y-84564098D01*
X92732986Y-84606993D01*
X92715524Y-84637067D01*
X92706207Y-84652163D01*
X92705350Y-84653281D01*
X92704653Y-84648874D01*
X92709990Y-84629080D01*
X92720345Y-84597314D01*
X92730701Y-84567945D01*
X92755852Y-84498839D01*
X92783809Y-84422605D01*
X92813773Y-84341372D01*
X92844946Y-84257267D01*
X92876528Y-84172420D01*
X92907720Y-84088958D01*
X92937723Y-84009010D01*
X92965739Y-83934705D01*
X92990966Y-83868170D01*
X93012608Y-83811535D01*
X93029864Y-83766927D01*
X93041936Y-83736475D01*
X93048024Y-83722307D01*
X93048455Y-83721613D01*
X93056923Y-83725539D01*
X93072805Y-83743113D01*
X93093061Y-83770842D01*
X93098705Y-83779340D01*
X93119646Y-83810290D01*
X93136714Y-83833329D01*
X93146855Y-83844390D01*
X93147899Y-83844812D01*
X93154255Y-83836266D01*
X93168546Y-83812483D01*
X93189341Y-83775993D01*
X93215212Y-83729322D01*
X93244730Y-83674996D01*
X93259664Y-83647148D01*
X93294835Y-83581663D01*
X93336945Y-83503853D01*
X93383151Y-83418931D01*
X93430615Y-83332110D01*
X93476494Y-83248602D01*
X93504343Y-83198166D01*
X93544768Y-83125007D01*
X93592255Y-83038862D01*
X93644250Y-82944376D01*
X93698202Y-82846191D01*
X93751558Y-82748949D01*
X93801766Y-82657295D01*
X93819269Y-82625297D01*
X93900620Y-82477700D01*
X93980524Y-82335022D01*
X94058118Y-82198716D01*
X94132536Y-82070233D01*
X94202911Y-81951026D01*
X94268379Y-81842547D01*
X94328074Y-81746248D01*
X94381131Y-81663581D01*
X94426683Y-81595998D01*
X94461089Y-81548561D01*
X94509284Y-81490448D01*
X94552268Y-81448666D01*
X94589327Y-81423611D01*
X94619750Y-81415683D01*
X94642825Y-81425278D01*
X94653547Y-81441105D01*
X94663486Y-81467923D01*
X94665196Y-81483690D01*
X94659540Y-81485795D01*
X94647379Y-81471630D01*
X94644813Y-81467557D01*
X94625440Y-81444026D01*
X94607440Y-81437450D01*
X94607202Y-81437492D01*
X94588334Y-81449535D01*
X94562203Y-81479608D01*
X94529126Y-81527147D01*
X94489420Y-81591588D01*
X94443404Y-81672369D01*
X94391393Y-81768925D01*
X94333707Y-81880694D01*
X94270662Y-82007113D01*
X94202576Y-82147616D01*
X94178278Y-82198617D01*
X94154348Y-82249608D01*
X94125141Y-82312769D01*
X94091391Y-82386448D01*
X94053833Y-82468993D01*
X94013202Y-82558752D01*
X93970233Y-82654073D01*
X93925660Y-82753302D01*
X93880220Y-82854789D01*
X93834646Y-82956880D01*
X93789674Y-83057923D01*
X93746038Y-83156266D01*
X93704474Y-83250257D01*
X93665715Y-83338244D01*
X93630499Y-83418573D01*
X93599558Y-83489594D01*
X93573628Y-83549653D01*
X93553444Y-83597099D01*
X93539741Y-83630279D01*
X93533254Y-83647541D01*
X93532874Y-83649666D01*
X93539020Y-83642482D01*
X93554760Y-83620835D01*
X93578536Y-83586958D01*
X93608791Y-83543087D01*
X93643968Y-83491456D01*
X93671285Y-83451006D01*
X93716822Y-83383757D01*
X93770733Y-83304848D01*
X93831643Y-83216245D01*
X93898175Y-83119915D01*
X93968953Y-83017824D01*
X94042602Y-82911937D01*
X94117745Y-82804222D01*
X94193006Y-82696642D01*
X94267009Y-82591166D01*
X94338378Y-82489758D01*
X94405736Y-82394385D01*
X94467709Y-82307013D01*
X94522919Y-82229608D01*
X94569991Y-82164135D01*
X94607548Y-82112562D01*
X94618143Y-82098222D01*
X94801410Y-81854530D01*
X94976183Y-81628455D01*
X95142843Y-81419603D01*
X95301766Y-81227578D01*
X95453334Y-81051985D01*
X95597924Y-80892429D01*
X95735915Y-80748515D01*
X95867686Y-80619847D01*
X95993617Y-80506031D01*
X96114087Y-80406671D01*
X96229473Y-80321373D01*
X96340156Y-80249741D01*
X96446514Y-80191379D01*
X96447214Y-80191032D01*
X96526495Y-80153195D01*
X96593971Y-80124791D01*
X96654587Y-80104175D01*
X96713283Y-80089703D01*
X96775003Y-80079731D01*
X96785606Y-80078429D01*
X96857700Y-80073964D01*
X96929611Y-80076769D01*
G37*
X93639354Y-82315025D02*
X93634097Y-82327126D01*
X93617000Y-82352867D01*
X93607190Y-82366756D01*
X93588840Y-82393842D01*
X93570861Y-82423573D01*
X93552125Y-82458325D01*
X93531503Y-82500477D01*
X93507868Y-82552406D01*
X93480091Y-82616489D01*
X93447043Y-82695105D01*
X93417622Y-82766244D01*
X93392600Y-82827670D01*
X93361740Y-82904444D01*
X93326379Y-82993161D01*
X93287855Y-83090415D01*
X93247506Y-83192801D01*
X93206670Y-83296915D01*
X93166686Y-83399352D01*
X93128891Y-83496706D01*
X93094623Y-83585572D01*
X93065220Y-83662545D01*
X93059369Y-83677988D01*
X93048532Y-83706648D01*
X92992220Y-83629539D01*
X92967322Y-83597301D01*
X92946298Y-83573500D01*
X92932057Y-83561255D01*
X92928006Y-83560721D01*
X92922388Y-83570970D01*
X92908808Y-83597788D01*
X92888013Y-83639649D01*
X92860749Y-83695028D01*
X92827761Y-83762401D01*
X92789796Y-83840243D01*
X92747599Y-83927029D01*
X92701917Y-84021233D01*
X92653495Y-84121332D01*
X92634172Y-84161344D01*
X92522921Y-84391675D01*
X92419687Y-84605119D01*
X92323860Y-84802925D01*
X92234831Y-84986337D01*
X92151990Y-85156603D01*
X92074727Y-85314968D01*
X92002434Y-85462678D01*
X91934500Y-85600980D01*
X91870316Y-85731120D01*
X91809273Y-85854344D01*
X91750761Y-85971899D01*
X91694170Y-86085030D01*
X91661958Y-86149170D01*
X91618299Y-86236492D01*
X91581018Y-86311559D01*
X91548790Y-86376093D01*
X91520287Y-86431820D01*
X91494185Y-86480462D01*
X91469158Y-86523744D01*
X91443879Y-86563388D01*
X91417022Y-86601118D01*
X91387263Y-86638659D01*
X91353274Y-86677733D01*
X91313730Y-86720065D01*
X91267305Y-86767378D01*
X91212674Y-86821396D01*
X91148510Y-86883842D01*
X91073487Y-86956440D01*
X90986280Y-87040913D01*
X90945554Y-87080491D01*
X90872095Y-87152369D01*
X90800228Y-87223443D01*
X90731826Y-87291806D01*
X90668766Y-87355553D01*
X90612923Y-87412777D01*
X90566171Y-87461572D01*
X90530386Y-87500031D01*
X90509557Y-87523693D01*
X90452906Y-87590302D01*
X90384212Y-87669063D01*
X90305482Y-87757789D01*
X90218725Y-87854292D01*
X90125952Y-87956383D01*
X90029170Y-88061873D01*
X89930390Y-88168576D01*
X89831620Y-88274303D01*
X89734869Y-88376865D01*
X89642146Y-88474074D01*
X89555461Y-88563743D01*
X89541277Y-88578276D01*
X89493303Y-88627495D01*
X89450468Y-88671708D01*
X89414624Y-88708984D01*
X89387621Y-88737390D01*
X89371311Y-88754992D01*
X89367216Y-88760010D01*
X89379556Y-88764406D01*
X89407514Y-88772450D01*
X89447177Y-88783143D01*
X89494627Y-88795487D01*
X89545951Y-88808484D01*
X89597232Y-88821137D01*
X89644556Y-88832446D01*
X89684007Y-88841415D01*
X89699248Y-88844646D01*
X89763725Y-88856804D01*
X89810584Y-88863207D01*
X89841406Y-88863973D01*
X89857773Y-88859219D01*
X89860197Y-88856583D01*
X89869789Y-88847119D01*
X89891492Y-88828312D01*
X89921665Y-88803264D01*
X89943616Y-88785490D01*
X90021917Y-88722677D01*
X89863457Y-88872133D01*
X89897509Y-88878227D01*
X89957866Y-88886957D01*
X90030208Y-88894029D01*
X90111794Y-88899462D01*
X90199882Y-88903277D01*
X90291733Y-88905494D01*
X90384604Y-88906133D01*
X90475756Y-88905214D01*
X90562446Y-88902757D01*
X90641934Y-88898782D01*
X90711479Y-88893310D01*
X90768339Y-88886359D01*
X90809774Y-88877951D01*
X90827727Y-88871418D01*
X90839207Y-88859573D01*
X90859525Y-88832044D01*
X90887600Y-88790607D01*
X90922347Y-88737034D01*
X90962685Y-88673098D01*
X91007531Y-88600575D01*
X91055802Y-88521236D01*
X91106416Y-88436857D01*
X91158290Y-88349210D01*
X91210340Y-88260069D01*
X91261486Y-88171208D01*
X91310643Y-88084401D01*
X91337313Y-88036601D01*
X91379634Y-87961587D01*
X91425086Y-87883270D01*
X91471021Y-87806062D01*
X91514788Y-87734374D01*
X91553738Y-87672618D01*
X91578502Y-87635020D01*
X91615553Y-87578446D01*
X91658582Y-87509712D01*
X91704202Y-87434417D01*
X91749025Y-87358161D01*
X91789663Y-87286546D01*
X91793729Y-87279199D01*
X91843622Y-87191052D01*
X91892686Y-87109585D01*
X91944448Y-87029318D01*
X92002438Y-86944778D01*
X92068701Y-86852519D01*
X92210597Y-86654263D01*
X92344685Y-86458387D01*
X92474082Y-86260061D01*
X92601904Y-86054452D01*
X92731269Y-85836732D01*
X92791383Y-85732530D01*
X92827454Y-85670546D01*
X92860279Y-85617042D01*
X92892815Y-85567826D01*
X92928021Y-85518706D01*
X92968857Y-85465488D01*
X93018280Y-85403981D01*
X93053523Y-85361068D01*
X93102164Y-85302066D01*
X93150546Y-85243214D01*
X93195927Y-85187860D01*
X93235562Y-85139355D01*
X93266709Y-85101046D01*
X93279674Y-85084981D01*
X93310876Y-85046543D01*
X93350381Y-84998481D01*
X93393496Y-84946473D01*
X93435528Y-84896201D01*
X93442477Y-84887940D01*
X93476700Y-84846501D01*
X93505739Y-84809815D01*
X93527326Y-84780870D01*
X93539192Y-84762651D01*
X93540771Y-84758508D01*
X93538093Y-84743432D01*
X93531201Y-84716033D01*
X93521810Y-84682213D01*
X93511635Y-84647871D01*
X93502392Y-84618911D01*
X93495794Y-84601231D01*
X93494329Y-84598690D01*
X93485563Y-84602755D01*
X93466725Y-84617674D01*
X93443364Y-84638848D01*
X93420194Y-84659726D01*
X93409348Y-84666645D01*
X93411451Y-84659214D01*
X93412004Y-84658301D01*
X93426041Y-84633895D01*
X93443309Y-84601840D01*
X93450121Y-84588666D01*
X93463822Y-84562914D01*
X93472224Y-84552914D01*
X93478840Y-84556376D01*
X93484604Y-84566170D01*
X93490007Y-84574384D01*
X93496831Y-84577199D01*
X93507657Y-84573001D01*
X93525065Y-84560177D01*
X93551635Y-84537111D01*
X93589950Y-84502192D01*
X93596391Y-84496271D01*
X93710022Y-84392673D01*
X93811253Y-84302322D01*
X93901579Y-84223970D01*
X93982496Y-84156370D01*
X94055500Y-84098275D01*
X94122087Y-84048437D01*
X94183751Y-84005609D01*
X94188321Y-84002577D01*
X94270052Y-83951970D01*
X94339989Y-83915945D01*
X94397784Y-83894626D01*
X94443090Y-83888137D01*
X94475559Y-83896601D01*
X94479467Y-83899296D01*
X94490184Y-83908683D01*
X94488189Y-83913267D01*
X94470573Y-83914836D01*
X94453824Y-83915057D01*
X94409065Y-83921695D01*
X94364657Y-83942938D01*
X94362679Y-83944182D01*
X94327515Y-83969027D01*
X94281972Y-84004953D01*
X94229749Y-84048724D01*
X94174548Y-84097107D01*
X94120067Y-84146865D01*
X94070009Y-84194764D01*
X94032708Y-84232646D01*
X94001729Y-84265668D01*
X93962486Y-84308004D01*
X93917037Y-84357385D01*
X93867444Y-84411541D01*
X93815765Y-84468203D01*
X93764062Y-84525101D01*
X93714394Y-84579966D01*
X93668821Y-84630528D01*
X93629403Y-84674518D01*
X93598200Y-84709666D01*
X93577272Y-84733702D01*
X93570407Y-84741970D01*
X93548279Y-84770101D01*
X93575433Y-84892403D01*
X93597739Y-84998631D01*
X93615083Y-85095850D01*
X93628121Y-85189735D01*
X93637510Y-85285962D01*
X93643907Y-85390207D01*
X93647967Y-85508146D01*
X93648309Y-85522675D01*
X93649568Y-85685888D01*
X93645193Y-85834876D01*
X93634664Y-85974830D01*
X93617461Y-86110942D01*
X93593064Y-86248404D01*
X93561284Y-86391041D01*
X93491789Y-86635762D01*
X93403933Y-86873227D01*
X93298423Y-87102470D01*
X93175968Y-87322526D01*
X93037273Y-87532433D01*
X92883045Y-87731224D01*
X92713992Y-87917935D01*
X92530821Y-88091601D01*
X92334239Y-88251259D01*
X92124953Y-88395943D01*
X92063905Y-88433801D01*
X91855556Y-88549464D01*
X91637609Y-88650640D01*
X91413404Y-88736073D01*
X91186279Y-88804505D01*
X90959575Y-88854676D01*
X90935514Y-88858905D01*
X90882739Y-88869648D01*
X90848687Y-88880727D01*
X90832262Y-88892210D01*
X90823155Y-88905197D01*
X90804393Y-88932248D01*
X90777693Y-88970878D01*
X90744771Y-89018602D01*
X90707344Y-89072934D01*
X90677813Y-89115850D01*
X90567638Y-89272266D01*
X90463994Y-89411379D01*
X90365751Y-89534447D01*
X90271779Y-89642726D01*
X90180947Y-89737474D01*
X90092125Y-89819947D01*
X90004182Y-89891404D01*
X89937812Y-89938730D01*
X89879318Y-89974445D01*
X89811978Y-90009842D01*
X89742181Y-90041965D01*
X89676315Y-90067856D01*
X89624843Y-90083591D01*
X89542512Y-90098208D01*
X89453421Y-90104709D01*
X89366323Y-90102792D01*
X89302152Y-90094657D01*
X89183179Y-90061910D01*
X89069155Y-90009740D01*
X88960234Y-89938223D01*
X88922530Y-89907949D01*
X88893427Y-89885286D01*
X88869738Y-89873522D01*
X88842805Y-89869231D01*
X88823662Y-89868815D01*
X88689121Y-89860929D01*
X88552604Y-89838158D01*
X88520137Y-89829346D01*
X89262084Y-89829346D01*
X89275983Y-89838064D01*
X89289032Y-89842139D01*
X89308074Y-89844330D01*
X89341010Y-89845403D01*
X89381677Y-89845200D01*
X89394447Y-89844867D01*
X89453011Y-89840639D01*
X89501335Y-89830911D01*
X89542819Y-89816401D01*
X89610682Y-89785416D01*
X89671414Y-89749932D01*
X89730431Y-89706231D01*
X89793146Y-89650593D01*
X89815380Y-89629172D01*
X89848191Y-89596486D01*
X89872578Y-89571051D01*
X89886736Y-89554852D01*
X89888856Y-89549874D01*
X89886384Y-89551173D01*
X89782616Y-89615621D01*
X89692955Y-89667015D01*
X89616637Y-89705793D01*
X89612984Y-89707489D01*
X89559107Y-89730581D01*
X89497402Y-89754180D01*
X89433451Y-89776408D01*
X89372835Y-89795389D01*
X89321136Y-89809245D01*
X89293927Y-89814782D01*
X89268102Y-89821379D01*
X89262084Y-89829346D01*
X88520137Y-89829346D01*
X88418737Y-89801825D01*
X88292144Y-89753258D01*
X88177453Y-89693782D01*
X88147563Y-89675001D01*
X88112991Y-89654886D01*
X88079010Y-89639252D01*
X88059190Y-89632995D01*
X88033049Y-89625229D01*
X87996308Y-89611201D01*
X87956274Y-89593733D01*
X87950435Y-89590989D01*
X87870123Y-89541914D01*
X87869993Y-89541792D01*
X88847669Y-89541792D01*
X88850999Y-89549751D01*
X88860384Y-89560513D01*
X88862598Y-89562871D01*
X88875158Y-89575256D01*
X88887640Y-89582914D01*
X88903927Y-89585960D01*
X88927900Y-89584512D01*
X88963443Y-89578688D01*
X89014438Y-89568604D01*
X89019370Y-89567603D01*
X89060396Y-89558455D01*
X89107398Y-89546687D01*
X89156741Y-89533374D01*
X89204793Y-89519590D01*
X89247919Y-89506410D01*
X89282485Y-89494909D01*
X89304859Y-89486161D01*
X89311406Y-89481241D01*
X89311398Y-89481234D01*
X89300540Y-89481192D01*
X89274731Y-89484240D01*
X89238757Y-89489770D01*
X89223435Y-89492392D01*
X89179636Y-89499056D01*
X89123173Y-89506162D01*
X89061417Y-89512848D01*
X89003253Y-89518133D01*
X88941417Y-89523179D01*
X88897267Y-89527329D01*
X88868477Y-89531320D01*
X88852719Y-89535895D01*
X88847669Y-89541792D01*
X87869993Y-89541792D01*
X87800487Y-89476567D01*
X87742197Y-89396088D01*
X87695928Y-89301614D01*
X87662349Y-89194284D01*
X87642134Y-89075236D01*
X87641317Y-89067307D01*
X87634253Y-89024136D01*
X87621847Y-88972945D01*
X87606660Y-88924170D01*
X87605179Y-88920079D01*
X87565882Y-88799128D01*
X87560826Y-88779526D01*
X87756464Y-88779526D01*
X87760844Y-88851336D01*
X87765281Y-88895065D01*
X87774317Y-88930917D01*
X87790842Y-88968429D01*
X87803426Y-88991889D01*
X87888855Y-89130070D01*
X87981609Y-89250106D01*
X88082325Y-89352786D01*
X88124447Y-89388741D01*
X88184684Y-89437540D01*
X88249941Y-89431318D01*
X88283933Y-89427561D01*
X88309013Y-89423824D01*
X88319381Y-89421065D01*
X88321532Y-89418362D01*
X88319616Y-89414798D01*
X88310476Y-89408137D01*
X88290958Y-89396146D01*
X88257903Y-89376588D01*
X88249941Y-89371897D01*
X88140216Y-89297962D01*
X88041691Y-89211508D01*
X87952763Y-89110746D01*
X87871828Y-88993886D01*
X87806366Y-88877142D01*
X87756464Y-88779526D01*
X87560826Y-88779526D01*
X87530168Y-88660671D01*
X87498519Y-88507038D01*
X87471418Y-88340562D01*
X87450271Y-88172135D01*
X87445658Y-88119569D01*
X87441788Y-88055612D01*
X87438681Y-87983310D01*
X87436360Y-87905708D01*
X87434845Y-87825852D01*
X87434158Y-87746788D01*
X87434320Y-87671562D01*
X87435352Y-87603219D01*
X87437276Y-87544806D01*
X87440113Y-87499367D01*
X87443885Y-87469949D01*
X87445314Y-87464348D01*
X87450848Y-87449161D01*
X87453923Y-87448391D01*
X87455402Y-87464069D01*
X87456013Y-87489447D01*
X87459272Y-87569211D01*
X87466297Y-87663932D01*
X87476494Y-87768968D01*
X87489270Y-87879675D01*
X87504030Y-87991411D01*
X87520181Y-88099534D01*
X87537129Y-88199399D01*
X87554281Y-88286365D01*
X87562585Y-88322886D01*
X87577925Y-88384030D01*
X87594183Y-88444333D01*
X87610431Y-88500813D01*
X87625742Y-88550483D01*
X87639185Y-88590360D01*
X87649833Y-88617459D01*
X87656756Y-88628795D01*
X87657778Y-88628829D01*
X87666999Y-88612577D01*
X87671609Y-88580652D01*
X87671614Y-88536920D01*
X87667021Y-88485250D01*
X87657838Y-88429507D01*
X87657392Y-88427326D01*
X87642849Y-88352500D01*
X87631032Y-88280880D01*
X87621660Y-88209058D01*
X87614455Y-88133627D01*
X87609137Y-88051177D01*
X87605426Y-87958301D01*
X87603042Y-87851588D01*
X87601875Y-87750475D01*
X87600310Y-87554956D01*
X87658100Y-87554956D01*
X87659065Y-87593967D01*
X87661056Y-87642540D01*
X87663900Y-87697191D01*
X87667423Y-87754434D01*
X87671448Y-87810784D01*
X87675802Y-87862755D01*
X87678567Y-87891028D01*
X87684144Y-87938152D01*
X87691554Y-87992187D01*
X87700138Y-88049193D01*
X87709237Y-88105228D01*
X87718191Y-88156349D01*
X87726341Y-88198616D01*
X87733029Y-88228086D01*
X87736894Y-88239820D01*
X87742315Y-88235742D01*
X87752257Y-88215633D01*
X87765364Y-88182660D01*
X87780276Y-88139990D01*
X87782110Y-88134405D01*
X87804697Y-88067050D01*
X87824895Y-88010489D01*
X87841941Y-87966646D01*
X87855070Y-87937443D01*
X87863519Y-87924805D01*
X87865386Y-87924786D01*
X87865048Y-87935656D01*
X87861049Y-87962247D01*
X87854051Y-88000672D01*
X87844717Y-88047042D01*
X87843777Y-88051514D01*
X87830958Y-88114810D01*
X87817305Y-88186433D01*
X87804804Y-88255785D01*
X87798372Y-88293791D01*
X87778827Y-88413591D01*
X87809335Y-88501183D01*
X87834863Y-88568352D01*
X87866430Y-88642006D01*
X87901376Y-88716616D01*
X87937045Y-88786649D01*
X87970777Y-88846572D01*
X87989609Y-88876304D01*
X88037483Y-88939710D01*
X88095581Y-89005028D01*
X88157813Y-89065937D01*
X88218094Y-89116117D01*
X88226446Y-89122224D01*
X88256831Y-89142204D01*
X88294249Y-89164218D01*
X88334690Y-89186237D01*
X88374144Y-89206235D01*
X88408603Y-89222183D01*
X88434055Y-89232054D01*
X88446493Y-89233821D01*
X88446737Y-89233626D01*
X88444889Y-89223188D01*
X88436208Y-89199359D01*
X88422460Y-89166890D01*
X88419405Y-89160103D01*
X88389765Y-89091892D01*
X88356422Y-89010243D01*
X88321559Y-88920917D01*
X88287359Y-88829672D01*
X88256006Y-88742268D01*
X88229680Y-88664465D01*
X88220005Y-88633953D01*
X88203274Y-88578029D01*
X88185222Y-88514822D01*
X88166662Y-88447489D01*
X88148406Y-88379185D01*
X88131266Y-88313066D01*
X88116055Y-88252286D01*
X88103585Y-88200002D01*
X88094669Y-88159370D01*
X88090118Y-88133544D01*
X88089705Y-88127821D01*
X88093366Y-88131668D01*
X88103576Y-88152189D01*
X88119474Y-88187399D01*
X88140196Y-88235311D01*
X88164879Y-88293941D01*
X88192659Y-88361301D01*
X88213688Y-88413083D01*
X88257776Y-88521436D01*
X88296540Y-88614463D01*
X88331616Y-88695671D01*
X88364643Y-88768567D01*
X88397257Y-88836659D01*
X88431096Y-88903454D01*
X88467797Y-88972459D01*
X88508999Y-89047181D01*
X88513450Y-89055140D01*
X88553493Y-89126135D01*
X88585433Y-89181301D01*
X88610597Y-89222534D01*
X88630313Y-89251731D01*
X88645908Y-89270788D01*
X88658710Y-89281604D01*
X88670047Y-89286074D01*
X88675397Y-89286522D01*
X88693593Y-89281174D01*
X88723575Y-89266741D01*
X88760669Y-89245636D01*
X88788551Y-89228063D01*
X88829474Y-89199906D01*
X88880156Y-89163100D01*
X88934935Y-89121858D01*
X88988148Y-89080393D01*
X89002989Y-89068516D01*
X89012612Y-89060633D01*
X89595238Y-89060633D01*
X89600257Y-89065653D01*
X89605277Y-89060633D01*
X89600257Y-89055613D01*
X89595238Y-89060633D01*
X89012612Y-89060633D01*
X89022974Y-89052145D01*
X89615317Y-89052145D01*
X89622991Y-89050243D01*
X89645931Y-89035534D01*
X89684011Y-89008106D01*
X89737107Y-88968046D01*
X89764033Y-88947337D01*
X89797843Y-88920481D01*
X89824148Y-88898167D01*
X89839858Y-88883107D01*
X89842794Y-88878163D01*
X89833951Y-88882416D01*
X89812924Y-88896606D01*
X89783177Y-88918082D01*
X89748171Y-88944196D01*
X89711370Y-88972300D01*
X89676236Y-88999746D01*
X89646232Y-89023885D01*
X89624822Y-89042068D01*
X89615467Y-89051647D01*
X89615317Y-89052145D01*
X89022974Y-89052145D01*
X89046201Y-89033119D01*
X89093645Y-88993302D01*
X89143022Y-88951099D01*
X89192033Y-88908547D01*
X89238379Y-88867681D01*
X89279763Y-88830537D01*
X89313884Y-88799151D01*
X89338444Y-88775558D01*
X89351145Y-88761794D01*
X89352293Y-88759191D01*
X89342251Y-88754791D01*
X89317082Y-88744955D01*
X89280530Y-88731119D01*
X89236337Y-88714716D01*
X89234079Y-88713885D01*
X89000246Y-88617659D01*
X88774522Y-88504228D01*
X88558262Y-88374596D01*
X88352822Y-88229764D01*
X88159558Y-88070735D01*
X87979825Y-87898509D01*
X87814979Y-87714090D01*
X87723310Y-87597372D01*
X87697959Y-87564100D01*
X87677050Y-87537929D01*
X87663436Y-87522361D01*
X87659952Y-87519566D01*
X87658338Y-87528994D01*
X87658100Y-87554956D01*
X87600310Y-87554956D01*
X87599263Y-87424190D01*
X87532137Y-87313755D01*
X87409614Y-87093020D01*
X87305006Y-86863400D01*
X87218274Y-86624785D01*
X87149383Y-86377064D01*
X87098295Y-86120124D01*
X87074074Y-85943360D01*
X87069394Y-85887450D01*
X87065923Y-85816085D01*
X87063662Y-85733853D01*
X87062611Y-85645343D01*
X87062770Y-85555142D01*
X87064139Y-85467838D01*
X87066718Y-85388019D01*
X87070507Y-85320274D01*
X87074074Y-85280751D01*
X87113469Y-85017095D01*
X87170930Y-84762193D01*
X87246476Y-84516003D01*
X87340126Y-84278476D01*
X87451897Y-84049568D01*
X87581810Y-83829234D01*
X87729882Y-83617427D01*
X87787111Y-83543913D01*
X87838221Y-83483023D01*
X87900479Y-83413573D01*
X87969662Y-83339922D01*
X88041548Y-83266432D01*
X88111915Y-83197463D01*
X88176540Y-83137376D01*
X88204763Y-83112556D01*
X88406679Y-82952277D01*
X88618979Y-82809032D01*
X88840903Y-82683151D01*
X89071689Y-82574966D01*
X89310575Y-82484810D01*
X89556800Y-82413014D01*
X89809602Y-82359910D01*
X89991799Y-82333835D01*
X90066512Y-82327075D01*
X90155570Y-82322082D01*
X90253761Y-82318896D01*
X90355874Y-82317557D01*
X90456697Y-82318107D01*
X90551019Y-82320584D01*
X90633628Y-82325030D01*
X90674487Y-82328564D01*
X90934481Y-82364969D01*
X91186394Y-82419731D01*
X91430439Y-82492937D01*
X91666830Y-82584676D01*
X91895782Y-82695037D01*
X92117508Y-82824107D01*
X92332222Y-82971976D01*
X92446463Y-83060589D01*
X92490285Y-83097702D01*
X92542555Y-83144734D01*
X92600226Y-83198680D01*
X92660251Y-83256536D01*
X92719584Y-83315294D01*
X92775179Y-83371951D01*
X92823989Y-83423500D01*
X92862968Y-83466936D01*
X92883182Y-83491431D01*
X92904422Y-83517891D01*
X92920755Y-83536627D01*
X92928360Y-83543399D01*
X92933913Y-83534841D01*
X92947348Y-83510423D01*
X92967570Y-83472244D01*
X92993484Y-83422406D01*
X93023997Y-83363006D01*
X93058011Y-83296147D01*
X93081248Y-83250146D01*
X93153294Y-83108593D01*
X93222583Y-82975358D01*
X93288514Y-82851480D01*
X93350487Y-82737997D01*
X93407901Y-82635948D01*
X93460157Y-82546372D01*
X93506654Y-82470308D01*
X93546791Y-82408795D01*
X93579969Y-82362872D01*
X93605586Y-82333578D01*
X93615668Y-82325296D01*
X93633102Y-82314953D01*
X93639354Y-82315025D01*
G36*
X93639354Y-82315025D02*
G01*
X93634097Y-82327126D01*
X93617000Y-82352867D01*
X93607190Y-82366756D01*
X93588840Y-82393842D01*
X93570861Y-82423573D01*
X93552125Y-82458325D01*
X93531503Y-82500477D01*
X93507868Y-82552406D01*
X93480091Y-82616489D01*
X93447043Y-82695105D01*
X93417622Y-82766244D01*
X93392600Y-82827670D01*
X93361740Y-82904444D01*
X93326379Y-82993161D01*
X93287855Y-83090415D01*
X93247506Y-83192801D01*
X93206670Y-83296915D01*
X93166686Y-83399352D01*
X93128891Y-83496706D01*
X93094623Y-83585572D01*
X93065220Y-83662545D01*
X93059369Y-83677988D01*
X93048532Y-83706648D01*
X92992220Y-83629539D01*
X92967322Y-83597301D01*
X92946298Y-83573500D01*
X92932057Y-83561255D01*
X92928006Y-83560721D01*
X92922388Y-83570970D01*
X92908808Y-83597788D01*
X92888013Y-83639649D01*
X92860749Y-83695028D01*
X92827761Y-83762401D01*
X92789796Y-83840243D01*
X92747599Y-83927029D01*
X92701917Y-84021233D01*
X92653495Y-84121332D01*
X92634172Y-84161344D01*
X92522921Y-84391675D01*
X92419687Y-84605119D01*
X92323860Y-84802925D01*
X92234831Y-84986337D01*
X92151990Y-85156603D01*
X92074727Y-85314968D01*
X92002434Y-85462678D01*
X91934500Y-85600980D01*
X91870316Y-85731120D01*
X91809273Y-85854344D01*
X91750761Y-85971899D01*
X91694170Y-86085030D01*
X91661958Y-86149170D01*
X91618299Y-86236492D01*
X91581018Y-86311559D01*
X91548790Y-86376093D01*
X91520287Y-86431820D01*
X91494185Y-86480462D01*
X91469158Y-86523744D01*
X91443879Y-86563388D01*
X91417022Y-86601118D01*
X91387263Y-86638659D01*
X91353274Y-86677733D01*
X91313730Y-86720065D01*
X91267305Y-86767378D01*
X91212674Y-86821396D01*
X91148510Y-86883842D01*
X91073487Y-86956440D01*
X90986280Y-87040913D01*
X90945554Y-87080491D01*
X90872095Y-87152369D01*
X90800228Y-87223443D01*
X90731826Y-87291806D01*
X90668766Y-87355553D01*
X90612923Y-87412777D01*
X90566171Y-87461572D01*
X90530386Y-87500031D01*
X90509557Y-87523693D01*
X90452906Y-87590302D01*
X90384212Y-87669063D01*
X90305482Y-87757789D01*
X90218725Y-87854292D01*
X90125952Y-87956383D01*
X90029170Y-88061873D01*
X89930390Y-88168576D01*
X89831620Y-88274303D01*
X89734869Y-88376865D01*
X89642146Y-88474074D01*
X89555461Y-88563743D01*
X89541277Y-88578276D01*
X89493303Y-88627495D01*
X89450468Y-88671708D01*
X89414624Y-88708984D01*
X89387621Y-88737390D01*
X89371311Y-88754992D01*
X89367216Y-88760010D01*
X89379556Y-88764406D01*
X89407514Y-88772450D01*
X89447177Y-88783143D01*
X89494627Y-88795487D01*
X89545951Y-88808484D01*
X89597232Y-88821137D01*
X89644556Y-88832446D01*
X89684007Y-88841415D01*
X89699248Y-88844646D01*
X89763725Y-88856804D01*
X89810584Y-88863207D01*
X89841406Y-88863973D01*
X89857773Y-88859219D01*
X89860197Y-88856583D01*
X89869789Y-88847119D01*
X89891492Y-88828312D01*
X89921665Y-88803264D01*
X89943616Y-88785490D01*
X90021917Y-88722677D01*
X89863457Y-88872133D01*
X89897509Y-88878227D01*
X89957866Y-88886957D01*
X90030208Y-88894029D01*
X90111794Y-88899462D01*
X90199882Y-88903277D01*
X90291733Y-88905494D01*
X90384604Y-88906133D01*
X90475756Y-88905214D01*
X90562446Y-88902757D01*
X90641934Y-88898782D01*
X90711479Y-88893310D01*
X90768339Y-88886359D01*
X90809774Y-88877951D01*
X90827727Y-88871418D01*
X90839207Y-88859573D01*
X90859525Y-88832044D01*
X90887600Y-88790607D01*
X90922347Y-88737034D01*
X90962685Y-88673098D01*
X91007531Y-88600575D01*
X91055802Y-88521236D01*
X91106416Y-88436857D01*
X91158290Y-88349210D01*
X91210340Y-88260069D01*
X91261486Y-88171208D01*
X91310643Y-88084401D01*
X91337313Y-88036601D01*
X91379634Y-87961587D01*
X91425086Y-87883270D01*
X91471021Y-87806062D01*
X91514788Y-87734374D01*
X91553738Y-87672618D01*
X91578502Y-87635020D01*
X91615553Y-87578446D01*
X91658582Y-87509712D01*
X91704202Y-87434417D01*
X91749025Y-87358161D01*
X91789663Y-87286546D01*
X91793729Y-87279199D01*
X91843622Y-87191052D01*
X91892686Y-87109585D01*
X91944448Y-87029318D01*
X92002438Y-86944778D01*
X92068701Y-86852519D01*
X92210597Y-86654263D01*
X92344685Y-86458387D01*
X92474082Y-86260061D01*
X92601904Y-86054452D01*
X92731269Y-85836732D01*
X92791383Y-85732530D01*
X92827454Y-85670546D01*
X92860279Y-85617042D01*
X92892815Y-85567826D01*
X92928021Y-85518706D01*
X92968857Y-85465488D01*
X93018280Y-85403981D01*
X93053523Y-85361068D01*
X93102164Y-85302066D01*
X93150546Y-85243214D01*
X93195927Y-85187860D01*
X93235562Y-85139355D01*
X93266709Y-85101046D01*
X93279674Y-85084981D01*
X93310876Y-85046543D01*
X93350381Y-84998481D01*
X93393496Y-84946473D01*
X93435528Y-84896201D01*
X93442477Y-84887940D01*
X93476700Y-84846501D01*
X93505739Y-84809815D01*
X93527326Y-84780870D01*
X93539192Y-84762651D01*
X93540771Y-84758508D01*
X93538093Y-84743432D01*
X93531201Y-84716033D01*
X93521810Y-84682213D01*
X93511635Y-84647871D01*
X93502392Y-84618911D01*
X93495794Y-84601231D01*
X93494329Y-84598690D01*
X93485563Y-84602755D01*
X93466725Y-84617674D01*
X93443364Y-84638848D01*
X93420194Y-84659726D01*
X93409348Y-84666645D01*
X93411451Y-84659214D01*
X93412004Y-84658301D01*
X93426041Y-84633895D01*
X93443309Y-84601840D01*
X93450121Y-84588666D01*
X93463822Y-84562914D01*
X93472224Y-84552914D01*
X93478840Y-84556376D01*
X93484604Y-84566170D01*
X93490007Y-84574384D01*
X93496831Y-84577199D01*
X93507657Y-84573001D01*
X93525065Y-84560177D01*
X93551635Y-84537111D01*
X93589950Y-84502192D01*
X93596391Y-84496271D01*
X93710022Y-84392673D01*
X93811253Y-84302322D01*
X93901579Y-84223970D01*
X93982496Y-84156370D01*
X94055500Y-84098275D01*
X94122087Y-84048437D01*
X94183751Y-84005609D01*
X94188321Y-84002577D01*
X94270052Y-83951970D01*
X94339989Y-83915945D01*
X94397784Y-83894626D01*
X94443090Y-83888137D01*
X94475559Y-83896601D01*
X94479467Y-83899296D01*
X94490184Y-83908683D01*
X94488189Y-83913267D01*
X94470573Y-83914836D01*
X94453824Y-83915057D01*
X94409065Y-83921695D01*
X94364657Y-83942938D01*
X94362679Y-83944182D01*
X94327515Y-83969027D01*
X94281972Y-84004953D01*
X94229749Y-84048724D01*
X94174548Y-84097107D01*
X94120067Y-84146865D01*
X94070009Y-84194764D01*
X94032708Y-84232646D01*
X94001729Y-84265668D01*
X93962486Y-84308004D01*
X93917037Y-84357385D01*
X93867444Y-84411541D01*
X93815765Y-84468203D01*
X93764062Y-84525101D01*
X93714394Y-84579966D01*
X93668821Y-84630528D01*
X93629403Y-84674518D01*
X93598200Y-84709666D01*
X93577272Y-84733702D01*
X93570407Y-84741970D01*
X93548279Y-84770101D01*
X93575433Y-84892403D01*
X93597739Y-84998631D01*
X93615083Y-85095850D01*
X93628121Y-85189735D01*
X93637510Y-85285962D01*
X93643907Y-85390207D01*
X93647967Y-85508146D01*
X93648309Y-85522675D01*
X93649568Y-85685888D01*
X93645193Y-85834876D01*
X93634664Y-85974830D01*
X93617461Y-86110942D01*
X93593064Y-86248404D01*
X93561284Y-86391041D01*
X93491789Y-86635762D01*
X93403933Y-86873227D01*
X93298423Y-87102470D01*
X93175968Y-87322526D01*
X93037273Y-87532433D01*
X92883045Y-87731224D01*
X92713992Y-87917935D01*
X92530821Y-88091601D01*
X92334239Y-88251259D01*
X92124953Y-88395943D01*
X92063905Y-88433801D01*
X91855556Y-88549464D01*
X91637609Y-88650640D01*
X91413404Y-88736073D01*
X91186279Y-88804505D01*
X90959575Y-88854676D01*
X90935514Y-88858905D01*
X90882739Y-88869648D01*
X90848687Y-88880727D01*
X90832262Y-88892210D01*
X90823155Y-88905197D01*
X90804393Y-88932248D01*
X90777693Y-88970878D01*
X90744771Y-89018602D01*
X90707344Y-89072934D01*
X90677813Y-89115850D01*
X90567638Y-89272266D01*
X90463994Y-89411379D01*
X90365751Y-89534447D01*
X90271779Y-89642726D01*
X90180947Y-89737474D01*
X90092125Y-89819947D01*
X90004182Y-89891404D01*
X89937812Y-89938730D01*
X89879318Y-89974445D01*
X89811978Y-90009842D01*
X89742181Y-90041965D01*
X89676315Y-90067856D01*
X89624843Y-90083591D01*
X89542512Y-90098208D01*
X89453421Y-90104709D01*
X89366323Y-90102792D01*
X89302152Y-90094657D01*
X89183179Y-90061910D01*
X89069155Y-90009740D01*
X88960234Y-89938223D01*
X88922530Y-89907949D01*
X88893427Y-89885286D01*
X88869738Y-89873522D01*
X88842805Y-89869231D01*
X88823662Y-89868815D01*
X88689121Y-89860929D01*
X88552604Y-89838158D01*
X88520137Y-89829346D01*
X89262084Y-89829346D01*
X89275983Y-89838064D01*
X89289032Y-89842139D01*
X89308074Y-89844330D01*
X89341010Y-89845403D01*
X89381677Y-89845200D01*
X89394447Y-89844867D01*
X89453011Y-89840639D01*
X89501335Y-89830911D01*
X89542819Y-89816401D01*
X89610682Y-89785416D01*
X89671414Y-89749932D01*
X89730431Y-89706231D01*
X89793146Y-89650593D01*
X89815380Y-89629172D01*
X89848191Y-89596486D01*
X89872578Y-89571051D01*
X89886736Y-89554852D01*
X89888856Y-89549874D01*
X89886384Y-89551173D01*
X89782616Y-89615621D01*
X89692955Y-89667015D01*
X89616637Y-89705793D01*
X89612984Y-89707489D01*
X89559107Y-89730581D01*
X89497402Y-89754180D01*
X89433451Y-89776408D01*
X89372835Y-89795389D01*
X89321136Y-89809245D01*
X89293927Y-89814782D01*
X89268102Y-89821379D01*
X89262084Y-89829346D01*
X88520137Y-89829346D01*
X88418737Y-89801825D01*
X88292144Y-89753258D01*
X88177453Y-89693782D01*
X88147563Y-89675001D01*
X88112991Y-89654886D01*
X88079010Y-89639252D01*
X88059190Y-89632995D01*
X88033049Y-89625229D01*
X87996308Y-89611201D01*
X87956274Y-89593733D01*
X87950435Y-89590989D01*
X87870123Y-89541914D01*
X87869993Y-89541792D01*
X88847669Y-89541792D01*
X88850999Y-89549751D01*
X88860384Y-89560513D01*
X88862598Y-89562871D01*
X88875158Y-89575256D01*
X88887640Y-89582914D01*
X88903927Y-89585960D01*
X88927900Y-89584512D01*
X88963443Y-89578688D01*
X89014438Y-89568604D01*
X89019370Y-89567603D01*
X89060396Y-89558455D01*
X89107398Y-89546687D01*
X89156741Y-89533374D01*
X89204793Y-89519590D01*
X89247919Y-89506410D01*
X89282485Y-89494909D01*
X89304859Y-89486161D01*
X89311406Y-89481241D01*
X89311398Y-89481234D01*
X89300540Y-89481192D01*
X89274731Y-89484240D01*
X89238757Y-89489770D01*
X89223435Y-89492392D01*
X89179636Y-89499056D01*
X89123173Y-89506162D01*
X89061417Y-89512848D01*
X89003253Y-89518133D01*
X88941417Y-89523179D01*
X88897267Y-89527329D01*
X88868477Y-89531320D01*
X88852719Y-89535895D01*
X88847669Y-89541792D01*
X87869993Y-89541792D01*
X87800487Y-89476567D01*
X87742197Y-89396088D01*
X87695928Y-89301614D01*
X87662349Y-89194284D01*
X87642134Y-89075236D01*
X87641317Y-89067307D01*
X87634253Y-89024136D01*
X87621847Y-88972945D01*
X87606660Y-88924170D01*
X87605179Y-88920079D01*
X87565882Y-88799128D01*
X87560826Y-88779526D01*
X87756464Y-88779526D01*
X87760844Y-88851336D01*
X87765281Y-88895065D01*
X87774317Y-88930917D01*
X87790842Y-88968429D01*
X87803426Y-88991889D01*
X87888855Y-89130070D01*
X87981609Y-89250106D01*
X88082325Y-89352786D01*
X88124447Y-89388741D01*
X88184684Y-89437540D01*
X88249941Y-89431318D01*
X88283933Y-89427561D01*
X88309013Y-89423824D01*
X88319381Y-89421065D01*
X88321532Y-89418362D01*
X88319616Y-89414798D01*
X88310476Y-89408137D01*
X88290958Y-89396146D01*
X88257903Y-89376588D01*
X88249941Y-89371897D01*
X88140216Y-89297962D01*
X88041691Y-89211508D01*
X87952763Y-89110746D01*
X87871828Y-88993886D01*
X87806366Y-88877142D01*
X87756464Y-88779526D01*
X87560826Y-88779526D01*
X87530168Y-88660671D01*
X87498519Y-88507038D01*
X87471418Y-88340562D01*
X87450271Y-88172135D01*
X87445658Y-88119569D01*
X87441788Y-88055612D01*
X87438681Y-87983310D01*
X87436360Y-87905708D01*
X87434845Y-87825852D01*
X87434158Y-87746788D01*
X87434320Y-87671562D01*
X87435352Y-87603219D01*
X87437276Y-87544806D01*
X87440113Y-87499367D01*
X87443885Y-87469949D01*
X87445314Y-87464348D01*
X87450848Y-87449161D01*
X87453923Y-87448391D01*
X87455402Y-87464069D01*
X87456013Y-87489447D01*
X87459272Y-87569211D01*
X87466297Y-87663932D01*
X87476494Y-87768968D01*
X87489270Y-87879675D01*
X87504030Y-87991411D01*
X87520181Y-88099534D01*
X87537129Y-88199399D01*
X87554281Y-88286365D01*
X87562585Y-88322886D01*
X87577925Y-88384030D01*
X87594183Y-88444333D01*
X87610431Y-88500813D01*
X87625742Y-88550483D01*
X87639185Y-88590360D01*
X87649833Y-88617459D01*
X87656756Y-88628795D01*
X87657778Y-88628829D01*
X87666999Y-88612577D01*
X87671609Y-88580652D01*
X87671614Y-88536920D01*
X87667021Y-88485250D01*
X87657838Y-88429507D01*
X87657392Y-88427326D01*
X87642849Y-88352500D01*
X87631032Y-88280880D01*
X87621660Y-88209058D01*
X87614455Y-88133627D01*
X87609137Y-88051177D01*
X87605426Y-87958301D01*
X87603042Y-87851588D01*
X87601875Y-87750475D01*
X87600310Y-87554956D01*
X87658100Y-87554956D01*
X87659065Y-87593967D01*
X87661056Y-87642540D01*
X87663900Y-87697191D01*
X87667423Y-87754434D01*
X87671448Y-87810784D01*
X87675802Y-87862755D01*
X87678567Y-87891028D01*
X87684144Y-87938152D01*
X87691554Y-87992187D01*
X87700138Y-88049193D01*
X87709237Y-88105228D01*
X87718191Y-88156349D01*
X87726341Y-88198616D01*
X87733029Y-88228086D01*
X87736894Y-88239820D01*
X87742315Y-88235742D01*
X87752257Y-88215633D01*
X87765364Y-88182660D01*
X87780276Y-88139990D01*
X87782110Y-88134405D01*
X87804697Y-88067050D01*
X87824895Y-88010489D01*
X87841941Y-87966646D01*
X87855070Y-87937443D01*
X87863519Y-87924805D01*
X87865386Y-87924786D01*
X87865048Y-87935656D01*
X87861049Y-87962247D01*
X87854051Y-88000672D01*
X87844717Y-88047042D01*
X87843777Y-88051514D01*
X87830958Y-88114810D01*
X87817305Y-88186433D01*
X87804804Y-88255785D01*
X87798372Y-88293791D01*
X87778827Y-88413591D01*
X87809335Y-88501183D01*
X87834863Y-88568352D01*
X87866430Y-88642006D01*
X87901376Y-88716616D01*
X87937045Y-88786649D01*
X87970777Y-88846572D01*
X87989609Y-88876304D01*
X88037483Y-88939710D01*
X88095581Y-89005028D01*
X88157813Y-89065937D01*
X88218094Y-89116117D01*
X88226446Y-89122224D01*
X88256831Y-89142204D01*
X88294249Y-89164218D01*
X88334690Y-89186237D01*
X88374144Y-89206235D01*
X88408603Y-89222183D01*
X88434055Y-89232054D01*
X88446493Y-89233821D01*
X88446737Y-89233626D01*
X88444889Y-89223188D01*
X88436208Y-89199359D01*
X88422460Y-89166890D01*
X88419405Y-89160103D01*
X88389765Y-89091892D01*
X88356422Y-89010243D01*
X88321559Y-88920917D01*
X88287359Y-88829672D01*
X88256006Y-88742268D01*
X88229680Y-88664465D01*
X88220005Y-88633953D01*
X88203274Y-88578029D01*
X88185222Y-88514822D01*
X88166662Y-88447489D01*
X88148406Y-88379185D01*
X88131266Y-88313066D01*
X88116055Y-88252286D01*
X88103585Y-88200002D01*
X88094669Y-88159370D01*
X88090118Y-88133544D01*
X88089705Y-88127821D01*
X88093366Y-88131668D01*
X88103576Y-88152189D01*
X88119474Y-88187399D01*
X88140196Y-88235311D01*
X88164879Y-88293941D01*
X88192659Y-88361301D01*
X88213688Y-88413083D01*
X88257776Y-88521436D01*
X88296540Y-88614463D01*
X88331616Y-88695671D01*
X88364643Y-88768567D01*
X88397257Y-88836659D01*
X88431096Y-88903454D01*
X88467797Y-88972459D01*
X88508999Y-89047181D01*
X88513450Y-89055140D01*
X88553493Y-89126135D01*
X88585433Y-89181301D01*
X88610597Y-89222534D01*
X88630313Y-89251731D01*
X88645908Y-89270788D01*
X88658710Y-89281604D01*
X88670047Y-89286074D01*
X88675397Y-89286522D01*
X88693593Y-89281174D01*
X88723575Y-89266741D01*
X88760669Y-89245636D01*
X88788551Y-89228063D01*
X88829474Y-89199906D01*
X88880156Y-89163100D01*
X88934935Y-89121858D01*
X88988148Y-89080393D01*
X89002989Y-89068516D01*
X89012612Y-89060633D01*
X89595238Y-89060633D01*
X89600257Y-89065653D01*
X89605277Y-89060633D01*
X89600257Y-89055613D01*
X89595238Y-89060633D01*
X89012612Y-89060633D01*
X89022974Y-89052145D01*
X89615317Y-89052145D01*
X89622991Y-89050243D01*
X89645931Y-89035534D01*
X89684011Y-89008106D01*
X89737107Y-88968046D01*
X89764033Y-88947337D01*
X89797843Y-88920481D01*
X89824148Y-88898167D01*
X89839858Y-88883107D01*
X89842794Y-88878163D01*
X89833951Y-88882416D01*
X89812924Y-88896606D01*
X89783177Y-88918082D01*
X89748171Y-88944196D01*
X89711370Y-88972300D01*
X89676236Y-88999746D01*
X89646232Y-89023885D01*
X89624822Y-89042068D01*
X89615467Y-89051647D01*
X89615317Y-89052145D01*
X89022974Y-89052145D01*
X89046201Y-89033119D01*
X89093645Y-88993302D01*
X89143022Y-88951099D01*
X89192033Y-88908547D01*
X89238379Y-88867681D01*
X89279763Y-88830537D01*
X89313884Y-88799151D01*
X89338444Y-88775558D01*
X89351145Y-88761794D01*
X89352293Y-88759191D01*
X89342251Y-88754791D01*
X89317082Y-88744955D01*
X89280530Y-88731119D01*
X89236337Y-88714716D01*
X89234079Y-88713885D01*
X89000246Y-88617659D01*
X88774522Y-88504228D01*
X88558262Y-88374596D01*
X88352822Y-88229764D01*
X88159558Y-88070735D01*
X87979825Y-87898509D01*
X87814979Y-87714090D01*
X87723310Y-87597372D01*
X87697959Y-87564100D01*
X87677050Y-87537929D01*
X87663436Y-87522361D01*
X87659952Y-87519566D01*
X87658338Y-87528994D01*
X87658100Y-87554956D01*
X87600310Y-87554956D01*
X87599263Y-87424190D01*
X87532137Y-87313755D01*
X87409614Y-87093020D01*
X87305006Y-86863400D01*
X87218274Y-86624785D01*
X87149383Y-86377064D01*
X87098295Y-86120124D01*
X87074074Y-85943360D01*
X87069394Y-85887450D01*
X87065923Y-85816085D01*
X87063662Y-85733853D01*
X87062611Y-85645343D01*
X87062770Y-85555142D01*
X87064139Y-85467838D01*
X87066718Y-85388019D01*
X87070507Y-85320274D01*
X87074074Y-85280751D01*
X87113469Y-85017095D01*
X87170930Y-84762193D01*
X87246476Y-84516003D01*
X87340126Y-84278476D01*
X87451897Y-84049568D01*
X87581810Y-83829234D01*
X87729882Y-83617427D01*
X87787111Y-83543913D01*
X87838221Y-83483023D01*
X87900479Y-83413573D01*
X87969662Y-83339922D01*
X88041548Y-83266432D01*
X88111915Y-83197463D01*
X88176540Y-83137376D01*
X88204763Y-83112556D01*
X88406679Y-82952277D01*
X88618979Y-82809032D01*
X88840903Y-82683151D01*
X89071689Y-82574966D01*
X89310575Y-82484810D01*
X89556800Y-82413014D01*
X89809602Y-82359910D01*
X89991799Y-82333835D01*
X90066512Y-82327075D01*
X90155570Y-82322082D01*
X90253761Y-82318896D01*
X90355874Y-82317557D01*
X90456697Y-82318107D01*
X90551019Y-82320584D01*
X90633628Y-82325030D01*
X90674487Y-82328564D01*
X90934481Y-82364969D01*
X91186394Y-82419731D01*
X91430439Y-82492937D01*
X91666830Y-82584676D01*
X91895782Y-82695037D01*
X92117508Y-82824107D01*
X92332222Y-82971976D01*
X92446463Y-83060589D01*
X92490285Y-83097702D01*
X92542555Y-83144734D01*
X92600226Y-83198680D01*
X92660251Y-83256536D01*
X92719584Y-83315294D01*
X92775179Y-83371951D01*
X92823989Y-83423500D01*
X92862968Y-83466936D01*
X92883182Y-83491431D01*
X92904422Y-83517891D01*
X92920755Y-83536627D01*
X92928360Y-83543399D01*
X92933913Y-83534841D01*
X92947348Y-83510423D01*
X92967570Y-83472244D01*
X92993484Y-83422406D01*
X93023997Y-83363006D01*
X93058011Y-83296147D01*
X93081248Y-83250146D01*
X93153294Y-83108593D01*
X93222583Y-82975358D01*
X93288514Y-82851480D01*
X93350487Y-82737997D01*
X93407901Y-82635948D01*
X93460157Y-82546372D01*
X93506654Y-82470308D01*
X93546791Y-82408795D01*
X93579969Y-82362872D01*
X93605586Y-82333578D01*
X93615668Y-82325296D01*
X93633102Y-82314953D01*
X93639354Y-82315025D01*
G37*
D13*
%TO.C,D3*%
X70820000Y-77217000D02*
X65310000Y-77217000D01*
X70820000Y-80517000D02*
X65310000Y-80517000D01*
X70820000Y-80517000D02*
X70820000Y-77217000D01*
%TO.C,R2*%
X64134276Y-83551500D02*
X64643724Y-83551500D01*
X64134276Y-84596500D02*
X64643724Y-84596500D01*
%TO.C,D14*%
X68716000Y-48237000D02*
X68716000Y-42427000D01*
X68716000Y-48237000D02*
X73016000Y-48237000D01*
X73016000Y-48237000D02*
X73016000Y-42427000D01*
%TO.C,Q4*%
X59534000Y-53220000D02*
X59534000Y-53910000D01*
X59534000Y-63620000D02*
X59534000Y-62930000D01*
X60899000Y-53220000D02*
X59534000Y-53220000D01*
X60899000Y-63620000D02*
X59534000Y-63620000D01*
X56709000Y-53950000D02*
X56369000Y-53480000D01*
X57049000Y-53480000D01*
X56709000Y-53950000D01*
G36*
X56709000Y-53950000D02*
G01*
X56369000Y-53480000D01*
X57049000Y-53480000D01*
X56709000Y-53950000D01*
G37*
%TD*%
M02*
